<svg width="19" height="14" viewBox="0 0 19 14" fill="none" xmlns="http://www.w3.org/2000/svg">
<path fill-rule="evenodd" clip-rule="evenodd" d="M2.73223 10.9602C3.70854 11.9365 5.29146 11.9365 6.26777 10.9602C7.24408 9.98385 7.24408 8.40093 6.26777 7.42462C5.29146 6.44831 3.70854 6.44831 2.73223 7.42462C1.75592 8.40093 1.75592 9.98385 2.73223 10.9602ZM1.31802 12.3744C3.07538 14.1317 5.92462 14.1317 7.68198 12.3744C9.43934 10.617 9.43934 7.76777 7.68198 6.01041C5.92462 4.25305 3.07538 4.25305 1.31802 6.01041C-0.43934 7.76777 -0.43934 10.617 1.31802 12.3744Z" fill="#00ABA1"/>
<path d="M7.32843 0L8.74264 1.41421L3.08579 7.07107L1.67158 5.65685L7.32843 0Z" fill="#00ABA1"/>
<path fill-rule="evenodd" clip-rule="evenodd" d="M12.7322 10.9602C13.7085 11.9365 15.2915 11.9365 16.2678 10.9602C17.2441 9.98385 17.2441 8.40093 16.2678 7.42462C15.2915 6.44831 13.7085 6.44831 12.7322 7.42462C11.7559 8.40093 11.7559 9.98385 12.7322 10.9602ZM11.318 12.3744C13.0754 14.1317 15.9246 14.1317 17.682 12.3744C19.4393 10.617 19.4393 7.76777 17.682 6.01041C15.9246 4.25305 13.0754 4.25305 11.318 6.01041C9.56066 7.76777 9.56066 10.617 11.318 12.3744Z" fill="#00ABA1"/>
<path d="M17.3284 0L18.7426 1.41421L13.0858 7.07107L11.6716 5.65685L17.3284 0Z" fill="#00ABA1"/>
</svg>
