<svg width="250" height="56" viewBox="0 0 250 56" fill="none" xmlns="http://www.w3.org/2000/svg">
<g clip-path="url(#clip0_20_4040)">
<path d="M140.64 26.64L127.14 10.35C126.12 9.14 125 9.34 124.52 10.86L122.7 16.73C122.24 18.2 122.42 19.92 123.89 21.35L135.55 32.68L140.64 31.19V26.64Z" fill="#F18A00"/>
<path d="M174.69 25.4001C176.16 24.8501 176.33 23.7301 175.02 22.8601L169.37 19.1201L152.49 32.7201C152.44 33.1401 152.35 33.5501 152.23 33.9401L174.68 25.4001H174.69Z" fill="#D2451E"/>
<path d="M169.37 19.12C168.24 18.35 166.77 18.36 165.2 19.21L151.1 26.85C152.04 28.12 152.56 29.75 152.56 31.56C152.56 31.96 152.53 32.35 152.48 32.72L169.36 19.12H169.37Z" fill="#F18A00"/>
<path d="M165.2 19.21C166.77 18.37 168.24 18.35 169.37 19.12L173.54 15.75C175.14 14.47 175.52 13.23 175.06 11.28L173.31 4.24995C172.94 2.75995 171.77 2.45995 170.71 3.57995L149.94 25.63C150.38 25.99 150.77 26.39 151.1 26.85L165.2 19.21Z" fill="#FBC400"/>
<path d="M155.93 9.46004C156.6 7.66004 156.26 6.24004 154.86 4.92004L150.27 0.610043C149.15 -0.449957 147.99 -0.0699571 147.71 1.43004L146.53 7.69004C147.85 8.42004 148.29 9.72004 148.19 11.35L147.31 24.36C148.31 24.59 149.21 25.03 149.96 25.64L155.95 9.47004L155.93 9.46004Z" fill="#D2451E"/>
<path d="M141.06 4.68996C139.69 3.93996 138.7 4.61996 138.85 6.14996L140.64 24.17H143.4L146.52 7.67996L141.06 4.69996V4.68996Z" fill="#FBC400"/>
<path d="M148.18 11.3399C148.28 9.70993 147.84 8.41993 146.52 7.67993L143.4 24.1699H145.69C146.25 24.1699 146.78 24.2299 147.29 24.3499L148.17 11.3399H148.18Z" fill="#F18A00"/>
<path d="M135.56 32.6799L121.31 36.8499C119.82 37.2899 119.55 38.4799 120.7 39.4999L125.04 43.3399C126.57 44.6699 127.95 44.8299 129.69 44.0099L140.64 38.8999V37.5999L135.55 32.6699L135.56 32.6799Z" fill="#F18A00"/>
<path d="M140.64 31.1899L135.56 32.6799L140.64 37.6099V31.1899Z" fill="#D2451E"/>
<path d="M142 38.9399L153.11 55.0299C153.99 56.2899 155.26 56.3299 156.06 54.8899L158.34 50.7799C159.34 48.9299 159.1 47.5899 157.84 46.2399L153.05 40.8299L141.99 38.9399H142Z" fill="#D2451E"/>
<path d="M153.06 40.8399L170.33 43.7999C172.36 44.1399 173.67 43.5999 174.88 42.1099L179.14 36.8999C180.11 35.7099 179.64 34.6999 178.09 34.6499L152.25 33.9399C151.85 35.3399 151.08 36.5399 150.04 37.4099L153.07 40.8299L153.06 40.8399Z" fill="#FBC400"/>
<path d="M150.02 37.4102C148.87 38.3702 147.39 38.9402 145.69 38.9402H141.99L153.05 40.8302L150.02 37.4102Z" fill="#F18A00"/>
<path d="M100.92 6.16992V29.4599H104.9V24.4699C105.03 24.3299 106.6 22.6099 107.02 22.1399L111.37 29.4699H116.04L109.65 19.2599L115.79 12.5299H110.89L104.91 19.3299V6.16992H100.93H100.92Z" fill="white"/>
<path d="M72.8101 33.6098C75.0601 33.6098 76.8801 32.9298 78.2101 31.5998C79.5401 30.2698 80.2101 28.3498 80.2101 26.2398V12.5198H76.5301C76.5301 12.5198 76.3501 13.2898 76.3501 13.7898C75.2701 12.7998 73.9301 12.3098 72.3101 12.3098C70.5301 12.3098 69.1201 12.8198 68.1001 13.8198C66.8001 15.0998 66.1401 16.7198 66.1401 19.9898C66.1401 23.2598 66.8001 24.8798 68.0901 26.1598C69.1301 27.1798 70.5301 27.6998 72.2601 27.6998C73.8501 27.6998 75.1701 27.1898 76.2201 26.2398C76.2201 26.8498 76.2201 26.7398 76.2201 26.7398C76.2201 27.8598 75.9501 28.7698 75.4101 29.4298C74.7901 30.1998 73.8901 30.5698 72.6601 30.5698C70.3001 30.5698 69.0601 29.0198 69.0601 29.0198L66.8301 31.2898C66.8301 31.2898 68.4501 33.5998 72.8001 33.5998L72.8101 33.6098ZM75.7201 22.6898C75.2501 23.6498 74.4301 24.1198 73.2001 24.1198C71.9701 24.1198 71.1501 23.6498 70.6801 22.6898C70.3101 21.9698 70.1301 21.5198 70.1301 19.9898C70.1301 18.4598 70.3101 17.9898 70.6801 17.2598C71.1501 16.3098 71.9701 15.8498 73.2001 15.8498C74.4301 15.8498 75.2501 16.3098 75.7201 17.2598C76.0601 17.9798 76.2401 18.4498 76.2401 19.9898C76.2401 21.5298 76.0601 21.9898 75.7201 22.6898Z" fill="white"/>
<path d="M56.4703 33.6098C58.7203 33.6098 60.5403 32.9298 61.8703 31.5998C63.2003 30.2698 63.8803 28.3498 63.8803 26.2398V12.5198H60.2003C60.2003 12.5198 60.0203 13.2898 60.0203 13.7898C58.9403 12.7998 57.6003 12.3098 55.9803 12.3098C54.2003 12.3098 52.7803 12.8198 51.7603 13.8198C50.4603 15.0998 49.8003 16.7198 49.8003 19.9898C49.8003 23.2598 50.4503 24.8798 51.7503 26.1598C52.7903 27.1798 54.1903 27.6998 55.9203 27.6998C57.5103 27.6998 58.8203 27.1898 59.8803 26.2398C59.8803 26.8498 59.8803 26.7398 59.8803 26.7398C59.8803 27.8598 59.6103 28.7698 59.0703 29.4298C58.4503 30.1998 57.5503 30.5698 56.3203 30.5698C53.9603 30.5698 52.7203 29.0198 52.7203 29.0198L50.4903 31.2898C50.4903 31.2898 52.1103 33.5998 56.4603 33.5998L56.4703 33.6098ZM59.3803 22.6898C58.9103 23.6498 58.0903 24.1198 56.8603 24.1198C55.6303 24.1198 54.8203 23.6498 54.3403 22.6898C53.9703 21.9698 53.7903 21.5198 53.7903 19.9898C53.7903 18.4598 53.9703 17.9898 54.3403 17.2598C54.8103 16.3098 55.6303 15.8498 56.8603 15.8498C58.0903 15.8498 58.9103 16.3098 59.3803 17.2598C59.7203 17.9798 59.9003 18.4498 59.9003 19.9898C59.9003 21.5298 59.7303 21.9898 59.3803 22.6898Z" fill="white"/>
<path d="M93.62 12.52V22.77C93.62 23.88 93.33 24.73 92.76 25.27C92.17 25.83 91.44 26.1 90.52 26.1C89.6 26.1 88.93 25.84 88.4 25.32C87.81 24.74 87.52 23.88 87.52 22.76V12.51H83.54V23.23C83.54 25.3 84.13 26.93 85.29 28.06C86.36 29.1 87.8 29.63 89.57 29.63C91.18 29.63 92.53 29.09 93.63 28.15C93.63 28.61 93.8 29.44 93.8 29.44H97.61V12.52H93.63H93.62Z" fill="white"/>
<path d="M41.4702 12.3098C39.8602 12.3098 38.5002 12.8398 37.3702 13.7898C37.3702 13.3298 37.2002 12.5198 37.2002 12.5198H33.4702V29.4498H37.3702V19.1798C37.3702 18.0698 37.6802 17.2098 38.2902 16.6298C38.8502 16.0998 39.5802 15.8498 40.5102 15.8498C41.4402 15.8498 42.1402 16.0998 42.6502 16.6198C43.2502 17.1898 43.5502 18.0398 43.5502 19.1798V29.4498H47.5302V18.6998C47.5302 16.6298 46.9402 14.9998 45.7702 13.8798C44.6902 12.8398 43.2402 12.3098 41.4702 12.3098Z" fill="white"/>
<path d="M0.630117 44.4298V35.8098H2.27012V44.3298C2.30012 47.5398 3.98012 49.3298 6.81012 49.3298C9.64012 49.3298 11.2601 47.6798 11.2801 44.4398V35.8198H12.9201V44.3198C12.9201 48.6398 10.4501 50.8898 6.76012 50.8898C3.07012 50.8898 0.620117 48.6398 0.620117 44.4498L0.630117 44.4298Z" fill="white"/>
<path d="M28.3303 35.8098V50.6298H27.0203L17.7103 38.5098V50.6298H16.0703V35.8098H17.6103L26.6903 47.6398V35.8098H28.3203H28.3303Z" fill="white"/>
<path d="M31.6602 35.8098H33.3002V50.6298H31.6602V35.8098Z" fill="white"/>
<path d="M89.4302 35.8098H91.0702V50.6298H89.4302V35.8098Z" fill="white"/>
<path d="M34.7402 35.8098H36.5602L41.7202 48.4998L46.8902 35.8098H48.6502L42.4202 50.6298H40.9702L34.7402 35.8098Z" fill="white"/>
<path d="M50.0703 35.8098H60.6903V37.3598H51.7103V42.3998H59.6103V43.9498H51.7103V49.0898H60.6903V50.6198H50.0703V35.7998V35.8098Z" fill="white"/>
<path d="M85.23 46.7899C85.23 45.4199 84.51 44.6299 81.46 43.9699C78.13 43.2299 76.6 42.1299 76.6 39.6899C76.6 39.6899 76.48 35.5999 81.37 35.5999C83.48 35.5999 84.99 36.2099 86.46 37.4199L85.51 38.7099C84.17 37.5799 82.82 37.1399 81.33 37.1399C78.1 37.1399 78.24 39.5299 78.24 39.5299C78.24 40.9299 78.98 41.7199 82.17 42.4099C85.4 43.1299 86.89 44.3399 86.89 46.6099C86.89 46.6099 87.12 50.8699 81.94 50.8699C79.64 50.8699 77.76 50.0699 76.02 48.4799L77.03 47.2499C78.54 48.6399 79.99 49.3199 81.99 49.3199C85.37 49.3199 85.22 46.7799 85.22 46.7799L85.23 46.7899Z" fill="white"/>
<path d="M97.4203 37.3598H92.8203V35.8098H103.68V37.3598H99.0803V50.6298H97.4303V37.3598H97.4203Z" fill="white"/>
<path d="M108.96 44.7698L103.56 35.8098H105.55L109.81 43.2298L114.12 35.8098H116.03L110.62 44.7598V50.6298H108.96V44.7698Z" fill="white"/>
<path d="M72.9202 50.6198H74.8702L71.2102 44.1098C73.1202 43.6798 74.4502 42.4098 74.4502 40.0698C74.4502 37.1298 72.3702 35.8098 69.6802 35.8098H63.4102V50.6298H65.0502V44.2798H69.4702L72.9302 50.6298L72.9202 50.6198ZM65.0502 37.3498H69.6702C71.7102 37.3498 72.8102 38.2698 72.8102 40.0598C72.8102 41.8498 71.7102 42.7198 69.6702 42.7198H65.0502V37.3498Z" fill="white"/>
<path d="M23.9405 12.3098C21.8305 12.3098 20.0804 13.0098 18.7304 14.3698C17.3904 15.7398 16.7104 17.9498 16.7104 20.9598C16.7104 23.9698 17.3904 26.2198 18.7304 27.5898C20.0804 28.9498 21.8305 29.6498 23.9405 29.6498C26.0505 29.6498 27.8405 28.9498 29.1805 27.5898C30.5205 26.2198 31.2104 23.9998 31.2104 20.9598C31.2104 17.9198 30.5305 15.7398 29.1805 14.3698C27.8405 13.0098 26.0805 12.3098 23.9405 12.3098ZM26.1705 25.2298C25.5705 25.8198 24.8405 26.1098 23.9405 26.1098C23.0405 26.1098 22.3404 25.8198 21.7404 25.2298C21.0404 24.5398 20.6905 23.0998 20.6905 20.9598C20.6905 18.8198 21.0404 17.3798 21.7404 16.6998C22.3204 16.1298 23.0305 15.8598 23.9405 15.8598C24.8505 15.8598 25.5905 16.1398 26.1705 16.6998C26.8705 17.3898 27.2204 18.8198 27.2204 20.9598C27.2204 23.0998 26.8705 24.5398 26.1705 25.2298Z" fill="white"/>
<path d="M10.4502 13.7899C9.40023 12.8599 7.84023 12.3099 6.20023 12.3099C4.42023 12.3099 2.99023 12.8299 1.95023 13.8499C0.630234 15.1499 -0.00976562 17.4699 -0.00976562 20.9599C-0.00976562 24.4499 0.630234 26.8099 1.93023 28.0999C2.96023 29.1199 4.39023 29.6399 6.19023 29.6399C7.81023 29.6399 9.37023 29.1399 10.4502 28.1599C10.4502 28.6499 10.6302 29.4499 10.6302 29.4499H14.4302V6.16992H10.4502V13.7899ZM9.45023 25.2299C8.85023 25.8199 8.12023 26.1099 7.22023 26.1099C6.32023 26.1099 5.62023 25.8199 5.02023 25.2299C4.32023 24.5399 3.97023 23.0999 3.97023 20.9599C3.97023 18.8199 4.32023 17.3799 5.02023 16.6999C5.60023 16.1299 6.32023 15.8599 7.22023 15.8599C8.12023 15.8599 8.87023 16.1399 9.45023 16.6999C10.1502 17.3899 10.5002 18.8199 10.5002 20.9599C10.5002 23.0999 10.1502 24.5399 9.45023 25.2299Z" fill="white"/>
<path d="M192.67 37.3901L188.21 18.5901H192.76L194.18 26.3201C194.6 28.5801 194.99 31.0101 195.3 32.9301H195.36C195.67 30.8701 196.11 28.6101 196.59 26.2601L198.18 18.5901H202.7L204.21 26.5101C204.63 28.7101 204.94 30.7201 205.21 32.8101H205.27C205.55 30.7201 205.97 28.5101 206.36 26.2501L207.89 18.5801H212.21L207.36 37.3801H202.76L201.17 29.2901C200.81 27.3901 200.5 25.6401 200.28 23.4901H200.22C199.89 25.6101 199.58 27.3901 199.13 29.3201L197.34 37.3801H192.68L192.67 37.3901Z" fill="white"/>
<path d="M218.66 18.5901V37.3901H214.42V18.5901H218.66Z" fill="white"/>
<path d="M222.48 33.0101C223.6 33.6001 225.38 34.1801 227.19 34.1801C229.14 34.1801 230.17 33.3701 230.17 32.1401C230.17 30.9101 229.28 30.3001 227.02 29.5201C223.9 28.4001 221.83 26.6701 221.83 23.9401C221.83 20.7301 224.54 18.3101 228.94 18.3101C231.09 18.3101 232.62 18.7301 233.74 19.2601L232.79 22.6601C232.07 22.3001 230.7 21.7701 228.89 21.7701C227.08 21.7701 226.16 22.6301 226.16 23.5801C226.16 24.7801 227.19 25.3101 229.65 26.2301C232.97 27.4601 234.5 29.1901 234.5 31.8401C234.5 34.9901 232.1 37.6701 226.94 37.6701C224.79 37.6701 222.67 37.0801 221.61 36.5001L222.47 33.0101H222.48Z" fill="white"/>
<path d="M248.58 29.4401H241.66V33.9001H249.39V37.3901H237.42V18.5901H249V22.0801H241.66V25.9901H248.58V29.4501V29.4401Z" fill="white"/>
</g>
<defs>
<clipPath id="clip0_20_4040">
<rect width="249.39" height="55.98" fill="white"/>
</clipPath>
</defs>
</svg>
