<svg width="294" height="86" viewBox="0 0 294 86" fill="none" xmlns="http://www.w3.org/2000/svg">
<g clip-path="url(#clip0_29_1857)">
<path d="M20.5766 21.3224C18.6476 22.4208 16.2685 22.8053 13.9078 22.2011C9.18629 21.002 6.32034 16.3152 7.49611 11.7474C8.67189 7.17053 13.4485 4.44268 18.17 5.65099C22.8088 6.83183 24.9307 10.292 23.6538 14.2464" stroke="white" stroke-width="0.5"/>
<path d="M24.1774 12.6536C24.0121 12.4613 24.2968 15.6835 21.6513 17.1847C20.2 18.0177 19.5662 18.3198 18.8038 18.5303C17.3708 18.9514 16.1858 19.1619 15.2673 19.1619C13.6597 19.1619 12.5115 18.8599 11.8042 18.2466C11.0877 17.6699 10.7295 16.7453 10.7295 15.4638C10.7295 14.6399 10.8673 13.8619 11.1429 13.1204C11.4001 12.3698 11.8226 11.6649 12.4013 10.9967C13.0167 10.2003 13.7332 9.62364 14.5599 9.26664C15.3591 8.90964 16.3144 8.72656 17.4075 8.72656C18.5925 8.72656 19.5662 8.94625 20.3286 9.37649C21.0635 9.79756 21.4309 10.301 21.4309 10.896C21.4309 11.4086 21.1461 11.9304 20.5858 12.4613C20.0071 13.0197 19.1345 13.5964 17.9679 14.1914C17.2146 14.6308 16.4063 14.9878 15.5336 15.2624C14.7988 15.5096 14.2476 15.6377 13.8894 15.6377C13.6138 15.6377 13.4485 15.5919 13.375 15.5004C13.3382 15.4272 13.3199 15.2258 13.3199 14.9146C13.3199 14.8413 13.522 14.6949 13.9353 14.4935C14.1925 14.3745 14.6977 14.1365 15.451 13.7886C16.838 13.1936 17.8117 12.7543 18.372 12.4522C19.3641 11.9213 19.8601 11.5185 19.8601 11.2347C19.8601 10.8777 19.658 10.6031 19.2447 10.42C18.8313 10.2369 18.2159 10.1363 17.3983 10.1363C16.489 10.1363 15.7174 10.2644 15.0652 10.5299C14.413 10.777 13.8802 11.1798 13.4485 11.7199C13.0351 12.2142 12.732 12.7726 12.5299 13.3767C12.3462 13.9992 12.2451 14.6674 12.2451 15.3906C12.2451 16.1137 12.4472 16.7087 12.8606 17.0932C13.3015 17.5326 13.9904 17.7523 14.909 17.7523C15.8276 17.7523 16.7462 17.8438 17.6923 17.5143C17.6923 17.5143 22.8455 16.8918 24.0856 12.6353" fill="white"/>
<path d="M35.6596 12.3882H32.6926V18.146C32.6926 18.7318 32.7937 19.162 32.9866 19.4367C33.1795 19.7113 33.5561 19.8486 34.1164 19.8486C34.3828 19.8486 34.64 19.8303 34.888 19.7845C35.136 19.7387 35.3657 19.693 35.5678 19.6289V21.3681C35.2371 21.5054 34.8237 21.6061 34.3461 21.6702C33.8592 21.7343 33.3816 21.7617 32.9131 21.7617C31.8843 21.7617 31.0668 21.4322 30.4697 20.7731C29.8726 20.114 29.5695 19.1712 29.5695 17.9354V12.3699H28.2375V10.7863L29.6797 10.7222L30.7453 6.99658H32.6926V10.7039H35.6596V12.3974V12.3882Z" fill="white"/>
<path d="M44.5697 19.2994C44.092 19.8028 43.5225 20.0591 42.8612 20.0591C42.1263 20.0591 41.5384 19.8028 41.1067 19.2811C40.6749 18.7593 40.4545 17.7066 40.4545 16.1321V15.9674C40.4545 14.5302 40.6749 13.5141 41.125 12.9191C41.5751 12.3333 42.1538 12.0312 42.8612 12.0312C43.5685 12.0312 44.1104 12.3058 44.5789 12.8642C45.0474 13.4134 45.2862 14.4478 45.2862 15.9674V16.1321C45.2862 17.7341 45.0474 18.7959 44.5697 19.2994ZM48.492 15.6927C48.492 14.0542 47.996 12.7269 46.9947 11.7108C45.9935 10.6947 44.6156 10.1821 42.8612 10.1821C41.1067 10.1821 39.738 10.6947 38.7276 11.7017C37.7171 12.7177 37.2119 14.0451 37.2119 15.6927V16.4067C37.2119 18.0911 37.7263 19.4367 38.7459 20.4253C39.7656 21.4139 41.1434 21.9174 42.8795 21.9174C44.6156 21.9174 45.9935 21.4322 46.9947 20.4619C47.996 19.4916 48.492 18.1368 48.492 16.4067V15.6927Z" fill="white"/>
<path d="M57.3289 19.4458C56.888 19.9127 56.4379 20.1507 55.9786 20.1507C55.455 20.1507 55.0233 20.0317 54.6742 19.7937C54.3252 19.5557 54.1231 19.3085 54.0772 19.0614V13.6423C54.2517 13.3494 54.5364 13.0839 54.9223 12.8276C55.3172 12.5713 55.7306 12.4523 56.1715 12.4523C56.7318 12.4523 57.1728 12.672 57.5034 13.1205C57.8249 13.5691 57.9903 14.3929 57.9903 15.5921V16.3335C57.9903 17.9354 57.7698 18.979 57.3289 19.4458ZM61.242 15.1893C61.242 13.4043 60.8654 12.1319 60.103 11.3813C59.3498 10.6307 58.4496 10.2554 57.4208 10.2554C56.6675 10.2554 55.9786 10.4293 55.3448 10.768C54.711 11.1067 54.2701 11.5644 54.022 12.1319L53.9577 10.4751H50.9448V25.0114H54.068V21.0844C54.3895 21.359 54.7753 21.5512 55.2438 21.6519C55.703 21.7526 56.1348 21.8075 56.5206 21.8075C58.0087 21.8075 59.1661 21.3498 59.9928 20.4253C60.8195 19.5008 61.242 18.1918 61.242 16.4983V15.1984V15.1893Z" fill="white"/>
<path d="M66.7717 7.97606C66.7717 8.44291 66.6156 8.83653 66.2941 9.15691C65.9726 9.47729 65.5868 9.63291 65.1367 9.63291C64.6866 9.63291 64.3008 9.47729 63.9793 9.15691C63.6578 8.83653 63.4924 8.44291 63.4924 7.97606C63.4924 7.50922 63.6578 7.13391 63.9793 6.82268C64.3008 6.5023 64.6866 6.34668 65.1367 6.34668C65.5868 6.34668 65.9818 6.5023 66.2941 6.82268C66.6156 7.13391 66.7717 7.52753 66.7717 7.97606ZM66.7074 21.6702H63.5843V10.4659H66.7074V21.6702Z" fill="white"/>
<path d="M78.897 21.6702H75.9668L75.9117 20.2056C75.6728 20.6724 75.2687 21.0569 74.6992 21.3498C74.1296 21.6519 73.4775 21.7984 72.715 21.7984C71.475 21.7984 70.5288 21.4871 69.895 20.8647C69.2612 20.2422 68.9397 19.2994 68.9397 18.0361V17.8439C68.9397 16.5898 69.3622 15.6287 70.2165 14.9513C71.0708 14.2739 72.2098 13.9352 73.652 13.9352C74.0837 13.9352 74.5154 13.9993 74.938 14.1274C75.3605 14.2556 75.6729 14.4112 75.8658 14.5943V13.4867C75.8658 13.1022 75.6912 12.7727 75.3422 12.5072C74.9931 12.2418 74.4971 12.1044 73.8541 12.1044C73.1651 12.1044 72.5497 12.1777 72.0077 12.3333C71.4658 12.4889 70.9973 12.672 70.6023 12.9008V11.006C71.1167 10.8046 71.6954 10.6307 72.3292 10.4751C72.9631 10.3286 73.7347 10.2554 74.644 10.2554C76.0954 10.2554 77.1701 10.5849 77.8682 11.2348C78.5572 11.8848 78.9062 12.9283 78.9062 14.3654V21.6794L78.897 21.6702ZM75.8841 17.9171V17.6151C75.8841 16.9377 75.728 16.4251 75.4065 16.0681C75.085 15.7111 74.6165 15.5371 73.9919 15.5371C73.4132 15.5371 72.9447 15.7019 72.6048 16.0406C72.2649 16.3793 72.0904 16.9102 72.0904 17.6334V17.9354C72.0904 18.6952 72.2649 19.1987 72.6324 19.455C72.9906 19.7113 73.4499 19.8394 74.0102 19.8394C74.4879 19.8394 74.9196 19.6838 75.3054 19.3726C75.6912 19.0614 75.8841 18.5762 75.8841 17.9171Z" fill="white"/>
<path d="M102.541 10.4658L97.9573 21.6701H96.0283L93.8145 15.9307L91.4538 21.6701H89.5156L85.1523 10.4658H88.2663L90.8383 17.139L93.4838 10.4658H94.9076L97.3786 17.3587L100.052 10.4658H102.541Z" fill="white"/>
<path d="M107.115 7.97606C107.115 8.44291 106.959 8.83653 106.638 9.15691C106.316 9.47729 105.931 9.63291 105.48 9.63291C105.03 9.63291 104.645 9.47729 104.323 9.15691C104.002 8.83653 103.836 8.44291 103.836 7.97606C103.836 7.50922 104.002 7.13391 104.323 6.82268C104.645 6.5023 105.03 6.34668 105.48 6.34668C105.931 6.34668 106.326 6.5023 106.638 6.82268C106.959 7.13391 107.115 7.52753 107.115 7.97606ZM107.051 21.6702H103.928V10.4659H107.051V21.6702Z" fill="white"/>
<path d="M116.219 12.3882H113.252V18.146C113.252 18.7318 113.343 19.162 113.546 19.4367C113.738 19.7113 114.115 19.8486 114.675 19.8486C114.942 19.8486 115.199 19.8303 115.447 19.7845C115.695 19.7387 115.925 19.693 116.127 19.6289V21.3681C115.796 21.5054 115.383 21.6061 114.905 21.6702C114.418 21.7343 113.94 21.7617 113.472 21.7617C112.443 21.7617 111.626 21.4322 111.029 20.7731C110.432 20.114 110.128 19.1712 110.128 17.9354V12.3699H108.806V10.7863L110.248 10.7222L111.313 6.99658H113.261V10.7039H116.228V12.3974L116.219 12.3882Z" fill="white"/>
<path d="M127.995 21.6703H124.872V13.8255C124.872 13.4776 124.771 13.1939 124.559 12.965C124.357 12.7362 124.036 12.6263 123.586 12.6263C123.136 12.6263 122.713 12.7179 122.318 12.8918C121.923 13.0749 121.602 13.3129 121.344 13.6149V21.6612H118.221V6.98755H121.344V12.1869C121.684 11.6926 122.18 11.2441 122.805 10.8505C123.43 10.4477 124.219 10.2555 125.166 10.2555C126.112 10.2555 126.81 10.5484 127.278 11.1342C127.747 11.7201 127.986 12.6172 127.986 13.8255V21.6795L127.995 21.6703Z" fill="white"/>
<path d="M152.263 21.6703H149.14V13.8255C149.14 13.5234 149.002 13.2488 148.727 13.0016C148.451 12.7545 148.121 12.6355 147.744 12.6355C147.239 12.6355 146.816 12.7453 146.467 12.9741C146.118 13.203 145.833 13.4868 145.622 13.8255V21.6795H142.499V13.8346C142.499 13.5142 142.37 13.2396 142.122 13.0016C141.874 12.7636 141.525 12.6446 141.084 12.6446C140.588 12.6446 140.166 12.7361 139.826 12.9192C139.486 13.1023 139.21 13.3403 138.981 13.6424V21.6886H135.858V10.466H138.861L138.917 12.2418C139.247 11.6285 139.725 11.1434 140.331 10.7864C140.947 10.4294 141.681 10.2463 142.554 10.2463C143.335 10.2463 143.95 10.4294 144.41 10.8047C144.869 11.18 145.209 11.6926 145.42 12.3517C145.815 11.537 146.32 10.9969 146.936 10.7131C147.551 10.4294 148.249 10.2738 149.058 10.2463C149.985 10.2188 150.748 10.5301 151.345 11.1983C151.951 11.8665 152.245 12.7178 152.245 13.7614V21.6703H152.263Z" fill="white"/>
<path d="M157.646 15.0613C157.683 13.9536 157.94 13.1664 158.4 12.6996C158.868 12.2327 159.392 11.9947 159.989 11.9947C160.668 11.9947 161.21 12.2327 161.633 12.7087C162.056 13.1847 162.294 13.9628 162.359 15.0613H157.646ZM165.261 15.6105C165.261 13.9994 164.811 12.6904 163.902 11.6926C162.992 10.6949 161.688 10.1914 159.989 10.1914C158.198 10.1914 156.838 10.7315 155.892 11.8025C154.955 12.8735 154.477 14.1825 154.477 15.7295V16.5259C154.477 18.2926 154.992 19.629 156.02 20.5536C157.049 21.4689 158.427 21.9358 160.163 21.9358C161.073 21.9358 161.863 21.8534 162.561 21.6978C163.259 21.5422 163.883 21.3042 164.462 20.9929V19.1164C163.801 19.4185 163.149 19.6473 162.524 19.7938C161.89 19.9403 161.284 20.0226 160.678 20.0226C159.777 20.0226 159.033 19.7755 158.473 19.2903C157.904 18.796 157.628 17.9264 157.628 16.6723H165.261V15.6379V15.6105Z" fill="white"/>
<path d="M173.538 19.3543C173.17 19.5923 172.766 19.7113 172.334 19.7113C171.691 19.7113 171.223 19.4733 170.92 19.0064C170.617 18.5396 170.46 17.7249 170.46 16.5715V15.7934C170.46 14.3471 170.653 13.3493 171.039 12.8093C171.425 12.2692 171.939 11.9946 172.582 11.9946C173.042 11.9946 173.418 12.0861 173.703 12.26C173.988 12.4431 174.199 12.6628 174.355 12.9283V18.503C174.181 18.8417 173.905 19.1254 173.538 19.3634V19.3543ZM177.478 6.97827H174.355V11.1341C174.024 10.8137 173.648 10.594 173.198 10.4933C172.748 10.3927 172.334 10.3377 171.949 10.3377C170.387 10.3377 169.202 10.8137 168.403 11.7566C167.604 12.6994 167.199 14.0176 167.199 15.7019V16.8736C167.199 18.7135 167.576 19.995 168.32 20.7273C169.073 21.4597 170.001 21.835 171.122 21.835C171.847 21.835 172.463 21.7068 172.95 21.4505C173.437 21.1942 173.914 20.7548 174.383 20.1415L174.456 21.6885H177.451V6.98743L177.478 6.97827Z" fill="white"/>
<path d="M183.495 7.97606C183.495 8.44291 183.339 8.83653 183.017 9.15691C182.696 9.47729 182.31 9.63291 181.86 9.63291C181.41 9.63291 181.024 9.47729 180.703 9.15691C180.381 8.83653 180.225 8.44291 180.225 7.97606C180.225 7.50922 180.381 7.13391 180.703 6.82268C181.024 6.5023 181.41 6.34668 181.86 6.34668C182.31 6.34668 182.705 6.5023 183.017 6.82268C183.339 7.13391 183.495 7.52753 183.495 7.97606ZM183.431 21.6702H180.308V10.4659H183.431V21.6702Z" fill="white"/>
<path d="M193.204 19.2994C192.727 19.8028 192.157 20.0591 191.496 20.0591C190.761 20.0591 190.173 19.8028 189.741 19.2811C189.31 18.7593 189.089 17.7066 189.089 16.1321V15.9674C189.089 14.5302 189.31 13.5141 189.76 12.9191C190.201 12.3333 190.779 12.0312 191.487 12.0312C192.194 12.0312 192.736 12.3058 193.204 12.8642C193.673 13.4134 193.903 14.4478 193.903 15.9674V16.1321C193.903 17.7341 193.664 18.7959 193.195 19.2994H193.204ZM197.127 15.6927C197.127 14.0542 196.631 12.7269 195.63 11.7108C194.628 10.6947 193.25 10.1821 191.496 10.1821C189.741 10.1821 188.373 10.6947 187.362 11.7017C186.352 12.7177 185.847 14.0451 185.847 15.6927V16.4067C185.847 18.0911 186.361 19.4367 187.381 20.4253C188.4 21.4139 189.778 21.9174 191.514 21.9174C193.25 21.9174 194.637 21.4322 195.63 20.4619C196.631 19.4916 197.127 18.1368 197.127 16.4067V15.6927Z" fill="white"/>
<path d="M205.963 19.4458C205.522 19.9127 205.072 20.1507 204.613 20.1507C204.089 20.1507 203.658 20.0317 203.309 19.7937C202.96 19.5557 202.757 19.3085 202.712 19.0614V13.6423C202.886 13.3494 203.171 13.0839 203.557 12.8276C203.952 12.5713 204.365 12.4523 204.806 12.4523C205.366 12.4523 205.807 12.672 206.138 13.1205C206.459 13.5691 206.625 14.3929 206.625 15.5921V16.3335C206.625 17.9354 206.404 18.979 205.963 19.4458ZM209.876 15.1893C209.876 13.4043 209.5 12.1319 208.747 11.3813C207.993 10.6307 207.093 10.2554 206.064 10.2554C205.311 10.2554 204.622 10.4293 203.988 10.768C203.355 11.1067 202.914 11.5644 202.666 12.1319L202.601 10.4751H199.588V25.0114H202.712V21.0844C203.033 21.359 203.419 21.5512 203.887 21.6519C204.347 21.7526 204.778 21.8075 205.164 21.8075C206.652 21.8075 207.81 21.3498 208.636 20.4253C209.463 19.5008 209.886 18.1918 209.886 16.4983V15.1984L209.876 15.1893Z" fill="white"/>
<path d="M215.406 7.97606C215.406 8.44291 215.25 8.83653 214.929 9.15691C214.607 9.47729 214.221 9.63291 213.771 9.63291C213.321 9.63291 212.935 9.47729 212.614 9.15691C212.292 8.83653 212.136 8.44291 212.136 7.97606C212.136 7.50922 212.292 7.13391 212.614 6.82268C212.935 6.5023 213.321 6.34668 213.771 6.34668C214.221 6.34668 214.607 6.5023 214.929 6.82268C215.25 7.13391 215.406 7.52753 215.406 7.97606ZM215.342 21.6702H212.219V10.4659H215.342V21.6702Z" fill="white"/>
<path d="M223.949 19.3819C223.563 19.6931 223.132 19.8487 222.654 19.8487C222.094 19.8487 221.634 19.7206 221.276 19.4643C220.918 19.208 220.734 18.7045 220.734 17.9447V17.6426C220.734 16.9195 220.909 16.3886 221.249 16.0499C221.588 15.7112 222.048 15.5464 222.636 15.5464C223.26 15.5464 223.729 15.7203 224.05 16.0773C224.372 16.4343 224.528 16.947 224.528 17.6243V17.9264C224.528 18.5946 224.335 19.0706 223.958 19.3819H223.949ZM227.532 14.3564C227.532 12.9284 227.183 11.8757 226.494 11.2258C225.795 10.5759 224.73 10.2463 223.269 10.2463C222.36 10.2463 221.588 10.3196 220.955 10.466C220.321 10.6125 219.742 10.7864 219.228 10.997V12.8918C219.623 12.663 220.091 12.4799 220.633 12.3243C221.175 12.1778 221.79 12.0954 222.479 12.0954C223.122 12.0954 223.618 12.2327 223.977 12.4982C224.326 12.7636 224.5 13.0932 224.5 13.4776V14.5853C224.307 14.4022 223.995 14.2374 223.573 14.1184C223.15 13.9903 222.718 13.9262 222.286 13.9262C220.854 13.9262 219.705 14.2649 218.851 14.9423C217.997 15.6196 217.574 16.59 217.574 17.8349V18.0271C217.574 19.2903 217.896 20.2332 218.53 20.8556C219.173 21.4781 220.109 21.7893 221.35 21.7893C222.103 21.7893 222.764 21.6429 223.334 21.3408C223.903 21.0387 224.307 20.6634 224.546 20.1966L224.601 21.6612H227.532V14.3473V14.3564Z" fill="white"/>
<path d="M45.5526 76.0077L44.9096 59.4758C44.9096 56.7846 44.8912 54.7158 44.8453 53.2604C44.634 45.9556 44.5238 42.111 44.5238 41.7265C43.0632 46.9808 41.3914 52.5555 39.5084 58.4506L34.2357 75.3028H26.584L21.9544 58.5787C20.4571 53.4068 19.1436 47.7955 18.0321 41.7265C17.729 47.704 17.435 53.6631 17.1319 59.604L16.3603 76.0077H7.29395L10.0589 32.8198H23.1118L27.3556 47.2371C28.8162 52.2351 30.0379 57.3796 31.0207 62.6797C32.4353 57.5078 33.8683 52.345 35.3289 47.1731L39.9585 32.8198H52.7542L55.1333 76.0077H45.5526Z" fill="white"/>
<path d="M86.8332 49.8002V57.8098H70.8868V67.9981H88.6979V76.0077H61.0488V32.8198H87.7977V40.8294H70.8868V49.8002H86.8332Z" fill="white"/>
<path d="M93.7778 75.8153V33.3963C97.5072 32.8013 101.926 32.4993 107.024 32.4993C111.222 32.4993 114.694 32.838 117.44 33.5245C120.187 34.211 122.667 35.3827 124.899 37.0487C127.131 38.7147 128.886 40.9117 130.172 43.6487C131.458 46.3857 132.101 49.6261 132.101 53.3883C132.101 57.3611 131.467 60.7847 130.209 63.6773C128.941 66.5607 127.196 68.9407 124.963 70.8173C122.731 72.6938 119.884 74.1035 116.412 75.0463C112.939 75.9892 109.1 76.456 104.902 76.456C102.541 76.456 100.483 76.4011 98.729 76.3004C96.9745 76.1906 95.321 76.035 93.7778 75.8153ZM103.616 40.3807V68.6387C103.827 68.6844 104.204 68.721 104.746 68.7668C105.278 68.8126 106.041 68.8309 107.024 68.8309C111.653 68.8309 115.208 67.6134 117.698 65.1785C120.352 62.6154 121.684 58.7891 121.684 53.7087C121.684 49.1776 120.481 45.7632 118.083 43.4564C115.686 41.1497 112.342 39.9963 108.052 39.9963C107.07 39.9963 106.188 40.042 105.416 40.1244C104.645 40.2068 104.047 40.2983 103.616 40.3807Z" fill="white"/>
<path d="M136.923 32.8198H146.761V76.0077H136.923V32.8198Z" fill="white"/>
<path d="M172.095 76.6483C165.794 76.6483 160.815 74.5796 157.15 70.442C153.485 66.3045 151.648 61.0593 151.648 54.6974C151.648 48.3355 153.586 42.7242 157.463 38.4768C161.339 34.2294 166.437 32.1057 172.729 32.1057C179.021 32.1057 184.303 34.2386 188.033 38.5043C191.551 42.5136 193.305 47.6581 193.305 53.9285C193.305 60.922 191.367 66.4601 187.491 70.5336C183.614 74.607 178.48 76.6483 172.086 76.6483H172.095ZM172.417 68.895C175.678 68.895 178.232 67.5311 180.105 64.8033C181.97 62.0754 182.898 58.5603 182.898 54.258C182.898 49.9557 181.998 46.7976 180.197 44.1522C178.268 41.2962 175.678 39.8682 172.417 39.8682C169.156 39.8682 166.648 41.2687 164.765 44.0606C162.882 46.8526 161.936 50.3127 161.936 54.4503C161.936 58.5878 162.882 62.1303 164.765 64.8399C166.648 67.5494 169.202 68.9042 172.417 68.9042V68.895Z" fill="white"/>
<path d="M198.137 76.0075L198.201 33.3963C199.827 33.0943 201.719 32.8746 203.86 32.719C206 32.5725 208.508 32.4993 211.383 32.4993C217.298 32.4993 221.717 33.6527 224.629 35.9594C226.043 37.067 227.164 38.5042 228 40.2526C228.836 42.001 229.258 43.905 229.258 45.9554C229.258 50.2669 227.926 53.6904 225.272 56.2077C221.974 59.2377 217.28 60.7572 211.19 60.7572L207.846 60.565V76.0075H198.137ZM207.846 40.1885V53.0039C208.535 53.1778 209.61 53.2602 211.08 53.2602C213.707 53.2602 215.774 52.6377 217.289 51.402C218.796 50.1662 219.549 48.4361 219.549 46.2117C219.549 44.1613 218.888 42.596 217.574 41.4975C216.26 40.4082 214.35 39.859 211.851 39.859C210.685 39.859 209.941 39.8681 209.619 39.8956C209.298 39.9139 208.701 40.0146 207.846 40.1885Z" fill="white"/>
<path d="M233.888 32.8198H243.726V76.0077H233.888V32.8198Z" fill="white"/>
<path d="M273.111 64.8583H260.701L257.615 76.0077H247.455L260.701 32.8198H273.561L287 76.0077H276.455L273.111 64.8583ZM262.116 57.5535H271.697L268.996 48.4271C268.656 47.2371 268.261 45.7634 267.811 44.0241C267.361 42.2757 267.03 40.9759 266.81 40.1337C266.47 41.2414 266.102 42.6236 265.717 44.2804C265.202 46.4133 264.862 47.7955 264.688 48.4271L262.116 57.5535Z" fill="white"/>
</g>
<defs>
<clipPath id="clip0_29_1857">
<rect width="280" height="71.5098" fill="white" transform="translate(7 5.13843)"/>
</clipPath>
</defs>
</svg>
