<svg width="305" height="79" viewBox="0 0 305 79" fill="none" xmlns="http://www.w3.org/2000/svg">
<g clip-path="url(#clip0_29_1823)">
<path d="M14.78 17.68C12.68 18.88 10.09 19.3 7.52 18.64C2.38 17.33 -0.740004 12.21 0.539996 7.22001C1.82 2.22001 7.02 -0.759986 12.16 0.560014C17.21 1.85001 19.52 5.63001 18.13 9.95001" stroke="#6EA91C" stroke-width="0.5"/>
<path d="M18.7001 8.20992C18.5201 7.99992 18.8301 11.5199 15.9501 13.1599C14.3701 14.0699 13.6801 14.3999 12.8501 14.6299C11.2901 15.0899 10.0001 15.3199 9.00006 15.3199C7.25006 15.3199 6.00006 14.9899 5.23006 14.3199C4.45006 13.6899 4.06006 12.6799 4.06006 11.2799C4.06006 10.3799 4.21006 9.52992 4.51006 8.71992C4.79006 7.89992 5.25006 7.12992 5.88006 6.39992C6.55006 5.52992 7.33006 4.89992 8.23006 4.50992C9.10006 4.11992 10.1401 3.91992 11.3301 3.91992C12.6201 3.91992 13.6801 4.15992 14.5101 4.62992C15.3101 5.08992 15.7101 5.63992 15.7101 6.28992C15.7101 6.84992 15.4001 7.41992 14.7901 7.99992C14.1601 8.60992 13.2101 9.23992 11.9401 9.88992C11.1201 10.3699 10.2401 10.7599 9.29006 11.0599C8.49006 11.3299 7.89006 11.4699 7.50006 11.4699C7.20006 11.4699 7.02006 11.4199 6.94006 11.3199C6.90006 11.2399 6.88006 11.0199 6.88006 10.6799C6.88006 10.5999 7.10006 10.4399 7.55006 10.2199C7.83006 10.0899 8.38006 9.82992 9.20006 9.44992C10.7101 8.79992 11.7701 8.31992 12.3801 7.98992C13.4601 7.40992 14.0001 6.96992 14.0001 6.65992C14.0001 6.26992 13.7801 5.96992 13.3301 5.76992C12.8801 5.56992 12.2101 5.45992 11.3201 5.45992C10.3301 5.45992 9.49006 5.59992 8.78006 5.88992C8.07006 6.15992 7.49006 6.59992 7.02006 7.18992C6.57006 7.72992 6.24006 8.33992 6.02006 8.99992C5.82006 9.67992 5.71006 10.4099 5.71006 11.1999C5.71006 11.9899 5.93006 12.6399 6.38006 13.0599C6.86006 13.5399 7.61006 13.7799 8.61006 13.7799C9.61006 13.7799 10.6101 13.8799 11.6401 13.5199C11.6401 13.5199 17.2501 12.8399 18.6001 8.18992" fill="#6EA91C"/>
<path d="M31.2001 7.92003H27.9701V14.21C27.9701 14.85 28.0801 15.32 28.2901 15.62C28.5001 15.92 28.9101 16.07 29.5201 16.07C29.8101 16.07 30.0901 16.05 30.3601 16C30.6301 15.95 30.8801 15.9 31.1001 15.83V17.73C30.7401 17.88 30.2901 17.99 29.7701 18.06C29.2401 18.13 28.7201 18.16 28.2101 18.16C27.0901 18.16 26.2001 17.8 25.5501 17.08C24.9001 16.36 24.5701 15.33 24.5701 13.98V7.90003H23.1201V6.17003L24.6901 6.10003L25.8501 2.03003H27.9701V6.08003H31.2001V7.93003V7.92003Z" fill="#6EA91C"/>
<path d="M40.8999 15.47C40.3799 16.02 39.7599 16.3 39.0399 16.3C38.2399 16.3 37.5999 16.02 37.1299 15.45C36.6599 14.88 36.4199 13.73 36.4199 12.01V11.83C36.4199 10.26 36.6599 9.15001 37.1499 8.50001C37.6399 7.86001 38.2699 7.53001 39.0399 7.53001C39.8099 7.53001 40.3999 7.83001 40.9099 8.44001C41.4199 9.04001 41.6799 10.17 41.6799 11.83V12.01C41.6799 13.76 41.4199 14.92 40.8999 15.47ZM45.1699 11.53C45.1699 9.74001 44.6299 8.29001 43.5399 7.18001C42.4499 6.07001 40.9499 5.51001 39.0399 5.51001C37.1299 5.51001 35.6399 6.07001 34.5399 7.17001C33.4399 8.28001 32.8899 9.73001 32.8899 11.53V12.31C32.8899 14.15 33.4499 15.62 34.5599 16.7C35.6699 17.78 37.1699 18.33 39.0599 18.33C40.9499 18.33 42.4499 17.8 43.5399 16.74C44.6299 15.68 45.1699 14.2 45.1699 12.31V11.53Z" fill="#6EA91C"/>
<path d="M54.7901 15.6301C54.3101 16.1401 53.8201 16.4001 53.3201 16.4001C52.7501 16.4001 52.2801 16.2701 51.9001 16.0101C51.5201 15.7501 51.3001 15.4801 51.2501 15.2101V9.29009C51.4401 8.97009 51.7501 8.68009 52.1701 8.40009C52.6001 8.12009 53.0501 7.99009 53.5301 7.99009C54.1401 7.99009 54.6201 8.23009 54.9801 8.72009C55.3301 9.21009 55.5101 10.1101 55.5101 11.4201V12.2301C55.5101 13.9801 55.2701 15.1201 54.7901 15.6301ZM59.0501 10.9801C59.0501 9.03009 58.6401 7.64009 57.8101 6.82009C56.9901 6.00009 56.0101 5.59009 54.8901 5.59009C54.0701 5.59009 53.3201 5.78009 52.6301 6.15009C51.9401 6.52009 51.4601 7.02009 51.1901 7.64009L51.1201 5.83009H47.8401V21.7101H51.2401V17.4201C51.5901 17.7201 52.0101 17.9301 52.5201 18.0401C53.0201 18.1501 53.4901 18.2101 53.9101 18.2101C55.5301 18.2101 56.7901 17.7101 57.6901 16.7001C58.5901 15.6901 59.0501 14.2601 59.0501 12.4101V10.9901V10.9801Z" fill="#6EA91C"/>
<path d="M65.07 3.10007C65.07 3.61007 64.9 4.04007 64.55 4.39007C64.2 4.74007 63.78 4.91007 63.29 4.91007C62.8 4.91007 62.38 4.74007 62.03 4.39007C61.68 4.04007 61.5 3.61007 61.5 3.10007C61.5 2.59007 61.68 2.18007 62.03 1.84007C62.38 1.49007 62.8 1.32007 63.29 1.32007C63.78 1.32007 64.21 1.49007 64.55 1.84007C64.9 2.18007 65.07 2.61007 65.07 3.10007ZM65 18.0601H61.6V5.82007H65V18.0601Z" fill="#6EA91C"/>
<path d="M78.2699 18.0601H75.0799L75.0199 16.4601C74.7599 16.9701 74.3199 17.3901 73.6999 17.7101C73.0799 18.0401 72.3699 18.2001 71.5399 18.2001C70.1899 18.2001 69.1599 17.8601 68.4699 17.1801C67.7799 16.5001 67.4299 15.4701 67.4299 14.0901V13.8801C67.4299 12.5101 67.8899 11.4601 68.8199 10.7201C69.7499 9.98009 70.9899 9.61009 72.5599 9.61009C73.0299 9.61009 73.4999 9.68009 73.9599 9.82009C74.4199 9.96009 74.7599 10.1301 74.9699 10.3301V9.12009C74.9699 8.70009 74.7799 8.34009 74.3999 8.05009C74.0199 7.76009 73.4799 7.61009 72.7799 7.61009C72.0299 7.61009 71.3599 7.69009 70.7699 7.86009C70.1799 8.03009 69.6699 8.23009 69.2399 8.48009V6.41009C69.7999 6.19009 70.4299 6.00009 71.1199 5.83009C71.8099 5.67009 72.6499 5.59009 73.6399 5.59009C75.2199 5.59009 76.3899 5.95009 77.1499 6.66009C77.8999 7.37009 78.2799 8.51009 78.2799 10.0801V18.0701L78.2699 18.0601ZM74.9899 13.9601V13.6301C74.9899 12.8901 74.8199 12.3301 74.4699 11.9401C74.1199 11.5501 73.6099 11.3601 72.9299 11.3601C72.2999 11.3601 71.7899 11.5401 71.4199 11.9101C71.0499 12.2801 70.8599 12.8601 70.8599 13.6501V13.9801C70.8599 14.8101 71.0499 15.3601 71.4499 15.6401C71.8399 15.9201 72.3399 16.0601 72.9499 16.0601C73.4699 16.0601 73.9399 15.8901 74.3599 15.5501C74.7799 15.2101 74.9899 14.6801 74.9899 13.9601Z" fill="#6EA91C"/>
<path d="M104.01 5.82007L99.0201 18.0601H96.9201L94.5101 11.7901L91.9401 18.0601H89.8301L85.0801 5.82007H88.4701L91.2701 13.1101L94.1501 5.82007H95.7001L98.3901 13.3501L101.3 5.82007H104.01Z" fill="#6EA91C"/>
<path d="M108.99 3.10007C108.99 3.61007 108.82 4.04007 108.47 4.39007C108.12 4.74007 107.7 4.91007 107.21 4.91007C106.72 4.91007 106.3 4.74007 105.95 4.39007C105.6 4.04007 105.42 3.61007 105.42 3.10007C105.42 2.59007 105.6 2.18007 105.95 1.84007C106.3 1.49007 106.72 1.32007 107.21 1.32007C107.7 1.32007 108.13 1.49007 108.47 1.84007C108.82 2.18007 108.99 2.61007 108.99 3.10007ZM108.92 18.0601H105.52V5.82007H108.92V18.0601Z" fill="#6EA91C"/>
<path d="M118.9 7.92003H115.67V14.21C115.67 14.85 115.77 15.32 115.99 15.62C116.2 15.92 116.61 16.07 117.22 16.07C117.51 16.07 117.79 16.05 118.06 16C118.33 15.95 118.58 15.9 118.8 15.83V17.73C118.44 17.88 117.99 17.99 117.47 18.06C116.94 18.13 116.42 18.16 115.91 18.16C114.79 18.16 113.9 17.8 113.25 17.08C112.6 16.36 112.27 15.33 112.27 13.98V7.90003H110.83V6.17003L112.4 6.10003L113.56 2.03003H115.68V6.08003H118.91V7.93003L118.9 7.92003Z" fill="#6EA91C"/>
<path d="M131.72 18.06H128.32V9.49002C128.32 9.11002 128.21 8.80002 127.98 8.55002C127.76 8.30002 127.41 8.18002 126.92 8.18002C126.43 8.18002 125.97 8.28002 125.54 8.47002C125.11 8.67002 124.76 8.93002 124.48 9.26002V18.05H121.08V2.02002H124.48V7.70002C124.85 7.16002 125.39 6.67002 126.07 6.24002C126.75 5.80002 127.61 5.59002 128.64 5.59002C129.67 5.59002 130.43 5.91002 130.94 6.55002C131.45 7.19002 131.71 8.17002 131.71 9.49002V18.07L131.72 18.06Z" fill="#6EA91C"/>
<path d="M158.14 18.0599H154.74V9.48995C154.74 9.15995 154.59 8.85995 154.29 8.58995C153.99 8.31995 153.63 8.18995 153.22 8.18995C152.67 8.18995 152.21 8.30995 151.83 8.55995C151.45 8.80995 151.14 9.11995 150.91 9.48995V18.0699H147.51V9.49995C147.51 9.14995 147.37 8.84995 147.1 8.58995C146.83 8.32995 146.45 8.19995 145.97 8.19995C145.43 8.19995 144.97 8.29995 144.6 8.49995C144.23 8.69995 143.93 8.95995 143.68 9.28995V18.0799H140.28V5.81995H143.55L143.61 7.75995C143.97 7.08995 144.49 6.55995 145.15 6.16995C145.82 5.77995 146.62 5.57995 147.57 5.57995C148.42 5.57995 149.09 5.77995 149.59 6.18995C150.09 6.59995 150.46 7.15995 150.69 7.87995C151.12 6.98995 151.67 6.39995 152.34 6.08995C153.01 5.77995 153.77 5.60995 154.65 5.57995C155.66 5.54995 156.49 5.88995 157.14 6.61995C157.8 7.34995 158.12 8.27995 158.12 9.41995V18.0599H158.14Z" fill="#6EA91C"/>
<path d="M164 10.84C164.04 9.63002 164.32 8.77002 164.82 8.26002C165.33 7.75002 165.9 7.49002 166.55 7.49002C167.29 7.49002 167.88 7.75002 168.34 8.27002C168.8 8.79002 169.06 9.64002 169.13 10.84H164ZM172.29 11.44C172.29 9.68002 171.8 8.25002 170.81 7.16002C169.82 6.07002 168.4 5.52002 166.55 5.52002C164.6 5.52002 163.12 6.11002 162.09 7.28002C161.07 8.45002 160.55 9.88002 160.55 11.57V12.44C160.55 14.37 161.11 15.83 162.23 16.84C163.35 17.84 164.85 18.35 166.74 18.35C167.73 18.35 168.59 18.26 169.35 18.09C170.11 17.92 170.79 17.66 171.42 17.32V15.27C170.7 15.6 169.99 15.85 169.31 16.01C168.62 16.17 167.96 16.26 167.3 16.26C166.32 16.26 165.51 15.99 164.9 15.46C164.28 14.92 163.98 13.97 163.98 12.6H172.29V11.47V11.44Z" fill="#6EA91C"/>
<path d="M181.3 15.53C180.9 15.79 180.46 15.92 179.99 15.92C179.29 15.92 178.78 15.66 178.45 15.15C178.12 14.64 177.95 13.75 177.95 12.49V11.64C177.95 10.06 178.16 8.97001 178.58 8.38001C179 7.79001 179.56 7.49001 180.26 7.49001C180.76 7.49001 181.17 7.59001 181.48 7.78001C181.79 7.98001 182.02 8.22001 182.19 8.51001V14.6C182 14.97 181.7 15.28 181.3 15.54V15.53ZM185.59 2.01001H182.19V6.55001C181.83 6.20001 181.42 5.96001 180.93 5.85001C180.44 5.74001 179.99 5.68001 179.57 5.68001C177.87 5.68001 176.58 6.20001 175.71 7.23001C174.84 8.26001 174.4 9.70001 174.4 11.54V12.82C174.4 14.83 174.81 16.23 175.62 17.03C176.44 17.83 177.45 18.24 178.67 18.24C179.46 18.24 180.13 18.1 180.66 17.82C181.19 17.54 181.71 17.06 182.22 16.39L182.3 18.08H185.56V2.02001L185.59 2.01001Z" fill="#6EA91C"/>
<path d="M192.14 3.10007C192.14 3.61007 191.97 4.04007 191.62 4.39007C191.27 4.74007 190.85 4.91007 190.36 4.91007C189.87 4.91007 189.45 4.74007 189.1 4.39007C188.75 4.04007 188.58 3.61007 188.58 3.10007C188.58 2.59007 188.75 2.18007 189.1 1.84007C189.45 1.49007 189.87 1.32007 190.36 1.32007C190.85 1.32007 191.28 1.49007 191.62 1.84007C191.97 2.18007 192.14 2.61007 192.14 3.10007ZM192.07 18.0601H188.67V5.82007H192.07V18.0601Z" fill="#6EA91C"/>
<path d="M202.71 15.47C202.19 16.02 201.57 16.3 200.85 16.3C200.05 16.3 199.41 16.02 198.94 15.45C198.47 14.88 198.23 13.73 198.23 12.01V11.83C198.23 10.26 198.47 9.15001 198.96 8.50001C199.44 7.86001 200.07 7.53001 200.84 7.53001C201.61 7.53001 202.2 7.83001 202.71 8.44001C203.22 9.04001 203.47 10.17 203.47 11.83V12.01C203.47 13.76 203.21 14.92 202.7 15.47H202.71ZM206.98 11.53C206.98 9.74001 206.44 8.29001 205.35 7.18001C204.26 6.07001 202.76 5.51001 200.85 5.51001C198.94 5.51001 197.45 6.07001 196.35 7.17001C195.25 8.28001 194.7 9.73001 194.7 11.53V12.31C194.7 14.15 195.26 15.62 196.37 16.7C197.48 17.78 198.98 18.33 200.87 18.33C202.76 18.33 204.27 17.8 205.35 16.74C206.44 15.68 206.98 14.2 206.98 12.31V11.53Z" fill="#6EA91C"/>
<path d="M216.6 15.6301C216.12 16.1401 215.63 16.4001 215.13 16.4001C214.56 16.4001 214.09 16.2701 213.71 16.0101C213.33 15.7501 213.11 15.4801 213.06 15.2101V9.29009C213.25 8.97009 213.56 8.68009 213.98 8.40009C214.41 8.12009 214.86 7.99009 215.34 7.99009C215.95 7.99009 216.43 8.23009 216.79 8.72009C217.14 9.21009 217.32 10.1101 217.32 11.4201V12.2301C217.32 13.9801 217.08 15.1201 216.6 15.6301ZM220.86 10.9801C220.86 9.03009 220.45 7.64009 219.63 6.82009C218.81 6.00009 217.83 5.59009 216.71 5.59009C215.89 5.59009 215.14 5.78009 214.45 6.15009C213.76 6.52009 213.28 7.02009 213.01 7.64009L212.94 5.83009H209.66V21.7101H213.06V17.4201C213.41 17.7201 213.83 17.9301 214.34 18.0401C214.84 18.1501 215.31 18.2101 215.73 18.2101C217.35 18.2101 218.61 17.7101 219.51 16.7001C220.41 15.6901 220.87 14.2601 220.87 12.4101V10.9901L220.86 10.9801Z" fill="#6EA91C"/>
<path d="M226.88 3.10007C226.88 3.61007 226.71 4.04007 226.36 4.39007C226.01 4.74007 225.59 4.91007 225.1 4.91007C224.61 4.91007 224.19 4.74007 223.84 4.39007C223.49 4.04007 223.32 3.61007 223.32 3.10007C223.32 2.59007 223.49 2.18007 223.84 1.84007C224.19 1.49007 224.61 1.32007 225.1 1.32007C225.59 1.32007 226.01 1.49007 226.36 1.84007C226.71 2.18007 226.88 2.61007 226.88 3.10007ZM226.81 18.0601H223.41V5.82007H226.81V18.0601Z" fill="#6EA91C"/>
<path d="M236.18 15.5601C235.76 15.9001 235.29 16.0701 234.77 16.0701C234.16 16.0701 233.66 15.9301 233.27 15.6501C232.88 15.3701 232.68 14.8201 232.68 13.9901V13.6601C232.68 12.8701 232.87 12.2901 233.24 11.9201C233.61 11.5501 234.11 11.3701 234.75 11.3701C235.43 11.3701 235.94 11.5601 236.29 11.9501C236.64 12.3401 236.81 12.9001 236.81 13.6401V13.9701C236.81 14.7001 236.6 15.2201 236.19 15.5601H236.18ZM240.08 10.0701C240.08 8.51008 239.7 7.36008 238.95 6.65008C238.19 5.94008 237.03 5.58008 235.44 5.58008C234.45 5.58008 233.61 5.66008 232.92 5.82008C232.23 5.98008 231.6 6.17008 231.04 6.40008V8.47008C231.47 8.22008 231.98 8.02008 232.57 7.85008C233.16 7.69008 233.83 7.60008 234.58 7.60008C235.28 7.60008 235.82 7.75008 236.21 8.04008C236.59 8.33008 236.78 8.69008 236.78 9.11008V10.3201C236.57 10.1201 236.23 9.94008 235.77 9.81008C235.31 9.67008 234.84 9.60008 234.37 9.60008C232.81 9.60008 231.56 9.97008 230.63 10.7101C229.7 11.4501 229.24 12.5101 229.24 13.8701V14.0801C229.24 15.4601 229.59 16.4901 230.28 17.1701C230.98 17.8501 232 18.1901 233.35 18.1901C234.17 18.1901 234.89 18.0301 235.51 17.7001C236.13 17.3701 236.57 16.9601 236.83 16.4501L236.89 18.0501H240.08V10.0601V10.0701Z" fill="#6EA91C"/>
<path d="M41.9701 77.42L41.2701 59.36C41.2701 56.42 41.2501 54.16 41.2001 52.57C40.9701 44.59 40.8501 40.39 40.8501 39.97C39.2601 45.71 37.4401 51.8 35.3901 58.24L29.6501 76.65H21.3201L16.2801 58.38C14.6501 52.73 13.2201 46.6 12.0101 39.97C11.6801 46.5 11.3601 53.01 11.0301 59.5L10.1901 77.42H0.320068L3.33007 30.24H17.5401L22.1601 45.99C23.7501 51.45 25.0801 57.07 26.1501 62.86C27.6901 57.21 29.2501 51.57 30.8401 45.92L35.8801 30.24H49.8101L52.4001 77.42H41.9701Z" fill="#6EA91C"/>
<path d="M86.9101 48.79V57.54H69.5501V68.67H88.9401V77.42H58.8401V30.24H87.9601V38.99H69.5501V48.79H86.9101Z" fill="#6EA91C"/>
<path d="M94.47 77.2099V30.8699C98.53 30.2199 103.34 29.8899 108.89 29.8899C113.46 29.8899 117.24 30.2599 120.23 31.0099C123.22 31.7599 125.92 33.0399 128.35 34.8599C130.78 36.6799 132.69 39.0799 134.09 42.0699C135.49 45.0599 136.19 48.5999 136.19 52.7099C136.19 57.0499 135.5 60.7899 134.13 63.9499C132.75 67.0999 130.85 69.6999 128.42 71.7499C125.99 73.7999 122.89 75.3399 119.11 76.3699C115.33 77.3999 111.15 77.9099 106.58 77.9099C104.01 77.9099 101.77 77.8499 99.86 77.7399C97.95 77.6199 96.15 77.4499 94.47 77.2099ZM105.18 38.4999V69.3699C105.41 69.4199 105.82 69.4599 106.41 69.5099C106.99 69.5599 107.82 69.5799 108.89 69.5799C113.93 69.5799 117.8 68.2499 120.51 65.5899C123.4 62.7899 124.85 58.6099 124.85 53.0599C124.85 48.1099 123.54 44.3799 120.93 41.8599C118.32 39.3399 114.68 38.0799 110.01 38.0799C108.94 38.0799 107.98 38.1299 107.14 38.2199C106.3 38.3099 105.65 38.4099 105.18 38.4999Z" fill="#6EA91C"/>
<path d="M141.44 30.24H152.15V77.42H141.44V30.24Z" fill="#6EA91C"/>
<path d="M179.73 78.12C172.87 78.12 167.45 75.86 163.46 71.34C159.47 66.82 157.47 61.09 157.47 54.14C157.47 47.19 159.58 41.06 163.8 36.42C168.02 31.78 173.57 29.46 180.42 29.46C187.27 29.46 193.02 31.79 197.08 36.45C200.91 40.83 202.82 46.45 202.82 53.3C202.82 60.94 200.71 66.99 196.49 71.44C192.27 75.89 186.68 78.12 179.72 78.12H179.73ZM180.08 69.65C183.63 69.65 186.41 68.16 188.45 65.18C190.48 62.2 191.49 58.36 191.49 53.66C191.49 48.96 190.51 45.51 188.55 42.62C186.45 39.5 183.63 37.94 180.08 37.94C176.53 37.94 173.8 39.47 171.75 42.52C169.7 45.57 168.67 49.35 168.67 53.87C168.67 58.39 169.7 62.26 171.75 65.22C173.8 68.18 176.58 69.66 180.08 69.66V69.65Z" fill="#6EA91C"/>
<path d="M208.08 77.4199L208.15 30.8699C209.92 30.5399 211.98 30.2999 214.31 30.1299C216.64 29.9699 219.37 29.8899 222.5 29.8899C228.94 29.8899 233.75 31.1499 236.92 33.6699C238.46 34.8799 239.68 36.4499 240.59 38.3599C241.5 40.2699 241.96 42.3499 241.96 44.5899C241.96 49.2999 240.51 53.0399 237.62 55.7899C234.03 59.0999 228.92 60.7599 222.29 60.7599L218.65 60.5499V77.4199H208.08ZM218.65 38.2899V52.2899C219.4 52.4799 220.57 52.5699 222.17 52.5699C225.03 52.5699 227.28 51.8899 228.93 50.5399C230.57 49.1899 231.39 47.2999 231.39 44.8699C231.39 42.6299 230.67 40.9199 229.24 39.7199C227.81 38.5299 225.73 37.9299 223.01 37.9299C221.74 37.9299 220.93 37.9399 220.58 37.9699C220.23 37.9899 219.58 38.0999 218.65 38.2899Z" fill="#6EA91C"/>
<path d="M247 30.24H257.71V77.42H247V30.24Z" fill="#6EA91C"/>
<path d="M289.7 65.24H276.19L272.83 77.42H261.77L276.19 30.24H290.19L304.82 77.42H293.34L289.7 65.24ZM277.73 57.26H288.16L285.22 47.29C284.85 45.99 284.42 44.38 283.93 42.48C283.44 40.57 283.08 39.15 282.84 38.23C282.47 39.44 282.07 40.95 281.65 42.76C281.09 45.09 280.72 46.6 280.53 47.29L277.73 57.26Z" fill="#6EA91C"/>
</g>
<defs>
<clipPath id="clip0_29_1823">
<rect width="304.82" height="78.12" fill="white"/>
</clipPath>
</defs>
</svg>
