<svg width="20" height="20" viewBox="0 0 20 20" fill="none" xmlns="http://www.w3.org/2000/svg">
<path d="M18.3333 7.44277C18.3333 6.93792 18.3333 6.6855 18.2335 6.56861C18.1469 6.46719 18.0169 6.41337 17.884 6.42383C17.7307 6.43589 17.5522 6.61438 17.1953 6.97136L14.1667 9.99996L17.1953 13.0286C17.5522 13.3855 17.7307 13.564 17.884 13.5761C18.0169 13.5866 18.1469 13.5327 18.2335 13.4313C18.3333 13.3144 18.3333 13.062 18.3333 12.5572V7.44277Z" stroke="#333333" stroke-width="2" stroke-linecap="round" stroke-linejoin="round"/>
<path d="M1.66666 8.16663C1.66666 6.76649 1.66666 6.06643 1.93915 5.53165C2.17883 5.06124 2.56128 4.67879 3.03169 4.43911C3.56647 4.16663 4.26653 4.16663 5.66666 4.16663H10.1667C11.5668 4.16663 12.2669 4.16663 12.8016 4.43911C13.272 4.67879 13.6545 5.06124 13.8942 5.53165C14.1667 6.06643 14.1667 6.76649 14.1667 8.16663V11.8333C14.1667 13.2334 14.1667 13.9335 13.8942 14.4683C13.6545 14.9387 13.272 15.3211 12.8016 15.5608C12.2669 15.8333 11.5668 15.8333 10.1667 15.8333H5.66666C4.26653 15.8333 3.56647 15.8333 3.03169 15.5608C2.56128 15.3211 2.17883 14.9387 1.93915 14.4683C1.66666 13.9335 1.66666 13.2334 1.66666 11.8333V8.16663Z" stroke="#333333" stroke-width="2" stroke-linecap="round" stroke-linejoin="round"/>
</svg>
