<svg width="20" height="19" viewBox="0 0 20 19" fill="none" xmlns="http://www.w3.org/2000/svg">
<path d="M7.50002 17.5V11.3333C7.50002 10.8666 7.50002 10.6333 7.59085 10.455C7.67075 10.2982 7.79823 10.1707 7.95503 10.0908C8.13329 10 8.36665 10 8.83336 10H11.1667C11.6334 10 11.8668 10 12.045 10.0908C12.2018 10.1707 12.3293 10.2982 12.4092 10.455C12.5 10.6333 12.5 10.8666 12.5 11.3333V17.5M1.66669 7.91667L9.20002 2.26667C9.48691 2.0515 9.63035 1.94392 9.78788 1.90245C9.92694 1.86585 10.0731 1.86585 10.2122 1.90245C10.3697 1.94392 10.5131 2.05151 10.8 2.26667L18.3334 7.91667M3.33336 6.66667V14.8333C3.33336 15.7668 3.33336 16.2335 3.51501 16.59C3.6748 16.9036 3.92977 17.1586 4.24337 17.3183C4.59989 17.5 5.0666 17.5 6.00002 17.5H14C14.9334 17.5 15.4002 17.5 15.7567 17.3183C16.0703 17.1586 16.3252 16.9036 16.485 16.59C16.6667 16.2335 16.6667 15.7668 16.6667 14.8333V6.66667L11.6 2.86667C11.0263 2.43634 10.7394 2.22118 10.4243 2.13824C10.1462 2.06503 9.85386 2.06503 9.57574 2.13824C9.26067 2.22118 8.97379 2.43634 8.40002 2.86667L3.33336 6.66667Z" stroke="white" stroke-width="2" stroke-linecap="round" stroke-linejoin="round"/>
</svg>
