<?xml version="1.0" encoding="UTF-8"?>
<svg width="103px" height="36px" viewBox="0 0 103 36" version="1.1" xmlns="http://www.w3.org/2000/svg" xmlns:xlink="http://www.w3.org/1999/xlink">
    <title>Group 3</title>
    <defs>
        <linearGradient x1="0%" y1="100%" x2="100%" y2="100%" id="linearGradient-1">
            <stop stop-color="#FFFFFF" offset="0.00324382649%"></stop>
            <stop stop-color="#636363" offset="100%"></stop>
        </linearGradient>
    </defs>
    <g id="투자정보" stroke="none" stroke-width="1" fill="none" fill-rule="evenodd">
        <g id="MO-INV-002-02-_요약연결재무정보" transform="translate(-129.000000, -281.000000)">
            <g id="스와이프-알림" transform="translate(106.000000, 246.000000)">
                <g id="Group-3" transform="translate(23.000000, 35.000000)">
                    <path d="M6.58291303,14.2908904 C6.98620083,13.8966958 7.63268808,13.9040672 8.02688274,14.307355 C8.43226383,14.7220873 8.43190016,15.3847504 8.0260641,15.7990375 L8.0260641,15.7990375 L3.583,20.334 L68.9,20.3347142 C69.5075132,20.3347142 70,20.8272009 70,21.4347142 C70,22.0422274 69.5075132,22.5347142 68.9,22.5347142 L1.1,22.5347142 C0.492486775,22.5347142 7.43989126e-17,22.0422274 0,21.4347142 C-4.52197646e-17,21.0654668 0.181935727,20.7387127 0.461053917,20.5392053 L6.56723232,14.3065539 C6.57240241,14.3012762 6.57762962,14.2960547 6.58291303,14.2908904 Z" id="Combined-Shape" fill="url(#linearGradient-1)"></path>
                    <g id="icon" transform="translate(67.000000, 0.000000)" stroke="#FFFFFF" stroke-linecap="round" stroke-linejoin="round" stroke-width="2">
                        <g id="Group" transform="translate(4.000000, 2.000000)">
                            <path d="M18.0379391,17.3785973 C18.0379391,13.7133403 18.0379391,11.4204746 18.0379391,10.5 C18.0379391,9.11928813 16.9186509,8 15.5379391,8 C14.1572272,8 13.0379391,9.11928813 13.0379391,10.5" id="Path"></path>
                            <path d="M13.0379391,17.3785973 C13.0379391,8.380007 13.0379391,3.42047458 13.0379391,2.5 C13.0379391,1.11928813 11.9186509,0 10.5379391,0 C9.15722718,0 8.03793906,1.11928813 8.03793906,2.5 C8.03793906,3.42047458 8.03793906,8.380007 8.03793906,17.3785973" id="Path-Copy-3"></path>
                            <path d="M23.0379391,17.3785973 C23.0379391,13.7133403 23.0379391,11.4204746 23.0379391,10.5 C23.0379391,9.11928813 21.9186509,8 20.5379391,8 C19.1572272,8 18.0379391,9.11928813 18.0379391,10.5" id="Path-Copy"></path>
                            <path d="M28.0379391,27.5 L28.0379391,13.5 C28.0379391,12.1192881 26.9186509,11 25.5379391,11 C24.1572272,11 23.0379391,12.1192881 23.0379391,13.5" id="Path-Copy-2"></path>
                            <path d="M12.0326232,29.3094308 L11.8199512,14.7981334 C11.8199512,13.4174216 10.700663,12.2981334 9.31995116,12.2981334 C7.93923928,12.2981334 6.81995116,13.4174216 6.81995116,14.7981334 C6.81995116,15.718608 6.77889575,17.0397659 6.69678493,18.7616071 L4.07617119,14.8763875" id="Path-Copy-2" transform="translate(8.054397, 20.803782) scale(-1, 1) rotate(34.000000) translate(-8.054397, -20.803782) "></path>
                            <path d="M13.0379391,32 L23.5379391,32 C26.0232204,32 28.0379391,29.9852814 28.0379391,27.5" id="Path"></path>
                            <path d="M9.51259674,32 C11.0380916,32 12.386295,31.2409248 13.2001012,30.0798802" id="Path" transform="translate(11.356349, 31.039940) scale(-1, 1) translate(-11.356349, -31.039940) "></path>
                        </g>
                    </g>
                </g>
            </g>
        </g>
    </g>
</svg>