<svg width="41" height="49" viewBox="0 0 41 49" fill="none" xmlns="http://www.w3.org/2000/svg">
<g clip-path="url(#clip0_1_599)">
<path d="M22.2303 20.9613H17.3538C16.9683 20.9613 16.6571 20.6504 16.6571 20.2652C16.6571 19.88 16.9683 19.5691 17.3538 19.5691H22.2303C22.6158 19.5691 22.927 19.88 22.927 20.2652C22.927 20.6504 22.6158 20.9613 22.2303 20.9613Z" fill="white"/>
<path d="M16.6246 29.2771V31.4025C16.6246 32.1728 17.2377 32.7715 17.9343 32.6786L21.4362 32.2285C22.026 32.1543 22.4719 31.602 22.4719 30.9524V29.2818H16.62L16.6246 29.2771Z" fill="#EA5514"/>
<path d="M17.9436 33.3144C17.5117 33.3144 17.0891 33.1566 16.764 32.8689C16.3878 32.5348 16.1695 32.0522 16.1695 31.5463V29.5277C16.1695 29.1426 16.4807 28.8316 16.8661 28.8316C17.2516 28.8316 17.5628 29.1426 17.5628 29.5277V31.5463C17.5628 31.6948 17.6418 31.7877 17.6882 31.8294C17.7346 31.8712 17.8368 31.9408 17.9854 31.9222L21.1947 31.5463C21.3851 31.5231 21.5291 31.3607 21.5291 31.1705C21.5291 30.7853 21.8403 30.4744 22.2257 30.4744C22.6112 30.4744 22.9224 30.7853 22.9224 31.1705C22.9224 32.0707 22.249 32.8271 21.3572 32.9292L18.148 33.3051C18.0783 33.3144 18.0087 33.319 17.939 33.319L17.9436 33.3144Z" fill="#252D32"/>
<path d="M20.289 36.0662H18.8121C17.8925 36.0662 17.1448 35.3191 17.1448 34.4003V33.4211C17.1448 33.036 17.4559 32.725 17.8414 32.725C18.2269 32.725 18.5381 33.036 18.5381 33.4211V34.4003C18.5381 34.5488 18.6588 34.6741 18.8121 34.6741H20.289C20.4376 34.6741 20.563 34.5534 20.563 34.4003V32.9339C20.563 32.5487 20.8742 32.2378 21.2597 32.2378C21.6452 32.2378 21.9563 32.5487 21.9563 32.9339V34.4003C21.9563 35.3191 21.2086 36.0662 20.289 36.0662Z" fill="#252D32"/>
<path d="M27.7246 48.5353C27.3391 48.5353 27.028 48.2244 27.028 47.8393V44.1268C27.028 43.7417 27.3391 43.4308 27.7246 43.4308C28.1101 43.4308 28.4213 43.7417 28.4213 44.1268V47.8393C28.4213 48.2244 28.1101 48.5353 27.7246 48.5353Z" fill="#252D32"/>
<path d="M8.57614 48.7353C8.43217 48.7353 8.28355 48.6889 8.15815 48.5961C7.85162 48.3641 7.7866 47.9279 8.01882 47.6216C9.73723 45.3292 10.3828 38.6514 10.3828 37.4635C10.3828 36.9716 9.29602 35.7465 8.24175 34.5585C5.14861 31.0642 -0.0391413 25.2171 0.411361 16.2516C0.792199 8.59933 7.35468 0.566566 19.1513 0.0236235C26.1411 -0.291933 32.9776 2.75226 36.5816 7.78724C38.6344 10.6551 39.5168 11.6482 39.5261 11.6574C39.7584 11.9127 39.7676 12.3025 39.5447 12.567C39.0013 13.2213 38.0167 13.8014 37.06 14.219C37.7288 15.1471 38.574 16.8409 38.2397 19.2401C37.8635 21.9502 37.896 22.3446 37.961 23.0592C37.9749 23.2309 37.9935 23.4166 38.0074 23.6439C38.0585 24.4746 39.6655 28.4655 40.6686 30.7857C40.8126 31.1198 40.6733 31.505 40.3528 31.6767C39.1267 32.3264 37.687 33.1246 37.2365 33.4355C36.9903 34.7441 36.786 38.7396 37.2736 40.5587C37.5151 41.459 37.3015 42.4381 36.6884 43.2363C35.8571 44.3175 34.4638 44.9162 32.764 44.9162C29.6847 44.9162 22.9597 43.3152 21.2274 41.9323C20.9069 41.6771 20.619 41.4079 20.3728 41.1388C20.1127 40.8557 20.1359 40.4148 20.4193 40.155C20.7026 39.8951 21.1438 39.9183 21.4039 40.2014C21.6036 40.4195 21.8358 40.6329 22.0959 40.8464C23.4427 41.923 29.8241 43.524 32.764 43.524C34.004 43.524 35.0304 43.111 35.5831 42.3917C35.9314 41.9369 36.0568 41.4033 35.9268 40.9207C35.3369 38.7257 35.6202 34.1037 35.9268 32.9018C36.0057 32.5909 36.0568 32.3914 39.136 30.7486C38.4022 29.0177 36.6884 24.8783 36.6188 23.7321C36.6048 23.5187 36.5909 23.347 36.577 23.1892C36.5027 22.3678 36.4609 21.9177 36.8603 19.0498C37.2736 16.0799 35.4484 14.4789 35.4345 14.4603C35.244 14.2979 35.1558 14.0473 35.2022 13.8014C35.2487 13.5554 35.4252 13.3559 35.662 13.2724C36.5955 12.9568 37.4873 12.4974 38.0539 12.0658C37.5941 11.4997 36.7535 10.4184 35.4484 8.59469C32.1137 3.93095 25.7463 1.10951 19.2164 1.41114C6.95991 1.97729 2.08797 10.6412 1.80002 16.3258C1.38203 24.7206 6.32827 30.3031 9.28673 33.6397C10.7869 35.3288 11.7761 36.4472 11.7761 37.4681C11.7761 38.3544 11.2188 45.6865 9.13346 48.4615C8.99878 48.6425 8.78514 48.74 8.57614 48.74V48.7353Z" fill="#252D32"/>
<path d="M17.6325 23.3326C15.7097 21.5414 14.6183 18.8823 14.9898 15.9727C15.4171 12.6176 17.86 9.85184 21.0368 8.91446C19.2859 8.65923 17.3863 8.86805 15.3939 10.0328C13.5779 11.0955 12.1939 12.8125 11.618 14.8311C10.5127 18.6874 12.0592 22.3024 14.8505 24.2839C15.3428 24.6319 15.6493 25.1842 15.6493 25.7874V27.4209C15.6493 28.4465 16.4807 29.2771 17.5071 29.2771H19.5645C19.8989 29.2771 17.8972 23.5739 17.6325 23.328V23.3326Z" fill="#EA5514"/>
<path d="M21.7566 29.7319H17.3398C15.8908 29.7319 14.7065 28.5532 14.7065 27.1007V25.6065C14.7065 25.2074 14.5021 24.8315 14.1492 24.5763C11.3997 22.5948 9.95994 19.2629 10.3919 15.8845C10.9213 11.7452 14.321 8.39936 18.4777 7.93531C21.111 7.63832 23.7351 8.47361 25.695 10.2185C27.6503 11.9679 28.7742 14.4738 28.7742 17.0957C28.7742 20.0517 27.3391 22.8453 24.938 24.5763C24.5897 24.8269 24.39 25.1981 24.39 25.5925V27.0961C24.39 28.5486 23.2103 29.7273 21.7566 29.7273V29.7319ZM19.5598 9.26714C19.2533 9.26714 18.9468 9.28571 18.6402 9.31819C15.1152 9.71264 12.231 12.548 11.7805 16.0609C11.4136 18.9334 12.6351 21.7595 14.9712 23.444C15.6818 23.9544 16.1044 24.7619 16.1044 25.6065V27.1007C16.1044 27.7829 16.6617 28.3397 17.3445 28.3397H21.7613C22.444 28.3397 23.0013 27.7829 23.0013 27.1007V25.5972C23.0013 24.7619 23.4239 23.9591 24.1299 23.4486C26.1687 21.9776 27.3902 19.6016 27.3902 17.0957C27.3902 14.8683 26.4381 12.7429 24.7754 11.2579C23.3218 9.95858 21.4965 9.26714 19.5645 9.26714H19.5598Z" fill="#252D32"/>
<path d="M20.9718 25.1981C20.8975 25.1981 20.8231 25.1888 20.7488 25.161C20.3819 25.0403 20.1869 24.6459 20.3076 24.2793L22.0539 19.068C22.1746 18.7014 22.5694 18.5065 22.9363 18.6271C23.3032 18.7478 23.4983 19.1422 23.3775 19.5088L21.6313 24.7201C21.5337 25.0125 21.2644 25.1935 20.9718 25.1935V25.1981Z" fill="#252D32"/>
<path d="M19.532 29.4859C19.2394 29.4859 18.97 29.3003 18.8725 29.008L15.719 19.5088C15.5982 19.1422 15.7979 18.7477 16.1602 18.6271C16.5271 18.5064 16.9172 18.706 17.0426 19.0679L20.1961 28.5671C20.3169 28.9337 20.1218 29.3282 19.7549 29.4488C19.6806 29.472 19.6063 29.4859 19.5366 29.4859H19.532Z" fill="#252D32"/>
</g>
<defs>
<clipPath id="clip0_1_599">
<rect width="40.3455" height="48.7349" fill="white" transform="translate(0.383301)"/>
</clipPath>
</defs>
</svg>
