<svg width="52" height="55" viewBox="0 0 52 55" fill="none" xmlns="http://www.w3.org/2000/svg">
<g clip-path="url(#clip0_1_647)">
<path d="M14.4346 16.245H41.3059C39.2164 12.4668 35.6537 9.47313 31.5349 8.0018C30.9373 7.94146 30.335 7.89969 29.7234 7.89969C23.3716 7.89969 17.5943 11.2369 14.4346 16.245Z" fill="#EA5514"/>
<path d="M30.1867 0.464142H25.0905V3.71313H30.1867V0.464142Z" fill="#EA5514"/>
<path d="M25.7483 54.3046C24.0017 54.3046 23.1539 53.5573 22.5331 53.0096C22.1022 52.629 21.8752 52.448 21.5138 52.448H0.767319C0.382782 52.448 0.0723724 52.1371 0.0723724 51.7518V48.967C0.0723724 48.5817 0.382782 48.2708 0.767319 48.2708C1.15186 48.2708 1.46227 48.5817 1.46227 48.967V51.0556H21.5092C22.4126 51.0556 22.9593 51.5383 23.4458 51.9653C24.0017 52.4527 24.5252 52.9122 25.7437 52.9122C25.753 52.9122 25.7669 52.9122 25.7761 52.9122C26.9066 52.9029 27.4579 52.448 28.0417 51.97C28.5606 51.543 29.149 51.0556 30.057 51.0556H49.6406V48.967C49.6406 48.5817 49.951 48.2708 50.3356 48.2708C50.7201 48.2708 51.0305 48.5817 51.0305 48.967V51.7518C51.0305 52.1371 50.7201 52.448 50.3356 52.448H30.057C29.6678 52.448 29.3991 52.6522 28.9266 53.0421C28.2872 53.5713 27.4116 54.2907 25.79 54.3046C25.7761 54.3046 25.7622 54.3046 25.7483 54.3046Z" fill="#252D32"/>
<path d="M23.6357 47.0872C23.5106 47.0872 23.3855 47.0547 23.2697 46.9851C22.6628 46.6138 21.9678 46.4142 21.259 46.4142H2.62051C2.23598 46.4142 1.92557 46.1032 1.92557 45.718C1.92557 45.3327 2.23598 45.0218 2.62051 45.0218H21.259C22.2273 45.0218 23.177 45.291 24.0017 45.7969C24.3307 45.9965 24.4326 46.4281 24.2287 46.753C24.099 46.9665 23.8674 47.0825 23.6357 47.0825V47.0872Z" fill="#252D32"/>
<path d="M27.4718 47.0872C27.2402 47.0872 27.0085 46.9711 26.8788 46.7576C26.6796 46.4281 26.7815 46.0011 27.1058 45.8015C27.9305 45.291 28.8802 45.0264 29.8485 45.0264H39.6844C40.0689 45.0264 40.3793 45.3374 40.3793 45.7226C40.3793 46.1078 40.0689 46.4188 39.6844 46.4188H29.8485C29.1351 46.4188 28.4401 46.6184 27.8378 46.9897C27.722 47.0593 27.5969 47.0918 27.4718 47.0918V47.0872Z" fill="#252D32"/>
<path d="M48.487 46.4142H42.4641C42.0796 46.4142 41.7692 46.1032 41.7692 45.718C41.7692 45.3327 42.0796 45.0218 42.4641 45.0218H48.487C48.8716 45.0218 49.182 45.3327 49.182 45.718C49.182 46.1032 48.8716 46.4142 48.487 46.4142Z" fill="#252D32"/>
<path d="M25.5538 45.0218C25.4287 45.0218 25.3036 44.9893 25.1878 44.9196L23.2697 43.7361C22.6628 43.3648 21.9678 43.1652 21.259 43.1652H2.62051C2.23598 43.1652 1.92557 42.8542 1.92557 42.469C1.92557 42.0837 2.23598 41.7728 2.62051 41.7728H21.259C22.2273 41.7728 23.177 42.042 24.0017 42.5479L25.5538 43.504L27.1058 42.5479C27.9305 42.0373 28.8802 41.7728 29.8485 41.7728H48.487C48.8716 41.7728 49.182 42.0837 49.182 42.469C49.182 42.8542 48.8716 43.1652 48.487 43.1652H29.8485C29.1351 43.1652 28.4401 43.3648 27.8378 43.7361L25.9198 44.9196C25.8086 44.9893 25.6835 45.0218 25.5538 45.0218Z" fill="#252D32"/>
<path d="M43.3907 20.8864H7.71678C7.33224 20.8864 7.02184 20.5754 7.02184 20.1902V16.477C7.02184 16.0918 7.33224 15.7808 7.71678 15.7808H32.2716C32.6561 15.7808 32.9665 16.0918 32.9665 16.477C32.9665 16.8623 32.6561 17.1732 32.2716 17.1732H8.41173V19.494H42.6958V17.1732H36.4413C36.0567 17.1732 35.7463 16.8623 35.7463 16.477C35.7463 16.0918 36.0567 15.7808 36.4413 15.7808H43.3907C43.7753 15.7808 44.0857 16.0918 44.0857 16.477V20.1902C44.0857 20.5754 43.7753 20.8864 43.3907 20.8864Z" fill="#252D32"/>
<path d="M9.91282 16.6998C9.797 16.6998 9.68581 16.672 9.57925 16.6116C9.24104 16.426 9.12058 16.0036 9.3059 15.6648C12.5675 9.72377 18.7942 6.03384 25.5538 6.03384C32.3133 6.03384 38.5029 9.70521 41.7738 15.6091C41.9591 15.9433 41.8387 16.3703 41.5051 16.5559C41.1715 16.7416 40.7453 16.6209 40.56 16.2867C37.5346 10.8238 31.7851 7.42627 25.5584 7.42627C19.3317 7.42627 13.5451 10.8424 10.529 16.3378C10.4039 16.5699 10.163 16.6998 9.91745 16.6998H9.91282Z" fill="#252D32"/>
<path d="M27.6386 40.3803C27.2541 40.3803 26.9436 40.0694 26.9436 39.6841V26.6882C26.9436 25.7924 26.2163 25.0637 25.3221 25.0637C24.4279 25.0637 23.7006 25.7924 23.7006 26.6882V39.6841C23.7006 40.0694 23.3902 40.3803 23.0056 40.3803C22.6211 40.3803 22.3107 40.0694 22.3107 39.6841V26.6882C22.3107 25.0265 23.6635 23.6712 25.3221 23.6712C26.9807 23.6712 28.3335 25.0265 28.3335 26.6882V39.6841C28.3335 40.0694 28.0231 40.3803 27.6386 40.3803Z" fill="#252D32"/>
<path d="M17.9093 40.3803C17.5248 40.3803 17.2144 40.0694 17.2144 39.6841V26.6882C17.2144 25.7924 16.487 25.0637 15.5929 25.0637C14.6987 25.0637 13.9713 25.7924 13.9713 26.6882V39.6841C13.9713 40.0694 13.6609 40.3803 13.2764 40.3803C12.8918 40.3803 12.5814 40.0694 12.5814 39.6841V26.6882C12.5814 25.0265 13.9343 23.6712 15.5929 23.6712C17.2515 23.6712 18.6043 25.0265 18.6043 26.6882V39.6841C18.6043 40.0694 18.2939 40.3803 17.9093 40.3803Z" fill="#252D32"/>
<path d="M37.3679 40.3803C36.9833 40.3803 36.6729 40.0694 36.6729 39.6841V26.6882C36.6729 25.7924 35.9455 25.0637 35.0514 25.0637C34.1572 25.0637 33.4298 25.7924 33.4298 26.6882V39.6841C33.4298 40.0694 33.1194 40.3803 32.7349 40.3803C32.3503 40.3803 32.0399 40.0694 32.0399 39.6841V26.6882C32.0399 25.0265 33.3928 23.6712 35.0514 23.6712C36.71 23.6712 38.0628 25.0265 38.0628 26.6882V39.6841C38.0628 40.0694 37.7524 40.3803 37.3679 40.3803Z" fill="#252D32"/>
<path d="M41.5375 40.3803C41.153 40.3803 40.8426 40.0694 40.8426 39.6841V20.6543C40.8426 20.2691 41.153 19.9581 41.5375 19.9581C41.9221 19.9581 42.2325 20.2691 42.2325 20.6543V39.6841C42.2325 40.0694 41.9221 40.3803 41.5375 40.3803Z" fill="#252D32"/>
<path d="M9.10669 40.3803C8.72215 40.3803 8.41174 40.0694 8.41174 39.6841V20.6543C8.41174 20.2691 8.72215 19.9581 9.10669 19.9581C9.49123 19.9581 9.80164 20.2691 9.80164 20.6543V39.6841C9.80164 40.0694 9.49123 40.3803 9.10669 40.3803Z" fill="#252D32"/>
<path d="M24.8588 6.96213C24.4743 6.96213 24.1639 6.65115 24.1639 6.26591V0.696213C24.1639 0.310975 24.4743 0 24.8588 0C25.2433 0 25.5538 0.310975 25.5538 0.696213V6.26591C25.5538 6.65115 25.2433 6.96213 24.8588 6.96213Z" fill="#252D32"/>
</g>
<defs>
<clipPath id="clip0_1_647">
<rect width="50.9628" height="54.3046" fill="white" transform="translate(0.0723724)"/>
</clipPath>
</defs>
</svg>
