<svg width="42" height="47" viewBox="0 0 42 47" fill="none" xmlns="http://www.w3.org/2000/svg">
<g clip-path="url(#clip0_1_691)">
<path d="M31.6645 15.3933L29.3188 13.9939L26.9731 15.3933V9.32925H31.6645V15.3933Z" fill="#252D32"/>
<path d="M2.53131 1.16617C2.00119 1.4647 1.63995 2.02446 1.63995 2.67751V2.70549L2.53131 1.17083V1.16617Z" fill="#79C651"/>
<path d="M38.3544 0.932922H32.462L29.483 6.06401H34.2729C34.6482 6.06401 34.9485 6.36721 34.9485 6.73572V38.0447C34.9485 38.4178 34.6435 38.7164 34.2729 38.7164H10.5206L6.45795 45.7133H38.3544C39.3208 45.7133 40.1089 44.9343 40.1089 43.9688V2.67749C40.1089 1.71658 39.3255 0.932922 38.3544 0.932922Z" fill="#EA5514"/>
<path d="M38.1808 46.6462H3.56807C1.98709 46.6462 0.70166 45.3681 0.70166 43.7962V2.85009C0.70166 1.27811 1.98709 0 3.56807 0H38.1855C39.7665 0 41.0519 1.27811 41.0519 2.85009V43.8008C41.0519 45.3728 39.7665 46.6509 38.1855 46.6509L38.1808 46.6462ZM3.56807 1.39939C2.76585 1.39939 2.10906 2.04777 2.10906 2.85009V43.8008C2.10906 44.5985 2.76116 45.2515 3.56807 45.2515H38.1855C38.9877 45.2515 39.6445 44.6031 39.6445 43.8008V2.85009C39.6445 2.05243 38.9924 1.39939 38.1855 1.39939H3.56807Z" fill="#252D32"/>
<path d="M34.1087 39.6493H7.64014C6.65965 39.6493 5.86212 38.8563 5.86212 37.8814V6.89897C5.86212 5.92406 6.65965 5.13107 7.64014 5.13107H34.1087C35.0892 5.13107 35.8867 5.92406 35.8867 6.89897V37.8814C35.8867 38.8563 35.0892 39.6493 34.1087 39.6493ZM7.64014 6.53046C7.43372 6.53046 7.26952 6.69372 7.26952 6.89897V37.8814C7.26952 38.0866 7.43372 38.2499 7.64014 38.2499H34.1087C34.3151 38.2499 34.4793 38.0866 34.4793 37.8814V6.89897C34.4793 6.69372 34.3151 6.53046 34.1087 6.53046H7.64014Z" fill="#252D32"/>
<path d="M22.5164 42.9146H19.2324C18.8431 42.9146 18.5287 42.602 18.5287 42.2149C18.5287 41.8277 18.8431 41.5152 19.2324 41.5152H22.5164C22.9058 41.5152 23.2201 41.8277 23.2201 42.2149C23.2201 42.602 22.9058 42.9146 22.5164 42.9146Z" fill="#252D32"/>
<path d="M23.4547 23.3231H10.7881C10.3987 23.3231 10.0844 23.0106 10.0844 22.6234C10.0844 22.2363 10.3987 21.9237 10.7881 21.9237H23.4547C23.8441 21.9237 24.1584 22.2363 24.1584 22.6234C24.1584 23.0106 23.8441 23.3231 23.4547 23.3231Z" fill="#252D32"/>
<path d="M30.9608 23.3231H27.2077C26.8183 23.3231 26.504 23.0106 26.504 22.6234C26.504 22.2363 26.8183 21.9237 27.2077 21.9237H30.9608C31.3502 21.9237 31.6645 22.2363 31.6645 22.6234C31.6645 23.0106 31.3502 23.3231 30.9608 23.3231Z" fill="#252D32"/>
<path d="M30.9608 18.6585H10.7881C10.3987 18.6585 10.0844 18.346 10.0844 17.9588C10.0844 17.5717 10.3987 17.2591 10.7881 17.2591H30.9608C31.3502 17.2591 31.6645 17.5717 31.6645 17.9588C31.6645 18.346 31.3502 18.6585 30.9608 18.6585Z" fill="#252D32"/>
<path d="M20.6399 10.7286H20.1707C19.7814 10.7286 19.467 10.4161 19.467 10.0289C19.467 9.64178 19.7814 9.32925 20.1707 9.32925H20.6399C21.0292 9.32925 21.3436 9.64178 21.3436 10.0289C21.3436 10.4161 21.0292 10.7286 20.6399 10.7286ZM17.3559 10.7286H15.4794C15.09 10.7286 14.7757 10.4161 14.7757 10.0289C14.7757 9.64178 15.09 9.32925 15.4794 9.32925H17.3559C17.7453 9.32925 18.0596 9.64178 18.0596 10.0289C18.0596 10.4161 17.7453 10.7286 17.3559 10.7286ZM12.6646 10.7286H10.7881C10.3987 10.7286 10.0844 10.4161 10.0844 10.0289C10.0844 9.64178 10.3987 9.32925 10.7881 9.32925H12.6646C13.054 9.32925 13.3683 9.64178 13.3683 10.0289C13.3683 10.4161 13.054 10.7286 12.6646 10.7286Z" fill="#252D32"/>
<path d="M22.0473 33.1188H10.7881C10.3987 33.1188 10.0844 32.8063 10.0844 32.4191C10.0844 32.032 10.3987 31.7195 10.7881 31.7195H22.0473C22.4367 31.7195 22.751 32.032 22.751 32.4191C22.751 32.8063 22.4367 33.1188 22.0473 33.1188Z" fill="#252D32"/>
<path d="M30.9608 28.4542H10.7881C10.3987 28.4542 10.0844 28.1417 10.0844 27.7545C10.0844 27.3674 10.3987 27.0548 10.7881 27.0548H30.9608C31.3502 27.0548 31.6645 27.3674 31.6645 27.7545C31.6645 28.1417 31.3502 28.4542 30.9608 28.4542Z" fill="#252D32"/>
</g>
<defs>
<clipPath id="clip0_1_691">
<rect width="40.3455" height="46.6463" fill="white" transform="translate(0.70166)"/>
</clipPath>
</defs>
</svg>
