<svg width="55" height="53" viewBox="0 0 55 53" fill="none" xmlns="http://www.w3.org/2000/svg">
<g clip-path="url(#clip0_1_549)">
<path d="M15.491 39.6841H1.17067V36.7291C1.17067 32.9715 4.31948 29.9268 8.20563 29.9268C9.10993 32.4872 13.0749 32.4872 13.9792 29.9268C17.8654 29.9268 21.4547 32.4872 21.0142 36.747C19.2844 37.6573 16.437 38.3165 15.491 39.6796V39.6841Z" fill="white"/>
<path d="M41.3724 45.5134H13.228V43.6032C13.228 39.8456 18.6584 37.3972 21.6217 36.9174C22.8552 39.0653 25.0766 40.1415 27.3025 40.1415C29.5285 40.1415 31.7452 39.0653 32.9833 36.9174C36.4382 37.3928 39.9998 39.9846 40.8855 41.693C41.3771 42.6481 41.3771 45.5134 41.3771 45.5134H41.3724Z" fill="#EA5514"/>
<path d="M39.4154 39.6841H54.0372V36.6798C54.0372 32.9221 49.6039 31.1554 47.4104 30.7294C46.993 31.8997 45.6157 33.2898 43.9879 33.0611C42.439 32.8459 40.7928 32.115 40.3012 30.7294C37.644 31.5814 34.0963 32.9401 34.0963 36.6977V37.1237C34.9821 37.5497 38.3906 38.8411 39.4154 39.6841Z" fill="white"/>
<path d="M1.40254 39.6841C1.01763 39.6841 0.706924 39.3837 0.706924 39.0115V36.1327C0.706924 31.5635 4.36585 30.29 6.12343 29.6757C7.60276 29.16 8.12679 28.8282 8.12679 27.9941V27.8013C8.12679 27.4291 8.4375 27.1287 8.8224 27.1287C9.20731 27.1287 9.51802 27.4291 9.51802 27.8013V27.9941C9.51802 29.9223 7.83 30.5097 6.59644 30.9402C4.4215 31.698 2.09815 32.7876 2.09815 36.1327V39.0115C2.09815 39.3837 1.78744 39.6841 1.40254 39.6841Z" fill="#252D32"/>
<path d="M20.2351 34.9848C19.9336 34.9848 19.6554 34.7965 19.5673 34.5005C18.9134 32.3527 16.9935 31.5231 15.2452 30.9133C14.0024 30.4783 12.3005 29.8864 12.3005 27.9448V27.3574C12.3005 26.9852 12.6112 26.6848 12.9961 26.6848C13.381 26.6848 13.6917 26.9852 13.6917 27.3574V27.9448C13.6917 28.7923 14.225 29.1286 15.7182 29.6488C17.1095 30.133 19.9986 31.142 20.9029 34.1239C21.0095 34.4781 20.8008 34.8548 20.4299 34.9579C20.3649 34.9759 20.3 34.9848 20.2351 34.9848Z" fill="#252D32"/>
<path d="M10.4455 28.8461C7.99231 28.8461 4.8806 25.9449 4.8806 22.6805V20.3263C4.8806 20.0035 5.12175 19.721 5.451 19.6627C5.49738 19.6537 10.2646 18.8017 13.6731 17.1561C14.0163 16.9902 14.4337 17.1247 14.6053 17.4565C14.7768 17.7883 14.6377 18.1919 14.2946 18.3578C11.3869 19.7658 7.67696 20.5954 6.26719 20.8779V22.676C6.26719 25.1153 8.65546 27.4964 10.4409 27.4964C12.2263 27.4964 14.6145 25.1108 14.6145 22.676V20.1739C14.6145 19.8017 14.9252 19.5013 15.3101 19.5013C15.6951 19.5013 16.0058 19.8017 16.0058 20.1739V22.676C16.0058 25.9404 12.8941 28.8416 10.4409 28.8416L10.4455 28.8461Z" fill="#252D32"/>
<path d="M10.849 32.7428C10.3945 32.7428 9.9493 32.68 9.52265 32.5589C8.29374 32.2092 7.29669 31.3706 6.85614 30.3169C6.71238 29.9716 6.88396 29.5815 7.24104 29.4425C7.59813 29.3035 8.00158 29.4694 8.14534 29.8146C8.42822 30.4917 9.08674 31.0343 9.9122 31.2675C10.209 31.3527 10.5243 31.3975 10.8443 31.3975C12.1613 31.3975 13.112 30.5321 13.4691 29.6756C13.6129 29.3304 14.0163 29.1645 14.3734 29.3035C14.7305 29.4425 14.9021 29.8326 14.7583 30.1779C14.1183 31.7114 12.5462 32.7428 10.8443 32.7428H10.849Z" fill="#252D32"/>
<path d="M2.82158 29.8191C2.52943 29.8191 2.26046 29.6398 2.16307 29.3573C2.07032 29.0838 1.97757 28.8327 1.8941 28.5995C1.30978 26.9897 0.924879 25.927 1.62049 23.5773C1.69469 23.3307 1.75961 23.1154 1.82454 22.9226C2.13988 21.9406 2.25582 21.5729 1.98221 19.6941C1.63904 17.3355 3.60531 14.4253 5.62722 13.0846C7.24104 12.0129 10.7423 11.0353 13.265 12.9859C13.5665 13.2191 13.6129 13.6406 13.3717 13.932C13.1306 14.2235 12.6946 14.2684 12.3932 14.0352C10.3898 12.4837 7.50074 13.4702 6.41558 14.1921C4.76466 15.2862 3.10446 17.739 3.35952 19.5058C3.66559 21.5998 3.52647 22.1559 3.15548 23.3172C3.09519 23.5011 3.03027 23.7073 2.96071 23.945C2.38567 25.8866 2.64536 26.5951 3.21113 28.1556C3.29924 28.3977 3.39198 28.6533 3.48937 28.9313C3.60994 29.2855 3.41517 29.6667 3.04882 29.7833C2.97462 29.8057 2.90042 29.8191 2.83086 29.8191H2.82158Z" fill="#252D32"/>
<path d="M17.8468 16.609C17.6242 16.609 17.4063 16.5059 17.2718 16.3176C16.4602 15.1786 14.8742 14.0172 12.8801 14.1832C12.4952 14.2101 12.1613 13.941 12.1289 13.5688C12.0964 13.1967 12.3793 12.8738 12.7642 12.8424C15.3612 12.6361 17.3877 14.1069 18.4172 15.5553C18.6352 15.8602 18.5563 16.2817 18.241 16.4925C18.1204 16.5732 17.9813 16.609 17.8468 16.609Z" fill="#252D32"/>
<path d="M53.8054 39.6841C53.4205 39.6841 53.1097 39.3837 53.1097 39.0115V36.9937C53.1097 34.2629 51.8901 32.8145 48.6068 31.6352C47.3779 31.1958 45.6899 30.5904 45.6899 28.6264V28.2497C45.6899 27.8776 46.0006 27.5771 46.3855 27.5771C46.7704 27.5771 47.0811 27.8776 47.0811 28.2497V28.6264C47.0811 29.5008 47.6051 29.8416 49.0891 30.3752C52.9335 31.7518 54.501 33.671 54.501 36.9937V39.0115C54.501 39.3837 54.1903 39.6841 53.8054 39.6841Z" fill="#252D32"/>
<path d="M37.1848 32.5858C36.9483 32.5858 36.7165 32.4692 36.5866 32.254C36.3918 31.9356 36.5031 31.5231 36.8324 31.3347C37.4492 30.985 38.1633 30.6666 39.0213 30.3572C40.5238 29.8191 41.0524 29.4694 41.0524 28.586V28.2542C41.0524 27.882 41.3632 27.5816 41.7481 27.5816C42.133 27.5816 42.4437 27.882 42.4437 28.2542V28.586C42.4437 30.568 40.7464 31.1733 39.5035 31.6217C38.7245 31.8997 38.0799 32.1867 37.5373 32.4961C37.426 32.5589 37.3054 32.5903 37.1848 32.5903V32.5858Z" fill="#252D32"/>
<path d="M44.3543 33.4064H44.2569C42.6524 33.4064 41.2472 32.5724 40.4079 31.1195C40.2224 30.7967 40.3383 30.3841 40.6768 30.2048C41.0107 30.0254 41.4374 30.1375 41.6229 30.4649C42.2164 31.4962 43.1532 32.0612 44.2569 32.0612H44.3543C45.4766 32.0612 46.4272 31.4738 47.0208 30.4066C47.2017 30.0792 47.6237 29.9581 47.9622 30.133C48.3007 30.3079 48.4259 30.716 48.2451 31.0433C47.4104 32.5455 45.9913 33.4064 44.3543 33.4064Z" fill="#252D32"/>
<path d="M44.3033 29.4021C41.7295 29.4021 38.7337 26.8103 38.7337 23.4742V21.4339C38.7337 21.4339 38.7337 21.4025 38.7337 21.3846C38.8126 20.295 39.5777 18.1516 41.915 17.8377C42.7544 17.7301 43.7561 18.0126 44.818 18.313C46.2185 18.7121 47.8045 19.1605 48.7969 18.5641C49.1215 18.3668 49.5528 18.461 49.7569 18.7749C49.845 18.9094 49.8774 19.0618 49.8589 19.2053C49.8589 19.2278 49.8589 19.2547 49.8589 19.2771V23.4697C49.8589 26.8103 46.8724 29.3976 44.2986 29.3976L44.3033 29.4021ZM40.125 21.4608V23.4742C40.125 25.9404 42.4251 28.0569 44.3033 28.0569C46.1814 28.0569 48.4723 25.9404 48.4723 23.4742V20.1201C47.1785 20.3891 45.7362 19.9766 44.4285 19.6044C43.5149 19.3443 42.6477 19.0932 42.1098 19.1695C40.3893 19.3981 40.1481 21.2321 40.125 21.4608Z" fill="#252D32"/>
<path d="M27.3999 32.0522C26.8759 32.0522 26.3518 31.9491 26.018 31.7473C25.6933 31.55 25.5959 31.133 25.8 30.8191C26.004 30.5052 26.4353 30.411 26.7599 30.6083C26.9779 30.7339 27.8034 30.7384 28.0213 30.6128C28.3459 30.429 28.7772 30.5186 28.9766 30.828C29.176 31.1374 29.0972 31.5365 28.7819 31.7383C28.4572 31.9446 27.9239 32.0522 27.3953 32.0522H27.3999Z" fill="#252D32"/>
<path d="M41.7481 45.5134C41.391 45.5134 41.0895 45.2534 41.0571 44.9036C40.7139 41.3388 38.5111 38.9667 34.1288 37.4286C32.399 36.8188 30.0247 35.9892 30.0247 33.3481C30.0247 32.9759 30.3354 32.6755 30.7203 32.6755C31.1052 32.6755 31.4159 32.9759 31.4159 33.3481C31.4159 34.8099 32.3573 35.3794 34.6018 36.1641C39.4804 37.877 42.0449 40.693 42.439 44.778C42.4761 45.1457 42.1933 45.4776 41.813 45.5089C41.7898 45.5089 41.7712 45.5089 41.7481 45.5089V45.5134Z" fill="#252D32"/>
<path d="M12.9961 45.5134C12.9961 45.5134 12.959 45.5134 12.9451 45.5134C12.5602 45.4865 12.2727 45.1637 12.3005 44.7915C12.6158 40.6751 15.1107 37.9308 20.1563 36.1596C22.4054 35.3704 23.3468 34.801 23.3468 33.3391C23.3468 32.967 23.6575 32.6665 24.0424 32.6665C24.4273 32.6665 24.738 32.967 24.738 33.3391C24.738 35.9803 22.3637 36.8143 20.6339 37.4241C16.1078 39.0115 13.9653 41.3163 13.6917 44.8901C13.6639 45.2444 13.3578 45.5134 13.0007 45.5134H12.9961Z" fill="#252D32"/>
<path d="M27.4463 29.3707H27.3721C26.9872 29.3707 26.6765 29.0703 26.6765 28.6981C26.6765 28.326 26.9872 28.0255 27.3721 28.0255H27.4463C27.5344 28.0255 27.6039 27.9583 27.6039 27.8731V26.1781C27.6039 24.7208 28.8375 23.9046 29.7279 23.8777C30.071 23.8688 30.8872 23.8688 30.8872 23.8688V25.214C30.8872 25.214 30.1035 25.214 29.7742 25.223C29.6119 25.2275 28.9952 25.4786 28.9952 26.1781V27.8731C28.9952 28.6981 28.2995 29.3707 27.4463 29.3707Z" fill="#252D32"/>
<path d="M27.4509 35.0745C24.3067 35.0745 20.6478 31.9267 20.6478 27.8641V24.1154C20.6478 21.8689 21.9509 19.5999 24.8586 19.5999C25.007 19.5999 25.1507 19.6448 25.2667 19.73C26.746 20.7747 30.3864 21.2994 32.0048 21.2994C32.3898 21.2994 32.7005 21.5998 32.7005 21.972C32.7005 22.3442 32.3898 22.6446 32.0048 22.6446C30.4977 22.6446 26.6533 22.2141 24.6453 20.9496C22.1596 21.0841 22.0344 23.5997 22.0344 24.1154V27.8641C22.0344 31.115 24.9931 33.7293 27.4463 33.7293C29.7464 33.7293 33.1642 31.3123 33.1642 27.9717V23.3172C33.1642 22.945 33.4749 22.6446 33.8598 22.6446C34.2447 22.6446 34.5554 22.945 34.5554 23.3172V27.9717C34.5554 31.9087 30.6646 35.0745 27.4463 35.0745H27.4509Z" fill="#252D32"/>
<path d="M25.5171 25.3351H24.1259C23.741 25.3351 23.4303 25.0346 23.4303 24.6625C23.4303 24.2903 23.741 23.9898 24.1259 23.9898H25.5171C25.902 23.9898 26.2127 24.2903 26.2127 24.6625C26.2127 25.0346 25.902 25.3351 25.5171 25.3351Z" fill="#252D32"/>
<path d="M30.8872 26.3081C31.2536 26.3081 31.5504 26.5951 31.5504 26.9493C31.5504 27.3036 31.2536 27.5906 30.8872 27.5906C30.5209 27.5906 30.2241 27.3036 30.2241 26.9493C30.2241 26.5951 30.5209 26.3081 30.8872 26.3081Z" fill="#252D32"/>
<path d="M24.6221 26.3081C24.9884 26.3081 25.2852 26.5951 25.2852 26.9493C25.2852 27.3036 24.9884 27.5906 24.6221 27.5906C24.2557 27.5906 23.9589 27.3036 23.9589 26.9493C23.9589 26.5951 24.2557 26.3081 24.6221 26.3081Z" fill="#252D32"/>
<path d="M27.3767 40.6213C23.894 40.6213 21.1672 38.7335 21.1672 36.3255C21.1672 35.9534 21.4779 35.6529 21.8628 35.6529C22.2477 35.6529 22.5584 35.9534 22.5584 36.3255C22.5584 37.9264 24.7658 39.2761 27.3767 39.2761C29.9876 39.2761 32.195 37.9264 32.195 36.3255C32.195 35.9534 32.5057 35.6529 32.8906 35.6529C33.2755 35.6529 33.5862 35.9534 33.5862 36.3255C33.5862 38.7335 30.8594 40.6213 27.3767 40.6213Z" fill="#252D32"/>
<path d="M27.3628 52.9122C18.714 52.9122 10.7608 49.0828 5.53448 42.4104C5.30261 42.1145 5.3629 41.693 5.66896 41.4688C5.97503 41.2446 6.41095 41.3029 6.64282 41.5988C11.6049 47.9348 19.1546 51.5669 27.3628 51.5669C35.571 51.5669 43.1625 47.9124 48.1245 41.545C48.3564 41.2491 48.7923 41.1908 49.0984 41.4105C49.4044 41.6347 49.4647 42.0562 49.2375 42.3521C44.0111 49.0603 36.0394 52.9077 27.3674 52.9077L27.3628 52.9122Z" fill="#EA5514"/>
<path d="M48.1616 10.9905C47.9576 10.9905 47.7582 10.9053 47.619 10.7394C42.6616 4.77106 35.2742 1.34522 27.3628 1.34522C19.4514 1.34522 12.2819 4.6769 7.32452 10.4838C7.07873 10.7708 6.64282 10.8111 6.34602 10.5735C6.04923 10.3358 6.00749 9.91431 6.25327 9.62732C11.475 3.51104 19.1685 0 27.3628 0C35.5571 0 43.4778 3.6052 48.7042 9.89637C48.9453 10.1878 48.899 10.6093 48.5975 10.8425C48.4677 10.9412 48.3146 10.9905 48.1616 10.9905Z" fill="#EA5514"/>
<path d="M51.5608 20.9227C51.1759 20.9227 50.8652 20.6223 50.8652 20.2501C50.8652 18.0036 49.6641 14.645 46.9976 14.2101C46.6173 14.1473 46.3623 13.802 46.4272 13.4343C46.4921 13.0666 46.8492 12.8245 47.2295 12.8828C50.893 13.4791 52.2611 17.7166 52.2611 20.2501C52.2611 20.6223 51.9504 20.9227 51.5655 20.9227H51.5608Z" fill="#252D32"/>
<path d="M37.6579 17.2637C37.5698 17.2637 37.477 17.2458 37.3889 17.2099C37.0318 17.0664 36.8649 16.6718 37.0133 16.331C37.8434 14.4073 39.1975 13.3401 40.125 12.7976V12.0128C40.125 11.6765 40.38 11.394 40.7232 11.3447C41.6275 11.2192 42.6524 11.3716 43.3712 11.5286V11.4568C43.3712 11.264 43.4546 11.0846 43.603 10.9546C43.7514 10.829 43.9416 10.7663 44.1456 10.7887C46.2417 11.0129 47.8045 12.9635 47.8695 13.0487C48.1013 13.3446 48.041 13.7661 47.7396 13.9903C47.4335 14.2145 46.9976 14.1562 46.7658 13.8648C46.7472 13.8423 45.8986 12.7931 44.767 12.3312V12.4119C44.767 12.6272 44.6604 12.8334 44.4795 12.959C44.2987 13.0845 44.0621 13.1204 43.8535 13.0487C43.8395 13.0487 42.6431 12.6586 41.5255 12.6451V13.1877C41.5255 13.4388 41.3817 13.6675 41.1498 13.7841C40.4218 14.1473 39.0862 15.0306 38.3071 16.8422C38.1958 17.1023 37.9361 17.2547 37.6625 17.2547L37.6579 17.2637Z" fill="#252D32"/>
<path d="M36.1832 23.9898C35.7982 23.9898 35.4875 23.6894 35.4875 23.3172V21.9271C35.4875 17.8735 31.9863 14.5733 27.6874 14.5733H27.6039C26.2544 14.5733 25.5635 14.8154 24.4319 15.3938C24.367 15.4297 24.2928 15.4521 24.2186 15.4611C20.0449 16.1158 19.7203 20.6088 19.7203 21.972V23.3172C19.7203 23.6894 19.4096 23.9898 19.0247 23.9898C18.6398 23.9898 18.3291 23.6894 18.3291 23.3172V21.972C18.3291 18.6448 19.7899 14.8602 23.8847 14.1517C25.1229 13.524 26.0226 13.228 27.6039 13.228H27.6874C32.7561 13.228 36.8788 17.1337 36.8788 21.9271V23.3172C36.8788 23.6894 36.5681 23.9898 36.1832 23.9898Z" fill="#252D32"/>
</g>
<defs>
<clipPath id="clip0_1_549">
<rect width="53.794" height="52.9122" fill="white" transform="translate(0.706924)"/>
</clipPath>
</defs>
</svg>
