<svg width="56" height="43" viewBox="0 0 56 43" fill="none" xmlns="http://www.w3.org/2000/svg">
<g clip-path="url(#clip0_1_614)">
<path d="M26.9275 41.7913C26.9275 40.3141 27.5678 38.9769 28.5885 38.0328C28.9735 37.6759 28.7276 37.048 28.1987 37.048H3.53069C3.41007 38.9408 4.21733 40.9421 6.31437 42.0172H26.9275V41.7913Z" fill="#EA5514"/>
<path d="M42.544 0.456268H41.463C40.0943 0.456268 38.9855 1.53595 38.9855 2.86861L38.5216 4.52201H45.0168V2.86861C45.0168 1.53595 43.908 0.456268 42.5393 0.456268H42.544Z" fill="#EA5514"/>
<path d="M38.0344 8.34833C37.6401 8.34833 37.3339 8.03662 37.3385 7.66167C37.3524 6.29739 37.4266 5.32161 37.5565 4.68916C38.2385 1.35977 39.5283 0 42.0058 0C43.2631 0 44.4322 0.514995 45.2117 1.41398C45.9957 2.31748 46.3066 3.5372 46.0792 4.85631C46.0236 5.18157 45.7313 5.42099 45.3926 5.42099H38.8417C38.7767 5.96761 38.735 6.72203 38.7257 7.67522C38.7257 8.04566 38.4102 8.34381 38.0298 8.34381L38.0344 8.34833ZM39.134 4.07026H44.7663C44.7756 3.37457 44.5714 2.76922 44.1539 2.29037C43.6435 1.70761 42.8455 1.35977 42.0104 1.35977C40.8506 1.35977 39.8252 1.58112 39.134 4.07026Z" fill="#252D32"/>
<path d="M30.8711 42.469H7.89179C6.18911 42.469 4.58849 41.8275 3.61884 40.7568C2.69559 39.7404 2.31515 38.349 2.52393 36.7408C2.56568 36.402 2.86261 36.149 3.21521 36.149H28.0874C28.4725 36.149 28.7833 36.4517 28.7833 36.8266C28.7833 37.2016 28.4725 37.5042 28.0874 37.5042H3.86009C3.84154 38.4619 4.11063 39.257 4.66272 39.8624C5.3772 40.6484 6.58346 41.1182 7.89179 41.1182H30.8711C31.2562 41.1182 31.567 41.4209 31.567 41.7959C31.567 42.1708 31.2562 42.4735 30.8711 42.4735V42.469Z" fill="#252D32"/>
<path d="M9.08877 35.006C8.99134 35.006 8.89391 34.9879 8.80112 34.9472C8.45316 34.7937 8.29542 34.3916 8.4578 34.0483C9.65479 31.4823 8.79649 21.7245 8.2815 15.897C8.1052 13.8867 7.9521 12.152 7.91035 11.0949C7.90571 10.9322 7.95674 10.7741 8.06345 10.6476L9.562 8.82257L8.17944 7.23241C8.05881 7.09237 7.9985 6.90716 8.01705 6.72646C8.61091 1.03441 11.209 -0.0723752 13.2689 -9.52987e-05H41.5418C41.9269 -9.52987e-05 42.2378 0.302577 42.2378 0.677529C42.2378 1.05248 41.9269 1.35515 41.5418 1.35515H13.2411C12.4338 1.32805 10.0723 1.24222 9.42745 6.57738L10.991 8.37082C11.2044 8.61929 11.209 8.98069 11.0049 9.23367L9.31147 11.2936C9.3625 12.3372 9.50632 13.9409 9.6687 15.7795C10.411 24.1821 10.9724 31.9431 9.72438 34.6084C9.60839 34.8569 9.35322 35.006 9.08877 35.006Z" fill="#252D32"/>
<path d="M26.6955 13.557H21.1282C20.7431 13.557 20.4323 13.2543 20.4323 12.8794C20.4323 12.5044 20.7431 12.2018 21.1282 12.2018H26.6955C27.0806 12.2018 27.3915 12.5044 27.3915 12.8794C27.3915 13.2543 27.0806 13.557 26.6955 13.557Z" fill="#252D32"/>
<path d="M17.8806 13.557H15.5608C15.1758 13.557 14.8649 13.2543 14.8649 12.8794C14.8649 12.5044 15.1758 12.2018 15.5608 12.2018H17.8806C18.2656 12.2018 18.5765 12.5044 18.5765 12.8794C18.5765 13.2543 18.2656 13.557 17.8806 13.557Z" fill="#252D32"/>
<path d="M22.984 18.0745H15.5608C15.1758 18.0745 14.8649 17.7718 14.8649 17.3969C14.8649 17.0219 15.1758 16.7192 15.5608 16.7192H22.984C23.369 16.7192 23.6799 17.0219 23.6799 17.3969C23.6799 17.7718 23.369 18.0745 22.984 18.0745Z" fill="#252D32"/>
<path d="M26.6955 9.03951H15.5608C15.1758 9.03951 14.8649 8.73684 14.8649 8.36189C14.8649 7.98694 15.1758 7.68427 15.5608 7.68427H26.6955C27.0806 7.68427 27.3915 7.98694 27.3915 8.36189C27.3915 8.73684 27.0806 9.03951 26.6955 9.03951Z" fill="#252D32"/>
<path d="M26.6956 30.7235H24.3758C23.9907 30.7235 23.6799 30.4208 23.6799 30.0459C23.6799 29.6709 23.9907 29.3682 24.3758 29.3682H26.6956C27.0806 29.3682 27.3915 29.6709 27.3915 30.0459C27.3915 30.4208 27.0806 30.7235 26.6956 30.7235Z" fill="#252D32"/>
<path d="M21.1282 30.7235H15.5608C15.1758 30.7235 14.8649 30.4208 14.8649 30.0459C14.8649 29.6709 15.1758 29.3682 15.5608 29.3682H21.1282C21.5133 29.3682 21.8241 29.6709 21.8241 30.0459C21.8241 30.4208 21.5133 30.7235 21.1282 30.7235Z" fill="#252D32"/>
<path d="M26.6955 26.206H15.5608C15.1758 26.206 14.8649 25.9033 14.8649 25.5284C14.8649 25.1534 15.1758 24.8507 15.5608 24.8507H26.6955C27.0806 24.8507 27.3915 25.1534 27.3915 25.5284C27.3915 25.9033 27.0806 26.206 26.6955 26.206Z" fill="#252D32"/>
<path d="M42.2378 29.82C39.4263 32.0155 37.3802 34.6492 36.4941 37.9515H47.9768C47.0907 34.6492 45.0446 32.0155 42.2331 29.82H42.2378Z" fill="#EA5514"/>
<path d="M49.5774 32.9461C49.299 32.9461 49.0346 32.7789 48.9279 32.5124C47.9629 30.082 46.237 28.8623 44.8452 27.8865C44.3023 27.5025 43.9776 26.8746 43.9776 26.206C43.9776 25.5374 44.3023 24.9095 44.8452 24.5255C46.8772 23.0934 49.6609 21.1374 49.6609 15.5899V14.2346C49.6609 13.8597 49.9718 13.557 50.3568 13.557C50.7419 13.557 51.0528 13.8597 51.0528 14.2346V15.5899C51.0528 21.8285 47.8098 24.1144 45.6617 25.6278C45.4761 25.7588 45.3694 25.9711 45.3694 26.206C45.3694 26.4409 45.4761 26.6532 45.6617 26.7842C47.1185 27.8097 49.1135 29.2146 50.2269 32.02C50.3661 32.3679 50.1852 32.7609 49.8279 32.8964C49.7444 32.928 49.6609 32.9416 49.5774 32.9416V32.9461Z" fill="#252D32"/>
<path d="M50.3568 38.855C49.9718 38.855 49.6609 38.5523 49.6609 38.1774V36.8221C49.6609 36.1897 49.6238 35.5843 49.5542 35.0151C49.5078 34.6447 49.7769 34.3059 50.1573 34.2607C50.5378 34.2155 50.8857 34.4775 50.9321 34.848C51.011 35.4714 51.0528 36.1354 51.0528 36.8221V38.1774C51.0528 38.5523 50.7419 38.855 50.3568 38.855Z" fill="#252D32"/>
<path d="M34.1187 38.855C33.7336 38.855 33.4228 38.5523 33.4228 38.1774V36.8221C33.4228 30.5834 36.6658 28.2976 38.8138 26.7842C38.9994 26.6532 39.1061 26.4409 39.1061 26.206C39.1061 25.9711 38.9994 25.7588 38.8138 25.6278C36.6658 24.1144 33.4228 21.8331 33.4228 15.5899V14.2346C33.4228 13.8597 33.7336 13.557 34.1187 13.557C34.5038 13.557 34.8146 13.8597 34.8146 14.2346V15.5899C34.8146 21.1374 37.5983 23.098 39.6304 24.5255C40.1732 24.9095 40.498 25.5374 40.498 26.206C40.498 26.8746 40.1732 27.5025 39.6304 27.8865C37.5983 29.3185 34.8146 31.2746 34.8146 36.8221V38.1774C34.8146 38.5523 34.5038 38.855 34.1187 38.855Z" fill="#252D32"/>
<path d="M38.3592 20.3333C39.3752 21.8466 40.6928 23.1883 42.2378 24.399C43.7874 23.1883 45.1003 21.8466 46.1164 20.3333H38.3592Z" fill="#EA5514"/>
<path d="M54.9963 42.469H1.17848C0.793404 42.469 0.482559 42.1663 0.482559 41.7913C0.482559 41.4164 0.793404 41.1137 1.17848 41.1137H54.9963C55.3814 41.1137 55.6922 41.4164 55.6922 41.7913C55.6922 42.1663 55.3814 42.469 54.9963 42.469Z" fill="#252D32"/>
<path d="M51.5167 14.0087H32.9588C31.1634 14.0087 29.7112 12.5948 29.7112 10.8465H54.7643C54.7643 12.5948 53.3122 14.0087 51.5167 14.0087Z" fill="white"/>
<path d="M51.5167 38.4032H32.9588C31.1634 38.4032 29.7112 39.8172 29.7112 41.5655H54.7643C54.7643 39.8172 53.3122 38.4032 51.5167 38.4032Z" fill="white"/>
<path d="M53.6045 39.3067C53.2194 39.3067 52.9085 39.0041 52.9085 38.6291V28.6906C52.9085 28.3157 53.2194 28.013 53.6045 28.013C53.9895 28.013 54.3004 28.3157 54.3004 28.6906V38.6291C54.3004 39.0041 53.9895 39.3067 53.6045 39.3067Z" fill="#252D32"/>
<path d="M53.6045 23.9472C53.2194 23.9472 52.9085 23.6446 52.9085 23.2696V13.3311C52.9085 12.9562 53.2194 12.6535 53.6045 12.6535C53.9895 12.6535 54.3004 12.9562 54.3004 13.3311V23.2696C54.3004 23.6446 53.9895 23.9472 53.6045 23.9472Z" fill="#252D32"/>
<path d="M51.7487 14.4605H32.7269C30.5509 14.4605 28.7833 12.7393 28.7833 10.6206C28.7833 10.2457 29.0942 9.94299 29.4792 9.94299H54.9963C55.3814 9.94299 55.6922 10.2457 55.6922 10.6206C55.6922 12.7393 53.9246 14.4605 51.7487 14.4605ZM30.2726 11.2982C30.5741 12.3418 31.5624 13.1052 32.7269 13.1052H51.7487C52.9132 13.1052 53.9014 12.3418 54.203 11.2982H30.2726Z" fill="#252D32"/>
<path d="M54.9963 42.469H29.4792C29.0942 42.469 28.7833 42.1663 28.7833 41.7913C28.7833 39.6726 30.5509 37.9515 32.7269 37.9515H51.7487C53.9246 37.9515 55.6922 39.6726 55.6922 41.7913C55.6922 42.1663 55.3814 42.469 54.9963 42.469ZM30.2726 41.1137H54.203C53.9014 40.0702 52.9132 39.3067 51.7487 39.3067H32.7269C31.5624 39.3067 30.5741 40.0702 30.2726 41.1137Z" fill="#252D32"/>
<path d="M53.6045 27.1095C54.245 27.1095 54.7643 26.6038 54.7643 25.9801C54.7643 25.3564 54.245 24.8507 53.6045 24.8507C52.9639 24.8507 52.4446 25.3564 52.4446 25.9801C52.4446 26.6038 52.9639 27.1095 53.6045 27.1095Z" fill="#252D32"/>
<path d="M30.8711 39.3067C30.486 39.3067 30.1752 39.0041 30.1752 38.6291V28.6906C30.1752 28.3157 30.486 28.013 30.8711 28.013C31.2562 28.013 31.567 28.3157 31.567 28.6906V38.6291C31.567 39.0041 31.2562 39.3067 30.8711 39.3067Z" fill="#252D32"/>
<path d="M30.8711 23.9472C30.486 23.9472 30.1752 23.6446 30.1752 23.2696V13.3311C30.1752 12.9562 30.486 12.6535 30.8711 12.6535C31.2562 12.6535 31.567 12.9562 31.567 13.3311V23.2696C31.567 23.6446 31.2562 23.9472 30.8711 23.9472Z" fill="#252D32"/>
<path d="M30.8711 27.1095C31.5116 27.1095 32.0309 26.6038 32.0309 25.9801C32.0309 25.3564 31.5116 24.8507 30.8711 24.8507C30.2305 24.8507 29.7112 25.3564 29.7112 25.9801C29.7112 26.6038 30.2305 27.1095 30.8711 27.1095Z" fill="#252D32"/>
</g>
<defs>
<clipPath id="clip0_1_614">
<rect width="55.2097" height="42.469" fill="white" transform="translate(0.482559)"/>
</clipPath>
</defs>
</svg>
