<svg width="54" height="55" viewBox="0 0 54 55" fill="none" xmlns="http://www.w3.org/2000/svg">
<g clip-path="url(#clip0_1_581)">
<path d="M33.331 53.407H27.842C26.9592 53.407 26.2411 52.7024 26.2411 51.8362C26.2411 50.97 26.9592 50.2654 27.842 50.2654H33.331C34.2138 50.2654 34.9319 50.97 34.9319 51.8362C34.9319 52.7024 34.2138 53.407 33.331 53.407Z" fill="white"/>
<path d="M46.8247 35.9039H49.1758C50.9094 35.9039 52.3136 34.526 52.3136 32.8251V30.0111C52.3136 28.3102 50.9094 26.9324 49.1758 26.9324H47.2821C47.7395 30.074 47.4285 32.9328 46.8247 35.9083V35.9039Z" fill="white"/>
<path d="M13.4335 35.9039H11.0824C9.34881 35.9039 7.94455 34.526 7.94455 32.8251V30.0111C7.94455 28.3102 9.34881 26.9324 11.0824 26.9324H12.9761C12.5187 30.074 12.8297 32.9328 13.4335 35.9083V35.9039Z" fill="white"/>
<path d="M10.0024 21.5423H1.53569C1.29326 21.5423 1.0737 21.4167 0.945625 21.2147C0.822124 21.0127 0.812976 20.7614 0.927329 20.5505L11.8915 0.354551C12.0105 0.134639 12.2437 0 12.4953 0H36.3769C36.6193 0 36.8389 0.125664 36.9669 0.327623C37.0904 0.529582 37.0996 0.780909 36.9852 0.991844L32.6764 8.93109C32.498 9.25871 32.0818 9.38437 31.7478 9.20934C31.4139 9.03431 31.2859 8.6259 31.4642 8.29828L35.2379 1.34639H12.9116L2.67922 20.1959H10.0024C10.3821 20.1959 10.6885 20.4966 10.6885 20.8691C10.6885 21.2416 10.3821 21.5423 10.0024 21.5423Z" fill="#252D32"/>
<path d="M13.031 25.3526C12.999 25.3526 12.9669 25.3526 12.9349 25.3436C12.7291 25.3167 12.5507 25.1955 12.4455 25.025L7.47797 16.9017C7.34075 16.6773 7.3499 16.3946 7.49627 16.1792L7.54659 16.1074C12.3906 9.09264 20.098 4.56876 28.6882 3.70706C28.9581 3.68013 29.2097 3.8058 29.3469 4.0302L34.3144 12.1534C34.4196 12.3285 34.4425 12.5394 34.3693 12.7279C34.3007 12.9164 34.1452 13.069 33.9531 13.1363C32.1371 13.7601 30.3258 14.4827 28.5785 15.2816C28.2354 15.4386 27.8283 15.2905 27.6682 14.9539C27.5081 14.6173 27.6591 14.2179 28.0021 14.0608C29.539 13.3607 31.1171 12.7189 32.7089 12.1445L28.4001 5.09385C20.5005 6.0094 13.4243 10.1742 8.88223 16.5831L13.1911 23.6292C15.9721 21.1922 18.9865 18.9976 22.1747 17.1037C23.2038 16.4888 24.2696 15.9009 25.3354 15.3534C25.6693 15.1783 26.0856 15.3085 26.2639 15.6361C26.4423 15.9637 26.3097 16.3722 25.9758 16.5472C24.9374 17.0857 23.8991 17.6602 22.8882 18.2616C19.54 20.2498 16.3838 22.579 13.5021 25.1776C13.374 25.2943 13.2094 25.3571 13.0355 25.3571L13.031 25.3526Z" fill="#252D32"/>
<path d="M12.9898 26.3669C12.9898 26.3669 14.7234 25.7745 15.6154 26.892C16.5073 28.0095 17.0928 28.7276 17.6463 29.1495C18.1998 29.5758 20.6149 29.4367 20.807 30.8773C20.9991 32.318 20.8207 32.4481 20.9442 33.4086C21.0723 34.369 22.7602 35.5628 23.1032 35.6301C24.416 35.8904 24.5029 33.983 25.6968 33.606C26.8906 33.229 27.7826 34.3465 28.4229 33.5432C29.0633 32.7398 29.9964 32.7084 31.3092 32.9732C32.5442 33.2201 33.7289 34.167 32.7226 35.9847C31.7163 37.8023 33.1023 39.1442 33.4408 39.8398C33.7793 40.531 36.5146 42.8288 35.5312 42.941C34.5477 43.0532 33.3676 42.8917 31.8581 40.8676C30.3487 38.8435 27.778 39.8354 27.4441 39.7187C25.6602 39.0948 24.3199 36.4424 23.0392 38.0446C21.7584 39.6513 20.7155 40.522 19.5034 41.083C18.8676 41.3792 16.5073 41.0202 16.5073 41.0202C16.5073 41.0202 13.461 35.841 13.063 33.8933C11.9744 28.5795 12.9807 26.3624 12.9807 26.3624L12.9898 26.3669Z" fill="#EA5514"/>
<path d="M35.4351 14.0788C35.4351 14.0788 32.8781 15.1828 31.8215 16.5203C31.2315 17.2698 30.0879 19.6035 30.4447 21.2012C30.5499 21.6725 31.2818 21.6366 31.7895 22.1706C32.6403 23.0637 32.6815 23.4452 32.8278 24.5986C32.9102 25.2673 32.4939 26.5868 33.4133 27.3318C33.9119 27.7357 35.9062 27.085 36.1166 27.3857C36.7113 28.2339 37.155 29.8137 38.0469 31.0838C38.9389 32.3584 39.5244 35.0915 40.43 34.4767C41.3357 33.8663 41.7977 31.6762 41.8068 29.7957C41.816 27.9108 44.3729 26.8112 43.3392 24.3832C42.3054 21.9552 44.2632 20.0074 44.2632 20.0074C42.74 16.9242 39.6524 15.0617 35.4442 14.0788H35.4351Z" fill="#EA5514"/>
<path d="M30.1154 47.5726C21.1181 47.5726 13.31 40.9663 12.1939 31.9859C11.8646 29.3379 12.1345 26.7215 12.9944 24.2127C13.1133 23.8581 13.5067 23.6696 13.8635 23.7908C14.2248 23.9075 14.417 24.289 14.2935 24.6435C13.5021 26.9593 13.2506 29.3783 13.557 31.8243C14.6685 40.7913 23.0118 47.1912 32.1463 46.1051C41.2854 45.0145 47.8127 36.8329 46.7012 27.8659C45.8001 20.5998 40.023 14.752 32.6586 13.6524C32.2835 13.5986 32.0274 13.253 32.0823 12.885C32.1372 12.517 32.4894 12.2657 32.8644 12.3195C40.8372 13.5133 47.0854 19.8369 48.0643 27.7043C49.2673 37.4073 42.2048 46.2621 32.3155 47.4425C31.5791 47.5322 30.8427 47.5726 30.12 47.5726H30.1154Z" fill="#252D32"/>
<path d="M12.7474 36.8015H10.8537C8.74502 36.8015 7.02972 35.1185 7.02972 33.0495V29.7867C7.02972 27.7178 8.74502 26.0348 10.8537 26.0348H12.7474C13.127 26.0348 13.4335 26.3355 13.4335 26.708C13.4335 27.0805 13.127 27.3812 12.7474 27.3812H10.8537C9.49976 27.3812 8.40196 28.4628 8.40196 29.7867V33.0495C8.40196 34.378 9.50433 35.4551 10.8537 35.4551H12.7474C13.127 35.4551 13.4335 35.7558 13.4335 36.1283C13.4335 36.5008 13.127 36.8015 12.7474 36.8015Z" fill="#252D32"/>
<path d="M49.4045 36.8015H47.5108C47.1311 36.8015 46.8247 36.5008 46.8247 36.1283C46.8247 35.7558 47.1311 35.4551 47.5108 35.4551H49.4045C50.7584 35.4551 51.8562 34.3735 51.8562 33.0495V29.7867C51.8562 28.4583 50.7539 27.3812 49.4045 27.3812H47.5108C47.1311 27.3812 46.8247 27.0805 46.8247 26.708C46.8247 26.3355 47.1311 26.0348 47.5108 26.0348H49.4045C51.5132 26.0348 53.2285 27.7178 53.2285 29.7867V33.0495C53.2285 35.1185 51.5132 36.8015 49.4045 36.8015Z" fill="#252D32"/>
<path d="M26.3783 52.3703C26.3234 52.3703 26.2731 52.3658 26.2182 52.3523C18.2775 50.4898 11.9561 44.5432 9.7239 36.8329C9.61869 36.4738 9.83368 36.1013 10.195 36.0026C10.5564 35.8994 10.9406 36.1103 11.0412 36.4649C13.1408 43.7085 19.078 49.2915 26.5338 51.0418C26.9043 51.1271 27.1285 51.4906 27.0416 51.8542C26.9638 52.1638 26.6848 52.3703 26.3737 52.3703H26.3783Z" fill="#252D32"/>
<path d="M33.7884 54.3046H28.2994C26.9135 54.3046 25.7837 53.196 25.7837 51.8362C25.7837 50.4763 26.9135 49.3678 28.2994 49.3678H33.7884C35.1744 49.3678 36.3042 50.4763 36.3042 51.8362C36.3042 53.196 35.1744 54.3046 33.7884 54.3046ZM28.2994 50.7142C27.6682 50.7142 27.1559 51.2168 27.1559 51.8362C27.1559 52.4555 27.6682 52.9582 28.2994 52.9582H33.7884C34.4196 52.9582 34.9319 52.4555 34.9319 51.8362C34.9319 51.2168 34.4196 50.7142 33.7884 50.7142H28.2994Z" fill="#252D32"/>
<path d="M50.9734 27.5158C50.6441 27.5158 50.3513 27.2824 50.2965 26.9503C49.002 19.0515 43.083 12.5708 35.211 10.4435C34.845 10.3448 34.63 9.97229 34.7307 9.61774C34.8313 9.2587 35.211 9.04777 35.5723 9.1465C43.9567 11.4129 50.269 18.3199 51.6504 26.7394C51.7099 27.1074 51.4537 27.453 51.0832 27.5113C51.0466 27.5158 51.01 27.5203 50.9734 27.5203V27.5158Z" fill="#252D32"/>
</g>
<defs>
<clipPath id="clip0_1_581">
<rect width="52.3784" height="54.3046" fill="white" transform="translate(0.850067)"/>
</clipPath>
</defs>
</svg>
