<svg width="57" height="51" viewBox="0 0 57 51" fill="none" xmlns="http://www.w3.org/2000/svg">
<g clip-path="url(#clip0_1_667)">
<path d="M30.5114 49.8463L29.4213 45.0003L45.3272 41.4764L46.2811 46.7139L30.5114 49.8463Z" fill="white"/>
<path d="M34.3082 24.2668C33.9839 24.2668 33.6926 24.0457 33.6221 23.7232L32.8844 20.4434C32.8186 20.1486 32.5367 19.8722 32.1185 19.688C31.6721 19.4899 31.127 19.43 30.69 19.5221C30.2953 19.605 29.957 19.8308 29.7361 20.1578C29.52 20.471 29.4495 20.8396 29.5293 21.1943L30.0039 23.2948C30.0885 23.6679 29.8489 24.0364 29.4683 24.1194C29.0876 24.2023 28.7117 23.9673 28.6272 23.5942L28.1526 21.4937C27.9881 20.7705 28.1338 20.0242 28.5661 19.3931C28.989 18.7713 29.6374 18.3383 30.3893 18.177C31.127 18.0204 31.9681 18.1079 32.6964 18.4304C33.5422 18.8035 34.0967 19.4116 34.2659 20.1486L35.0036 23.4284C35.0882 23.8015 34.8486 24.17 34.4679 24.2529C34.4163 24.2622 34.3646 24.2714 34.3176 24.2714L34.3082 24.2668Z" fill="#252D32"/>
<path d="M38.4573 23.3685C38.1331 23.3685 37.8418 23.1474 37.7713 22.8249L37.2403 20.471C37.0805 19.7663 36.3287 19.3287 35.5675 19.4945C35.1963 19.5774 34.8767 19.7893 34.6653 20.0933C34.4632 20.3881 34.3928 20.7382 34.4679 21.0699C34.5525 21.443 34.3129 21.8115 33.9323 21.8944C33.5516 21.9774 33.1757 21.7424 33.0911 21.3693C32.9314 20.6645 33.0723 19.9413 33.4906 19.3287C33.8994 18.7252 34.529 18.306 35.2621 18.1494C36.7845 17.8223 38.2882 18.7298 38.6171 20.1762L39.1481 22.5301C39.2327 22.9033 38.993 23.2718 38.6124 23.3547C38.5607 23.3639 38.509 23.3731 38.462 23.3731L38.4573 23.3685Z" fill="#252D32"/>
<path d="M30.3846 44.7101C30.0838 44.7101 29.8019 44.5213 29.7126 44.2218C29.332 43.0011 27.7672 41.8633 27.0201 41.3198C26.0991 40.6518 25.258 40.1037 24.5109 39.6154C22.7159 38.4454 21.2968 37.5241 20.4181 35.9256C20.2442 35.6124 19.967 35.1333 19.6287 34.5529C16.4146 29.0436 15.6534 27.3116 16.0904 26.5055C16.3488 26.0264 16.8751 25.6947 17.5752 25.575C18.6748 25.3861 20.3805 25.7178 21.7103 26.8924C21.7338 26.9154 21.7573 26.9385 21.7808 26.9615C23.2938 28.7304 25.7984 31.637 26.0803 31.9088C26.1038 31.9226 26.1226 31.9134 26.1367 31.8996L21.9922 13.4554C21.809 12.6447 22.0016 11.8017 22.5232 11.143C23.0354 10.4935 23.8154 10.1019 24.6612 10.0743C26.0192 10.0236 27.2316 10.9956 27.5417 12.3729L29.7408 22.1293C29.8254 22.5025 29.5857 22.871 29.2051 22.9539C28.8245 23.0368 28.4486 22.8019 28.364 22.4288L26.1649 12.6723C26.0051 11.9721 25.4037 11.4516 24.7552 11.4516C24.7411 11.4516 24.727 11.4516 24.7129 11.4516C24.2806 11.4654 23.9047 11.6589 23.6416 11.986C23.3784 12.3176 23.2797 12.746 23.3737 13.156L27.5182 31.5679C27.6592 32.1852 27.3678 32.8117 26.804 33.1157C26.2401 33.4197 25.554 33.3322 25.0935 32.89C24.68 32.4892 21.2686 28.5093 20.7329 27.8828C19.7649 27.049 18.5479 26.8049 17.8196 26.9293C17.5846 26.9707 17.4483 27.0398 17.3826 27.0951C17.4906 28.0993 19.92 32.2681 20.8504 33.862C21.1934 34.4516 21.48 34.9399 21.6586 35.2623C22.3681 36.5567 23.5335 37.3122 25.2909 38.4546C26.0521 38.9475 26.912 39.5095 27.8612 40.2004C28.7305 40.8315 30.5443 42.1535 31.0659 43.8073C31.1787 44.1712 30.9719 44.5581 30.596 44.6687C30.5255 44.6917 30.4597 44.7009 30.3893 44.7009L30.3846 44.7101Z" fill="#252D32"/>
<path d="M44.0444 41.9555C43.7014 41.9555 43.4053 41.7113 43.3489 41.3705L43.3067 41.1171C43.1234 39.9655 43.2879 38.777 43.7812 37.6899C44.6506 35.7736 44.4109 33.7606 44.2511 32.434L44.2183 32.1392C44.0914 31.0244 42.2447 23.1934 41.5398 20.2683C41.4647 19.9275 41.2532 19.6465 40.9431 19.4622C40.6236 19.2734 40.2382 19.2135 39.867 19.2918C39.4958 19.3701 39.1669 19.5866 38.9648 19.886C38.899 19.9781 38.8474 20.0887 38.7957 20.2269C38.7299 20.425 38.7205 20.6415 38.7675 20.858L38.8802 21.3693C38.9648 21.7424 38.7252 22.1109 38.3446 22.1938C37.964 22.2768 37.588 22.0418 37.5035 21.6687L37.3907 21.1574C37.2873 20.7014 37.3108 20.2223 37.4659 19.7755C37.5645 19.5129 37.6679 19.3056 37.7948 19.1167C38.1942 18.5271 38.838 18.0987 39.5616 17.9421C40.2899 17.7855 41.0418 17.9052 41.6714 18.2784C42.3152 18.6607 42.7522 19.2549 42.9119 19.9597C43.0153 20.3835 45.4494 30.5591 45.6138 31.9825L45.6467 32.2727C45.8253 33.7514 46.0931 35.9901 45.0641 38.2519C44.6787 39.0995 44.5519 40.0162 44.6928 40.9052L44.7351 41.154C44.7962 41.5317 44.5331 41.8864 44.1478 41.9463C44.1102 41.9509 44.0726 41.9555 44.035 41.9555H44.0444Z" fill="#252D32"/>
<path d="M30.4221 50.1273C30.0979 50.1273 29.8066 49.9062 29.7361 49.5837L28.7352 45.1431C28.6506 44.77 28.8903 44.4061 29.2662 44.3186L45.1768 40.7993C45.3648 40.7578 45.5622 40.7947 45.7219 40.9006C45.8817 41.0065 45.9945 41.1724 46.0273 41.3566L46.8826 46.1704C46.9483 46.5481 46.6946 46.9028 46.3093 46.9673C45.9287 47.0318 45.5622 46.783 45.4964 46.4053L44.768 42.3102L30.2671 45.5209L31.1176 49.2935C31.2022 49.6667 30.9625 50.0352 30.5819 50.1181C30.5302 50.1273 30.4785 50.1365 30.4315 50.1365L30.4221 50.1273Z" fill="#252D32"/>
<path d="M18.2754 37.3122H4.45107C4.25371 37.3122 4.08925 37.1556 4.08925 36.9575V1.38193H2.44462C1.53772 1.38193 0.799988 2.10514 0.799988 2.99418V38.1414C0.799988 39.7168 1.73978 40.5367 3.52538 40.5367H20.2301C20.5403 40.5367 20.7094 40.182 20.5121 39.9471L18.2707 37.3122H18.2754Z" fill="#EA5514"/>
<path d="M47.7895 37.3122H53.0664C53.2637 37.3122 53.4282 37.1556 53.4282 36.9575V1.38193H55.0728C55.9797 1.38193 56.7175 2.10514 56.7175 2.99418V38.1414C56.7175 39.7168 55.7777 40.5367 53.9921 40.5367H47.6156C47.2303 40.5367 46.9531 40.1774 47.0611 39.8135L47.7895 37.3122Z" fill="#EA5514"/>
<path d="M52.6059 38.2335H48.0244C47.6344 38.2335 47.3196 37.9248 47.3196 37.5425C47.3196 37.1602 47.6344 36.8515 48.0244 36.8515H52.4884V1.38193H33.5798C31.4841 1.38193 29.863 2.44141 29.4401 4.08131C29.3461 4.44982 28.9655 4.67554 28.5849 4.58341C28.2089 4.49128 27.9787 4.11355 28.0727 3.74504C28.6553 1.46945 30.8122 -0.00460815 33.5798 -0.00460815H52.6059C53.3154 -0.00460815 53.8981 0.561984 53.8981 1.26216V36.9667C53.8981 37.6623 53.3201 38.2335 52.6059 38.2335Z" fill="#252D32"/>
<path d="M18.421 38.2335H4.91156C4.20202 38.2335 3.61935 37.6669 3.61935 36.9667V1.26677C3.61935 0.571199 4.19732 0 4.91156 0H23.9376C26.7006 0 28.8621 1.46946 29.4448 3.74965C29.5387 4.11816 29.3085 4.49589 28.9326 4.58802C28.5567 4.68015 28.1714 4.45443 28.0774 4.08592C27.6592 2.44602 26.0333 1.38654 23.9376 1.38654H5.02904V36.8562H18.421C18.8111 36.8562 19.1259 37.1648 19.1259 37.5471C19.1259 37.9295 18.8111 38.2381 18.421 38.2381V38.2335Z" fill="#252D32"/>
<path d="M23.5899 8.2916H20.7705C20.3805 8.2916 20.0657 7.98297 20.0657 7.60063C20.0657 7.2183 20.3805 6.90967 20.7705 6.90967H23.5899C23.9799 6.90967 24.2947 7.2183 24.2947 7.60063C24.2947 7.98297 23.9799 8.2916 23.5899 8.2916Z" fill="#252D32"/>
<path d="M17.4813 8.2916H8.55326C8.16325 8.2916 7.84842 7.98297 7.84842 7.60063C7.84842 7.2183 8.16325 6.90967 8.55326 6.90967H17.4813C17.8713 6.90967 18.1861 7.2183 18.1861 7.60063C18.1861 7.98297 17.8713 8.2916 17.4813 8.2916Z" fill="#252D32"/>
<path d="M19.3608 13.3587H8.55326C8.16325 13.3587 7.84842 13.05 7.84842 12.6677C7.84842 12.2854 8.16325 11.9767 8.55326 11.9767H19.3608C19.7509 11.9767 20.0657 12.2854 20.0657 12.6677C20.0657 13.05 19.7509 13.3587 19.3608 13.3587Z" fill="#252D32"/>
<path d="M48.9642 8.2916H33.9276C33.5375 8.2916 33.2227 7.98297 33.2227 7.60063C33.2227 7.2183 33.5375 6.90967 33.9276 6.90967H48.9642C49.3542 6.90967 49.669 7.2183 49.669 7.60063C49.669 7.98297 49.3542 8.2916 48.9642 8.2916Z" fill="#252D32"/>
<path d="M41.9158 13.3587H33.9276C33.5375 13.3587 33.2227 13.05 33.2227 12.6677C33.2227 12.2854 33.5375 11.9767 33.9276 11.9767H41.9158C42.3058 11.9767 42.6206 12.2854 42.6206 12.6677C42.6206 13.05 42.3058 13.3587 41.9158 13.3587Z" fill="#252D32"/>
<path d="M48.9642 13.3587H45.6749C45.2849 13.3587 44.9701 13.05 44.9701 12.6677C44.9701 12.2854 45.2849 11.9767 45.6749 11.9767H48.9642C49.3542 11.9767 49.669 12.2854 49.669 12.6677C49.669 13.05 49.3542 13.3587 48.9642 13.3587Z" fill="#252D32"/>
<path d="M48.9642 18.4258H45.2051C44.815 18.4258 44.5002 18.1172 44.5002 17.7348C44.5002 17.3525 44.815 17.0439 45.2051 17.0439H48.9642C49.3542 17.0439 49.6691 17.3525 49.6691 17.7348C49.6691 18.1172 49.3542 18.4258 48.9642 18.4258Z" fill="#252D32"/>
<path d="M17.9512 18.4258H8.55326C8.16325 18.4258 7.84842 18.1172 7.84842 17.7348C7.84842 17.3525 8.16325 17.0439 8.55326 17.0439H17.9512C18.3412 17.0439 18.656 17.3525 18.656 17.7348C18.656 18.1172 18.3412 18.4258 17.9512 18.4258Z" fill="#252D32"/>
<path d="M17.9512 23.4929H8.55326C8.16325 23.4929 7.84842 23.1842 7.84842 22.8019C7.84842 22.4196 8.16325 22.1109 8.55326 22.1109H17.9512C18.3412 22.1109 18.656 22.4196 18.656 22.8019C18.656 23.1842 18.3412 23.4929 17.9512 23.4929Z" fill="#252D32"/>
</g>
<defs>
<clipPath id="clip0_1_667">
<rect width="55.9175" height="50.1273" fill="white" transform="translate(0.799988)"/>
</clipPath>
</defs>
</svg>
