<?xml version="1.0" encoding="UTF-8"?><svg id="Layer_2" xmlns="http://www.w3.org/2000/svg" xmlns:xlink="http://www.w3.org/1999/xlink" viewBox="0 0 1659 632"><defs><style>.cls-1{fill:#ffa300;filter:url(#drop-shadow-1);}.cls-1,.cls-2,.cls-3{stroke-width:0px;}.cls-4{font-size:50px;}.cls-4,.cls-5{fill:#fff;font-family:Pretendard-SemiBold, Pretendard;font-weight:600;}.cls-2{fill:#0092ff;filter:url(#drop-shadow-2);}.cls-5{font-size:112.9px;}.cls-3{fill:#00bf9f;filter:url(#drop-shadow-3);}</style><filter id="drop-shadow-1" filterUnits="userSpaceOnUse"><feOffset dx="7" dy="7"/><feGaussianBlur result="blur" stdDeviation="5"/><feFlood flood-color="#000" flood-opacity=".3"/><feComposite in2="blur" operator="in"/><feComposite in="SourceGraphic"/></filter><filter id="drop-shadow-2" filterUnits="userSpaceOnUse"><feOffset dx="7" dy="7"/><feGaussianBlur result="blur-2" stdDeviation="5"/><feFlood flood-color="#000" flood-opacity=".3"/><feComposite in2="blur-2" operator="in"/><feComposite in="SourceGraphic"/></filter><filter id="drop-shadow-3" filterUnits="userSpaceOnUse"><feOffset dx="7" dy="7"/><feGaussianBlur result="blur-3" stdDeviation="5"/><feFlood flood-color="#000" flood-opacity=".3"/><feComposite in2="blur-3" operator="in"/><feComposite in="SourceGraphic"/></filter></defs><g id="Layer_1-2"><path class="cls-1" d="M636.9,332.2h-106.3c-.5,0-1-.1-1.5-.2-10.9-.8-19.7-9.9-19.7-21s8.7-20.2,19.7-21c.5,0,1-.2,1.5-.2h36.5c11.6,0,21.2-9.5,21.2-21.2s-9.5-21.2-21.2-21.2h-93.5c-11.6,0-21.2-9.5-21.2-21.2s9.5-21.2,21.2-21.2h146.1c11.6,0,21.2-9.5,21.2-21.2s-9.5-21.2-21.2-21.2h-52.4C515.9,72.7,419,11.9,307.7,11.9,142.6,11.9,8.7,145.8,8.7,310.9s133.9,299,299,299,208.1-60.7,259.6-150.7h34.4c11.6,0,21.2-9.5,21.2-21.2s-9.5-21.2-21.2-21.2h-96.6c-11.6,0-21.2-9.5-21.2-21.2s9.5-21.2,21.2-21.2h131.8c11.6,0,21.2-9.5,21.2-21.2s-9.5-21.2-21.2-21.2Z"/><path class="cls-2" d="M1156.2,328.5h-106.3c-.5,0-.9-.1-1.4-.1-11-.7-19.8-9.9-19.8-21s8.8-20.3,19.8-21c0,0,0,0,0-.1h37.9c11.6,0,21.2-9.5,21.2-21.2s-9.5-21.2-21.2-21.2h-93.5c-11.6,0-21.2-9.5-21.2-21.2s9.5-21.2,21.2-21.2h146.1c11.6,0,21.2-9.5,21.2-21.2s-9.5-21.2-21.2-21.2h-52.3c-51.5-90.1-148.5-150.8-259.7-150.8s-208.2,60.7-259.7,150.8h52.2c11.6,0,21.2,9.5,21.2,21.2s-9.5,21.2-21.2,21.2h-146.1c-11.6,0-21.2,9.5-21.2,21.2s9.5,21.2,21.2,21.2h93.5c11.6,0,21.2,9.5,21.2,21.2s-9.5,21.2-21.2,21.2h-36.5c-.5,0-1,.1-1.5.2-10.9.8-19.7,9.9-19.7,21s8.7,20.2,19.7,21c.5,0,1,.2,1.5.2h106.3c11.6,0,21.2,9.5,21.2,21.2s-9.5,21.2-21.2,21.2h-131.8c-11.6,0-21.2,9.5-21.2,21.2s9.5,21.2,21.2,21.2h96.6c11.6,0,21.2,9.5,21.2,21.2s-9.5,21.2-21.2,21.2h-34c51.5,90,148.5,150.7,259.6,150.7s208.1-60.7,259.6-150.7h34.3c11.6,0,21.2-9.5,21.2-21.2s-9.5-21.2-21.2-21.2h-96.6c-11.6,0-21.2-9.5-21.2-21.2s9.5-21.2,21.2-21.2h131.8c11.6,0,21.2-9.5,21.2-21.2s-9.5-21.2-21.2-21.2Z"/><path class="cls-3" d="M1337.1,10.1c-111.2,0-208.2,60.7-259.7,150.8h52.1c11.6,0,21.2,9.5,21.2,21.2s-9.5,21.2-21.2,21.2h-146.1c-11.6,0-21.2,9.5-21.2,21.2s9.5,21.2,21.2,21.2h93.5c11.6,0,21.2,9.5,21.2,21.2s-9.5,21.2-21.2,21.2h-36.5c-.5,0-.9.1-1.4.1-11,.7-19.8,9.9-19.8,21s8.8,20.3,19.8,21c.5,0,.9.1,1.4.1h106.3c11.6,0,21.2,9.5,21.2,21.2s-9.5,21.2-21.2,21.2h-131.8c-11.6,0-21.2,9.5-21.2,21.2s9.5,21.2,21.2,21.2h96.6c11.6,0,21.2,9.5,21.2,21.2s-9.5,21.2-21.2,21.2h-33.9c51.5,90,148.5,150.7,259.6,150.7,165.1,0,299-133.9,299-299S1502.2,10.1,1337.1,10.1Z"/><text class="cls-5" transform="translate(232.2 231.6)"><tspan x="0" y="0">01</tspan></text><text class="cls-5" transform="translate(761.2 231.6)"><tspan x="0" y="0">02</tspan></text><text class="cls-5" transform="translate(1277.8 231.6)"><tspan x="0" y="0">03</tspan></text><text class="cls-4" transform="translate(201.8 369)"><tspan x="0" y="0">평생교육 </tspan><tspan x="-43.2" y="60">컨텐츠 다양화</tspan></text><text class="cls-4" transform="translate(760.5 347)"><tspan x="0" y="0">직군별 </tspan><tspan x="-70.8" y="60">수요 프로그램 </tspan><tspan x="27.5" y="120">추가</tspan></text><text class="cls-4" transform="translate(1229.6 347)"><tspan x="0" y="0">조직운영 및 </tspan><tspan x="-15.7" y="60">시스템 고도화</tspan></text></g></svg>