<?xml version="1.0" encoding="UTF-8"?><svg id="Layer_2" xmlns="http://www.w3.org/2000/svg" viewBox="0 0 111 107.7"><defs><style>.cls-1{fill:#ffbfb4;}.cls-1,.cls-2,.cls-3,.cls-4,.cls-5,.cls-6,.cls-7,.cls-8,.cls-9{stroke-width:0px;}.cls-2{fill:#dce6f6;}.cls-3{fill:#ffc960;}.cls-4{fill:#ff9f91;}.cls-5{fill:#c5d5f0;}.cls-6{fill:#ffaa4c;}.cls-7{fill:#74aaff;}.cls-8{fill:#4f88ff;}.cls-9{fill:#252d32;}</style></defs><g id="Line"><path class="cls-5" d="M47,19h7c13.8,0,25,11.2,25,25v30H22v-30c0-13.8,11.2-25,25-25Z"/><path class="cls-2" d="M47,19h2c13.8,0,25,11.2,25,25v30H22v-30c0-13.8,11.2-25,25-25Z"/><path class="cls-5" d="M97,48.5c0-11.3-8.5-20.5-19-20.5s-19,9.2-19,20.5,3.1,12.8,7.8,16.5h-1.8c-2.8,0-5,2.2-5,5h-6.8c-3.9,0-6.5-.9-9.9-2.7-5-2.5-10.1-3.5-16.9-3.3-.1,0-3.6.3-4.4.4v4.6c6.3-.2,15.4-.3,20,2,3.7,1.9,6.5,3,11,3h9c.8.6,1.9,1,3,1h11c2.3-.6,4-2.6,4-5s0-.7-.1-1.1c9.6-1,17.1-9.8,17.1-20.4Z"/><path class="cls-6" d="M72,85h30c2.8,0,5-2.2,5-5s-2.2-5-5-5h-30c-2.8,0-5,2.2-5,5s2.2,5,5,5Z"/><rect class="cls-7" x="2" y="70" width="10" height="32"/><rect class="cls-8" x="2" y="97" width="10" height="5"/><path class="cls-3" d="M71.5,84h25c2.5,0,4.5-2,4.5-4.5s-2-4.5-4.5-4.5h-25c-2.5,0-4.5,2-4.5,4.5s2,4.5,4.5,4.5Z"/><path class="cls-4" d="M13,74v25l43.5,6.3c3,.4,6,.1,8.8-.8l42.3-14.7c1.4-.5,2.1-1.9,1.8-3.3l-.2-.8c-.7-2.7-3.3-4.4-6-4l-29.1,4.3-.4-4.3c-.3-3.8-3.5-6.7-7.3-6.7h-12.3c-3.7,0-7.3-.8-10.6-2.4-4.1-2-10.2-4.6-14.4-4.6-7,0-16,6-16,6Z"/><path class="cls-1" d="M65.3,99.5l42.3-14.7c.4-.1.7-.3.9-.6-1.1-1.8-3.2-2.9-5.4-2.5l-29.1,4.3-.4-4.3c-.3-3.8-3.5-6.7-7.3-6.7h-12.3c-3.7,0-7.3-.8-10.6-2.4-4.1-2-10.2-4.6-14.4-4.6-7,0-16,6-16,6v20l43.5,6.3c3,.4,6,.1,8.8-.8Z"/><rect class="cls-4" x="13" y="73" width="4" height="26"/><circle class="cls-6" cx="82" cy="47" r="19"/><circle class="cls-3" cx="82" cy="47" r="15"/><path class="cls-6" d="M67,75h31c2.2,0,4-1.8,4-4s-1.8-4-4-4h-31c-2.2,0-4,1.8-4,4s1.8,4,4,4Z"/><path class="cls-3" d="M66.5,74h27c1.9,0,3.5-1.6,3.5-3.5s-1.6-3.5-3.5-3.5h-27c-1.9,0-3.5,1.6-3.5,3.5s1.6,3.5,3.5,3.5Z"/><rect class="cls-2" x="44" y="14" width="13" height="5"/><path class="cls-5" d="M57,14h-13l-8-10.4c-.8-1.1,0-2.6,1.3-2.6h26.3c1.4,0,2.1,1.6,1.3,2.6l-8,10.4Z"/><rect class="cls-5" x="53" y="14" width="4" height="5"/><path class="cls-2" d="M59.7,1h-22.3c-1.4,0-2.1,1.6-1.3,2.6l8,10.4h9l8-10.4c.8-1.1,0-2.6-1.3-2.6Z"/><path class="cls-5" d="M42,27c-.2,0-.4,0-.6-.2-.5-.3-.6-.9-.3-1.4l4.5-6.5c.3-.5.9-.6,1.4-.3.5.3.6.9.3,1.4l-4.5,6.5c-.2.3-.5.4-.8.4Z"/><path class="cls-5" d="M59,27c-.4,0-.7-.2-.9-.5l-3.5-6.5c-.3-.5,0-1.1.4-1.4.5-.3,1.1,0,1.4.4l3.5,6.5c.3.5,0,1.1-.4,1.4-.2,0-.3.1-.5.1Z"/><path class="cls-5" d="M51,30c-.6,0-1-.4-1-1v-9c0-.6.4-1,1-1s1,.4,1,1v9c0,.6-.4,1-1,1Z"/><path class="cls-9" d="M59.7,107.7c-.7,0-1.4,0-2.1-.2l-43.2-6.6h-.9c-.8,0-1.5-.7-1.5-1.5s.7-1.5,1.5-1.5h1c0,0,.2,0,.2,0l43.4,6.6c1.5.2,3.1.1,4.5-.3l44.1-15.4c.7-.3,1.2-.9,1.2-1.7,0-1.2-.5-2.4-1.5-3.2-.9-.8-2.2-1.2-3.4-1l-29.4,4.1c-.8.1-1.6-.5-1.7-1.3-.1-.8.5-1.6,1.3-1.7l29.4-4.1c2.1-.3,4.2.3,5.8,1.7,1.6,1.4,2.5,3.4,2.5,5.5s-1.3,3.9-3.2,4.6l-44.2,15.5c-1.3.4-2.6.6-3.9.6Z"/><path class="cls-9" d="M12.5,104H1.5c-.8,0-1.5-.7-1.5-1.5v-33c0-.8.7-1.5,1.5-1.5h11c.8,0,1.5.7,1.5,1.5v33c0,.8-.7,1.5-1.5,1.5ZM3,101h8v-30H3v30Z"/><path class="cls-9" d="M71,88h-23.5c-.8,0-1.5-.7-1.5-1.5s.7-1.5,1.5-1.5h23.5c1.1,0,2-.9,2-2,0-3.9-3.1-7-7-7h-12.8c-5,0-8.6-1.3-12.6-3.3-4.2-2.1-8.2-2.9-14.1-2.7-4.1.1-7.1,2-9.3,3.4-1.5.9-2.6,1.6-3.7,1.6s-1.5-.7-1.5-1.5.7-1.5,1.5-1.5c.3,0,1.3-.7,2.1-1.2,2.4-1.5,5.9-3.7,10.8-3.8,6.3-.2,10.9.7,15.5,3,3.7,1.9,6.8,3,11.3,3h12.8c5.5,0,10,4.5,10,10s-2.2,5-5,5Z"/><path class="cls-9" d="M81.8,55.7c-.9,0-1.8-.1-2.6-.4-.8-.3-1.5-.7-2.1-1.2-.6-.5-1-1.1-1.3-1.8-.1-.3-.1-.6,0-.8.1-.3.4-.4.7-.5.3,0,.5,0,.7.1.2.1.4.3.6.6.2.4.4.7.8,1,.4.3.9.5,1.4.7.5.2,1.1.3,1.7.3s1.3-.1,1.9-.3c.6-.2,1-.5,1.4-.9.4-.4.5-.9.5-1.5s-.3-1.4-.9-2c-.6-.6-1.5-1-2.9-1.1-1.7-.2-3.1-.7-4.1-1.5-1-.9-1.5-1.9-1.5-3.2s.3-1.7.8-2.4c.5-.6,1.2-1.1,2.1-1.5.9-.3,1.9-.5,3-.5s1.6.1,2.2.4c.6.2,1.2.6,1.7,1,.5.4.9.9,1.2,1.5.2.3.3.6.2.9,0,.3-.2.5-.4.6-.3.2-.6.2-.9.1-.3,0-.5-.3-.7-.5-.2-.4-.5-.8-.8-1-.3-.3-.7-.5-1.1-.7-.4-.2-1-.2-1.5-.2-1,0-1.9.2-2.6.6-.7.4-1.1,1-1.1,1.8s.1.8.3,1.2c.2.4.6.7,1.2,1,.6.3,1.4.5,2.5.6,1.7.2,3,.7,3.9,1.5.9.9,1.4,2,1.4,3.4s-.2,1.5-.5,2.1c-.3.6-.8,1.1-1.3,1.5-.6.4-1.2.7-1.9.9-.7.2-1.4.3-2.2.3Z"/><path class="cls-9" d="M82,40c-.6,0-1-.4-1-1v-3c0-.6.4-1,1-1s1,.4,1,1v3c0,.6-.4,1-1,1Z"/><path class="cls-9" d="M82,59c-.6,0-1-.4-1-1v-3c0-.6.4-1,1-1s1,.4,1,1v3c0,.6-.4,1-1,1Z"/><path class="cls-9" d="M82,68c-11.6,0-21-9.4-21-21s9.4-21,21-21,21,9.4,21,21-9.4,21-21,21ZM82,29c-9.9,0-18,8.1-18,18s8.1,18,18,18,18-8.1,18-18-8.1-18-18-18Z"/><path class="cls-9" d="M105.4,82.7c-.2,0-.5,0-.7-.3-.4-.4-.4-1,0-1.4.5-.6.8-1.3.8-2,0-1.7-1.3-3-3-3h-34.5c-.6,0-1-.4-1-1s.4-1,1-1h34.5c2.8,0,5,2.2,5,5s-.5,2.5-1.3,3.4c-.2.2-.5.3-.7.3Z"/><path class="cls-9" d="M99,76h-32c-2.8,0-5-2.2-5-5s2.2-5,5-5h32c2.8,0,5,2.2,5,5s-2.2,5-5,5ZM67,68c-1.7,0-3,1.3-3,3s1.3,3,3,3h32c1.7,0,3-1.3,3-3s-1.3-3-3-3h-32Z"/><path class="cls-9" d="M22,69c-.6,0-1-.4-1-1v-24.7c0-14,11.4-25.3,25.3-25.3h8.3c7.8,0,15.1,3.5,19.9,9.7.3.4.3,1.1-.2,1.4-.4.3-1.1.3-1.4-.2-4.5-5.7-11.1-8.9-18.4-8.9h-8.3c-12.9,0-23.3,10.5-23.3,23.3v24.7c0,.6-.4,1-1,1Z"/><path class="cls-9" d="M57,19c-.6,0-1-.4-1-1v-3c0-.6.4-1,1-1s1,.4,1,1v3c0,.6-.4,1-1,1Z"/><path class="cls-9" d="M44,19c-.6,0-1-.4-1-1v-3c0-.6.4-1,1-1s1,.4,1,1v3c0,.6-.4,1-1,1Z"/><path class="cls-9" d="M57,15h-13c-.3,0-.6-.1-.8-.4l-7.9-10.2c-.6-.8-.7-1.9-.3-2.9.5-.9,1.4-1.5,2.4-1.5h26c1,0,2,.6,2.4,1.5.5.9.4,2-.3,2.9l-7.9,10.2c-.2.2-.5.4-.8.4ZM44.5,13h12l7.6-9.8c.2-.3.1-.6,0-.8,0-.1-.2-.4-.7-.4h-26c-.4,0-.6.3-.7.4,0,.1-.2.4,0,.8l7.6,9.8Z"/></g></svg>