<?xml version="1.0" encoding="UTF-8"?><svg id="Layer_2" xmlns="http://www.w3.org/2000/svg" viewBox="0 0 112.1 99.7"><defs><style>.cls-1{fill:#edf2f8;}.cls-1,.cls-2,.cls-3,.cls-4,.cls-5,.cls-6,.cls-7,.cls-8,.cls-9,.cls-10,.cls-11{stroke-width:0px;}.cls-2{fill:#d5e1ef;}.cls-3{fill:#ffbfb4;}.cls-4{fill:#dce6f6;}.cls-5{fill:#ffc960;}.cls-6{fill:#ff9f91;}.cls-7{fill:#c5d5f0;}.cls-8{fill:#ffaa4c;}.cls-9{fill:#74aaff;}.cls-10{fill:#4f88ff;}.cls-11{fill:#252d32;}</style></defs><g id="Line"><rect class="cls-9" x="57.1" y="52.7" width="13" height="35"/><polygon class="cls-9" points="93.1 77.7 80.1 87.7 80.1 36.7 93.1 36.7 93.1 77.7"/><path class="cls-10" d="M60,60.9l-2.9-1.5,8.9,28.4h3.1l-7.2-24.5c-.3-1-1-1.8-1.9-2.3Z"/><rect class="cls-9" x="34.1" y="88.7" width="13" height="9"/><rect class="cls-10" x="34.1" y="88.7" width="3" height="9"/><rect class="cls-10" x="57.1" y="52.7" width="3" height="10"/><polygon class="cls-7" points="34.5 65.6 25.9 63.6 27.6 54.1 35 59.7 34.5 65.6"/><path class="cls-3" d="M32.7,48l-16.4-8.7,4.3-8.1,5.1,1.8-2.2,4.1,11.9,6c1.4.8,1.8,2.5,1.1,3.8-.8,1.4-2.5,1.8-3.8,1.1Z"/><path class="cls-8" d="M68.1,93.4l-8.2,2.5c-1.6.5-3.4-.2-4-1.7-.7-1.7.3-3.5,2-4l8.2-2.5c1.6-.5,3.4.2,4,1.7.7,1.7-.3,3.5-2,4Z"/><path class="cls-8" d="M8,96.8l-5.4-6.6c-1-1.3-1.1-3.2,0-4.3,1.3-1.2,3.4-1,4.5.4l5.4,6.6c1,1.3,1.1,3.2,0,4.3-1.3,1.2-3.4,1-4.5-.4Z"/><path class="cls-4" d="M48.9,55.5l-4.7,7.1s-11.6-4.4-14.6-6.3c-3.4-2.1-5.2-10.7-4.5-11.2l10.4,4.2,2.8-2,1,3.1,9.5,5.1Z"/><polygon class="cls-3" points="48.6 56.9 43.4 63.6 50.8 67.3 57.6 89.6 65.3 87.3 57.4 61.7 48.6 56.9"/><polygon class="cls-3" points="33.5 65.9 26.3 64.7 25.7 69.4 7.7 84.3 12.5 90.1 33.2 73 33.5 65.9"/><path class="cls-3" d="M50.9,35.4l-11.6,4.9-.9-6.6,10.2-4c1.6-.6,3.5.2,4,1.9.5,1.5-.2,3.2-1.7,3.8Z"/><path class="cls-5" d="M20.3,30.1l5.4,2.9-1.1,3.8,13.6,7.2-.9-17.9c-.2-4.5-4.2-7.4-8.8-6.4-4.4.9-8.2,10.4-8.2,10.4Z"/><path class="cls-3" d="M34.1,15.8l-.8,5.1-6-.9.5-3.1,2.9-3.7.4-5.3,5.3-2.3s1.3,5.4.4,7-2.6,3.2-2.6,3.2Z"/><path class="cls-2" d="M27.4,15.8l3.4-2.8.7-5.4,5-1.3s.1-4.6-3.5-5.5c-1.7-.4-6.6,0-7.6,2.6-1.2,3.2-.6,8.7,0,9.8.5,1.1,2,2.6,2,2.6Z"/><path class="cls-1" d="M33.1.8c-1.9.3-4,1-4.6,2.6-1.2,3.2-.6,8.7,0,9.8.2.4.5.8.8,1.2l1.7-1.4.7-5.4,5-1.3s.1-4.6-3.5-5.5Z"/><polygon class="cls-10" points="83.1 36.7 80.1 36.7 80.1 87.7 83.1 85.4 83.1 36.7"/><path class="cls-5" d="M69,93.2l-5.7,1.7c-1.1.3-2.5-.4-3-1.9-.6-1.7,0-3.4,1.1-3.8l5.7-1.7c1.1-.3,2.5.4,3,1.9.6,1.7,0,3.4-1.1,3.8Z"/><path class="cls-5" d="M8.6,97.5l-3.8-4.7c-.7-.9-.5-2.5.7-3.5,1.3-1.2,3.1-1.3,3.9-.3l3.8,4.7c.7.9.5,2.5-.7,3.5-1.3,1.2-3.1,1.3-3.9.3Z"/><path class="cls-6" d="M46.1,60.7l-2.7,2.9,7.4,3.7,6.8,22.3,3.5-.9-5.9-20.3c-.7-2.4-2.4-4.4-4.6-5.5l-4.5-2.3Z"/><path class="cls-7" d="M46.1,60.7l-1.9,1.9s-11.6-4.4-14.6-6.3c-3.4-2.1-5.2-10.7-4.5-11.2l3.9,1.6,1.1,4.3c.6,1.8,1.8,3.2,3.5,4.1l12.4,5.6Z"/><path class="cls-6" d="M29.1,63.7h-2.9s-.6,4.7-.6,4.7l-18.5,15.3,3,3,16.5-13.9c1.6-1.4,2.5-3.4,2.5-5.5v-3.7Z"/><path class="cls-11" d="M59.1,98c-1.4,0-2.7-.6-3.6-1.7-1.2-1.4-1.6-3.1-1.1-4.8.5-1.6,1.7-2.9,3.4-3.4l7.9-2.4c1.9-.6,3.9,0,5.1,1.4,1.2,1.4,1.6,3.1,1.1,4.8-.5,1.6-1.7,2.9-3.4,3.4-.8.2-1.6-.2-1.9-1-.2-.8.2-1.6,1-1.9.6-.2,1.1-.7,1.3-1.4.1-.4.2-1.2-.5-2-.4-.5-1.2-.7-2-.5l-7.9,2.4c-.6.2-1.1.7-1.3,1.4-.1.4-.2,1.2.5,2,.4.5,1.2.7,2,.5.8-.2,1.6.2,1.9,1,.2.8-.2,1.6-1,1.9-.5.1-1,.2-1.5.2Z"/><path class="cls-11" d="M10.2,99.7c-1.5,0-2.9-.7-3.9-1.9l-5.2-6.4c-1.2-1.5-1.5-3.6-.6-5.3.8-1.6,2.3-2.6,4-2.8,1.7-.2,3.3.5,4.4,1.8l5.2,6.4c1.2,1.5,1.5,3.6.6,5.3-.8,1.6-2.3,2.6-4,2.8-.2,0-.3,0-.5,0ZM5,86.3c0,0-.1,0-.2,0-.4,0-1.2.2-1.7,1.2-.3.6-.2,1.4.3,2l5.2,6.4c.4.5,1.1.8,1.8.7.4,0,1.2-.2,1.7-1.2.3-.6.2-1.4-.3-2l-5.2-6.4c-.4-.5-1-.7-1.6-.7Z"/><path class="cls-11" d="M43.5,64.9c-.3,0-.6,0-.8-.2-.7-.5-.9-1.4-.4-2.1l4.7-7.1c.5-.7,1.4-.9,2.1-.4.7.5.9,1.4.4,2.1l-4.7,7.1c-.3.4-.8.7-1.3.7Z"/><path class="cls-11" d="M65.5,87.8c-.6,0-1.2-.4-1.4-1.1l-6.8-22.2c-.5-1.5-1.5-2.8-2.9-3.7l-15.9-9.3c-.4-.3-.7-.7-.7-1.2l-1.3-22.3c-.2-1.8-1.2-3.5-2.7-4.7-1.6-1.3-3.6-1.8-5.7-1.5-.8,0-1.6-.5-1.7-1.3-.1-.8.5-1.6,1.3-1.7,2.9-.4,5.7.4,8,2.2,2.2,1.7,3.5,4.1,3.8,6.8l1.2,21.6,15.3,8.9c2,1.2,3.6,3.1,4.2,5.4l6.8,22.2c.2.8-.2,1.6-1,1.9-.1,0-.3,0-.4,0Z"/><path class="cls-11" d="M57.1,91.2c-.6,0-1.2-.4-1.4-1.1l-6.4-20.9c-.2-.5-.5-1-1-1.2l-16.4-8.3c-4.2-2.2-6.9-6.2-7.3-10.8l-.4-3.3c-.1-.8.5-1.6,1.3-1.7.8-.1,1.6.5,1.7,1.3l.5,3.4c.3,3.7,2.4,6.8,5.7,8.5l16.4,8.3c1.2.6,2.1,1.7,2.5,3l6.4,20.9c.2.8-.2,1.6-1,1.9-.1,0-.3,0-.4,0Z"/><path class="cls-11" d="M34.4,67.1c0,0-.2,0-.3,0l-7.9-1.5c-.8-.2-1.3-.9-1.2-1.8.2-.8.9-1.3,1.8-1.2l7.9,1.5c.8.2,1.3.9,1.2,1.8-.1.7-.8,1.2-1.5,1.2Z"/><path class="cls-11" d="M12,92.9c-.4,0-.9-.2-1.2-.5-.5-.6-.4-1.6.2-2.1l19-15.6c1.2-1,2-2.4,2.3-4l1.6-10.3c.1-.8.9-1.4,1.7-1.2.8.1,1.4.9,1.2,1.7l-1.6,10.3c-.4,2.3-1.5,4.4-3.3,5.8l-19,15.6c-.3.2-.6.3-1,.3Z"/><path class="cls-11" d="M6.5,86.2c-.4,0-.9-.2-1.2-.5-.5-.6-.4-1.6.2-2.1l17.4-14.2c.4-.3.7-.8.7-1.4l1.5-15.5c0-.8.8-1.4,1.6-1.3.8,0,1.4.8,1.3,1.6l-1.5,15.5c-.1,1.3-.8,2.6-1.8,3.4l-17.4,14.2c-.3.2-.6.3-1,.3Z"/><path class="cls-11" d="M34.2,50c-.7,0-1.4-.2-2-.5l-14.7-8c-.9-.5-1.6-1.3-1.9-2.3-.3-1-.2-2,.3-2.9l3.5-6.4c.3-.5.9-.7,1.4-.4.5.3.7.9.4,1.4l-3.5,6.4c-.2.4-.3.9-.2,1.4.1.5.5.9.9,1.1l14.7,8c.5.3,1.1.4,1.7.2.6-.2,1.1-.6,1.3-1.1.6-1.1.2-2.5-.9-3.1l-11.8-6.2c-.5-.3-.7-.9-.4-1.3l1.9-3.7c.3-.5.9-.7,1.3-.4.5.3.7.9.4,1.3l-1.5,2.8,10.9,5.7c2.1,1.1,2.8,3.7,1.7,5.8-.5,1-1.4,1.7-2.5,2-.4.1-.8.2-1.2.2Z"/><path class="cls-11" d="M25.7,34.8c-.2,0-.5,0-.7-.2l-5.5-2.8c-.4-.2-.6-.5-.7-.9-.1-.4,0-.8.1-1.2l4-7.5c1.2-2.1,4.1-4,7-3.5.8.1,1.4.9,1.2,1.7-.1.8-.9,1.4-1.7,1.2-1.5-.2-3.3.8-3.9,2l-3.3,6.1,4.2,2.1c.7.4,1,1.3.7,2-.3.5-.8.8-1.3.8Z"/><path class="cls-11" d="M39.5,40.9c-.4,0-.8-.2-.9-.6-.2-.5,0-1.1.6-1.3l11.9-4.5c.6-.2,1-.6,1.3-1.2s.3-1.2,0-1.7c-.2-.6-.6-1-1.2-1.3-.6-.2-1.2-.3-1.7,0l-9.8,3.7c-.5.2-1.1,0-1.3-.6-.2-.5,0-1.1.6-1.3l9.8-3.7c1.1-.4,2.2-.4,3.3.1,1,.5,1.8,1.3,2.2,2.4.4,1.1.4,2.2-.1,3.3-.5,1-1.3,1.8-2.4,2.2l-11.9,4.5c-.1,0-.2,0-.4,0Z"/><path class="cls-11" d="M44.6,99.7H2.6c-.8,0-1.5-.7-1.5-1.5s.7-1.5,1.5-1.5h42c28.2,0,53.4-17.9,62.8-44.6.3-.8,1.1-1.2,1.9-.9.8.3,1.2,1.1.9,1.9-9.8,27.9-36.2,46.6-65.6,46.6Z"/><path class="cls-11" d="M110.6,61.7c-.8,0-1.4-.6-1.5-1.3l-.7-6.6-5.9,4.7c-.6.5-1.6.4-2.1-.2-.5-.7-.4-1.6.2-2.1l8-6.4c.4-.3,1-.4,1.5-.2.5.2.9.7.9,1.2l1,9.4c0,.8-.5,1.6-1.3,1.6,0,0-.1,0-.2,0Z"/><path class="cls-11" d="M34.4,21.9s0,0,0,0c-.6,0-1-.5-.9-1.1l.3-5.4c0-.3.2-.6.4-.7,1.3-1,1.9-2.5,1.8-4l-.5-4.7c-.1-1.2-.7-2.3-1.6-3-.9-.8-2.1-1.1-3.3-1h-.9c-1.2.2-2.3.8-3,1.7-.8.9-1.1,2.1-1,3.3l.5,4.7c.2,1.5,1,2.8,2.3,3.5.3.2.5.5.5.9l-.2,3.6c0,.6-.5,1-1.1.9-.6,0-1-.5-.9-1.1l.2-3c-1.6-1.1-2.6-2.8-2.8-4.7l-.5-4.7c-.2-1.7.3-3.4,1.4-4.8,1.1-1.3,2.6-2.2,4.4-2.4h.9c1.7-.3,3.4.2,4.8,1.3,1.3,1.1,2.2,2.6,2.4,4.4l.5,4.7c.2,2.1-.6,4.1-2.2,5.5l-.3,4.9c0,.5-.5.9-1,.9Z"/><path class="cls-11" d="M28.5,17.2c-.2,0-.4,0-.6-.2-.4-.4-.5-1-.1-1.4l2.4-2.9v-4.3c.1-.4.3-.7.7-.9l4.6-2.2c.5-.2,1.1,0,1.3.5.2.5,0,1.1-.5,1.3l-4,1.9v4.1c-.1.2-.2.4-.3.6l-2.6,3.2c-.2.2-.5.4-.8.4Z"/><path class="cls-11" d="M70.1,88.7c-.6,0-1-.4-1-1v-34h-11v6c0,.6-.4,1-1,1s-1-.4-1-1v-7c0-.6.4-1,1-1h13c.6,0,1,.4,1,1v35c0,.6-.4,1-1,1Z"/><path class="cls-11" d="M47.1,98.7h-13c-.6,0-1-.4-1-1v-9c0-.6.4-1,1-1h13c.6,0,1,.4,1,1v9c0,.6-.4,1-1,1ZM35.1,96.7h11v-7h-11v7Z"/><path class="cls-11" d="M80.1,87.7c-.6,0-1-.4-1-1v-50c0-.6.4-1,1-1h13c.6,0,1,.4,1,1v40c0,.6-.4,1-1,1s-1-.4-1-1v-39h-11v49c0,.6-.4,1-1,1Z"/></g></svg>