<?xml version="1.0" encoding="UTF-8"?><svg id="Layer_2" xmlns="http://www.w3.org/2000/svg" viewBox="0 0 120.4 109.4"><defs><style>.cls-1{fill:#e23b3b;}.cls-1,.cls-2,.cls-3,.cls-4,.cls-5,.cls-6,.cls-7,.cls-8,.cls-9,.cls-10{stroke-width:0px;}.cls-2{fill:#edf2f8;}.cls-3{fill:#ffbfb4;}.cls-4{fill:#ffc960;}.cls-5{fill:#ff9f91;}.cls-6{fill:#ffaa4c;}.cls-7{fill:#74aaff;}.cls-8{fill:#4f88ff;}.cls-9{fill:#ff5f5f;}.cls-10{fill:#252d32;}</style></defs><g id="Line"><path class="cls-2" d="M4.4,2h111.2c1.3,0,2.4,1.1,2.4,2.4v80.2c0,1.3-1.1,2.4-2.4,2.4H4.4c-1.3,0-2.4-1.1-2.4-2.4V4.4c0-1.3,1.1-2.4,2.4-2.4Z"/><rect class="cls-8" x="9" y="9" width="102" height="71"/><rect class="cls-7" x="13" y="13" width="98" height="67"/><path class="cls-5" d="M110.6,80l1-4.1c.4-1.7.3-3.4-.4-5l-8.8-20.7c-1.4-3.2-5-5-8.4-4l-20.4,5.8-6.5-14c-1.3-2.8-4.5-4.4-7.5-3.3-3.4,1.2-4.9,5-3.4,8.1l12.7,27.3-8-3.3c-2.9-1.2-6.3-.2-7.8,2.6-1.7,3.1-.2,7,3,8.3l29.1,14.7,3.9,8.4,25.5-11.9-4.1-8.8Z"/><path class="cls-3" d="M92.5,97.4l21.6-10.1-3.4-7.4,1-4.1c.4-1.7.3-3.4-.4-5l-8.8-20.7c-1.4-3.2-5-5-8.4-4l-20.4,5.8-6.5-14c-1.4-2.9-4.7-4.5-7.7-3.2-.6,1.5-.6,3.2,0,4.8l11.1,23.8c1,2.1.5,4.6-1.1,6.2l-.5.5-8-3.3c-1.6-.7-3.3-.6-4.8,0-1.2,3,.3,6.4,3.3,7.7l29.1,14.7,3.9,8.4Z"/><rect class="cls-4" x="87.5" y="93.4" width="30" height="8.1" transform="translate(-31.6 52.6) rotate(-25.1)"/><rect class="cls-6" x="88.7" y="98.9" width="4.4" height="8.1" transform="translate(-35 48.2) rotate(-25.1)"/><circle class="cls-4" cx="37.5" cy="45.5" r="19.5"/><path class="cls-1" d="M48.8,46.8l-15.5,9c-1,.6-2.2-.1-2.2-1.3v-17.9c0-1.1,1.2-1.9,2.2-1.3l15.5,9c1,.6,1,2,0,2.6Z"/><path class="cls-9" d="M33.2,35.3c-1-.6-2.2.1-2.2,1.3v16.3c0,0,.1,0,.2,0l15.5-9c.2-.1.4-.3.5-.5l-14-8.1Z"/><path class="cls-8" d="M98.5,28h-25c-.8,0-1.5-.7-1.5-1.5s.7-1.5,1.5-1.5h25c.8,0,1.5.7,1.5,1.5s-.7,1.5-1.5,1.5Z"/><path class="cls-8" d="M98.5,38h-25c-.8,0-1.5-.7-1.5-1.5s.7-1.5,1.5-1.5h25c.8,0,1.5.7,1.5,1.5s-.7,1.5-1.5,1.5Z"/><path class="cls-10" d="M88.1,99.8c-.6,0-1.1-.3-1.4-.9l-2.6-5.5-28.6-14.4c-1.9-.8-3.4-2.4-4.1-4.3-.7-2-.5-4.2.4-6,1.8-3.3,6-4.8,9.7-3.3l4.4,1.8-11.1-23.8c-.9-1.9-.9-4.1-.1-6,.8-1.9,2.4-3.4,4.4-4.1,3.6-1.3,7.7.5,9.3,4.1l6,12.8,19.1-5.5c4.1-1.2,8.5.9,10.1,4.8l8.8,20.7c.8,1.9,1,4,.5,6l-.9,3.6,2.7,5.9c.4.8,0,1.6-.7,2-.8.4-1.6,0-2-.7l-3-6.4c-.1-.3-.2-.7,0-1l1-4.1c.3-1.4.2-2.8-.3-4.1l-8.8-20.7c-1.1-2.5-3.9-3.9-6.6-3.1l-20.4,5.8c-.7.2-1.5-.1-1.8-.8l-6.5-14c-1-2.2-3.5-3.3-5.6-2.5-1.2.4-2.1,1.3-2.6,2.5-.5,1.2-.5,2.5,0,3.6l12.7,27.3c.3.6.2,1.2-.3,1.7-.4.4-1.1.6-1.7.3l-8-3.3c-2.2-.9-4.8,0-5.9,1.9-.6,1.1-.7,2.4-.3,3.6.4,1.2,1.3,2.1,2.5,2.6,0,0,0,0,.1,0l29.1,14.7c.3.2.5.4.7.7l2.8,6c.4.8,0,1.6-.7,2-.2,0-.4.1-.6.1Z"/><path class="cls-10" d="M90,109.4c-.6,0-1.1-.3-1.4-.9l-3.7-7.8c-.4-.8,0-1.6.7-2l28.9-13.5c.4-.2.8-.2,1.1,0,.4.1.7.4.8.8l3.7,7.8c.4.8,0,1.6-.7,2l-28.9,13.5c-.2,0-.4.1-.6.1ZM88.3,100.8l2.4,5.1,26.2-12.2-2.4-5.1-26.2,12.2Z"/><path class="cls-10" d="M115.9,89c-.8,0-1.5-.7-1.5-1.5s.7-1.5,1.5-1.5,1.1-.5,1.1-1.1V4.1c0-.6-.5-1.1-1.1-1.1H4.1c-.6,0-1.1.5-1.1,1.1v80.7c0,.6.5,1.1,1.1,1.1h71.4c.8,0,1.5.7,1.5,1.5s-.7,1.5-1.5,1.5H4.1c-2.3,0-4.1-1.9-4.1-4.1V4.1C0,1.9,1.9,0,4.1,0h111.7c2.3,0,4.1,1.9,4.1,4.1v80.7c0,2.3-1.9,4.1-4.1,4.1Z"/><path class="cls-10" d="M60,81H10c-.6,0-1-.4-1-1s.4-1,1-1h50c.6,0,1,.4,1,1s-.4,1-1,1Z"/><path class="cls-10" d="M32.8,57.4c-.5,0-1-.1-1.4-.4-.9-.5-1.4-1.4-1.4-2.5v-17.7c0-1,.5-1.9,1.4-2.5.9-.5,1.9-.5,2.8,0l15.3,8.8c.9.5,1.4,1.4,1.4,2.5s-.5,1.9-1.4,2.5l-15.3,8.8c-.4.3-.9.4-1.4.4ZM32.8,36c-.2,0-.3,0-.4.1-.1,0-.4.3-.4.7v17.7c0,.4.3.7.4.7.1,0,.5.2.8,0l15.3-8.8c.4-.2.4-.6.4-.7s0-.5-.4-.7l-15.3-8.8c-.1,0-.3-.1-.4-.1Z"/><path class="cls-10" d="M37.5,67c-11.9,0-21.5-9.6-21.5-21.5s9.6-21.5,21.5-21.5,16,4.9,19.5,12.5c.2.5,0,1.1-.5,1.3-.5.2-1.1,0-1.3-.5-3.2-6.9-10.1-11.4-17.7-11.4-10.8,0-19.5,8.7-19.5,19.5s8.7,19.5,19.5,19.5,18.1-7.3,19.3-17c0-.5.6-.9,1.1-.9.5,0,.9.6.9,1.1-1.4,10.7-10.5,18.8-21.3,18.8Z"/></g></svg>