<?xml version="1.0" encoding="UTF-8"?><svg id="Layer_2" xmlns="http://www.w3.org/2000/svg" viewBox="0 0 97 119"><defs><style>.cls-1{fill:#e23b3b;}.cls-1,.cls-2,.cls-3,.cls-4,.cls-5,.cls-6,.cls-7,.cls-8,.cls-9,.cls-10,.cls-11{stroke-width:0px;}.cls-2{fill:#ffbfb4;}.cls-3{fill:#dce6f6;}.cls-4{fill:#ffc960;}.cls-5{fill:#ff9f91;}.cls-6{fill:#c5d5f0;}.cls-7{fill:#ffaa4c;}.cls-8{fill:#74aaff;}.cls-9{fill:#4f88ff;}.cls-10{fill:#ff5f5f;}.cls-11{fill:#252d32;}</style></defs><g id="Line"><path class="cls-7" d="M35.3,33h25.3c5.7,0,10.3,4.6,10.3,10.3v9.7H25v-9.7c0-5.7,4.6-10.3,10.3-10.3Z"/><path class="cls-6" d="M12.3,99h25.3c5.7,0,10.3,4.6,10.3,10.3v7.7H2v-7.7c0-5.7,4.6-10.3,10.3-10.3Z"/><path class="cls-3" d="M12.3,99h21.3c5.7,0,10.3,4.6,10.3,10.3v7.7H2v-7.7c0-5.7,4.6-10.3,10.3-10.3Z"/><path class="cls-6" d="M59.3,99h25.3c5.7,0,10.3,4.6,10.3,10.3v7.7h-46v-7.7c0-5.7,4.6-10.3,10.3-10.3Z"/><path class="cls-3" d="M59.3,99h21.3c5.7,0,10.3,4.6,10.3,10.3v7.7h-42v-7.7c0-5.7,4.6-10.3,10.3-10.3Z"/><path class="cls-4" d="M35.3,33h21.3c5.7,0,10.3,4.6,10.3,10.3v6.7H25v-6.7c0-5.7,4.6-10.3,10.3-10.3Z"/><path class="cls-5" d="M57,9h-18v9c0,5,4,9,9,9s9-4,9-9v-9Z"/><path class="cls-2" d="M53,9h-14v9c0,5,4,9,9,9s5-2.2,5-5v-13Z"/><path class="cls-2" d="M53,27h-10v5c0,2.8,2.2,5,5,5s5-2.2,5-5v-5Z"/><path class="cls-2" d="M39,19h-2c-1.7,0-3-1.3-3-3s1.3-3,3-3h2v6Z"/><path class="cls-2" d="M15,85h-1c-1.7,0-3-1.3-3-3s1.3-3,3-3h1v6Z"/><path class="cls-2" d="M57,19h2c1.7,0,3-1.3,3-3s-1.3-3-3-3h-2v6Z"/><path class="cls-2" d="M35,85h1c1.7,0,3-1.3,3-3s-1.3-3-3-3h-1v6Z"/><path class="cls-2" d="M62,85h-1c-1.7,0-3-1.3-3-3s1.3-3,3-3h1v6Z"/><path class="cls-2" d="M82,85h1c1.7,0,3-1.3,3-3s-1.3-3-3-3h-1v6Z"/><rect class="cls-5" x="50" y="28" width="3" height="8"/><path class="cls-1" d="M57,13h-8.5c-1.5,0-3-.6-4.1-1.6l-1.4-1.4-4,1c0-5,4-9,9-9s9,4,9,9v2Z"/><path class="cls-10" d="M53,13h-4.5c-1.5,0-2.9-.6-4-1.6l-1.5-1.4-4,1c0-5,4-9,9-9s5,4,5,9v2Z"/><rect class="cls-8" y="54" width="95" height="6"/><rect class="cls-8" x="6" y="61" width="84" height="12"/><rect class="cls-9" x="6" y="61" width="84" height="5"/><rect class="cls-1" x="16" y="68" width="18" height="25" rx="8" ry="8"/><path class="cls-10" d="M23.5,90c-4.1,0-7.5-3.4-7.5-7.5v-7c0-4.1,3.4-7.5,7.5-7.5s7.5,3.4,7.5,7.5v7c0,4.1-3.4,7.5-7.5,7.5Z"/><rect class="cls-1" x="63" y="68" width="18" height="25" rx="8" ry="8"/><path class="cls-10" d="M70.5,90c-4.1,0-7.5-3.4-7.5-7.5v-7c0-4.1,3.4-7.5,7.5-7.5s7.5,3.4,7.5,7.5v7c0,4.1-3.4,7.5-7.5,7.5Z"/><rect class="cls-2" x="20" y="93" width="10" height="7"/><rect class="cls-2" x="67" y="93" width="10" height="7"/><path class="cls-11" d="M95,62H1c-.6,0-1-.4-1-1v-7c0-.6.4-1,1-1h94c.6,0,1,.4,1,1v7c0,.6-.4,1-1,1ZM2,60h92v-5H2v5Z"/><path class="cls-11" d="M62,75h-27c-.6,0-1-.4-1-1s.4-1,1-1h27c.6,0,1,.4,1,1s-.4,1-1,1Z"/><path class="cls-11" d="M90,75h-8c-.6,0-1-.4-1-1s.4-1,1-1h7v-11H7v11h9c.6,0,1,.4,1,1s-.4,1-1,1H6c-.6,0-1-.4-1-1v-13c0-.6.4-1,1-1h84c.6,0,1,.4,1,1v13c0,.6-.4,1-1,1Z"/><path class="cls-11" d="M48,29c-6.1,0-11-4.9-11-11v-7.9c0-5.6,4.5-10.1,10.1-10.1h1.8c5.6,0,10.1,4.5,10.1,10.1v7.9c0,6.1-4.9,11-11,11ZM47.1,3c-3.9,0-7.1,3.2-7.1,7.1v7.9c0,4.4,3.6,8,8,8s8-3.6,8-8v-7.9c0-3.9-3.2-7.1-7.1-7.1h-1.8Z"/><path class="cls-11" d="M56,14h-7.4c-2.3,0-4.5-1-5.9-2.8l-2.8,1.2c-.5.2-1.1,0-1.3-.5-.2-.5,0-1.1.5-1.3l3.5-1.5c.4-.2,1,0,1.2.4,1.1,1.6,2.9,2.6,4.8,2.6h7.4c.6,0,1,.4,1,1s-.4,1-1,1Z"/><path class="cls-11" d="M59,20c-.6,0-1-.4-1-1s.4-1,1-1c1.1,0,2-.9,2-2s-.9-2-2-2-1-.4-1-1,.4-1,1-1c2.2,0,4,1.8,4,4s-1.8,4-4,4Z"/><path class="cls-11" d="M37,20c-2.2,0-4-1.8-4-4s1.8-4,4-4,1,.4,1,1-.4,1-1,1c-1.1,0-2,.9-2,2s.9,2,2,2,1,.4,1,1-.4,1-1,1Z"/><path class="cls-11" d="M48,39c-3.9,0-7-3.1-7-7v-5.5c0-.8.7-1.5,1.5-1.5s1.5.7,1.5,1.5v5.5c0,2.2,1.8,4,4,4s4-1.8,4-4v-5.5c0-.8.7-1.5,1.5-1.5s1.5.7,1.5,1.5v5.5c0,3.9-3.1,7-7,7Z"/><path class="cls-11" d="M71.5,55H24.5c-.8,0-1.5-.7-1.5-1.5v-10c0-6.9,5.6-12.5,12.5-12.5h7c.8,0,1.5.7,1.5,1.5s-.7,1.5-1.5,1.5h-7c-5.2,0-9.5,4.3-9.5,9.5v8.5h44v-8.5c0-5.2-4.3-9.5-9.5-9.5h-6c-.8,0-1.5-.7-1.5-1.5s.7-1.5,1.5-1.5h6c6.9,0,12.5,5.6,12.5,12.5v10c0,.8-.7,1.5-1.5,1.5Z"/><path class="cls-11" d="M35,53c-.6,0-1-.4-1-1v-5c0-.6.4-1,1-1s1,.4,1,1v5c0,.6-.4,1-1,1Z"/><path class="cls-11" d="M61,53c-.6,0-1-.4-1-1v-5c0-.6.4-1,1-1s1,.4,1,1v5c0,.6-.4,1-1,1Z"/><path class="cls-11" d="M25,95c-6.1,0-11-4.9-11-11v-7.9c0-5.6,4.5-10.1,10.1-10.1h1.8c5.6,0,10.1,4.5,10.1,10.1v7.9c0,6.1-4.9,11-11,11ZM24.1,69c-3.9,0-7.1,3.2-7.1,7.1v7.9c0,4.4,3.6,8,8,8s8-3.6,8-8v-7.9c0-3.9-3.2-7.1-7.1-7.1h-1.8Z"/><path class="cls-11" d="M36,86c-.6,0-1-.4-1-1s.4-1,1-1c1.1,0,2-.9,2-2s-.9-2-2-2-1-.4-1-1,.4-1,1-1c2.2,0,4,1.8,4,4s-1.8,4-4,4Z"/><path class="cls-11" d="M14,86c-2.2,0-4-1.8-4-4s1.8-4,4-4,1,.4,1,1-.4,1-1,1c-1.1,0-2,.9-2,2s.9,2,2,2,1,.4,1,1-.4,1-1,1Z"/><path class="cls-11" d="M25,101.8c-1.6,0-3.1-.2-4.3-.7-2.3-.9-2.7-2.3-2.7-3.1v-5.5c0-.8.7-1.5,1.5-1.5s1.5.7,1.5,1.5v5.4c.3.3,1.7.9,4,.9s3.7-.6,4-.9v-5.4c0-.8.7-1.5,1.5-1.5s1.5.7,1.5,1.5v5.5c0,2.8-3.6,3.8-7,3.8Z"/><path class="cls-11" d="M48.5,119H1.5c-.8,0-1.5-.7-1.5-1.5v-8c0-6.9,5.6-12.5,12.5-12.5h7c.8,0,1.5.7,1.5,1.5s-.7,1.5-1.5,1.5h-7c-5.2,0-9.5,4.3-9.5,9.5v6.5h44v-6.5c0-5.2-4.3-9.5-9.5-9.5h-6c-.8,0-1.5-.7-1.5-1.5s.7-1.5,1.5-1.5h6c6.9,0,12.5,5.6,12.5,12.5v8c0,.8-.7,1.5-1.5,1.5Z"/><path class="cls-11" d="M12,117c-.6,0-1-.4-1-1v-5c0-.6.4-1,1-1s1,.4,1,1v5c0,.6-.4,1-1,1Z"/><path class="cls-11" d="M38,117c-.6,0-1-.4-1-1v-5c0-.6.4-1,1-1s1,.4,1,1v5c0,.6-.4,1-1,1Z"/><path class="cls-11" d="M72,95c-6.1,0-11-4.9-11-11v-7.9c0-5.6,4.5-10.1,10.1-10.1h1.8c5.6,0,10.1,4.5,10.1,10.1v7.9c0,6.1-4.9,11-11,11ZM71.1,69c-3.9,0-7.1,3.2-7.1,7.1v7.9c0,4.4,3.6,8,8,8s8-3.6,8-8v-7.9c0-3.9-3.2-7.1-7.1-7.1h-1.8Z"/><path class="cls-11" d="M83,86c-.6,0-1-.4-1-1s.4-1,1-1c1.1,0,2-.9,2-2s-.9-2-2-2-1-.4-1-1,.4-1,1-1c2.2,0,4,1.8,4,4s-1.8,4-4,4Z"/><path class="cls-11" d="M61,86c-2.2,0-4-1.8-4-4s1.8-4,4-4,1,.4,1,1-.4,1-1,1c-1.1,0-2,.9-2,2s.9,2,2,2,1,.4,1,1-.4,1-1,1Z"/><path class="cls-11" d="M72,101.8c-1.6,0-3.1-.2-4.3-.7-2.3-.9-2.7-2.3-2.7-3.1v-5.5c0-.8.7-1.5,1.5-1.5s1.5.7,1.5,1.5v5.4c.3.3,1.7.9,4,.9s3.7-.6,4-.9v-5.4c0-.8.7-1.5,1.5-1.5s1.5.7,1.5,1.5v5.5c0,2.8-3.6,3.8-7,3.8Z"/><path class="cls-11" d="M95.5,119h-47c-.8,0-1.5-.7-1.5-1.5v-8c0-6.9,5.6-12.5,12.5-12.5h7c.8,0,1.5.7,1.5,1.5s-.7,1.5-1.5,1.5h-7c-5.2,0-9.5,4.3-9.5,9.5v6.5h44v-6.5c0-5.2-4.3-9.5-9.5-9.5h-6c-.8,0-1.5-.7-1.5-1.5s.7-1.5,1.5-1.5h6c6.9,0,12.5,5.6,12.5,12.5v8c0,.8-.7,1.5-1.5,1.5Z"/><path class="cls-11" d="M59,117c-.6,0-1-.4-1-1v-5c0-.6.4-1,1-1s1,.4,1,1v5c0,.6-.4,1-1,1Z"/><path class="cls-11" d="M85,117c-.6,0-1-.4-1-1v-5c0-.6.4-1,1-1s1,.4,1,1v5c0,.6-.4,1-1,1Z"/></g></svg>