<?xml version="1.0" encoding="UTF-8"?><svg id="Layer_2" xmlns="http://www.w3.org/2000/svg" viewBox="0 0 124 102.5"><defs><style>.cls-1{fill:#e23b3b;}.cls-1,.cls-2,.cls-3,.cls-4,.cls-5,.cls-6,.cls-7,.cls-8,.cls-9{stroke-width:0px;}.cls-2{fill:#edf2f8;}.cls-3{fill:#dce6f6;}.cls-4{fill:#ffc960;}.cls-5{fill:#ffaa4c;}.cls-6{fill:#74aaff;}.cls-7{fill:#4f88ff;}.cls-8{fill:#ff5f5f;}.cls-9{fill:#252d32;}</style></defs><g id="Line"><rect class="cls-2" x="9" y="22.5" width="104" height="71"/><rect class="cls-7" x="15" y="27.5" width="93" height="58"/><rect class="cls-6" x="19" y="31.5" width="89" height="54"/><path class="cls-5" d="M76.7,32.3l-15.7,5.2-15.1-5c-10.1,5.5-16.9,16.2-16.9,28.5s4.3,18.5,11.2,24.5h42.7c6.8-6,11.2-14.7,11.2-24.5s-7-23.3-17.3-28.7Z"/><path class="cls-3" d="M69,91.5v4h-15v-4H3.6c0,5.5,4.3,10,9.6,10h96.4c5.3,0,9.6-4.5,9.6-10h-50.4Z"/><polygon class="cls-8" points="79 31.5 61 37.5 43 31.5 43 18.5 79 18.5 79 31.5"/><polygon class="cls-1" points="79 21.5 61 26.5 43 21.5 43 16.5 61 21.5 79 16.5 79 21.5"/><polygon class="cls-8" points="95 12 61 21.5 27 12 61 1.5 95 12"/><circle class="cls-8" cx="93" cy="31.5" r="3"/><path class="cls-4" d="M89,61c0-10.1-4.6-19.1-11.9-25.1l-16.1,5.6-18.8-6.6c-8,5.9-13.2,15.4-13.2,26.1s4.3,18.5,11.2,24.5h37.7c6.8-6,11.2-14.7,11.2-24.5Z"/><path class="cls-5" d="M73.4,85.9c-.2,0-.3,0-.5-.1-.5-.3-.6-.9-.4-1.4,3.5-6,5.5-14.5,5.5-23.4s-2.6-19.6-6.9-25.6c-.3-.4-.2-1.1.2-1.4.4-.3,1.1-.2,1.4.2,4.6,6.4,7.3,16.1,7.3,26.7s-2.1,18.1-5.8,24.4c-.2.3-.5.5-.9.5Z"/><path class="cls-5" d="M49.7,86c-.3,0-.7-.2-.9-.5-3.7-6.3-5.8-15.2-5.8-24.5s2.6-20,7.1-26.4c.3-.5.9-.6,1.4-.2.5.3.6.9.2,1.4-4.3,6-6.7,15.2-6.7,25.2s2,17.5,5.5,23.4c.3.5.1,1.1-.4,1.4-.2,0-.3.1-.5.1Z"/><path class="cls-5" d="M61,85.5c-.6,0-1-.4-1-1v-46c0-.6.4-1,1-1s1,.4,1,1v46c0,.6-.4,1-1,1Z"/><path class="cls-5" d="M94,62.5H29c-.6,0-1-.4-1-1s.4-1,1-1h65c.6,0,1,.4,1,1s-.4,1-1,1Z"/><path class="cls-5" d="M84.3,85.1c-.2,0-.5,0-.7-.2-4.6-3.9-13.1-6.4-22.2-6.4s-17.6,2.4-22.2,6.4c-.4.4-1.1.3-1.4-.1-.4-.4-.3-1.1.1-1.4,5-4.3,13.8-6.9,23.5-6.9s18.5,2.6,23.5,6.9c.4.4.5,1,.1,1.4-.2.2-.5.3-.8.3Z"/><path class="cls-5" d="M61.5,45.5c-9.5,0-18.2-2.5-23.3-6.7-.4-.4-.5-1-.1-1.4.4-.4,1-.5,1.4-.1,4.6,3.9,13,6.2,22,6.2s17.1-2.3,21.8-6.1c.4-.3,1.1-.3,1.4.1.3.4.3,1.1-.1,1.4-5.1,4.1-13.7,6.6-23.1,6.6Z"/><path class="cls-9" d="M122.5,102.5H1.5c-.8,0-1.5-.7-1.5-1.5s.7-1.5,1.5-1.5h121c.8,0,1.5.7,1.5,1.5s-.7,1.5-1.5,1.5Z"/><path class="cls-9" d="M109.2,102.5H13.9c-6.1,0-11.1-5.2-11.1-11.5s.7-1.5,1.5-1.5h49.3c.8,0,1.5.7,1.5,1.5v2.5h12v-2.5c0-.8.7-1.5,1.5-1.5h50.4c.8,0,1.5.7,1.5,1.5,0,6.3-5,11.5-11.1,11.5ZM5.8,92.5c.7,4,4,7,8,7h95.4c4,0,7.3-3,8-7h-47.2v2.5c0,.8-.7,1.5-1.5,1.5h-15c-.8,0-1.5-.7-1.5-1.5v-2.5H5.8Z"/><path class="cls-9" d="M107,86.5H16c-.6,0-1-.4-1-1s.4-1,1-1h91c.6,0,1,.4,1,1s-.4,1-1,1Z"/><path class="cls-9" d="M9.5,91.5c-.8,0-1.5-.7-1.5-1.5V24.6c0-2.3,1.8-4.1,4.1-4.1h29.4c.8,0,1.5.7,1.5,1.5s-.7,1.5-1.5,1.5H12.1c-.6,0-1.1.5-1.1,1.1v65.4c0,.8-.7,1.5-1.5,1.5Z"/><path class="cls-9" d="M113.5,91.5c-.8,0-1.5-.7-1.5-1.5V24.6c0-.6-.5-1.1-1.1-1.1h-30.4c-.8,0-1.5-.7-1.5-1.5s.7-1.5,1.5-1.5h30.4c2.3,0,4.1,1.8,4.1,4.1v65.4c0,.8-.7,1.5-1.5,1.5Z"/><path class="cls-9" d="M61,39c-.1,0-.2,0-.3,0l-19-6.5c-.5-.2-.8-.7-.6-1.3.2-.5.7-.8,1.3-.6l19,6.5c.5.2.8.7.6,1.3-.1.4-.5.7-.9.7Z"/><path class="cls-9" d="M61,23c-.1,0-.3,0-.4,0L26.6,13.4c-.6-.2-1.1-.8-1.1-1.4,0-.7.4-1.3,1.1-1.5L60.6,0c.3,0,.6,0,.9,0l34,10.5c.6.2,1.1.8,1.1,1.5,0,.7-.5,1.2-1.1,1.4l-34,9.5c-.1,0-.3,0-.4,0ZM32.3,11.9l28.7,8,28.7-8L61,3.1l-28.7,8.9Z"/><path class="cls-9" d="M93,28.5c-.6,0-1-.4-1-1v-14c0-.6.4-1,1-1s1,.4,1,1v14c0,.6-.4,1-1,1Z"/><path class="cls-9" d="M93,35.5c-2.2,0-4-1.8-4-4s1.8-4,4-4,4,1.8,4,4-1.8,4-4,4ZM93,29.5c-1.1,0-2,.9-2,2s.9,2,2,2,2-.9,2-2-.9-2-2-2Z"/><path class="cls-9" d="M42.5,32.5c-.8,0-1.5-.7-1.5-1.5v-13c0-.8.7-1.5,1.5-1.5s1.5.7,1.5,1.5v13c0,.8-.7,1.5-1.5,1.5Z"/><path class="cls-9" d="M61,39c-.4,0-.8-.3-.9-.7-.2-.5,0-1.1.6-1.3l19-6.5c.5-.2,1.1,0,1.3.6.2.5,0,1.1-.6,1.3l-19,6.5c-.1,0-.2,0-.3,0Z"/><path class="cls-9" d="M79.5,32.5c-.8,0-1.5-.7-1.5-1.5v-13c0-.8.7-1.5,1.5-1.5s1.5.7,1.5,1.5v13c0,.8-.7,1.5-1.5,1.5Z"/><path class="cls-9" d="M84.3,86.4c-.4,0-.8-.2-1.1-.5-.6-.6-.5-1.5,0-2.1,6.3-6,9.8-14.1,9.8-22.8s-5.9-21.4-15.4-27.1c-.7-.4-.9-1.3-.5-2.1.4-.7,1.3-.9,2.1-.5,10.4,6.2,16.9,17.6,16.9,29.7s-3.8,18.4-10.7,25c-.3.3-.7.4-1,.4Z"/><path class="cls-9" d="M38.8,86.5c-.4,0-.7-.1-1-.4-7-6.6-10.8-15.5-10.8-25.1s6.1-23,16.4-29.4c.7-.4,1.6-.2,2.1.5.4.7.2,1.6-.5,2.1-9.4,5.8-14.9,15.8-14.9,26.8s3.5,16.9,9.8,22.9c.6.6.6,1.5,0,2.1-.3.3-.7.5-1.1.5Z"/></g></svg>