<?xml version="1.0" encoding="UTF-8"?><svg id="Layer_2" xmlns="http://www.w3.org/2000/svg" viewBox="0 0 102 106"><defs><style>.cls-1{fill:#ffbfb4;}.cls-1,.cls-2,.cls-3,.cls-4,.cls-5,.cls-6,.cls-7,.cls-8,.cls-9{stroke-width:0px;}.cls-2{fill:#ffc960;}.cls-3{fill:#fff;}.cls-4{fill:#ff9f91;}.cls-5{fill:#c5d5f0;}.cls-6{fill:#ffaa4c;}.cls-7{fill:#74aaff;}.cls-8{fill:#4f88ff;}.cls-9{fill:#252d32;}</style></defs><g id="Line"><rect class="cls-2" x="2" y="10" width="78" height="94"/><rect class="cls-3" x="9" y="10" width="64" height="87"/><path class="cls-5" d="M80,90l-9.8-41.3c-.7-3-3.7-4.8-6.6-4.1s-4.8,3.7-4.1,6.6l3.3,15.2v1c.1,5.8,2.5,11.3,6.6,15.4l.6.6,3,9,7-2.5Z"/><path class="cls-5" d="M54.5,53h-23c-.8,0-1.5-.7-1.5-1.5s.7-1.5,1.5-1.5h23c.8,0,1.5.7,1.5,1.5s-.7,1.5-1.5,1.5Z"/><path class="cls-5" d="M55.5,69h-24c-.8,0-1.5-.7-1.5-1.5s.7-1.5,1.5-1.5h24c.8,0,1.5.7,1.5,1.5s-.7,1.5-1.5,1.5Z"/><path class="cls-5" d="M55.5,85h-24c-.8,0-1.5-.7-1.5-1.5s.7-1.5,1.5-1.5h24c.8,0,1.5.7,1.5,1.5s-.7,1.5-1.5,1.5Z"/><path class="cls-5" d="M77.8,89.9l-5.8,1.7c-.6.2-1,.8-.8,1.4l1.2,4h7.5l-2.1-7.1Z"/><rect class="cls-7" x="75" y="86.8" width="24.5" height="7" transform="translate(-21.9 28.3) rotate(-16.4)"/><rect class="cls-8" x="75.4" y="89.5" width="5.5" height="7" transform="translate(-23.1 25.8) rotate(-16.4)"/><path class="cls-1" d="M96,82.5l-1-4,2.7-16.7c.9-5.4-.3-10.8-3.2-15.4l-13.4-20.9v36c-1.8.8-3.9-.3-4.4-2.3l-2.4-11.6c-.7-3-3.7-4.8-6.6-4.1s-4.8,3.7-4.1,6.6l3.3,15.2v1c.1,5.8,2.5,11.3,6.6,15.4l.6.6,2,6,20-6Z"/><path class="cls-4" d="M81,63V27l4,7v25c0,2.2-1.8,4-4,4Z"/><polygon class="cls-7" points="48 6 48 2 34 2 34 6 26 6 26 13 56 13 56 6 48 6"/><path class="cls-6" d="M75,101.6l5.8-1.7-.9-2.9h-7.5l1.1,3.8c.2.6.8,1,1.4.8Z"/><polygon class="cls-7" points="50 29 45 29 45 24 39 24 39 29 34 29 34 35 39 35 39 40 45 40 45 35 50 35 50 29"/><path class="cls-9" d="M80.5,106H1.5c-.8,0-1.5-.7-1.5-1.5V9.5c0-.8.7-1.5,1.5-1.5h23c.8,0,1.5.7,1.5,1.5s-.7,1.5-1.5,1.5H3v92h76v-4.5c0-.8.7-1.5,1.5-1.5s1.5.7,1.5,1.5v6c0,.8-.7,1.5-1.5,1.5Z"/><path class="cls-9" d="M80.5,62c-.8,0-1.5-.7-1.5-1.5V11h-21.5c-.8,0-1.5-.7-1.5-1.5s.7-1.5,1.5-1.5h23c.8,0,1.5.7,1.5,1.5v51c0,.8-.7,1.5-1.5,1.5Z"/><path class="cls-9" d="M75.5,90c-.6,0-1.2-.4-1.4-1l-1.9-5.7-.4-.4c-4.4-4.4-6.9-10.2-7-16.4v-.9s-3.3-15.1-3.3-15.1c-.9-3.7,1.5-7.5,5.2-8.4,3.8-.9,7.5,1.5,8.4,5.2l2.4,11.6c.1.5.4.9.9,1.1.5.2,1,.3,1.5,0,.8-.3,1.6,0,2,.8.3.8,0,1.6-.8,2-1.3.5-2.7.5-4-.2-1.2-.6-2.1-1.8-2.4-3.1l-2.4-11.6c-.5-2.1-2.7-3.4-4.8-2.9-2.1.5-3.5,2.7-3,4.8l3.3,15.3c0,0,0,.2,0,.3v1c.1,5.4,2.3,10.5,6.1,14.3l.6.6c.2.2.3.4.4.6l2,6c.3.8-.2,1.6-.9,1.9-.2,0-.3,0-.5,0Z"/><path class="cls-9" d="M95.5,84c-.7,0-1.3-.5-1.5-1.1l-1-4c0-.2,0-.4,0-.6l2.7-16.7c.8-5-.3-10.1-3-14.3l-13.4-20.9c-.4-.7-.2-1.6.5-2.1.7-.4,1.6-.2,2.1.5l13.4,20.9c3.1,4.9,4.4,10.7,3.4,16.4l-2.6,16.4.9,3.7c.2.8-.3,1.6-1.1,1.8-.1,0-.2,0-.4,0Z"/><path class="cls-9" d="M75.9,99.7c-.2,0-.5,0-.7-.2-.3-.2-.6-.5-.7-.9l-2.3-7.9c-.2-.8.2-1.6,1-1.9l24.6-7.3c.8-.2,1.6.2,1.9,1l2.3,7.9c.1.4,0,.8-.1,1.1-.2.3-.5.6-.9.7l-24.6,7.3c-.1,0-.3,0-.4,0ZM75.4,91.3l1.5,5,21.8-6.4-1.5-5-21.7,6.4Z"/><path class="cls-9" d="M56.5,15h-31c-.8,0-1.5-.7-1.5-1.5V5.5c0-.8.7-1.5,1.5-1.5h6.5V1.5c0-.8.7-1.5,1.5-1.5h15c.8,0,1.5.7,1.5,1.5v2.5h6.5c.8,0,1.5.7,1.5,1.5v8c0,.8-.7,1.5-1.5,1.5ZM27,12h28v-5h-6.5c-.8,0-1.5-.7-1.5-1.5v-2.5h-12v2.5c0,.8-.7,1.5-1.5,1.5h-6.5v5Z"/><path class="cls-9" d="M24,57h-8c-.6,0-1-.4-1-1v-8c0-.6.4-1,1-1h8c.6,0,1,.4,1,1v8c0,.6-.4,1-1,1ZM17,55h6v-6h-6v6Z"/><path class="cls-9" d="M24,73h-8c-.6,0-1-.4-1-1v-8c0-.6.4-1,1-1h8c.6,0,1,.4,1,1v8c0,.6-.4,1-1,1ZM17,71h6v-6h-6v6Z"/><path class="cls-9" d="M24,89h-8c-.6,0-1-.4-1-1v-8c0-.6.4-1,1-1h8c.6,0,1,.4,1,1v8c0,.6-.4,1-1,1ZM17,87h6v-6h-6v6Z"/></g></svg>