<?xml version="1.0" encoding="UTF-8"?><svg id="Layer_2" xmlns="http://www.w3.org/2000/svg" xmlns:xlink="http://www.w3.org/1999/xlink" viewBox="0 0 1146.9 780.4"><defs><style>.cls-1{fill:#ff8d73;}.cls-1,.cls-2,.cls-3,.cls-4,.cls-5,.cls-6,.cls-7,.cls-8,.cls-9,.cls-10,.cls-11,.cls-12,.cls-13,.cls-14,.cls-15,.cls-16,.cls-17,.cls-18,.cls-19,.cls-20,.cls-21,.cls-22,.cls-23,.cls-24,.cls-25,.cls-26,.cls-27,.cls-28,.cls-29,.cls-30,.cls-31,.cls-32{stroke-width:0px;}.cls-2{fill:#42526b;}.cls-3{fill:#f5f7fa;}.cls-4{fill:#919191;}.cls-5{fill:#a38660;}.cls-6{fill:#705a58;}.cls-7{fill:#495a75;}.cls-8{fill:#d4d1ce;}.cls-9{fill:none;}.cls-10{fill:#eb923f;}.cls-11{fill:#ccc;}.cls-12{fill:#6a7fa1;}.cls-13{fill:#fff;}.cls-14{fill:#a9afc7;}.cls-15{fill:#fafafa;}.cls-16{fill:#63504e;}.cls-17{fill:#db4e59;}.cls-18{fill:#383a42;}.cls-19{fill:#ebc4a0;}.cls-33{clip-path:url(#clippath);}.cls-20{fill:#de7679;}.cls-21{fill:#3c8f6c;}.cls-22{fill:#ebb3a5;}.cls-23{fill:#a6695a;}.cls-24{fill:#e0ddda;}.cls-25{fill:#c9c9c9;}.cls-26{fill:#bf3d48;}.cls-27{fill:#ede9e6;}.cls-28{fill:#45392f;}.cls-29{fill:#e3ad9f;}.cls-30{fill:#a67156;}.cls-31{fill:#ffc273;}.cls-32{fill:#2c3747;}</style><clipPath id="clippath"><rect class="cls-9" x="677.4" y="119.5" width="401.3" height="351.9"/></clipPath></defs><g id="_레이어_1"><rect class="cls-27" x="542.5" y="483.5" width="565.7" height="217.3"/><circle class="cls-31" cx="446.5" cy="197.1" r="155.3"/><path class="cls-31" d="M275.7,198.6c-.8,0-1.5-.7-1.5-1.5,0-95,77.3-172.3,172.3-172.3s1.5.7,1.5,1.5-.7,1.5-1.5,1.5c-93.4,0-169.3,76-169.3,169.3s-.7,1.5-1.5,1.5Z"/><circle class="cls-1" cx="648.1" cy="124.1" r="105.6" transform="translate(102.1 494.6) rotate(-45)"/><rect class="cls-2" x="515.5" y="185.1" width="617.1" height="299.7" rx="16.3" ry="16.3" transform="translate(1648.1 670) rotate(180)"/><rect class="cls-13" x="539.9" y="198.6" width="542.5" height="272.9" rx="8.9" ry="8.9" transform="translate(1622.3 670) rotate(180)"/><rect class="cls-13" x="523.4" y="299" width="8.9" height="71.9" rx="4.3" ry="4.3" transform="translate(1055.7 670) rotate(180)"/><rect class="cls-13" x="1099.8" y="304" width="16.9" height="62" rx="7.4" ry="7.4" transform="translate(2216.4 670) rotate(180)"/><rect class="cls-27" x="962.2" width="43.4" height="3.2"/><rect class="cls-27" x="962.2" y="8.9" width="43.4" height="3.2"/><rect class="cls-27" x="962.2" y="17.7" width="43.4" height="3.2"/><rect class="cls-27" x="962.2" y="26.6" width="43.4" height="3.2"/><rect class="cls-27" x="962.2" y="35.3" width="43.4" height="3.2"/><rect class="cls-27" x="962.2" y="44.2" width="43.4" height="3.2"/><rect class="cls-27" x="962.2" y="53" width="43.4" height="3.2"/><rect class="cls-27" x="962.2" y="61.9" width="43.4" height="3.2"/><path class="cls-31" d="M165.6,211.1l-.5-.7c-1.1-1.3-3-1.4-4.3-.2l-7.5,7.2-7.3-7.1c-1.3-1.2-3.4-1.1-4.5.3l-.3.4c-1,1.2-.9,3,.2,4.1l7.2,6.9-7.2,7c-1.1,1.1-1.2,2.8-.2,4l.5.6c1.1,1.3,3.1,1.4,4.3.3l7.4-7.2,7.3,7.1c1.3,1.3,3.4,1.1,4.6-.3l.3-.3c1-1.3.9-3.1-.2-4.2l-7.1-6.9,7.3-7c1.1-1,1.2-2.7.2-3.9Z"/><path class="cls-8" d="M239.1,204.1c-19.6,0-35.4,15.9-35.4,35.4s6.1,22.8,15.4,29.2c-.2-3.5,0-6.9.2-10.4.4-5.9,1.2-12,4.3-17.1,2.7-4.4,6.9-7.6,11.1-10.7-2.8-1.6-4.6-4.5-4.6-7.9,0-5,4.1-9.1,9.1-9.1s9.1,4.1,9.1,9.1-1.9,6.3-4.6,7.9c4.2,3,8.4,6.3,11.1,10.7,3.1,5.1,3.9,11.2,4.3,17.1.2,3.5.4,6.9.2,10.4,9.3-6.4,15.4-17.1,15.4-29.2,0-19.6-15.9-35.4-35.4-35.4Z"/><path class="cls-13" d="M242.4,229.7c.4.3.8.6,1.2.8,2.8-1.6,4.6-4.5,4.6-7.9,0-5-4.1-9.1-9.1-9.1s-9.1,4.1-9.1,9.1,1.9,6.3,4.6,7.9c.4-.3.8-.6,1.2-.8h6.6Z"/><path class="cls-13" d="M259,258.4c-.4-5.9-1.2-12-4.3-17.1-2.7-4.4-6.9-7.6-11.1-10.7-1.3.8-2.8,1.2-4.5,1.2s-3.2-.5-4.5-1.2c-4.2,3-8.4,6.3-11.1,10.7-3.1,5.1-3.9,11.2-4.3,17.1-.2,3.5-.4,6.9-.2,10.4,5.7,3.9,12.6,6.2,20,6.2s14.3-2.3,20-6.2c.2-3.5,0-6.9-.2-10.4Z"/><path class="cls-13" d="M243.6,230.6c-.4-.3-.8-.6-1.2-.8h-6.6c-.4.3-.8.6-1.2.8,1.3.8,2.8,1.2,4.5,1.2s3.2-.5,4.5-1.2Z"/><rect class="cls-27" x="235.6" y="6.2" width="76.6" height="40.2"/><polygon class="cls-8" points="235.6 6.2 274.4 32.6 312.1 6.2 235.6 6.2"/><rect class="cls-13" x="746.8" y="530.2" width="7" height="46.5"/><rect class="cls-13" x="800.2" y="552.5" width="7" height="24.3"/><rect class="cls-13" x="814" y="560.9" width="7" height="15.9"/><rect class="cls-13" x="773.9" y="540.5" width="7" height="36.2"/><rect class="cls-13" x="786.8" y="534.1" width="7" height="42.6"/><rect class="cls-13" x="760.8" y="546.5" width="7" height="30.2"/><path class="cls-13" d="M760.4,662.9c-.4,0-.9-.2-1.2-.5l-17.7-18.4-16.3,16.8c-.6.7-1.7.7-2.3,0-.6-.6-.7-1.7,0-2.3l17.4-18c.3-.3.7-.5,1.2-.5.4,0,.9.2,1.2.5l17.3,18.1,22.2-38c.3-.5.9-.9,1.5-.8.6,0,1.2.4,1.4,1l9.5,24,10.5-3.9c.7-.3,1.5,0,1.9.6l11.5,17.7c.5.8.3,1.8-.5,2.3-.8.5-1.8.3-2.3-.5l-10.7-16.6-10.7,4c-.8.3-1.8-.1-2.1-.9l-8.9-22.4-21.6,37c-.3.4-.7.7-1.2.8,0,0-.1,0-.2,0Z"/><rect class="cls-21" x="561.1" y="198.5" width="477.9" height="257.7"/><rect class="cls-5" x="550" y="454.8" width="500.2" height="16.6"/><rect class="cls-13" x="594.4" y="221.4" width="71.9" height="4"/><rect class="cls-13" x="594.4" y="237.5" width="71.9" height="4"/><rect class="cls-13" x="744.6" y="256.8" width="89.5" height="4.4"/><path class="cls-13" d="M629.9,270.7c-20.9,0-37.9,17-37.9,37.9s17,37.9,37.9,37.9,37.9-17,37.9-37.9-17-37.9-37.9-37.9ZM664.7,305.8h-33.3v-32.1c17.6.7,31.9,14.6,33.3,32.1ZM595,308.6c0-18.7,14.9-34.1,33.4-34.9v33l-24.6,25c-5.5-6.2-8.8-14.3-8.8-23.1ZM629.9,343.5c-10.2,0-19.3-4.4-25.7-11.3l1.7,1.7,24.6-25h34.3c-.1,19.1-15.7,34.7-34.9,34.7Z"/><path class="cls-13" d="M628.8,360.8l-37.5,52.5,38.6,22.4,36.3-23.5-37.5-51.4ZM659.5,411.4v1.7l-29.1,18.8v-5.3h-3.1v4.1l-30.7-17.8v-1.6h-.1l30.9-43.2v3.4h3.1v-3.5l31.6,43.3h-2.5Z"/><rect class="cls-13" x="602.3" y="411.4" width="5.7" height="3.1"/><rect class="cls-13" x="636.6" y="411.4" width="5.7" height="3.1"/><rect class="cls-13" x="613.7" y="411.4" width="5.7" height="3.1"/><rect class="cls-13" x="648" y="411.4" width="5.7" height="3.1"/><polygon class="cls-13" points="625.1 414.4 627.3 414.4 627.3 420.5 630.3 420.5 630.3 414.4 630.9 414.4 630.9 411.4 625.1 411.4 625.1 414.4"/><rect class="cls-13" x="627.3" y="402.2" width="3.1" height="6.1"/><rect class="cls-13" x="627.3" y="377.7" width="3.1" height="6.1"/><rect class="cls-13" x="627.3" y="389.9" width="3.1" height="6.1"/><path class="cls-18" d="M965.3,226c-.4,0-.8-.2-1.1-.5-.6-.6-.5-1.6,0-2.1,17-16,34.4-40.4,20.4-65.7-4.3-7.7-10.2-11.4-17.2-15.7-1.4-.9-2.8-1.7-4.3-2.7-2.6-1.7-5-3.6-7.3-5.4-1.7-1.4-3.4-2.7-5.2-4-7.3-5.2-13.5-7.8-19.4-8.1-.8,0-1.5-.7-1.4-1.6,0-.8.7-1.5,1.6-1.4,6.5.3,13.2,3.1,21,8.6,1.8,1.3,3.6,2.7,5.3,4.1,2.2,1.8,4.6,3.7,7,5.2,1.4.9,2.8,1.8,4.2,2.6,7,4.3,13.6,8.4,18.2,16.8,14.9,27-3.2,52.6-21,69.3-.3.3-.7.4-1,.4Z"/><path class="cls-18" d="M1075.3,396.6c-.2,0-.3,0-.5,0-.8-.3-1.2-1.1-.9-1.9,4.8-13,7-28.1,6.6-45v-1.7c-.3-13-.7-27.8-6.5-39.1-4.7-9-13.6-16.6-26.6-22.5-11.3-5.1-23.1-9.7-34.5-14.1-16-6.2-32.6-12.7-48.3-20.8-.7-.4-1-1.3-.6-2,.4-.7,1.3-1,2-.6,15.6,8,32.1,14.5,48,20.7,11.4,4.4,23.2,9,34.6,14.2,13.6,6.2,23,14.2,28,23.8,6.2,12,6.5,27.1,6.8,40.4v1.7c.5,17.3-1.8,32.8-6.7,46.1-.2.6-.8,1-1.4,1Z"/><rect class="cls-13" x="604.7" y="518.5" width="30.4" height="52"/><rect class="cls-13" x="645.1" y="518.5" width="63.2" height="4.3"/><rect class="cls-13" x="645.1" y="529.3" width="63.2" height="4.3"/><rect class="cls-13" x="645.1" y="566.2" width="63.2" height="4.3"/><rect class="cls-13" x="462.5" y="109.8" width="52.8" height="3.2"/><rect class="cls-13" x="462.5" y="118.6" width="52.8" height="3.2"/><rect class="cls-13" x="462.5" y="127.5" width="52.8" height="3.2"/><rect class="cls-13" x="462.5" y="136.4" width="52.8" height="3.2"/><rect class="cls-13" x="462.5" y="145.1" width="52.8" height="3.2"/><rect class="cls-13" x="462.5" y="154" width="52.8" height="3.2"/><rect class="cls-13" x="462.5" y="162.8" width="52.8" height="3.2"/><rect class="cls-13" x="462.5" y="171.7" width="52.8" height="3.2"/><rect class="cls-13" x="383" y="233.4" width="112.2" height="51.6"/><polygon class="cls-13" points="431 285 438.3 299.7 445.6 285 431 285"/><path class="cls-13" d="M409.3,238.9c-10.3,0-18.6,8.3-18.6,18.6s3.2,12,8.1,15.3c-.1-1.8,0-3.6,0-5.4.2-3.1.6-6.3,2.3-9,1.4-2.3,3.6-4,5.8-5.6-1.4-.8-2.4-2.4-2.4-4.1,0-2.6,2.1-4.8,4.8-4.8s4.8,2.1,4.8,4.8-1,3.3-2.4,4.1c2.2,1.6,4.4,3.3,5.8,5.6,1.6,2.7,2.1,5.9,2.3,9,.1,1.8.2,3.6,0,5.4,4.9-3.3,8.1-9,8.1-15.3,0-10.3-8.3-18.6-18.6-18.6Z"/><path class="cls-31" d="M411,252.3c.2.1.4.3.6.4,1.4-.8,2.4-2.4,2.4-4.1,0-2.6-2.1-4.8-4.8-4.8s-4.8,2.1-4.8,4.8,1,3.3,2.4,4.1c.2-.1.4-.3.6-.4h3.5Z"/><path class="cls-31" d="M419.7,267.3c-.2-3.1-.6-6.3-2.3-9-1.4-2.3-3.6-4-5.8-5.6-.7.4-1.5.6-2.4.6s-1.7-.2-2.4-.6c-2.2,1.6-4.4,3.3-5.8,5.6-1.6,2.7-2.1,5.9-2.3,9-.1,1.8-.2,3.6,0,5.4,3,2.1,6.6,3.3,10.5,3.3s7.5-1.2,10.5-3.3c.1-1.8,0-3.6,0-5.4Z"/><path class="cls-31" d="M411.6,252.8c-.2-.1-.4-.3-.6-.4h-3.5c-.2.1-.4.3-.6.4.7.4,1.5.6,2.4.6s1.7-.2,2.4-.6Z"/><rect class="cls-31" x="435.9" y="247" width="45.2" height="2.1"/><rect class="cls-31" x="435.9" y="254.5" width="45.2" height="2.1"/><rect class="cls-31" x="435.9" y="261.9" width="45.2" height="2.1"/><rect class="cls-31" x="435.9" y="269.3" width="45.2" height="2.1"/><path class="cls-13" d="M393.5,124.9c-15.7,0-28.5,12.8-28.5,28.5s12.8,28.5,28.5,28.5,28.4-12.8,28.4-28.5-12.8-28.5-28.4-28.5ZM393.5,166.4c-7.2,0-13-5.8-13-13s5.8-13,13-13,13,5.8,13,13-5.8,13-13,13Z"/><path class="cls-13" d="M435,142.6h-6.2c-.9-2.9-2.1-5.6-3.6-8.1l4.5-4.5c1.8-1.8,1.8-4.7,0-6.5l-7.3-7.3c-1.8-1.8-4.7-1.8-6.5,0l-4.8,4.8c-2.5-1.4-5.1-2.4-7.9-3.2v-6.8c0-2.6-2.1-4.6-4.6-4.6h-10.3c-2.6,0-4.6,2.1-4.6,4.6v6.8c-2.8.8-5.4,1.8-7.9,3.2l-4.8-4.8c-1.8-1.8-4.7-1.8-6.5,0l-7.3,7.3c-1.8,1.8-1.8,4.7,0,6.5l4.5,4.5c-1.5,2.5-2.7,5.2-3.6,8.1h-6.2c-2.6,0-4.6,2.1-4.6,4.6v10.3c0,2.6,2.1,4.6,4.6,4.6h5.7c.8,3.1,1.9,6,3.4,8.8l-3.8,3.8c-1.8,1.8-1.8,4.7,0,6.5l7.3,7.3c1.8,1.8,4.7,1.8,6.5,0l3.6-3.6c2.8,1.7,5.9,3,9.1,3.9v5c0,2.6,2.1,4.6,4.6,4.6h10.3c2.6,0,4.6-2.1,4.6-4.6v-5c3.2-.9,6.3-2.2,9.1-3.9l3.6,3.6c1.8,1.8,4.7,1.8,6.5,0l7.3-7.3c1.8-1.8,1.8-4.7,0-6.5l-3.8-3.8c1.5-2.7,2.6-5.7,3.4-8.8h5.7c2.6,0,4.6-2.1,4.6-4.6v-10.3c0-2.6-2.1-4.6-4.6-4.6ZM393.5,185.9c-18,0-32.6-14.6-32.6-32.6s14.6-32.6,32.6-32.6,32.6,14.6,32.6,32.6-14.6,32.6-32.6,32.6Z"/><path class="cls-2" d="M431.3,550.8h239.2c3.4,0,6.2,2.8,6.2,6.2v146.4h-251.7v-146.4c0-3.4,2.8-6.2,6.2-6.2Z"/><path class="cls-12" d="M440.3,562.3h225.3c.6,0,1.1.1,1.6.3-.5-1.5-1.9-2.6-3.6-2.6h-225.3c-2.1,0-3.8,1.7-3.8,3.8v139.7h2v-137.4c0-2.1,1.7-3.8,3.8-3.8Z"/><path class="cls-3" d="M667.1,562.7c-.5-.2-1-.3-1.6-.3h-225.3c-2.1,0-3.8,1.7-3.8,3.8v137.4h230.9v-139.7c0-.4,0-.8-.2-1.2Z"/><polygon class="cls-7" points="677.1 684.5 711.9 729.7 388.1 729.7 425.4 684.1 677.1 684.5"/><rect class="cls-32" x="388.1" y="729.7" width="323.7" height="9.5"/><polygon class="cls-32" points="510.7 715.7 500.2 727.4 599.8 727.4 590.7 715.7 510.7 715.7"/><polygon class="cls-12" points="538.7 697 538.4 702.3 550.5 702.3 550.5 697 538.7 697"/><polygon class="cls-12" points="523.4 697 523 702.3 536.7 702.3 537 697 523.4 697"/><polygon class="cls-12" points="551.9 697 551.9 702.3 563.3 702.3 563.1 697 551.9 697"/><polygon class="cls-12" points="564.7 697 565 702.3 578.7 702.3 578.3 697 564.7 697"/><polygon class="cls-12" points="508.4 697 507.7 702.3 521.4 702.3 521.8 697 508.4 697"/><polygon class="cls-12" points="449 697 446.4 702.3 460.1 702.3 462.2 697 449 697"/><polygon class="cls-12" points="579.9 697 580.3 702.3 594 702.3 593.3 697 579.9 697"/><polygon class="cls-12" points="434.3 697 431.1 702.3 444.7 702.3 447.3 697 434.3 697"/><polygon class="cls-12" points="463.8 697 461.7 702.3 475.4 702.3 477 697 463.8 697"/><polygon class="cls-12" points="493.4 697 492.3 702.3 506 702.3 506.8 697 493.4 697"/><polygon class="cls-12" points="478.7 697 477 702.3 490.7 702.3 491.7 697 478.7 697"/><polygon class="cls-12" points="624.7 697 626.3 702.3 640 702.3 637.9 697 624.7 697"/><polygon class="cls-12" points="610 697 611 702.3 624.7 702.3 623 697 610 697"/><polygon class="cls-12" points="594.9 697 595.7 702.3 609.4 702.3 608.3 697 594.9 697"/><polygon class="cls-12" points="657 702.3 670.6 702.3 667.4 697 654.4 697 657 702.3"/><polygon class="cls-12" points="639.5 697 641.6 702.3 655.3 702.3 652.7 697 639.5 697"/><polygon class="cls-12" points="460.9 704.4 457.3 713.4 471.9 713.4 474.7 704.4 460.9 704.4"/><polygon class="cls-12" points="491.9 704.4 490.2 713.4 504.5 713.4 505.7 704.4 491.9 704.4"/><polygon class="cls-12" points="476.4 704.4 473.6 713.4 488.5 713.4 490.3 704.4 476.4 704.4"/><polygon class="cls-12" points="522.9 704.4 522.2 713.4 536.2 713.4 536.6 704.4 522.9 704.4"/><polygon class="cls-12" points="507.4 704.4 506.2 713.4 520.5 713.4 521.2 704.4 507.4 704.4"/><polygon class="cls-12" points="432.6 697 422.5 697 418.3 702.3 429.4 702.3 432.6 697"/><polygon class="cls-12" points="445.4 704.4 441 713.4 455.6 713.4 459.2 704.4 445.4 704.4"/><polygon class="cls-12" points="437.4 689.1 428.8 689.1 424.3 694.8 434 694.8 437.4 689.1"/><polygon class="cls-12" points="416.7 704.4 409.6 713.4 422.7 713.4 428.2 704.4 416.7 704.4"/><polygon class="cls-12" points="429.8 704.4 424.4 713.4 439.3 713.4 443.7 704.4 429.8 704.4"/><polygon class="cls-12" points="679 713.4 692.2 713.4 685.1 704.4 673.5 704.4 679 713.4"/><polygon class="cls-12" points="642.5 704.4 646.1 713.4 660.7 713.4 656.3 704.4 642.5 704.4"/><polygon class="cls-12" points="627 704.4 629.8 713.4 644.4 713.4 640.8 704.4 627 704.4"/><polygon class="cls-12" points="538.3 704.4 537.9 713.4 550.5 713.4 550.5 704.4 538.3 704.4"/><polygon class="cls-12" points="669.1 697 672.3 702.3 683.4 702.3 679.3 697 669.1 697"/><polygon class="cls-12" points="448.4 694.8 451.2 689.1 439.1 689.1 435.6 694.8 448.4 694.8"/><polygon class="cls-12" points="565.1 704.4 565.5 713.4 579.5 713.4 578.8 704.4 565.1 704.4"/><polygon class="cls-12" points="551.9 704.4 551.9 713.4 563.9 713.4 563.4 704.4 551.9 704.4"/><polygon class="cls-12" points="611.4 704.4 613.2 713.4 628.1 713.4 625.3 704.4 611.4 704.4"/><polygon class="cls-12" points="580.5 704.4 581.2 713.4 595.5 713.4 594.3 704.4 580.5 704.4"/><polygon class="cls-12" points="596 704.4 597.2 713.4 611.5 713.4 609.8 704.4 596 704.4"/><polygon class="cls-12" points="658 704.4 662.4 713.4 677.3 713.4 671.9 704.4 658 704.4"/><polygon class="cls-12" points="666.1 694.8 662.6 689.1 650.5 689.1 653.3 694.8 666.1 694.8"/><polygon class="cls-12" points="651.6 694.8 648.9 689.1 636.4 689.1 638.6 694.8 651.6 694.8"/><polygon class="cls-12" points="677.5 694.8 673 689.1 664.3 689.1 667.7 694.8 677.5 694.8"/><polygon class="cls-12" points="622.3 694.8 620.5 689.1 608.4 689.1 609.5 694.8 622.3 694.8"/><polygon class="cls-12" points="637 694.8 634.7 689.1 622.2 689.1 624 694.8 637 694.8"/><polygon class="cls-12" points="492.2 694.8 493.3 689.1 481.2 689.1 479.4 694.8 492.2 694.8"/><polygon class="cls-12" points="507.1 694.8 507.8 689.1 494.9 689.1 493.8 694.8 507.1 694.8"/><polygon class="cls-12" points="522 694.8 522.4 689.1 509.5 689.1 508.7 694.8 522 694.8"/><polygon class="cls-12" points="607.9 694.8 606.8 689.1 593.9 689.1 594.6 694.8 607.9 694.8"/><polygon class="cls-12" points="463.1 694.8 465.3 689.1 452.8 689.1 450.1 694.8 463.1 694.8"/><polygon class="cls-12" points="477.7 694.8 479.5 689.1 467 689.1 464.7 694.8 477.7 694.8"/><polygon class="cls-12" points="578.1 694.8 577.6 689.1 564.3 689.1 564.6 694.8 578.1 694.8"/><polygon class="cls-12" points="593 694.8 592.2 689.1 579.3 689.1 579.7 694.8 593 694.8"/><polygon class="cls-12" points="550.5 694.8 550.5 689.1 539 689.1 538.8 694.8 550.5 694.8"/><polygon class="cls-12" points="562.9 694.8 562.7 689.1 551.9 689.1 551.9 694.8 562.9 694.8"/><polygon class="cls-12" points="537.1 694.8 537.4 689.1 524.1 689.1 523.6 694.8 537.1 694.8"/><path class="cls-30" d="M185.8,318.7c-11.1-1.2-22.5-2.3-33.2.7-20.8,5.8-34.1,25.6-46.2,43.5-20.7,30.6-43.3,60-67.6,88-3.7,4.3-7.5,8.6-10.4,13.6-9.3,16.2-5.8,38.6,7.8,51.4,6.1,5.7,13.8,9.4,21.7,12.2,23.4,8.3,48.9,8.9,73.7,8.3,16.9-.4,34.5-1.5,49-10.2,6.7-4,12.5-9.5,17.4-15.7,11.6-14.4,18.6-32.1,22.5-50.2,4-18.1,5.2-36.6,6.3-55.1.4-6.9.8-13.8-.3-20.6"/><path class="cls-30" d="M256.1,338.9c0-7.6-5.8-13.6-11.7-17.7-11.7-8.2-25.6-12.8-39.5-12.6-13.9.2-27.8,5.2-38.8,14.6-4.3,3.7-8.2,8-12,12.4-4.4,5-8.7,10.3-11.5,16.5-2.1,4.8-3.3,10-3.9,15.3-1.9,15.6.7,32,8.4,45.3,3,5.3,6.8,10.1,11.3,13.9,4.1,3.5,8.7,6.2,13.5,8.5,10.9,5.2,22.9,8.1,34.7,6.8,11.8-1.3,23.5-6.9,31.2-16.8"/><path class="cls-18" d="M360,761.7c-111.1,12.5-169.2,17.3-280,1.8-1.1-31.9-60.4-144.3-22.9-217.8,21.9-42.9,85.2-52.7,127.2-73.9,32.6-16.5,116.5,17.2,135.3,30.6,18.8,13.4,35.1,31.7,43.5,54.2,8,21.6,10,62,8.8,85.2-1.2,24-3.9,47.9-6.5,71.7-1.8,16-3.5,32.1-5.3,48.1Z"/><path class="cls-30" d="M220.6,321c6.9.4,13.6,2.1,19.9,4.9.4.2.8.4,1.3.4.9.2,1.8-.2,2.7-.5,8.9-2.8,19.5.8,24.7,8.5,3.1,4.5,4.4,10.2,4.3,15.7-.1,5.5-1.6,10.9-3.7,16-1.7,4.2-3.9,8.2-6.9,11.7-6.2-3.8-10.2-10.3-15-15.8-4.5-5.2-9.7-9.8-15.5-13.4"/><path class="cls-22" d="M189.9,464.1c.6-2.5,1.8-5,2.9-7.3,3.4-7.3,7.4-24.2,11.7-31,1.5-2.4,3.1-4.9,4.7-7.2.6-.9,3.1-5.6,4.1-5.7,0,0,53.7-5.9,53.7-5.9-1.7,17.9-4.3,35.8-7.7,53.4,0,.4-.2.8-.2,1.2-1,17.7-2,35.4-3,53.2-.2,3.9-.5,8-2,11.5-3.4,7.5-11.9,10.4-19.4,9.4-12.6-1.8-23-12.3-29.5-24.5-6.4-12.2-9.5-16.2-13.2-29.7-1.4-4.9-2.7-10.1-2.3-15.2,0-.7.2-1.4.3-2.1Z"/><path class="cls-9" d="M167.9,333.6c-.4.4-.6,1-.5,1.5"/><path class="cls-22" d="M209.5,433.5c3.2,5.3,8.1,9.2,14,11.2,22.3,7.5,56.9,10.3,57.6-17.4.4-15-1.3-30.6-5.9-44.9-4-12.6-12.3-22.9-21.5-32.1-9.3-9.3-18.8-17.2-32.8-15.7-18.3,2-30.3,19.9-37,35.5-3.3,7.7-2.7,16.5,1.6,23.7l24.1,39.8Z"/><path class="cls-16" d="M238.2,396.5c.2-.1.3-.3.5-.5.4-.5.5-1.2.3-1.9-.7-2.2-1.6-4.5-3.1-6.4-.8-1-2.2-2.1-3.5-1.3-.9.5-1.4,1.6-1.3,2.6,0,1,.7,1.9,1.1,2.8.5.9.9,1.9,1.4,2.8,1.1,2,2.5,2.4,3.5,2.3.4,0,.8-.2,1.2-.4Z"/><path class="cls-16" d="M266.2,382.1c.2-.1.4-.3.5-.5.4-.5.5-1.2.3-1.9-.9-2.5-1.9-5.6-4-7.4-1.8-1.5-4.7.6-3.8,2.8.7,1.7,1.5,3.4,2.4,5,1.1,2,2.5,2.4,3.5,2.3.4,0,.8-.2,1.2-.4Z"/><path class="cls-22" d="M200.9,412.3c0-1.2-.9-2.1-1.8-2.8-7.9-6.3-20.4-5.8-27.6,1.2-1.1,1.1-2.2,2.3-2.9,3.7-1.8,3.5-1.4,7.7.2,11.2,2.2,4.5,6.4,7.8,11.1,9.5s9.8,1.9,14.8,1.4c4.9-.5,9.9-1.8,13.7-5"/><path class="cls-29" d="M253,385c1.9,1.4,4.5,1.4,6.9,1.3,8.8-.4,17.6-.5,26.3.5,2,.2,2.8,2.9,1.2,4.1-1,.8-2.1,1.4-3.1,2-7.2,4-14.4,7.9-21.7,11.9"/><path class="cls-16" d="M217.6,385.9c.1,0,.2-.1.3-.2,2.1-2.1,4.3-4.3,6.8-5.9,1.9-1.2,4.9-2.5,8-2.2.6,0,1.2-.4,1.3-1,0-.6-.4-1.2-1-1.3-3.9-.5-7.3,1.1-9.5,2.5-2.7,1.7-5,4-7.2,6.2-.4.4-.4,1.2,0,1.6.3.3.9.4,1.3.2Z"/><path class="cls-16" d="M252.4,369.2c.2,0,.4-.2.5-.4,2.2-3.5,6.5-5.5,10.5-5,.6,0,1.2-.4,1.3-1,0-.6-.4-1.2-1-1.3-5-.6-10.1,1.8-12.8,6.1-.3.5-.2,1.3.4,1.6.3.2.7.2,1.1,0Z"/><path class="cls-30" d="M234,365.7c-6.7.4-12.3,5.8-18.9,6.9-.7-4.3-2.5-8.4-5.3-11.7.3,4.4.5,8.8.8,13.2.2,4.1.5,8.1.3,12.2,0,.7,0,1.5-.4,2.1-.4.8-1.3,1.2-2.1,1.7-2.5,1.3-5.1,2.7-7.6,4-.7.4-1.4.8-1.7,1.5-.2.5-.2,1-.2,1.5v10.9c-5.7-.4-10-5-13.4-9.6-1.7-2.3-3.4-4.7-4.7-7.3-6.6-12.6-4.9-28.3,1.3-41,3.3-6.7,7.8-13,13.9-17.4,3.7-2.8,8-4.8,12.6-5.8,2.4-.5,4.8-.7,7.2-.6,2.1,0,3,1,4.5,2.5,6.2,6.1,10.6,13.9,12.7,22.3,1.2,4.8,1.6,9.7,1.2,14.6Z"/><path class="cls-30" d="M227.3,336.6c1.8,1.6,3.7,3.1,5.2,5,4.4,5.2,6.5,12.2,5.6,19,5.3-2,10.5-4.2,15.6-6.5.4-.2.8-.4,1.1-.7.2-.3.3-.6.3-1,.6-3.5-.3-7.1-1.8-10.2-1.6-3.1-3.9-5.9-6.3-8.4-2.7-2.7-5.6-5.2-9.1-6.8-3.3-1.5-6.9-2-10.5-2.4-2.5-.2-12.9-.5-11,4.4.8,2,3.4,2.5,5.1,3.4,2.2,1.1,4.1,2.7,6,4.3Z"/><path class="cls-16" d="M248.8,418.4c-2,0-3.9-.1-5.9-.3l.2-1.9c11.5,1.3,23.3-1.4,33.1-7.6l1,1.6c-8.5,5.4-18.4,8.3-28.4,8.3Z"/><path class="cls-20" d="M192.3,497.7c.9,2.3-.3,4.9-2.6,5.8-2.3.9-4.9-.3-5.8-2.6-.9-2.3.3-4.9,2.6-5.8,2.3-.9,4.9.3,5.8,2.6Z"/><rect class="cls-10" x="184" y="473.6" width="119.9" height="9" transform="translate(-154.1 118) rotate(-20.8)"/><polygon class="cls-19" points="298.3 452.6 301.5 461 308.8 455.7 307.3 451.7 298.3 452.6"/><polygon class="cls-28" points="307.3 451.7 308.8 455.7 315.5 450.9 307.3 451.7"/><rect class="cls-11" x="187.7" y="494" width="5.2" height="9.1" transform="translate(-164.9 100.3) rotate(-20.8)"/><path class="cls-22" d="M202.1,564.5c1.3-2.7,7.2-26.2,10.2-44.7,1.4-8.7,1.6-17.6,1.3-20.4-.8-7.6-1.7-16.4-3.6-23.9-.9-3.4-1.7-7-1.2-10.4,1.1-7,7.7-11.7,14.2-14.6,4.6-2,9.4-3.4,14.3-4.3,6.3-1.1,23.8-4,26.3-4.1,5-.1,9.6,2.7,13.8,5.5,3.3,2.2,4.2,12.6,5.2,14.3,1.5,2.6,3.7,8.7,2.4,13.6-.7,2.7-3.2,6.7-4.8,9-2.3,3.1-4.6,6.2-7.5,8.8-1.6,1.4-3.4,2.6-4.7,4.3-2.3,3-2.8,7-2.6,10.8.2,3.8.9,7.5.7,11.3-.5,7-4.7,13.6-10.8,17.1-1,.6-2.1,1.1-2.9,2-.7.8-1,1.9-1.3,2.9-4,14.6,0,21-5.1,35.3"/><path class="cls-23" d="M282.5,463.6c0,0-.1,0-.2,0-.6,0-1-.7-.9-1.3.3-2-.7-5.3-1.8-7.5-.7-1.3-1.4-2.8-2.7-3.6-2-1.4-4.8-.9-7.4-.3l-1.8.4c-12.1,2.8-17.7,4-29.8,9.3-.6.2-1.2,0-1.5-.6-.2-.6,0-1.2.6-1.5,12.3-5.4,17.9-6.7,30.2-9.5l1.8-.4c3.2-.7,6.5-1.1,9.1.6,1.7,1.2,2.6,3,3.4,4.4,1,1.9,2.5,5.9,2.1,8.9,0,.5-.6.9-1.1.9Z"/><path class="cls-23" d="M283,482.2c-.2,0-.3,0-.5-.1-.5-.3-.7-1-.5-1.5,2.7-5.2,2.9-11.6.4-16.2-.4-.8-1.5-1.4-2.8-1.5-1.2,0-2.5.3-3.9.7-9.6,2.9-19.1,6.7-28.1,11.2-.5.3-1.2,0-1.5-.5-.3-.5,0-1.2.5-1.5,9.1-4.6,18.7-8.4,28.4-11.3,1.6-.5,3.1-.9,4.7-.8,2,.1,3.8,1.1,4.6,2.6,2.8,5.3,2.7,12.4-.4,18.3-.2.4-.6.6-1,.6Z"/><path class="cls-22" d="M255,484.2c7.6,2,15.4-1.7,23-3.7,1.3-.4,2.8-.6,4,0,1.9,1,2.3,3.6,2.3,5.7.1,4.7,0,9.9-3.2,13.3-2.3,2.5-5.8,3.4-9.1,4.2-4.8,1.2-9.6,2.4-14.4,3.6"/><path class="cls-23" d="M257.6,487.5c-.2,0-.4,0-.6,0-.6,0-1.1-.6-1-1.2,0-.6.5-1.1,1.2-1,1.7.1,3.4-.5,5.3-1.2l.7-.3c4.1-1.4,8.4-2.4,12.5-3.3,2.3-.5,4.9-1.1,7.5-.7.6,0,1,.6,1,1.2,0,.6-.6,1-1.2,1-2.2-.3-4.5.2-6.7.7-4.1.9-8.3,1.8-12.2,3.2l-.7.3c-1.8.6-3.6,1.3-5.6,1.3Z"/><path class="cls-23" d="M265.3,506.1c-.2,0-.4,0-.5-.1-.5-.3-.7-1-.4-1.5.5-.8.9-1.6,1.4-2.3,1.3-2.1,2.5-4.1,3.4-6.5,0,0,0-.3,0-.3h0s0-.1-.1-.2c-.7-1.1-1.6-2.2-2.6-3.2-.4-.4-.4-1.1,0-1.6s1.1-.4,1.6,0c1.1,1.1,2,2.3,2.9,3.5.1.2.4.5.4,1,.1.6,0,1.1-.2,1.5-.9,2.6-2.2,4.7-3.5,6.9-.5.7-.9,1.5-1.4,2.3-.2.4-.6.6-1,.6Z"/><path class="cls-23" d="M270.3,497.2c-.4,0-.7-.2-.9-.5-.3-.5-.2-1.2.3-1.5,1.4-.9,2.7-1.8,3.8-2.7.3-.2.6-.4.9-.6.8-.5,1.8-1.1,2-1.7.2-.6.9-.8,1.4-.6.6.2.9.9.6,1.4-.5,1.2-1.8,2.1-2.9,2.8-.3.2-.6.4-.8.5-1.2.9-2.5,1.9-3.9,2.8-.2.1-.4.2-.6.2Z"/><path class="cls-14" d="M157.1,760.9c-3.2,0-6.3-.4-9.3-1.2-9.7-2.6-18.8-9.8-25.6-20.1-6-9.1-9.6-19.5-13.2-29.4l-25.9-73.6c-.4-1,.2-2.2,1.2-2.6,1-.4,2.2.2,2.6,1.2l25.9,73.6c3.4,9.8,7,19.9,12.7,28.6,6.3,9.5,14.5,16.1,23.3,18.5,10.6,2.9,23.2-.1,33.7-7.9,8.4-6.2,15.4-15,22.9-28.5,18.2-32.8,26.9-69.9,35.4-105.8l7.8-33.1-55.4-15.6c-1.1-.3-1.7-1.4-1.4-2.5.3-1.1,1.4-1.7,2.5-1.4l57.2,16.1c1,.3,1.7,1.3,1.4,2.4l-8.3,35c-8.5,36.1-17.4,73.5-35.8,106.8-4.8,8.7-12.5,21.2-24,29.8-8.6,6.4-18.5,9.8-27.9,9.8Z"/><path class="cls-14" d="M160.3,651.2c-.2,0-.5,0-.7-.1-1-.4-1.6-1.5-1.2-2.6l16.1-44.7c5.1-14.1,10.3-28.6,17.5-42.1.5-1,1.7-1.3,2.7-.8,1,.5,1.3,1.7.8,2.7-7.1,13.2-12.3,27.6-17.3,41.6l-16.1,44.7c-.3.8-1.1,1.3-1.9,1.3Z"/><path class="cls-18" d="M316.9,500.6c13.6,12.2,25,23.1,36.3,37.4,8.7,10.9,17.1,22.1,24.8,33.8,6.2,9.4,12,19,17.7,28.6,8.5,14.1,16.9,28.3,22.9,43.7,4.4,11.5,7.3,23.4,9.9,35.4,4,18.8,6.5,40.3-5.2,55.6-6.7,8.7-17,13.9-27.4,17.5-13.5,4.7-25.5,9-39.8,9.6-18.8.8-40.4-3.5-58,2.9-1.2-12.1-3.8-24.1-7.9-35.6-1.6-4.5-3.3-10-.4-13.8,1-1.3,2.5-2.3,3.9-3.1,24.4-14.8,38.5-22.4,66.3-28.9"/><path class="cls-14" d="M289.7,717.7c-.8,0-1.6-.5-1.9-1.3-.4-1,.2-2.2,1.2-2.6,3.9-1.4,8-2.9,12.1-4.5,16.9-6.3,34.4-12.8,51-17.3.2-11.8-1.3-23.9-2.7-35.5-1.5-12.7-3.1-25.9-2.6-38.9,0-1.1.9-2,2.1-1.9,1.1,0,2,1,1.9,2.1-.5,12.8,1.1,25.7,2.6,38.3,1.5,12.3,3,25,2.7,37.6,0,.9-.6,1.7-1.5,1.9-16.8,4.5-34.7,11.1-52.1,17.6-4.1,1.5-8.1,3-12.1,4.5-.2,0-.5.1-.7.1Z"/><path class="cls-14" d="M62.1,743.1c-.9,0-1.7-.6-1.9-1.4-7.4-25.2-12.3-51.3-17.1-76.6-3.8-20.1-7.8-40.9-8.6-61.8-1-23.5,2.3-44.3,9.6-61.7,4.1-9.9,9.1-17.2,15.1-22.4,4.1-3.5,8.7-6.2,13.6-8.8,29.1-15.9,59.6-29.5,90.9-40.5,1-.4,2.2.2,2.6,1.2.4,1-.2,2.2-1.2,2.6-31,10.9-61.4,24.5-90.3,40.2-4.6,2.5-9.1,5.1-12.9,8.3-5.6,4.8-10.2,11.6-14.1,20.9-7.1,16.9-10.2,37.1-9.3,60,.8,20.6,4.8,41.2,8.6,61.2,4.8,25.2,9.7,51.2,17,76.2.3,1.1-.3,2.2-1.4,2.5-.2,0-.4,0-.6,0Z"/><path class="cls-30" d="M28.3,520.2c-.3,0-.6,0-.8-.2-17.7-11.6-21.7-36.5-16.5-55.1,5.7-20.4,20-36.3,33.3-49.2,3-2.9,6.2-5.9,9.2-8.7,11.1-10.4,22.5-21.2,31-34,3-4.5,5.9-9.3,8.7-13.9,6.4-10.5,12.9-21.4,21.6-30.5,10.5-11.1,22.7-17.4,38.4-19.7.8-.1,1.6.4,1.7,1.3.1.8-.4,1.6-1.3,1.7-15,2.2-26.6,8.2-36.6,18.8-8.4,8.9-14.9,19.6-21.2,30-2.8,4.6-5.7,9.5-8.8,14-8.7,13.1-20.3,24-31.4,34.5-3,2.8-6.1,5.8-9.2,8.7-13,12.7-27,28.2-32.5,47.9-4.9,17.5-1.2,40.9,15.3,51.8.7.5.9,1.4.4,2.1-.3.4-.8.7-1.3.7Z"/><path class="cls-22" d="M252.4,726c-9.6,5.9-17.4,13.8-24.8,22-5,5.5-10,11.8-9.6,18.9,4.9,2.8,11.3,0,16.3-2.6l9.6-5.1c-4.3,1.6-8.6,3.2-12.2,5.9s-6.1,6.7-5.7,10.9c0,.4.1.9.4,1.3.4.5,1.1.8,1.7,1,5.4,1.5,11.1-.9,16.1-3.2,4.4-2,8.8-4.1,13.1-6.1-4.1,1.5-7.9,3.5-11.4,6-1.7,1.3-3.5,3.3-2.6,5.1,5.8,1.5,11.8-.9,17.3-3.2,5.1-2.2,10.1-4.4,15.2-6.5-1.8,1.3-3.5,2.5-5.3,3.8-1.1.8-2.3,2.4-1.2,3.3.4.3,1,.4,1.5.4,5.1.2,10.2-1,15.1-2.4,7.2-2.1,14.2-4.8,20.3-8.9,6-4.1,11-9.8,13-16.4,2.5-8.2,0-17.5-6.2-23.9-15.4-15.9-43.9-10.6-60.8,0Z"/><path class="cls-23" d="M230.7,767.1c-.3,0-.6-.1-.8-.4-.3-.4-.2-1,.2-1.3,8-6,16.4-11.7,25.1-16.8.4-.3,1-.1,1.3.3.3.4.1,1-.3,1.3-8.6,5.1-16.9,10.7-24.9,16.7-.2.1-.4.2-.6.2Z"/><path class="cls-23" d="M247.5,774.5c-.4,0-.7-.2-.9-.6-.2-.5,0-1,.5-1.2,8.2-3.3,16.3-7.1,24-11.3.5-.2,1,0,1.3.4.3.5,0,1-.4,1.3-7.8,4.3-15.9,8.1-24.2,11.4-.1,0-.2,0-.3,0Z"/><path class="cls-23" d="M274,772.4c-.3,0-.7-.2-.8-.5-.2-.5,0-1,.4-1.3,4.6-2.4,9.5-4.7,14.3-6.6.5-.2,1,0,1.2.5.2.5,0,1-.5,1.2-4.8,1.9-9.6,4.1-14.2,6.5-.1,0-.3.1-.4.1Z"/><polygon class="cls-26" points="47.8 238.6 47.8 187.6 44.6 187.6 44.6 238.6 39.4 238.6 46.2 250.6 53 238.6 47.8 238.6"/><polygon class="cls-26" points="67.5 278.7 67.5 227.7 64.3 227.7 64.3 278.7 59.1 278.7 65.9 290.6 72.7 278.7 67.5 278.7"/><path class="cls-8" d="M71,155.7s0,0,0,0c0-.1,0-.3,0-.4,0-12-11-21.8-24.5-21.8s-24.5,9.8-24.5,21.8,0,.4,0,.6c-12.3,1.2-21.9,10.4-21.9,21.7s11,21.8,24.5,21.8h46.4c13.6,0,24.5-9.8,24.5-21.8s-11-21.8-24.5-21.8Z"/><path class="cls-8" d="M214.2,133h-99.9c-.8,0-1.5-.7-1.5-1.5v-63.1c0-.8.7-1.5,1.5-1.5h99.9c.8,0,1.5.7,1.5,1.5v63.1c0,.8-.7,1.5-1.5,1.5ZM115.8,130h96.9v-60.1h-96.9v60.1Z"/><polygon class="cls-8" points="155.3 85.9 155.3 114.2 180.1 100 155.3 85.9"/><circle class="cls-18" cx="1056.4" cy="66.8" r="13.8" transform="translate(750.1 1080) rotate(-76.8)"/><circle class="cls-18" cx="1048" cy="118.5" r="8.4" transform="translate(223.1 775.8) rotate(-45)"/><polygon class="cls-18" points="1050.7 120.7 1049.3 116.4 1088.3 103.8 1056.1 68.3 1059.4 65.3 1096.4 105.9 1050.7 120.7"/><circle class="cls-26" cx="1092.4" cy="104.8" r="14.8"/><rect class="cls-8" x="871.2" y="497.9" width="162.9" height="188.6"/><rect class="cls-24" x="871.2" y="497.9" width="162.9" height="18.7"/><polygon class="cls-13" points="1024.7 504.6 1022.9 502.5 1018.6 506.3 1014.3 502.5 1012.4 504.6 1016.4 508.2 1012.4 511.8 1014.3 513.9 1018.6 510 1022.9 513.9 1024.7 511.8 1020.7 508.2 1024.7 504.6"/><circle class="cls-13" cx="1000.3" cy="509.1" r="2.8"/><circle class="cls-13" cx="992.1" cy="509.1" r="2.8"/><path class="cls-13" d="M986.8,509.1c0,1.6-1.3,2.8-2.8,2.8s-2.8-1.3-2.8-2.8,1.3-2.8,2.8-2.8,2.8,1.3,2.8,2.8Z"/><path class="cls-13" d="M904.9,631.1c-10.3,0-18.6,8.3-18.6,18.6s3.2,12,8.1,15.3c-.1-1.8,0-3.6,0-5.4.2-3.1.6-6.3,2.3-9,1.4-2.3,3.6-4,5.8-5.6-1.4-.8-2.4-2.4-2.4-4.1,0-2.6,2.1-4.8,4.8-4.8s4.8,2.1,4.8,4.8-1,3.3-2.4,4.1c2.2,1.6,4.4,3.3,5.8,5.6,1.6,2.7,2.1,5.9,2.3,9,.1,1.8.2,3.6,0,5.4,4.9-3.3,8.1-9,8.1-15.3,0-10.3-8.3-18.6-18.6-18.6Z"/><path class="cls-8" d="M906.6,644.5c.2.1.4.3.6.4,1.4-.8,2.4-2.4,2.4-4.1,0-2.6-2.1-4.8-4.8-4.8s-4.8,2.1-4.8,4.8,1,3.3,2.4,4.1c.2-.1.4-.3.6-.4h3.5Z"/><path class="cls-8" d="M915.3,659.5c-.2-3.1-.6-6.3-2.3-9-1.4-2.3-3.6-4-5.8-5.6-.7.4-1.5.6-2.4.6s-1.7-.2-2.4-.6c-2.2,1.6-4.4,3.3-5.8,5.6-1.6,2.7-2.1,5.9-2.3,9-.1,1.8-.2,3.6,0,5.4,3,2.1,6.6,3.3,10.5,3.3s7.5-1.2,10.5-3.3c.1-1.8,0-3.6,0-5.4Z"/><path class="cls-8" d="M907.2,644.9c-.2-.1-.4-.3-.6-.4h-3.5c-.2.1-.4.3-.6.4.7.4,1.5.6,2.4.6s1.7-.2,2.4-.6Z"/><rect class="cls-13" x="886.9" y="532.5" width="35.9" height="2.2"/><rect class="cls-13" x="886.9" y="541.8" width="35.9" height="2.2"/><rect class="cls-13" x="886.9" y="551" width="35.9" height="2.2"/><rect class="cls-13" x="886.9" y="560.3" width="35.9" height="2.2"/><rect class="cls-13" x="886.9" y="569.5" width="35.9" height="2.2"/><rect class="cls-13" x="886.9" y="578.8" width="35.9" height="2.2"/><rect class="cls-13" x="932.1" y="636" width="44.4" height="1.1"/><rect class="cls-13" x="932.1" y="641.3" width="44.4" height="1.1"/><rect class="cls-13" x="932.1" y="646.6" width="44.4" height="1.1"/><rect class="cls-13" x="932.1" y="651.9" width="44.4" height="1.1"/><rect class="cls-13" x="932.1" y="657.2" width="44.4" height="1.1"/><rect class="cls-13" x="932.1" y="662.5" width="44.4" height="1.1"/><path class="cls-13" d="M1018.5,580.9h-83.2v-48.3h83.2v48.3ZM937.3,578.9h79.2v-44.3h-79.2v44.3Z"/><circle class="cls-13" cx="900.8" cy="608.4" r="11.1"/><path class="cls-13" d="M928.4,609.3v-12c-6.1,0-11.1,5-11.1,11.1s5,11.1,11.1,11.1,10.5-4.5,11-10.1h-11Z"/><path class="cls-13" d="M955.3,597.3c-6.1,0-11.1,5-11.1,11.1s1,5.1,2.5,7l8.5-7,8.6,6.9c1.5-1.9,2.4-4.3,2.4-6.9,0-6.1-5-11.1-11.1-11.1Z"/><g class="cls-33"><path class="cls-25" d="M802.1,488.2l-1.2-.2.5-2-1.2-1.5c-.6.4-.7.9-.7,1,.2-1.7-2.4-13.6-2.9-14.9-1.4-3.8-16.5-139.9-14.2-149.5.5-2.2,1.3-4.5,2.3-6.6,5.3-12.2,16.3-22.4,34.3-31.9,15.4-8.1,32.4-13.4,48.4-18.1,2.5-.7,4.9-1.4,7.4-2.1,4.2-1.2,8.3-2.4,12.5-3.7,1-.3,2.1-.6,3.1-.9,20.6-6.3,39.8-8.3,57-5.9h.9c0,.1,77.2,31.4,103.2,50.7,11.9,8.8,17.8,17.6,20.1,32.4,4.7,29.4,1,60-1.4,89.5-1,12.5-2.1,24.9-4.1,37.3-1,6.7-1.6,16.1-5.9,21.8-1.4,1.9-3.7,4.5-7,6.1-3.2,1.5-6.8,1.7-9.7,1.9-2.6.2-5.3.3-7.9.4l-.5,2.8-1.5.3c-30.5,5.4-88.9,11.6-171,2.4-18.9-2.1-39.2-5.1-60.6-9Z"/><path class="cls-4" d="M978.7,474.9s0,0-.1,0c-.8,0-1.5-.8-1.4-1.6,3-37.7,10.1-75.2,20.9-111.4.2-.8,1.1-1.3,1.9-1,.8.2,1.3,1.1,1,1.9-10.8,36-17.8,73.3-20.8,110.8,0,.8-.7,1.4-1.5,1.4Z"/><path class="cls-15" d="M963.4,306.7c-1-17.5-2.9-35.2-8.2-51.9-4.4-1.8-7-2.9-7-2.9h-.9c-17.2-2.5-36.4-.5-57,5.8-1,.3-2.1.6-3.1.9-3.4,1-6.9,2-10.3,3-6.8,43.1-16.5,92.9-18.2,135.6-.8,19.3-1.6,38.6-.2,57.9.5,6.8,1.3,13.6,2,20.4.8,7.2,1.6,14.4,2.4,21.6,35.8,4,67.1,5,93.5,4.5,3.3-25.1,4.5-50.5,5.6-75.8,1.8-39.7,3.6-79.5,1.3-119.2Z"/><path class="cls-18" d="M931.2,128.2c-5.1-1.3-10.3-2.4-15.6-2.2-4.9.2-9.7,1.5-14.6,1.8-4.9.3-10.2-.7-13.6-4.3-.4-.4-.8-.9-1.4-1-.4,0-.9.2-1.2.4-5.3,3.5-8.6,9.7-8.5,16.1-1.2-1-.9-3.9-2.4-3.5-.4,0-.7.4-.9.7-4.5,5.8-4.5,13.8-4.3,21.1.2,6.9.5,14.3,4.6,19.9,2.9-1.5,6.3-1.5,9.6-1.5,6.3.2,12.6.5,18.8,1.1,13.3,1.3,26.9,4.1,37.7,12,4.6,3.4,8.7,8,9.8,13.6.5,2.7.4,5.5.8,8.2.4,2.7,1.7,5.5,4.1,6.8,1.6.8,3.5.9,5.2.5,4.1-.8,7.6-3.3,10.3-6.5s4.6-6.9,6.4-10.6c4.9-9.8,9.8-20.7,7.5-31.5-1.3-6.3-5.1-12-9.7-16.5-4.4-4.3-9.4-7.7-14.7-10.9-5.3-3.2-9.7-7.5-15.5-10-4.1-1.7-8.3-2.9-12.6-4Z"/><path class="cls-22" d="M935.4,221.3c6,9.6,12,28.2,14.6,39.7.3,1.3.6,2.7.2,4-.4,1.7-1.9,2.9-3.2,3.8-13.9,9.8-30.4,14.6-46.6,13.5-3.4-.2-6.9-.8-9.7-2.9-5.2-4-6.6-12-7.4-19.2-2.1-18.2-3.4-36.4-3.9-54.8"/><path class="cls-18" d="M976.4,181.6c1.4,9.3-.6,19-5.4,27-2,3.3-4.4,6.3-7.5,8.6-3,2.3-6.5,3.9-10.1,5.2-20,7.7-43.3,9.6-62.3-.3-2.2-1.1-4.3-2.4-6.1-4.2-1.7-1.7-3-3.7-4.1-5.8-8.1-14.6-14.8-37-10.4-53,1.4-5,8-5.3,11.6-9.2,2.6-2.8,5.9-4.9,9.4-6.6,14.6-7.2,32-8.2,47.3-2.8,3.9,1.4,7.7,3.2,11,5.7,2.7,2,4.7,4.7,7.4,6.7,2.9,2.1,5.9,3.9,8.5,6.5,2.7,2.9,5,6.1,6.8,9.6,2,3.9,3.4,8.1,4,12.4Z"/><path class="cls-22" d="M929.3,233.8c-1.8,5-5.4,9.2-10,11.8-17.8,10.1-46.8,18.3-52-5.3-2.8-12.7-3.9-26.3-2.5-39.3,1.3-11.4,6.6-21.6,13-30.9,6.4-9.4,8.4-13.6,20.6-14.6,15.9-1.3,33.9,7.7,42.2,19.8,4.1,6,5.1,13.6,2.6,20.4l-13.9,37.9Z"/><path class="cls-16" d="M898.7,207c-.2,0-.3-.2-.5-.4-.4-.4-.6-1-.5-1.5.2-1.7.6-3.3,1.2-4.8.5-1.3,1.2-3.4,3.1-2.8.7.2,1.4.9,1.6,1.6.2.8-.2,1.9-.4,2.7-.2,1-.5,1.9-.8,2.8-.6,1.9-1.7,2.4-2.6,2.6-.4,0-.7,0-1.1-.2Z"/><path class="cls-16" d="M872.5,199.4c-.2,0-.4-.2-.5-.4-.4-.4-.6-1-.5-1.5.3-1.9.7-3.9,1.5-5.7.3-.8.7-1.7,1.5-1.9.7-.2,1.6,0,2.1.5.7.7.8,1.6.6,2.6-.3,1.4-.7,2.7-1.1,4.1-.6,1.9-1.7,2.4-2.6,2.6-.4,0-.7,0-1.1-.2Z"/><path class="cls-6" d="M904.1,189.2c-.3-.2-.5-.4-.7-.8-.4-.9,0-2,.9-2.4,1.5-.7,3.2-.8,5.4-.3,3.6.7,6.9,2.6,9.4,5.3.7.8.6,1.9-.1,2.6-.8.7-1.9.6-2.6-.1-1.9-2.1-4.6-3.6-7.4-4.2-1.3-.3-2.3-.2-3.1,0-.6.3-1.3.2-1.8-.1Z"/><path class="cls-6" d="M871,181.8c-.2-.2-.4-.4-.5-.6-.4-.9,0-2,.9-2.5,1.9-.9,4.1-1,6.3-.4,1.8.5,3.5,1.5,5.1,3,1.1,1,2.1,2.2,2.9,3.5.5.9.3,2-.6,2.5-.9.5-2,.3-2.5-.6-.6-1-1.4-1.9-2.3-2.7-1.2-1.1-2.4-1.8-3.6-2.2-1.3-.4-2.6-.3-3.7.2-.7.3-1.4.2-2-.2Z"/><path class="cls-22" d="M933.1,214.3c-.2-1,.4-1.9,1.1-2.7,5.6-6.7,16.4-8.3,23.8-3.6,1.1.7,2.2,1.6,3.1,2.7,2.1,2.7,2.5,6.4,1.7,9.6-1.1,4.2-4.2,7.7-7.9,10-3.7,2.2-8.1,3.3-12.4,3.7-4.3.4-8.8.1-12.5-2"/><path class="cls-9" d="M952.3,148.8c.4.3.6.7.7,1.2"/><path class="cls-18" d="M856.4,203.9c2.1,3.4,5.3,5.7,9.1,6.4,1,.2,1.9.3,2.9.2,6.6-.2,12.7-5.3,14.1-12.6,0-.3,0-.6.1-.9l7,1.6c-.3.9-.6,1.8-.8,2.7-1.6,8.3,3.3,16.3,11,17.8,1,.2,1.9.3,2.9.2,2.8,0,5.5-1,7.9-2.7,3.2-2.3,5.4-5.8,6.2-9.8.8-4,0-8.1-2-11.4-2.1-3.4-5.3-5.7-9.1-6.4-3.8-.7-7.6.1-10.8,2.5-1.7,1.3-3.2,2.9-4.3,4.8l-8-1.8c0-2.8-.8-5.5-2.3-7.9-2.1-3.4-5.3-5.7-9.1-6.4-3.8-.7-7.6.1-10.8,2.5-3.2,2.3-5.4,5.8-6.2,9.8-.8,4,0,8.1,2,11.4ZM891.2,201.8c.7-3.4,2.5-6.3,5.2-8.3,2-1.4,4.2-2.2,6.5-2.3.8,0,1.6,0,2.4.2,3.1.6,5.7,2.5,7.4,5.2,1.7,2.8,2.3,6.2,1.7,9.6-.7,3.4-2.5,6.3-5.2,8.3-2.6,1.9-5.8,2.7-8.8,2.1-6.3-1.2-10.4-7.9-9-14.9ZM856.9,193c.7-3.4,2.5-6.3,5.2-8.3,2-1.4,4.2-2.2,6.5-2.3.8,0,1.6,0,2.4.2,3.1.6,5.7,2.5,7.4,5.2,1.7,2.8,2.3,6.2,1.7,9.6-1.4,6.9-7.6,11.6-14,10.3-3.1-.6-5.7-2.5-7.4-5.2-1.7-2.8-2.3-6.2-1.6-9.6Z"/><path class="cls-29" d="M884.2,199.7c-1.4,1.5-3.6,1.9-5.6,2.2-7.5,1.1-15.1,2.5-22.3,4.8-1.7.5-1.9,2.9-.3,3.7.9.5,2,.8,3,1.2,6.8,2.2,13.6,4.4,20.4,6.5"/><path class="cls-18" d="M925.7,158.8c3.1,2.3,5.8,5.1,8,8.3,1.7,2.5,3,5.5,2,8.3-1.1,2.9-4.2,4.3-6.2,6.7-.7.8-1.2,1.8-1.2,2.8,0,.6.2,1.2.5,1.8.9,2.2,1.7,4.5,2.6,6.7.4,1,.8,2,.9,3.1.3,2.1-.5,4.2-.9,6.3-.7,3-.8,6-.3,9,0,.5.2.9.5,1.3.8,1,2.4.2,3.4-.6,5.9-4.7,11.7-9.7,17.2-14.8,2.2-2.1,4.5-4.3,6-6.9,1.1-2,1.8-4.3,2.2-6.5.6-2.9.8-5.9.7-8.9"/><path class="cls-25" d="M722.4,386.5c.6,23.1,3.8,44.2,7,67.1,1.6,11.7,3.6,23.6,8.6,34.3s13.6,20.2,24.8,24c3.3,1.1,7.2,1.7,10.2,0,2.1-1.2,3.6-3.2,5.3-5,3-3.1,6.8-5.4,9.8-8.4,4-4.1,6.4-9.5,8.3-14.8,4.3-12.2,6.4-25.1,6.3-38,0-7.6-.9-15.3-3.5-22.5-2.4-6.7-6.1-12.8-9.8-18.9-3.7-6-7.4-12-12.3-17-3.3-3.3-2.4-7.1-7.5-11.4"/><path class="cls-18" d="M908.1,150.5c-2.8-1.7-6.5-1.3-9.4.4-2.8,1.7-4.9,4.4-6.5,7.2-1.3,2.3-2.5,4.7-3.1,7.4-.6,2.6-.5,5.4.6,7.9-2.7.1-5.5-.7-7.7-2.4-2.2-1.7-3.6-4.2-3.9-6.9-.3-2.8.6-5.6,2.2-7.9,1.6-2.3,3.8-4.1,6.1-5.6,4.8-3.1,10.4-4.9,16-5.3.6,0,1.3.1,1.3.7"/><path class="cls-22" d="M685.6,328.4c6.8,10,16.4,17.7,26.6,24.2,5.9,3.8,5.8,7.3,9.8,13.1,3.7,5.5,4.9,12.3,6.9,18.6.2.5.3,1,.7,1.4.5.4,1.1.5,1.7.6,6.8.7,22.8-.7,29.4-2.6.7-.2,1.5-.5,2-1,.4-.5.6-1.3.6-1.9,1.9-15.3-4.7-30.4-5-45.8-.1-6.7-.3-13.9-2.4-20.3-2.9-8.9-12.8-13.8-21.1-18.2-5.8-3.1-12.9-5.7-18.6-2.5-3.4,1.9-5.5,5.5-7.2,9.1-4.5,9.2-7.8,19-9.9,29.1"/><path class="cls-22" d="M736.5,292.6c-10.4-16.2-28.1-31.6-44.7-41.5-2.9-1.7-6.1-3.3-9.5-3.1-1.2,0-2.5.4-3.5,1.2-2.4,2-1.6,5.9-.2,8.8,6.9,14.1,22.8,22.4,28.7,37"/><path class="cls-22" d="M718.2,299.3c3.3,2.6,5.9,5.7,5.5,9.1-.7,6.6-12.3,4.8-17,3.6-6.3-1.7-31.5-13.9-18.7-20.9,6.7-3.7,14.6-1.2,20.8,2.3,2.3,1.3,6.2,3.4,9.4,5.9Z"/><path class="cls-22" d="M717.4,316.4c3.3,2.6,5.9,5.7,5.5,9.1-.7,6.6-12.3,4.8-17,3.6-6.3-1.7-31.5-13.9-18.7-20.9,6.7-3.7,14.6-1.2,20.8,2.3,2.3,1.3,6.2,3.4,9.4,5.9Z"/><path class="cls-22" d="M710.3,329.1c2.6,2.1,4.7,4.6,4.4,7.3-.5,5.3-9.8,3.9-13.6,2.8-5-1.4-25.1-11.2-14.9-16.8,5.3-2.9,11.6-.9,16.6,1.9,1.8,1,4.9,2.7,7.5,4.8Z"/><path class="cls-23" d="M717.2,312.9c-.5,0-1,0-1.4,0-7.5-.6-14.5-3.4-21.4-6-.5-.2-.8-.8-.6-1.3.2-.5.8-.8,1.3-.6,6.7,2.6,13.6,5.3,20.8,5.9,1.4.1,2.9.1,4-.5,1.3-.7,2-2.4,1.9-4.2-.1-1.5-.8-3.1-2.1-4.9-3.2-4.5-8.2-7.7-13.6-8.7-.6-.1-.9-.6-.8-1.2.1-.6.6-.9,1.2-.8,6,1.1,11.4,4.6,14.9,9.5,1.5,2.1,2.3,4.1,2.4,6,.2,2.6-.9,5-2.9,6.1-1.2.7-2.5.9-3.8.9Z"/><path class="cls-23" d="M712.7,328c-.5,0-1,0-1.5,0-7.7-.5-14.9-3.1-21.9-5.5-.5-.2-.8-.8-.6-1.3.2-.5.8-.8,1.3-.6,6.8,2.4,13.9,4.8,21.3,5.4,1.4.1,3,.1,4.2-.5,1.5-.8,2-2.4,1.9-3.7-.1-1.3-.8-2.8-2.1-4.4-3.3-4.1-8.4-7-14-7.9-.6,0-.9-.6-.8-1.2,0-.6.6-.9,1.2-.8,6.1,1,11.7,4.1,15.3,8.6,1.6,1.9,2.4,3.8,2.5,5.5.2,2.4-1,4.6-3,5.7-1.2.6-2.5.8-3.8.8Z"/><path class="cls-23" d="M706.4,338.7c-.4,0-.7,0-1.1,0-5.6-.3-11.1-1.6-16.3-3.8-.5-.2-.8-.8-.5-1.3.2-.5.8-.8,1.3-.5,5,2.1,10.2,3.3,15.6,3.6,1,0,2,0,2.8-.2,2.6-.9,3.3-4.5,3.4-5.6,0-.7.2-1.5-.1-2.1-.2-.4-.5-1-.8-.9-.5.2-1.3,0-1.4-.5-.2-.5.2-1.1.7-1.3,1.5-.4,2.9.6,3.4,1.8.5,1.1.4,2.3.3,3.3-.2,1.7-1.2,5.9-4.8,7.2-.9.3-1.7.4-2.6.4Z"/><path class="cls-22" d="M756.3,319.7c.5-2.7-.3-5.4-1.6-7.8-1.2-2.4-2.9-4.6-4.2-7-1.6-2.9-2.6-6-4.1-8.9-1.4-2.7-3.1-5.2-4.8-7.6-.5-.7-1-1.5-1.7-2-.8-.7-1.8-1.1-2.8-1.3-2.8-.6-5.8,0-8.5.8-4.9,1.4-9.6,3.5-14,6-1.4.8-2.8,1.8-3.2,3.4-.5,2.5,2.1,4.5,4.5,5.4,3.2,1.2,6.6,1.8,10,1.7.7,0,1.5,0,2,.4.3.3.4.6.6,1,.6,1.4,1.1,2.8,1.7,4.2"/><path class="cls-23" d="M738.4,317.6c-.3,0-.6-.1-.8-.3-3.5-4-6.7-8.4-9.4-13.1,0-.1-.2-.3-.3-.4,0,0-.4,0-.6,0-3.2.2-6.4,0-9.5-.4-2.5-.3-6.1-1.1-7.9-3.9-.6-.9-.8-1.8-.8-2.7,0-.7.2-1.3.5-2,1.1-2.3,3.4-4.1,7.1-5.4l1.3-.5c3.5-1.3,10.8-4.1,15.6-5,.6-.1,1.1.2,1.2.8.1.6-.2,1.1-.8,1.2-4.6.9-11.8,3.6-15.2,4.9l-1.3.5c-3.2,1.2-5.1,2.6-5.9,4.4-.2.4-.3.9-.3,1.2,0,.6.3,1.2.5,1.6,1.3,2.1,4.3,2.7,6.4,3,3,.4,6.1.5,9.1.4.5,0,1.2,0,1.8.3.5.3.7.8.9,1.1,2.6,4.5,5.7,8.8,9.1,12.7.4.4.3,1.1,0,1.4-.2.2-.4.3-.7.3Z"/><path class="cls-13" d="M719.9,374.7l9.1-9.5s39.8-3.1,71.9,15.4l-2.1,8.6-79-14.5Z"/><path class="cls-13" d="M800.9,380.6s36.6-27.4,76.9-23l3.7,11.1-83.1,21.8,2.5-10Z"/><path class="cls-26" d="M798.8,389.2s48.2-30.7,84.7-22.7l17.1,107.9-76.7,10.1-25-95.4Z"/><path class="cls-17" d="M717.8,374.7s58.9-2.3,81.1,14.5l25,95.4-72.5-7.6-33.6-102.2Z"/><path class="cls-22" d="M833.7,453.4c-3.8-3.7-7.8-7.4-12.8-9.4-1.4-.6-3-.9-4.2,0-.5.4-.8.9-1.1,1.5-1,2.8,1,5.8,2.9,8.2,2.5,3,5,6.1,7.5,9.1-3.7-4.6-7.5-9-11.5-13.3-2.5-2.7-5.1-5.4-8.4-7-1.3-.7-2.9-1.1-4.3-.7-2,.6-3.1,2.9-3,5,.1,2.1,1.2,4,2.4,5.8,3.4,5.2,7.5,10,12.2,14.1-3.4-2-6.8-3.9-10.2-5.9-1-.6-2-1.1-3.1-1-1.5.2-2.5,1.7-2.6,3.2-.1,1.5.4,2.9,1,4.3,1.8,4,4.1,7.7,6.9,11,.5.6,1.1,1.2,1.8,1.5.7.3,1.4.2,2.1.2,14.9-.8,29.7-1.6,44.6-2.4-1.7-5.2-4.8-7.7-8.3-11.6-3.9-4.3-7.9-8.4-12-12.5Z"/><path class="cls-13" d="M896.8,227c-.3,1.8-1.5,3.4-3.1,4.3-1.6,1-3.4,1.4-5.2,1.7-5.6.8-11.7-.3-15.9-4.1-2.6-2.3-4.4-5.7-4-9.2,0-.2,0-.3.2-.4.1,0,.3,0,.4,0,3.5.7,6.4,2.4,9.8,3.5,3.7,1.2,7.5,2.2,11.3,3,2.2.5,4.4.9,6.5,1.2Z"/></g><path class="cls-23" d="M821.5,455.6c-.4-.4-1-.4-1.4,0-.4.4-.4,1,0,1.4,7.3,8.4,11,12.6,13,14.7h2.6c-1.8-1.9-9.2-10.3-14.1-15.9Z"/><path class="cls-23" d="M811.2,464.6c-.4.4-.4,1,0,1.4,1.9,2.1,3.5,4,4.9,5.6h2.6c-2.1-2.4-4.2-4.8-6-6.9-.3-.4-1-.4-1.4,0Z"/><circle class="cls-17" cx="793.8" cy="91.4" r="21.6"/><path class="cls-15" d="M792.5,100.4c-.6,0-1.1-.3-1.5-.7l-7.6-9c-.7-.8-.6-2.1.2-2.8.8-.7,2.1-.6,2.8.2l6,7.1,9.7-13.4c.6-.9,1.9-1.1,2.8-.5.9.6,1.1,1.9.5,2.8l-11.2,15.5c-.4.5-.9.8-1.5.8,0,0,0,0,0,0Z"/><polygon class="cls-8" points="237.4 234.7 236.3 236.4 237.4 238.1 240.2 238.1 241.3 236.4 240.1 234.7 237.4 234.7"/><polygon class="cls-8" points="237.4 238.1 235.7 247.4 239.1 265.9 242.5 247.6 240.2 238.1 237.4 238.1"/><path class="cls-2" d="M1145.4,440.8c-.8,0-1.5-.7-1.5-1.5v-241c0-11.9-9.6-21.5-21.5-21.5h-70.7c-.8,0-1.5-.7-1.5-1.5s.7-1.5,1.5-1.5h70.7c13.5,0,24.5,11,24.5,24.5v241c0,.8-.7,1.5-1.5,1.5Z"/><path class="cls-13" d="M633.2,81.4h-33.7c-1.5,0-2.7-1.2-2.7-2.7h0c0-1.5,1.2-2.7,2.7-2.7h33.7c1.5,0,2.7,1.2,2.7,2.7h0c0,1.5-1.2,2.7-2.7,2.7Z"/><circle class="cls-13" cx="662.3" cy="78.5" r="3.2"/><circle class="cls-13" cx="673.1" cy="78.5" r="3.2" transform="translate(-2.1 21) rotate(-1.8)"/><path class="cls-13" d="M687.1,78.5c0,1.7-1.4,3.2-3.2,3.2s-3.2-1.4-3.2-3.2,1.4-3.2,3.2-3.2,3.2,1.4,3.2,3.2Z"/><path class="cls-13" d="M698,78.5c0,1.7-1.4,3.2-3.2,3.2s-3.2-1.4-3.2-3.2,1.4-3.2,3.2-3.2,3.2,1.4,3.2,3.2Z"/><rect class="cls-13" x="598.9" y="89.2" width="99.1" height="2.2"/><rect class="cls-13" x="598.9" y="97.8" width="99.1" height="2.2"/><path class="cls-13" d="M633.7,159.6h-32.7c-.3,0-.5-.2-.5-.5v-42.3c0-.3.2-.5.5-.5h32.7c.3,0,.5.2.5.5v42.3c0,.3-.2.5-.5.5ZM601.5,158.6h31.7v-41.3h-31.7v41.3Z"/><path class="cls-13" d="M698,159.6h-56.6c-.3,0-.5-.2-.5-.5v-42.3c0-.3.2-.5.5-.5h56.6c.3,0,.5.2.5.5v42.3c0,.3-.2.5-.5.5ZM641.9,158.6h55.6v-41.3h-55.6v41.3Z"/><path class="cls-23" d="M231.5,448c0,0-.2,0-.3,0-3.8-1.2-12.7-4.8-16-6.9-3.3-2.1-5.4-4.3-6.3-6.7-2,1.3-4.2,2.3-6.4,3.1-.5.2-1.1-.1-1.3-.6-.2-.5.1-1.1.6-1.3,2.5-.9,4.9-2.1,7.1-3.6.3-.2.6-.2,1-.1s.5.4.6.7c.4,2.4,2.3,4.6,5.8,6.8,3.1,2,11.9,5.5,15.6,6.7.5.2.8.7.7,1.2-.1.4-.5.7-1,.7Z"/><path class="cls-23" d="M203.9,560.3c0,0-.1,0-.2,0-.5,0-.9-.6-.8-1.2,1-6.1,2.6-12.2,4.3-18.7,3.8-14.5,7.7-29.6,4.7-43.1-.7-3.2-.9-5.9-1.1-8.6-.2-3.2-.4-6.2-1.4-9.7l-.4-1.4c-1.1-3.7-2.2-7.5-2.3-11.4-.1-5.2,1.8-9.8,5.1-12.4,1.8-1.4,3.8-2.1,6-2.9,8.3-2.9,16.9-5.4,25.5-7.4,9.4-2.2,19.2-3.7,27.9,0,.5.2.7.8.5,1.3-.2.5-.8.7-1.3.5-8.2-3.5-17.6-2.1-26.7,0-8.5,2-17.1,4.4-25.3,7.3-2.1.7-4,1.4-5.5,2.6-2.8,2.2-4.4,6.2-4.3,10.8,0,3.7,1.2,7.4,2.2,10.9l.4,1.5c1.1,3.8,1.3,7,1.5,10.1.2,2.6.4,5.3,1,8.3,3.1,14-.9,29.3-4.7,44-1.7,6.4-3.2,12.5-4.3,18.5,0,.5-.5.8-1,.8Z"/><path class="cls-23" d="M887.9,256.6c-.5,0-1-.4-1-.9,0-.6.4-1,.9-1.1,8-.5,18.2-3.7,26.7-8.3,4.4-2.4,10.3-6.8,13.1-14,.2-.4.6-.7,1-.6.9,0,1.5.4,2.1.7.3.2.7.3,1,.4,2.3.7,4.9.8,7.3.2.5-.1,1.1.2,1.2.7.1.5-.2,1.1-.7,1.2-2.8.7-5.6.6-8.4-.2-.5-.2-.9-.3-1.3-.5-.3-.1-.5-.2-.8-.3-2.5,5.8-7.2,10.7-13.7,14.2-8.9,4.8-19.2,8-27.5,8.6,0,0,0,0,0,0Z"/><path class="cls-13" d="M1035.9,562.6c-29.3,0-53,18.3-53,40.9s2.5,14.1,6.8,20l-10.3,21.8,24.7-9c8.9,5.1,19.9,8.2,31.8,8.2,29.3,0,53-18.3,53-40.9s-23.7-40.9-53-40.9Z"/><path class="cls-8" d="M1048,602.3c0,2,1.7,3.7,3.7,3.6s3.7-1.7,3.6-3.7-1.7-3.7-3.7-3.6c-2,0-3.7,1.7-3.6,3.7Z"/><path class="cls-8" d="M1031.3,602.5c0,2,1.7,3.7,3.7,3.6s3.7-1.7,3.6-3.7c0-2-1.7-3.7-3.7-3.6s-3.7,1.7-3.6,3.7Z"/><path class="cls-8" d="M1014.7,602.8c0,2,1.7,3.7,3.7,3.6,2,0,3.7-1.7,3.6-3.7s-1.7-3.7-3.7-3.6-3.7,1.7-3.6,3.7Z"/></g></svg>