<svg xmlns="http://www.w3.org/2000/svg" xmlns:xlink="http://www.w3.org/1999/xlink" viewBox="0 0 1198.5 658.2"><defs><style>.cls-1{fill:#7de314;}.cls-2{fill:url(#_27);}.cls-3{fill:url(#_28);}.cls-4{fill:#14a0c0;}.cls-5{fill:url(#linear-gradient);}.cls-6{fill:url(#linear-gradient-2);}.cls-12,.cls-7{fill:#fff;}.cls-8{fill:#01cc9b;}.cls-9{fill:url(#_36);}.cls-10{fill:url(#_36-2);}.cls-11{fill:none;stroke:#fff;stroke-linecap:round;stroke-linejoin:round;stroke-width:4px;}.cls-12{font-size:50px;font-family:Pretendard-Bold, Pretendard;font-weight:700;}</style><linearGradient id="_27" x1="10.65" y1="312.65" x2="195.39" y2="432.42" gradientUnits="userSpaceOnUse"><stop offset="0" stop-color="#5eaa0f"/><stop offset="1" stop-color="#7de314"/></linearGradient><linearGradient id="_28" x1="210.6" y1="444.22" x2="82.7" y2="358.96" xlink:href="#_27"/><linearGradient id="linear-gradient" x1="1199.69" y1="293.3" x2="1006.32" y2="433.38" gradientUnits="userSpaceOnUse"><stop offset="0" stop-color="#0f7890"/><stop offset="1" stop-color="#14a0c0"/></linearGradient><linearGradient id="linear-gradient-2" x1="947.89" y1="463.6" x2="1138.72" y2="341.79" xlink:href="#linear-gradient"/><linearGradient id="_36" x1="592.06" y1="-18.86" x2="592.06" y2="212.66" gradientUnits="userSpaceOnUse"><stop offset="0" stop-color="#019974"/><stop offset="1" stop-color="#01cc9b"/></linearGradient><linearGradient id="_36-2" x1="592.06" y1="210.54" x2="592.06" y2="19.71" xlink:href="#_36"/></defs><g id="레이어_2" data-name="레이어 2"><g id="레이어_1-2" data-name="레이어 1"><path class="cls-1" d="M210.11,373.85a105.17,105.17,0,0,1-105,105.06,104.06,104.06,0,0,1-39.77-7.83,105,105,0,1,1,144.82-97.23Z"/><path class="cls-2" d="M210.11,373.85a105.17,105.17,0,0,1-105,105.06,104.06,104.06,0,0,1-39.77-7.83,105,105,0,1,1,144.82-97.23Z"/><path class="cls-3" d="M105.06,291.8a82.06,82.06,0,1,0,82.06,82.06A82.06,82.06,0,0,0,105.06,291.8Z"/><path class="cls-1" d="M406.31,377.81C314.59,437.4,256.55,538,251.1,647a11.86,11.86,0,0,1-11.94,11.23H45a12,12,0,0,1-12-12.27c1.6-53.84,10.07-105.41,25.36-154.24a12.25,12.25,0,0,1,15.15-8.07,114.38,114.38,0,0,0,40.15,4.1c55.25-4.1,100.19-48.31,105.09-103.5A113.82,113.82,0,0,0,186.61,294a12.2,12.2,0,0,1,0-17.07,576.39,576.39,0,0,1,110-87.61,12,12,0,0,1,16.62,4.26L410.33,361.7A12.05,12.05,0,0,1,406.31,377.81Z"/><path class="cls-4" d="M1151.09,645.93a12,12,0,0,1-12,12.27H944.93A11.86,11.86,0,0,1,933,647c-5.45-109-63.48-209.57-155.2-269.16a12,12,0,0,1-4-16.11c20.8-36.07,3.81-6.65,97-168.09,0,0,0,0,0,0a11.94,11.94,0,0,1,16.59-4.23,575.12,575.12,0,0,1,111.37,89,12.18,12.18,0,0,1,.47,16.56,118.59,118.59,0,0,0-29.94,82.21c1.6,59.81,48.25,109.84,107.82,115.4a119.75,119.75,0,0,0,36.59-2.18,12.15,12.15,0,0,1,14.15,8.55A573.94,573.94,0,0,1,1151.09,645.93Z"/><path class="cls-5" d="M1198.5,373.85a110.26,110.26,0,0,1-77,105,109,109,0,0,1-33.07,5.08,110,110,0,1,1,110-110Z"/><path class="cls-6" d="M1088.48,287.47a86.39,86.39,0,1,0,86.39,86.39A86.39,86.39,0,0,0,1088.48,287.47Z"/><path class="cls-7" d="M117.55,401a.42.42,0,0,0-.42-.43h-.51c5-19.1,23.67-25.55,22.64-47-.87-18.15-14.46-33.86-34.2-33.86-19.54,0-33.32,15.56-34.19,33.88-.94,19.79,14.55,26.53,21.09,42.28a36,36,0,0,1,1.58,4.7H93a.43.43,0,0,0-.43.43v5.94h25Zm-6.89-4.55V381a2.58,2.58,0,0,0-.3-1.21c2.23-7.46,6.37-21.34,7.47-25,4-.16,8.75-.27,10.49-2.9,2.74-4.15-3.66-10-8-7.68-2.73,1.41-3.52,5.36-4.27,8.26-4.91.12-17,.12-21.94,0-.78-3-2.15-10.79-8.71-8.28-4,1.51-5,5.61-3.59,7.72,1.74,2.64,6.54,2.73,10.49,2.89,2.86,9.61,4.43,14.88,7.51,25.13A2.49,2.49,0,0,0,99.5,381v15.42H96.6c-2.62-7.47-6.95-12.92-11.23-18.25-6.36-8-10.86-14-10.37-24.4a32.38,32.38,0,0,1,8.93-21.13,28.77,28.77,0,0,1,21.13-8.81,29.29,29.29,0,0,1,17,5.23,31.87,31.87,0,0,1,13.13,24.69c.51,10.7-4.55,17.07-10.42,24.45-4,5.08-8.52,10.75-11.15,18.21Zm-7.53-33.91a1.91,1.91,0,0,0,.67,1.46v14.47h-2c-1.69-5.63-6.08-20.34-7.06-23.63,3.68.08,17,.07,20.56,0-1.17,3.95-4.88,16.42-7,23.63h-1.92V364a1.91,1.91,0,0,0,.67-1.46,1.94,1.94,0,0,0-3.88,0Zm15.36-10.23c.77-3,1.61-6.25,3.88-6.25,2.94,0,4.84,3.15,3.95,4.5-1,1.59-5.77,1.69-7.84,1.8C118.48,352.3,118.49,352.29,118.49,352.27Zm-34.75-1.74c-1.36-2.07,2.7-5.44,5-4.27,1.57.82,2.29,3.7,2.88,6C91.69,352.72,84.73,352,83.74,350.53Z"/><rect class="cls-7" x="92.61" y="409.3" width="24.95" height="3.1"/><path class="cls-7" d="M115.83,417.92h.84a.86.86,0,0,0,.89-.83v-2.28h-25v2.29a.85.85,0,0,0,.88.83h.86c2.19,4.49,4.09,9.28,8.93,9.28h3.6C111.86,427.2,113.62,422.41,115.83,417.92Z"/><path class="cls-8" d="M860.31,187.52l-97,167.88a12,12,0,0,1-15.86,4.84,342.14,342.14,0,0,0-310.85,0,12,12,0,0,1-15.87-4.84c-90.64-157-66.6-115.37-96.95-167.88A12,12,0,0,1,328.45,171a575.57,575.57,0,0,1,137.12-53,12.23,12.23,0,0,1,14.88,9.49,113.89,113.89,0,0,0,223.23,0A12.22,12.22,0,0,1,718.56,118a575.74,575.74,0,0,1,137.12,53A12,12,0,0,1,860.31,187.52Z"/><path class="cls-8" d="M696.82,104.75c0,2.8-.13,5.6-.34,8.35a104.74,104.74,0,0,1-208.83,0c-.22-2.75-.34-5.55-.34-8.35a104.76,104.76,0,0,1,209.51,0Z"/><path class="cls-9" d="M696.82,104.75c0,2.8-.13,5.6-.34,8.35a104.74,104.74,0,0,1-208.83,0c-.22-2.75-.34-5.55-.34-8.35a104.76,104.76,0,0,1,209.51,0Z"/><circle class="cls-10" cx="592.06" cy="104.77" r="82.06"/><path class="cls-4" d="M729.1,449.39a249.31,249.31,0,0,1,112.24,192,14.93,14.93,0,0,0,29.79-2.09c-5.59-90.58-50.36-166.53-126.49-215.46A20.88,20.88,0,0,1,729.1,449.39Z"/><path class="cls-8" d="M480.13,434.91a249.78,249.78,0,0,1,111.93-26.53c43.09,0,85.48,11,124.92,33.48a14.83,14.83,0,1,0,14.82-25.69c-87.47-50.57-183.44-49.79-266.11-7.43A20.89,20.89,0,0,1,480.13,434.91Z"/><path class="cls-7" d="M446.56,412.27l0,0c.88-.51,1.73-1.05,2.62-1.56Z"/><path class="cls-1" d="M342.79,641.37a249.61,249.61,0,0,1,123-198.65c7.69-4,10.21-10.52,8.82-17.08a14.87,14.87,0,0,0-22.19-9.48C363.15,469.63,318.67,547.28,313,639.29a14.93,14.93,0,0,0,29.79,2.08Z"/><path class="cls-11" d="M1089.78,318a40.65,40.65,0,1,1-40.64,40.65A40.69,40.69,0,0,1,1089.78,318Z"/><path class="cls-11" d="M1089.78,330.41a28.28,28.28,0,1,1-28.28,28.28A28.31,28.31,0,0,1,1089.78,330.41Z"/><polyline class="cls-11" points="1083.43 353.68 1090.5 348.38 1090.5 371.65"/><polyline class="cls-11" points="1117.01 390.2 1117.01 430.85 1089.91 416.71 1063.99 430.85 1063.99 390.2"/><line class="cls-11" x1="1076.36" y1="397.27" x2="1076.36" y2="423.78"/><line class="cls-11" x1="1104.64" y1="397.27" x2="1104.64" y2="423.78"/><path class="cls-11" d="M613.32,138.91c0-8.59-10-27.15-23.5-30.94-1.57-.55-2.18-2.57-.19-3.75a20.59,20.59,0,0,0,12.42-18.87,20.9,20.9,0,1,0-29.87,18.87c2.12,1,2.05,3.27.22,3.75C558.89,111.79,549,130.61,549,138.91"/><path class="cls-11" d="M636.42,132.68c0-8.59-9.95-27.15-23.51-30.94-1.56-.56-2.17-2.57-.19-3.76a20.56,20.56,0,0,0,12.43-18.86,20.9,20.9,0,0,0-35.68-14.78"/><text class="cls-12" transform="translate(237.51 496.51) rotate(-56.04)">실용</text><text class="cls-12" transform="translate(549.14 282.67)">인재</text><text class="cls-12" transform="translate(900.73 433.4) rotate(61.23)">성장</text></g></g></svg>