<svg xmlns="http://www.w3.org/2000/svg" viewBox="0 0 2432.94 502.87"><defs><style>.cls-1{fill:#d0a362;}.cls-2{fill:#606060;}.cls-3{fill:#003685;}.cls-4{fill:#009fe8;}.cls-5{fill:#ffcf6a;}.cls-6{fill:#8cbcff;}.cls-7{font-size:45px;font-family:Pretendard-SemiBold, Pretendard;font-weight:600;}.cls-8{fill:#0078cc;font-size:65px;}</style></defs><g id="레이어_2" data-name="레이어 2"><g id="레이어_1-2" data-name="레이어 1"><path class="cls-1" d="M205.08,258.34a20.24,20.24,0,0,1-4.27,12.75q-4.26,5.52-12.6,6.83l-.2,12.45q6.63-.21,13.25-.45t13.26-.56a11,11,0,0,0,1.1-.05c.4,0,.8-.05,1.21-.05s.8-.11,1.2-.15.8-.05,1.2-.05a3.19,3.19,0,0,1,2.77,1.06,4.49,4.49,0,0,1,.85,2.25,3.74,3.74,0,0,1-1,3.12,4.52,4.52,0,0,1-2.41,1.2,2.74,2.74,0,0,1-.7.1,4,4,0,0,1-.8-.1,9.36,9.36,0,0,1-1.26-.1,15.7,15.7,0,0,0-1.85-.1q-8.74.3-16.92.55t-16.21.46l-16.22.4q-8.19.19-16.71.3a5.07,5.07,0,0,1-2.92-.65,5.75,5.75,0,0,1-2-1.86,5,5,0,0,1-1-2.36,3.48,3.48,0,0,1,.45-2.26,1.86,1.86,0,0,1,1.46-.9,10.11,10.11,0,0,1,2.06,0q1.1.19,2.31.45a11.07,11.07,0,0,0,2.3.25q6.93.11,14.16.05t14.46-.35l-.2-12.55q-8.64-1.11-13-6.68a20.41,20.41,0,0,1-4.37-13,21.62,21.62,0,0,1,1.35-7.63,18.27,18.27,0,0,1,4-6.32,19.76,19.76,0,0,1,6.68-4.32,24.63,24.63,0,0,1,9.28-1.61,24.36,24.36,0,0,1,9.19,1.61,19.86,19.86,0,0,1,6.68,4.32,18.82,18.82,0,0,1,4,6.32A20.8,20.8,0,0,1,205.08,258.34Zm-8.23,0a14.17,14.17,0,0,0-3.07-8.88q-3.06-4-10-4c-4.61,0-7.95,1.32-10,4a14.5,14.5,0,0,0,0,17.82c2,2.61,5.38,3.91,10,3.91s8-1.3,10-3.91A14.13,14.13,0,0,0,196.85,258.34Z"/><path class="cls-1" d="M255.28,244.28c-.4,1.75-.86,3.42-1.36,5a44,44,0,0,1-1.66,4.52q4.43,3.53,8.94,7.58a53,53,0,0,1,7.63,8.39,2.51,2.51,0,0,1,.05,2.35,4.07,4.07,0,0,1-1.46,2,3.24,3.24,0,0,1-2.51.71,3.43,3.43,0,0,1-2.1-1.11,85.42,85.42,0,0,0-6.73-6.17q-3.81-3.16-7.93-6.18a45.73,45.73,0,0,1-7.28,8.34,40.37,40.37,0,0,1-7.78,5.52,11.78,11.78,0,0,1-2.46.9,4.53,4.53,0,0,1-2.76-.3A2.38,2.38,0,0,1,226,274c-.23-.93.22-1.84,1.36-2.71a57.07,57.07,0,0,0,12.54-12.65A48.23,48.23,0,0,0,246,246.9a28.71,28.71,0,0,0,.85-4c.17-1.27.35-2.41.56-3.41a7.63,7.63,0,0,1,.75-2.57,3.34,3.34,0,0,1,1.75-1.55,2.85,2.85,0,0,1,2.72.35,5.52,5.52,0,0,1,1.7,2.36,10.57,10.57,0,0,1,.91,3.26A11.18,11.18,0,0,1,255.28,244.28Zm-7.43,53.22a15.94,15.94,0,0,1,1.6-7.23,17,17,0,0,1,4.42-5.53,18.94,18.94,0,0,1,6.43-3.51,25.82,25.82,0,0,1,15.56,0,18.89,18.89,0,0,1,6.42,3.51,16.12,16.12,0,0,1,4.47,5.48,16.9,16.9,0,0,1,0,14.61,17.28,17.28,0,0,1-4.47,5.52,19.6,19.6,0,0,1-6.42,3.41,25,25,0,0,1-7.73,1.21,23.56,23.56,0,0,1-7.83-1.11,18.6,18.6,0,0,1-6.43-3.51,16.86,16.86,0,0,1-4.42-5.52A16.22,16.22,0,0,1,247.85,297.5Zm8.23,0a9.71,9.71,0,0,0,3.16,7.12q3.17,3.12,8.89,3c3.74,0,6.69-1,8.83-3.07a9.38,9.38,0,0,0,0-14.15c-2.14-2-5.09-3.06-8.83-3.06s-6.78,1-8.89,3A9.5,9.5,0,0,0,256.08,297.5Zm23.19-70.18a3.33,3.33,0,0,1,3.31-.65,6.34,6.34,0,0,1,3,1.75,20.47,20.47,0,0,1,3.26,5.17,14.63,14.63,0,0,1,1.26,5.88L289.31,269c-.07,1-.17,2.11-.3,3.32a32.94,32.94,0,0,1-.6,3.51,8.56,8.56,0,0,1-1.41,2.76,3,3,0,0,1-2.21,1.26A1.7,1.7,0,0,1,283,279a8,8,0,0,1-1.11-2.41,12.3,12.3,0,0,1-.65-2.91q-.15-1.5-.15-2.61l.2-14.76-9.74,1.21c-2.48.4-4.33.16-5.57-.7a3.66,3.66,0,0,1-1.56-3.72,2.81,2.81,0,0,1,1.11-2.16,4.14,4.14,0,0,1,2.1-.85h4.47a14.22,14.22,0,0,0,1.56-.1c1.34-.07,2.64-.15,3.91-.25s2.55-.26,3.82-.46l.1-6.92a29,29,0,0,0-.25-3.47,12.08,12.08,0,0,0-1-3.56,30.11,30.11,0,0,1-1.76-4.12A3.38,3.38,0,0,1,279.27,227.32Z"/><path class="cls-1" d="M320.13,250.11a16.35,16.35,0,0,1,5.48-12.75q5.46-4.92,14.8-4.92,9.13,0,14.71,4.92a16.2,16.2,0,0,1,5.57,12.75,16.44,16.44,0,0,1-4.21,11.54A18.79,18.79,0,0,1,345,267.38l-.1,7.73,26.21-.91a11,11,0,0,0,1.1-.05c.4,0,.8-.08,1.21-.15s.8-.11,1.2-.15.8-.05,1.2-.05a3.19,3.19,0,0,1,2.77,1.06,4.49,4.49,0,0,1,.85,2.25,3.6,3.6,0,0,1-1,3.07,5.59,5.59,0,0,1-2.41,1.25,2.74,2.74,0,0,1-.7.1,4,4,0,0,1-.8-.1c-.34-.06-.75-.11-1.26-.15s-1.12,0-1.85,0q-8.74.3-16.92.5l-16.21.41-16.22.4c-5.45.13-11,.23-16.71.3a5.07,5.07,0,0,1-2.92-.65,5.75,5.75,0,0,1-2-1.86,4.42,4.42,0,0,1-.95-2.26,3.11,3.11,0,0,1,.45-2.16,2,2,0,0,1,1.46-1,8.22,8.22,0,0,1,2.06,0q1.09.19,2.31.45a11.07,11.07,0,0,0,2.3.25q7,.11,14.26.05t14.56-.35l-.1-7.73q-7.83-.91-12.25-5.63A16.66,16.66,0,0,1,320.13,250.11ZM318.93,287a4.8,4.8,0,0,1,3.11-.15,3.54,3.54,0,0,1,2.11,1.76,39.74,39.74,0,0,1,2.51,8q1,4.73,1.51,9a64.25,64.25,0,0,0,7.58.85q4.26.25,8.88.15t9.14-.25c3.07-.17,6-.38,8.73-.65a2.34,2.34,0,0,1,2,1,4.57,4.57,0,0,1,.85,2.51,3.91,3.91,0,0,1-.75,2.41,2.57,2.57,0,0,1-1.86,1.11,75.24,75.24,0,0,1-8.18.9q-4.77.3-9.89.4t-10-.25a48.09,48.09,0,0,1-8.28-1.05,9.31,9.31,0,0,1-4.37-1.91,6,6,0,0,1-2-4.12q-.6-3.92-1.3-8a31.45,31.45,0,0,0-2.11-7.28,2.82,2.82,0,0,1,0-2.36A3.62,3.62,0,0,1,318.93,287Zm9.44-36.84a9.78,9.78,0,0,0,3.31,7.73,12.75,12.75,0,0,0,8.73,2.91,12.89,12.89,0,0,0,8.74-2.86,10.74,10.74,0,0,0,0-15.51,14.57,14.57,0,0,0-17.47,0A9.78,9.78,0,0,0,328.37,250.11Z"/><path class="cls-1" d="M407.18,270a2.32,2.32,0,0,1,1.35-1.91,6.66,6.66,0,0,1,2.76-.3c.81.07,1.78.11,2.91.15s2.41,0,3.82-.05c0-1.54-.07-3.05-.2-4.52a40.89,40.89,0,0,0-.8-4.92c-.34-1.07-.61-2.07-.81-3a21.64,21.64,0,0,1-.4-2.61,3.87,3.87,0,0,1,.25-1.91,2.34,2.34,0,0,1,1.36-1.2q2.7-.92,5.07,1.85c1.57,1.85,2.56,4.84,3,9q.19,2.51.3,4c.07,1,.1,2,.1,3,1.21,0,2.44-.05,3.71-.15s2.55-.22,3.82-.36a73.42,73.42,0,0,0,0-7.57,83.44,83.44,0,0,0-.9-8.59,2.34,2.34,0,0,1,.8-2.26A3.61,3.61,0,0,1,436,247.5a5.07,5.07,0,0,1,3.41.9,4.18,4.18,0,0,1,1.31,2.31c.2,2.28.32,4.8.35,7.58s0,5.44-.15,8c1.41-.13,2.74-.3,4-.5l3.71-.6a2.36,2.36,0,0,1,2.11.75,3.57,3.57,0,0,1,1.1,2.46,4.42,4.42,0,0,1-.6,2.31,2.85,2.85,0,0,1-1.5,1.31,43.16,43.16,0,0,1-7.38,1.45c-3.32.44-6.88.79-10.7,1.05s-7.56.56-11.24.66a66,66,0,0,1-8.94-.25,5.18,5.18,0,0,1-3.76-1.71A3.51,3.51,0,0,1,407.18,270Zm9.23-32q3.12-.11,6.48-.25c2.24-.1,4.47-.22,6.67-.35l6.13-.4c1.94-.14,3.65-.31,5.12-.51.74-.06,1.52-.15,2.36-.25a19.81,19.81,0,0,1,2.36-.15,3.1,3.1,0,0,1,2.76,1.11,4.76,4.76,0,0,1,.85,2.31,3.62,3.62,0,0,1-1,3.06,5.64,5.64,0,0,1-2.41,1.25,1.58,1.58,0,0,1-.7.05l-.81-.15c-.33,0-.75,0-1.25-.05s-1.12,0-1.86,0c-1.4.14-3.16.29-5.27.45l-6.88.56q-3.7.3-7.68.45t-7.58.15a6,6,0,0,1-2.91-.7,5.37,5.37,0,0,1-2-1.81,5.47,5.47,0,0,1-1-2.31,3.14,3.14,0,0,1,.4-2.21,2,2,0,0,1,1.46-.95,6.55,6.55,0,0,1,2.15,0c.74.13,1.51.3,2.31.5A6.88,6.88,0,0,0,416.41,238Zm12.95,59.54a16,16,0,0,1,1.61-7.23,16.87,16.87,0,0,1,4.42-5.53,18.89,18.89,0,0,1,6.42-3.51,25.36,25.36,0,0,1,7.84-1.2,25,25,0,0,1,7.73,1.2,19,19,0,0,1,6.42,3.51,16.36,16.36,0,0,1,4.47,5.48,16.9,16.9,0,0,1,0,14.61,17.55,17.55,0,0,1-4.47,5.52,19.7,19.7,0,0,1-6.42,3.41,25,25,0,0,1-7.73,1.21,23.66,23.66,0,0,1-7.84-1.11,18.56,18.56,0,0,1-6.42-3.51,16.74,16.74,0,0,1-4.42-5.52A16.22,16.22,0,0,1,429.36,297.5Zm8.24,0a9.71,9.71,0,0,0,3.16,7.12q3.17,3.12,8.89,3c3.74,0,6.69-1,8.83-3.07a9.4,9.4,0,0,0,0-14.15c-2.14-2-5.09-3.06-8.83-3.06s-6.78,1-8.89,3A9.5,9.5,0,0,0,437.6,297.5Zm23.19-70.18a3.33,3.33,0,0,1,3.31-.65,6.31,6.31,0,0,1,3,1.75,20.22,20.22,0,0,1,3.27,5.17,14.62,14.62,0,0,1,1.25,5.88l-.8,29.51c-.07,1-.17,2.11-.3,3.32a32.94,32.94,0,0,1-.6,3.51,8.76,8.76,0,0,1-1.41,2.76,3,3,0,0,1-2.21,1.26,1.72,1.72,0,0,1-1.81-.81,8.24,8.24,0,0,1-1.1-2.41,11.82,11.82,0,0,1-.65-2.91q-.15-1.5-.15-2.61l.1-7.53-6.53.7c-2.48.41-4.33.24-5.57-.5a3.26,3.26,0,0,1-1.56-3.51,2.66,2.66,0,0,1,1.11-2.11,4.23,4.23,0,0,1,2.11-.8h4.46a14.06,14.06,0,0,0,1.56-.1c.33,0,.69,0,1.05-.05a10.9,10.9,0,0,1,1.16-.05c.33,0,.7,0,1.1-.05s.8-.09,1.21-.16v-5.82l-6.63.7c-2.48.41-4.33.24-5.57-.5A3.26,3.26,0,0,1,449,247.8a2.66,2.66,0,0,1,1.11-2.11,4.33,4.33,0,0,1,2.11-.8h4.46a14.06,14.06,0,0,0,1.56-.1c.73,0,1.51,0,2.31-.1l2.41-.2v-2.11a31.25,31.25,0,0,0-.25-3.47,11.78,11.78,0,0,0-1-3.56,30.18,30.18,0,0,1-1.75-4.12A3.38,3.38,0,0,1,460.79,227.32Z"/><path class="cls-1" d="M510.29,243.68q-.62,2.91-1.41,5.57a45.76,45.76,0,0,1-1.91,5.18,103.25,103.25,0,0,1,8.29,7.93,65.46,65.46,0,0,1,6.57,7.93,2.74,2.74,0,0,1,.15,2.36,3.68,3.68,0,0,1-1.35,2,3.13,3.13,0,0,1-2.41.7,3.32,3.32,0,0,1-2-1.11,71.85,71.85,0,0,0-6.63-6.37q-3.61-3.06-6.92-5.57a47.07,47.07,0,0,1-6,7.38,31.27,31.27,0,0,1-6.42,5,27.23,27.23,0,0,1-2.56,1.2,3.83,3.83,0,0,1-3,0,2.27,2.27,0,0,1-1.8-1.76c-.2-.9.23-1.82,1.3-2.76a59.69,59.69,0,0,0,10.19-11.14,48.33,48.33,0,0,0,7.18-15.06,24.45,24.45,0,0,0,.8-3.77c.14-1.1.27-2,.41-2.86a7.36,7.36,0,0,1,.55-2,2.36,2.36,0,0,1,1.25-1.15,2.87,2.87,0,0,1,2.51.15,5.38,5.38,0,0,1,2,2,10.78,10.78,0,0,1,1.05,3A9.55,9.55,0,0,1,510.29,243.68Zm-2.21,53.82a15.94,15.94,0,0,1,1.6-7.23,17,17,0,0,1,4.42-5.53,18.94,18.94,0,0,1,6.43-3.51,25.82,25.82,0,0,1,15.56,0,18.89,18.89,0,0,1,6.42,3.51,16.12,16.12,0,0,1,4.47,5.48,16.9,16.9,0,0,1,0,14.61,17.28,17.28,0,0,1-4.47,5.52,19.6,19.6,0,0,1-6.42,3.41,25,25,0,0,1-7.73,1.21,23.56,23.56,0,0,1-7.83-1.11,18.6,18.6,0,0,1-6.43-3.51,16.86,16.86,0,0,1-4.42-5.52A16.22,16.22,0,0,1,508.08,297.5Zm8.23,0a9.71,9.71,0,0,0,3.16,7.12q3.16,3.12,8.89,3t8.83-3.07a9.4,9.4,0,0,0,0-14.15q-3.21-3.06-8.83-3.06t-8.89,3A9.5,9.5,0,0,0,516.31,297.5Zm18.57-47c1.54,0,2.86,0,4-.15s2-.22,2.76-.35h.9a3.74,3.74,0,0,0,.81-.1l.1-7.53a24.85,24.85,0,0,0-.3-3.47,13,13,0,0,0-1-3.56,21.88,21.88,0,0,1-1.81-4.12,3.46,3.46,0,0,1,.81-3.91,3.25,3.25,0,0,1,3.26-.65,6.33,6.33,0,0,1,3,1.75,20.55,20.55,0,0,1,3.11,5.17,14.92,14.92,0,0,1,1.21,5.88l-.7,29.61a31.27,31.27,0,0,1-.2,3.32,20.6,20.6,0,0,1-.71,3.51,8.54,8.54,0,0,1-1.4,2.76,3.06,3.06,0,0,1-2.21,1.26,1.54,1.54,0,0,1-1.66-.81,9.07,9.07,0,0,1-1-2.41,26,26,0,0,1-.45-2.91q-.15-1.5-.15-2.61l.1-14.05c-.74,0-1.44,0-2.11.05s-1.34.05-2,.05-1.46.1-2.16.1h-2.26l-.2,8q-.11,1.5-.3,3.36a26.32,26.32,0,0,1-.6,3.47,8.76,8.76,0,0,1-1.41,2.76,3,3,0,0,1-2.21,1.25,1.5,1.5,0,0,1-1.65-.75,8.05,8.05,0,0,1-1.06-2.36,16.33,16.33,0,0,1-.55-3c-.1-1-.15-1.93-.15-2.66l.3-22.49a24.85,24.85,0,0,0-.3-3.47,13,13,0,0,0-1-3.56,26,26,0,0,1-1.71-4.12,3.54,3.54,0,0,1,.7-3.91,3.29,3.29,0,0,1,3.26-.66,6.46,6.46,0,0,1,3,1.76,22.17,22.17,0,0,1,3.16,5.17,14.46,14.46,0,0,1,1.25,5.88Z"/><path class="cls-1" d="M568.92,290.87c1.27.07,2.57.1,3.91.1h4c1.34,0,2.68,0,4-.05s2.71-.05,4.12-.05l-.5-22.09a1.83,1.83,0,0,1,.95-1.61,6,6,0,0,1,3.06-.6,5.4,5.4,0,0,1,3,1,2.86,2.86,0,0,1,1.2,2.41l-.2,20.68h3.82c.66,0,1.33,0,2-.05s1.34-.05,2-.05l-.2-21.79a1.85,1.85,0,0,1,1-1.61,6,6,0,0,1,3.07-.6,5.36,5.36,0,0,1,3,1,2.86,2.86,0,0,1,1.2,2.41l-.3,20.28q6-.11,11.95-.3c4-.14,7.93-.3,12-.51a11,11,0,0,0,1.1,0c.4,0,.8-.08,1.21-.15s.8-.11,1.2-.15.8-.05,1.21-.05a3.18,3.18,0,0,1,2.76,1.06,4.49,4.49,0,0,1,.85,2.25,3.77,3.77,0,0,1-1,3.12,5.34,5.34,0,0,1-2.41,1.3,1.62,1.62,0,0,1-.71,0l-.8-.15c-.33,0-.75,0-1.25-.05s-1.13-.05-1.86-.05c-5.83.2-11.46.37-16.92.5l-16.21.41-16.22.4c-5.45.13-11,.23-16.71.3a5.07,5.07,0,0,1-2.92-.65,5.63,5.63,0,0,1-2-1.86,4.93,4.93,0,0,1-1-2.31,3.38,3.38,0,0,1,.45-2.21,2,2,0,0,1,1.46-.95,8.23,8.23,0,0,1,2.06-.05q1.1.19,2.31.45A11.09,11.09,0,0,0,568.92,290.87Zm9.33-48.69a1.54,1.54,0,0,1,1.06-1,8.27,8.27,0,0,1,2-.4,19.29,19.29,0,0,1,2.3-.05c.81,0,1.51.05,2.11.05q8.13-.2,15.21-.5t14.61-.7a12.93,12.93,0,0,1,6,.9c1.67.74,2.44,2.34,2.31,4.82q-.32,5.72-.76,12.1t-1.35,13.1c-.2,1.07-.44,2.27-.71,3.61a32.77,32.77,0,0,1-1,3.82,11,11,0,0,1-1.66,2.86,2.43,2.43,0,0,1-2.36,1c-1-.06-1.65-.82-2-2.26s-.32-4.4,0-8.88c.06-1.94.2-3.9.4-5.87s.36-4,.5-6,.25-4,.35-6,.15-4.05.15-6.13l-7.73.41-7.73.4q-3.83.3-7.68.5t-7.78.3a5.74,5.74,0,0,1-2.41-.35,6.57,6.57,0,0,1-2.31-1.36,5,5,0,0,1-1.51-2A2.91,2.91,0,0,1,578.25,242.18Z"/><path class="cls-1" d="M651.24,270q7.63.09,15.51,0t15.82-.3q7.92-.21,15.86-.51l15.86-.6a11,11,0,0,0,1.11-.05q.6,0,1.2-.15c.41-.07.81-.12,1.21-.15s.8-.05,1.2-.05a3.12,3.12,0,0,1,2.76,1.1,4.75,4.75,0,0,1,.86,2.31,3.46,3.46,0,0,1-1,3,5.5,5.5,0,0,1-2.41,1.26,2.74,2.74,0,0,1-.7.1,4,4,0,0,1-.8-.1,9.09,9.09,0,0,0-1.26-.15c-.5,0-1.12-.05-1.85-.05q-2,.11-3.87.15c-1.24,0-2.49.09-3.76.15s-2.42.12-3.62.15-2.41.05-3.61.05v3a28.69,28.69,0,0,1-.2,3.62,21.6,21.6,0,0,1-.51,2.61h1.26a9.14,9.14,0,0,1,1.35.1,5.05,5.05,0,0,1,1.36.4,8.5,8.5,0,0,1,1.35.8,5.14,5.14,0,0,1,1.31,1.91,5.52,5.52,0,0,1,.5,2l-1,14.66a22.21,22.21,0,0,1-.45,3.11,17.37,17.37,0,0,1-1,3,8.3,8.3,0,0,1-1.45,2.21,2.2,2.2,0,0,1-1.86.8q-1.82,0-2.31-2.16a18.88,18.88,0,0,1-.5-4.36l.2-15.47-32.13,1.31a5.71,5.71,0,0,1-5.12-2c-1.2-1.47-1.54-2.71-1-3.71a2,2,0,0,1,1.25-.91,10.43,10.43,0,0,1,2.26-.4c.87-.06,1.74-.1,2.61-.1s1.67,0,2.41-.1h1.1a8,8,0,0,1-.25-1.6c0-.61-.05-1.21-.05-1.81l-.1-6.23c-3.34.14-6.71.24-10.09.3s-6.77.11-10.19.11a5.06,5.06,0,0,1-2.91-.66,5.73,5.73,0,0,1-2-1.85,4.46,4.46,0,0,1-1-2.26,3.11,3.11,0,0,1,.45-2.16,2,2,0,0,1,1.46-1,6.26,6.26,0,0,1,2.06.05,20.54,20.54,0,0,1,2.3.36A12,12,0,0,0,651.24,270Zm12-22.39A15.36,15.36,0,0,1,669,235.1q5.67-4.66,14.61-4.67,8.74,0,14.51,4.67a15.24,15.24,0,0,1,5.77,12.5,15.41,15.41,0,0,1-5.62,12.5q-5.62,4.66-14.66,4.67t-14.66-4.67A15.44,15.44,0,0,1,663.29,247.6Zm8.23,0a9.42,9.42,0,0,0,3.12,7.33q3.11,2.81,8.93,2.81t8.94-2.81a9.44,9.44,0,0,0,3.11-7.33,9.34,9.34,0,0,0-3.16-7.33q-3.16-2.81-8.89-2.81c-4,0-7,.94-9,2.81A9.56,9.56,0,0,0,671.52,247.6Zm19.88,28.71c-1.2.07-2.41.12-3.61.15s-2.41.05-3.61.05-2.4.1-3.57.1h-3.56v3.52c0,1.27,0,2.41-.15,3.41a19.05,19.05,0,0,1-.46,2.71c1.21,0,2.46,0,3.77-.1l4-.2c1.26,0,2.57,0,3.91-.1l3.82-.2a7.42,7.42,0,0,1-.26-1.61c0-.6,0-1.27,0-2Z"/><path class="cls-1" d="M735.38,268.38q9-.3,18.42-.95t21.13-1.56c.34,0,.71,0,1.11-.05s.8-.08,1.2-.15.81-.12,1.21-.15.8,0,1.2,0a3.21,3.21,0,0,1,2.77,1,4.56,4.56,0,0,1,.85,2.26,3.6,3.6,0,0,1-1,3.06,5.5,5.5,0,0,1-2.41,1.26,1.73,1.73,0,0,1-.7,0l-.8-.15a9.09,9.09,0,0,0-1.26-.15,12.09,12.09,0,0,0-1.85,0l-3.72.4c-1.27.14-2.61.24-4,.3l-4.12.4c-1.41.14-2.81.24-4.22.3v2.92a23.52,23.52,0,0,1-1.15,8.33c-.77,1.94-1.76,2.94-3,3q-2.1.21-3-3a23.58,23.58,0,0,1-.9-6.48l-.2-4.31c-3.21.2-6.38.36-9.49.5s-6,.2-8.78.2a6.15,6.15,0,0,1-2.92-.7,6.08,6.08,0,0,1-2.1-1.81,4.93,4.93,0,0,1-1-2.31,3,3,0,0,1,.46-2.11,2,2,0,0,1,1.45-.95,6.61,6.61,0,0,1,2.16.05c.73.13,1.51.3,2.31.5A6.84,6.84,0,0,0,735.38,268.38Zm38.15-21.18q0,7.53-5.47,11.49a22,22,0,0,1-13.31,4,23.93,23.93,0,0,1-7.37-.91,16.84,16.84,0,0,1-6-3,13.42,13.42,0,0,1-4-4.82A14.71,14.71,0,0,1,736,247.2q0-7.53,5.47-11.55a21.41,21.41,0,0,1,13.3-3.92,22.09,22.09,0,0,1,13.31,4Q773.52,239.68,773.53,247.2Zm-8.23,0a7.36,7.36,0,0,0-2.86-6.08,14.2,14.2,0,0,0-15.37,0,7.36,7.36,0,0,0-2.86,6.08,7.49,7.49,0,0,0,2.86,6.12,11.46,11.46,0,0,0,7.68,2.21,12.05,12.05,0,0,0,7.69-2.26A7.35,7.35,0,0,0,765.3,247.2ZM746.72,296a3.84,3.84,0,0,1-.4-2.76,3.51,3.51,0,0,1,2.11-2.46,3.7,3.7,0,0,1,2.61-.25,4.81,4.81,0,0,1,2.31,1.25,18.08,18.08,0,0,1,2.81,5.83,44.5,44.5,0,0,1,1.71,7.93,112.94,112.94,0,0,0,18,1q9.23-.19,16.76-.8a3.07,3.07,0,0,1,2.67.9,4,4,0,0,1,1,2.31,3.93,3.93,0,0,1-1,2.81,3.35,3.35,0,0,1-2.16,1.11,76,76,0,0,1-7.89.85q-4.26.26-8.78.25t-9.09-.2c-3-.13-5.94-.37-8.68-.7a18.72,18.72,0,0,1-2.66-.45,11.68,11.68,0,0,1-2.76-1.06,7.76,7.76,0,0,1-2.31-1.91,6.35,6.35,0,0,1-1.31-3.11c-.33-2-.72-3.93-1.15-5.77A19,19,0,0,0,746.72,296Zm20.79-13.65a2.41,2.41,0,0,1,1.1-1.66,4.17,4.17,0,0,1,2.21-.85h4.36a13.91,13.91,0,0,0,1.56-.1c1.74-.07,3.4-.19,5-.36s3.2-.35,4.87-.55l.3-36.44a28.27,28.27,0,0,0-.25-3.52,12.08,12.08,0,0,0-1-3.51c-.34-.6-.67-1.26-1-2a13,13,0,0,1-.8-2.16,5.11,5.11,0,0,1-.15-2.11,3.21,3.21,0,0,1,.95-1.8,3.35,3.35,0,0,1,3.32-.65,6.35,6.35,0,0,1,3,1.75,21,21,0,0,1,3.21,5.07,14.05,14.05,0,0,1,1.31,5.88l-.81,46.38q-.09,1.5-.3,3.36a24.77,24.77,0,0,1-.6,3.47,8.5,8.5,0,0,1-1.41,2.86,3,3,0,0,1-2.21,1.25,1.89,1.89,0,0,1-1.8-.85,7.38,7.38,0,0,1-1.11-2.46,12.52,12.52,0,0,1-.65-2.91q-.15-1.52-.15-2.61v-2.51l-11.85,1.5q-3.71.51-5.57-.8A3.63,3.63,0,0,1,767.51,282.34Z"/><path class="cls-2" d="M166.3,336.15a15.62,15.62,0,0,1-.47,3.88,10.48,10.48,0,0,1-1.39,3.2,6.9,6.9,0,0,1-2.35,2.15,7.16,7.16,0,0,1-6.54,0,6.75,6.75,0,0,1-2.3-2.15,9.59,9.59,0,0,1-1.39-3.2,17.33,17.33,0,0,1,0-7.76,9.68,9.68,0,0,1,1.39-3.2,7,7,0,0,1,2.3-2.18,6.93,6.93,0,0,1,6.54,0,7.19,7.19,0,0,1,2.35,2.18,10.58,10.58,0,0,1,1.39,3.2A15.68,15.68,0,0,1,166.3,336.15Zm-2.74,0a13.29,13.29,0,0,0-.3-2.84,8.19,8.19,0,0,0-.88-2.41,4.78,4.78,0,0,0-1.48-1.66,3.85,3.85,0,0,0-4.19,0,4.58,4.58,0,0,0-1.44,1.66,8.16,8.16,0,0,0-.85,2.41,15.75,15.75,0,0,0,0,5.7,7.65,7.65,0,0,0,.85,2.36,4.47,4.47,0,0,0,1.44,1.65,4,4,0,0,0,4.19,0,4.66,4.66,0,0,0,1.48-1.65,7.67,7.67,0,0,0,.88-2.36A13.27,13.27,0,0,0,163.56,336.15Z"/><path class="cls-2" d="M178.14,326.66a1.1,1.1,0,0,1,1.06-.23,2,2,0,0,1,1,.55,6.83,6.83,0,0,1,1,1.68,4.76,4.76,0,0,1,.41,1.91l-.07,4,1.72,0,1.94,0,1.87-.05c.6,0,1.13,0,1.59-.05v-6.78a1.2,1.2,0,0,1,.37-.93,1.4,1.4,0,0,1,1-.34,1.57,1.57,0,0,1,1.07.36,1,1,0,0,1,.4.78l-.26,14.78c0,.37-.05.77-.1,1.2a11.14,11.14,0,0,1-.19,1.24,4.17,4.17,0,0,1-.42,1,.78.78,0,0,1-.66.42c-.35,0-.63-.34-.85-1a10.12,10.12,0,0,1-.32-2.87l0-5.58-1.57.05h-1.86c-.65,0-1.3,0-2,.05l-1.79,0-.13,5.84a8.59,8.59,0,0,1-.07,1.08,5.36,5.36,0,0,1-.23,1.1,2.2,2.2,0,0,1-.42.9,1,1,0,0,1-.72.41.58.58,0,0,1-.55-.28,2.44,2.44,0,0,1-.36-.76,5,5,0,0,1-.18-1c0-.33-.05-.61-.05-.85l.13-11.81a7.67,7.67,0,0,0-.1-1.16,4,4,0,0,0-.32-1.15,12.32,12.32,0,0,1-.56-1.34A1.11,1.11,0,0,1,178.14,326.66Z"/><path class="cls-2" d="M210.44,326.07a10.79,10.79,0,0,1,1.63.13,8.82,8.82,0,0,1,1.7.43,6.58,6.58,0,0,1,1.5.75,3.77,3.77,0,0,1,1.11,1.14,1.46,1.46,0,0,1,.08.83,1.17,1.17,0,0,1-.45.77,1.46,1.46,0,0,1-1.1.29,1.36,1.36,0,0,1-.85-.52,3.28,3.28,0,0,0-1.68-1.13,8.37,8.37,0,0,0-1.88-.31,4.49,4.49,0,0,0-2.66.64,2.54,2.54,0,0,0-1.09,2.3,2.26,2.26,0,0,0,.91,1.81,7.08,7.08,0,0,0,1.73,1.06c.31.15.61.29.92.42l.94.39,1,.41c.36.14.75.3,1.16.48a6.48,6.48,0,0,1,3.13,2.41,5.07,5.07,0,0,1,.69,2.87,5,5,0,0,1-1.82,3.59,7.39,7.39,0,0,1-4.94,1.43,10.36,10.36,0,0,1-3.73-.7,4.9,4.9,0,0,1-2.69-2.23,1.45,1.45,0,0,1-.15-.87,1,1,0,0,1,.54-.83,1.43,1.43,0,0,1,1.09-.13,2.14,2.14,0,0,1,.9.56,5.63,5.63,0,0,0,1.89,1.42,5.53,5.53,0,0,0,2.22.44,5.47,5.47,0,0,0,2.82-.71,2.5,2.5,0,0,0,1.26-2.17,2.75,2.75,0,0,0-.49-1.58,4.13,4.13,0,0,0-1.93-1.38c-.89-.35-1.61-.64-2.17-.89l-1.94-.84a8.21,8.21,0,0,1-2.82-1.88,4.23,4.23,0,0,1-1.16-3.08,4.63,4.63,0,0,1,1.78-4A7.43,7.43,0,0,1,210.44,326.07Z"/><path class="cls-2" d="M232.59,343.66a24.84,24.84,0,0,0,3.67-.1,36.51,36.51,0,0,0,4.58-.75.9.9,0,0,1,.82.18,1.21,1.21,0,0,1,.42.7,1.51,1.51,0,0,1-.13.85,1.13,1.13,0,0,1-.78.58,17.52,17.52,0,0,1-1.93.48,23.07,23.07,0,0,1-2.35.31c-.8.08-1.63.14-2.48.16a19.45,19.45,0,0,1-2.34-.07,2.44,2.44,0,0,1-1.46-.63,2.22,2.22,0,0,1-.6-1.62c0-.19,0-.53,0-1v-1.66c0-.66,0-1.37,0-2.16s0-1.56,0-2.34,0-1.56,0-2.32,0-1.46-.1-2.09-.05-1.17-.08-1.61a5.57,5.57,0,0,0-.11-.9c-.07-.2-.13-.4-.2-.6s-.13-.41-.19-.61a3.06,3.06,0,0,1-.14-.58,1.16,1.16,0,0,1,.07-.56.89.89,0,0,1,.42-.57,2.11,2.11,0,0,1,1-.18c.29,0,.57,0,.87,0h.93c.71,0,1.47,0,2.25-.08s1.56-.12,2.35-.21l.47,0,.47-.07.49-.05a4.52,4.52,0,0,0,.49,0,2.58,2.58,0,0,1,1.32.31,1,1,0,0,1,.51.9,1.11,1.11,0,0,1-.39.91,2,2,0,0,1-1.28.33l-2.23.11-1.75.09-1.53.06-1.47.07c.07.39.13,1.15.2,2.3s.13,2.39.19,3.76c.68,0,1.42,0,2.22,0s1.57-.09,2.29-.15l.47,0,.47-.07.49,0,.49-.05a2.58,2.58,0,0,1,1.32.31,1,1,0,0,1,.51.9,1.11,1.11,0,0,1-.39.91A2,2,0,0,1,239,337c-.74,0-1.41.08-2,.1l-1.69.06-1.49.07-1.32,0c0,1.46,0,2.79.07,4S232.59,343.26,232.59,343.66Z"/><path class="cls-2" d="M268.05,336.15a15.62,15.62,0,0,1-.47,3.88,10.48,10.48,0,0,1-1.39,3.2,7,7,0,0,1-2.35,2.15,7.16,7.16,0,0,1-6.54,0,6.66,6.66,0,0,1-2.3-2.15,9.59,9.59,0,0,1-1.39-3.2,17.33,17.33,0,0,1,0-7.76,9.68,9.68,0,0,1,1.39-3.2,6.94,6.94,0,0,1,2.3-2.18,6.93,6.93,0,0,1,6.54,0,7.29,7.29,0,0,1,2.35,2.18,10.58,10.58,0,0,1,1.39,3.2A15.68,15.68,0,0,1,268.05,336.15Zm-2.74,0a14,14,0,0,0-.29-2.84,8.49,8.49,0,0,0-.89-2.41,4.78,4.78,0,0,0-1.48-1.66,3.85,3.85,0,0,0-4.19,0A4.58,4.58,0,0,0,257,330.9a8.16,8.16,0,0,0-.85,2.41,15.75,15.75,0,0,0,0,5.7,7.65,7.65,0,0,0,.85,2.36,4.47,4.47,0,0,0,1.44,1.65,4,4,0,0,0,4.19,0,4.66,4.66,0,0,0,1.48-1.65A7.94,7.94,0,0,0,265,339,13.94,13.94,0,0,0,265.31,336.15Z"/><path class="cls-2" d="M280.22,326.66a1,1,0,0,1,.93-.2,1.79,1.79,0,0,1,.93.52c.19.27.4.54.62.82a4.42,4.42,0,0,1,.52.88L291.14,341V327.7a1.33,1.33,0,0,1,.33-.94,1.21,1.21,0,0,1,.95-.36,1.57,1.57,0,0,1,1.06.36,1,1,0,0,1,.4.78l-.26,14.78c0,.37,0,.78-.08,1.22a8,8,0,0,1-.18,1.26,3.13,3.13,0,0,1-.36,1,.66.66,0,0,1-.58.39A1,1,0,0,1,292,346a.91.91,0,0,1-.36-.49l-8.09-12.24-.1,9.37c0,.32-.05.69-.09,1.09a8.64,8.64,0,0,1-.2,1.12,2.92,2.92,0,0,1-.45.9,1,1,0,0,1-.72.41.6.6,0,0,1-.56-.28,2.44,2.44,0,0,1-.36-.76,7.25,7.25,0,0,1-.18-1c0-.33,0-.61,0-.85l.13-11.81a9.23,9.23,0,0,0-.1-1.16,4.34,4.34,0,0,0-.33-1.15,11.52,11.52,0,0,1-.54-1.37A1.08,1.08,0,0,1,280.22,326.66Z"/><path class="cls-2" d="M306.38,336.15a15.45,15.45,0,0,1,.47-3.88,10.06,10.06,0,0,1,1.39-3.13,7.29,7.29,0,0,1,2.32-2.14,7,7,0,0,1,3.19-.9,11,11,0,0,1,3.13.23,8.94,8.94,0,0,1,2.35.88,1.42,1.42,0,0,1,.61.75,1.45,1.45,0,0,1,0,1,1.12,1.12,0,0,1-.69.67.94.94,0,0,1-.88-.08,6.09,6.09,0,0,0-2-.82,8.58,8.58,0,0,0-2.19-.16,4.53,4.53,0,0,0-3.65,2.2,9.65,9.65,0,0,0-1.37,5.4,8.47,8.47,0,0,0,1.6,5.61,4.9,4.9,0,0,0,3.78,1.93,5.77,5.77,0,0,0,2-.26,4.73,4.73,0,0,0,1.48-.85V338l-1,.07c-.36,0-.74,0-1.13,0a1.47,1.47,0,0,1-.9-.2,1.87,1.87,0,0,1-.6-.55,1.56,1.56,0,0,1-.33-.67.72.72,0,0,1,.1-.57.66.66,0,0,1,.43-.3,3.37,3.37,0,0,1,.68-.06l.75,0,.75,0c.48,0,1,0,1.58,0s1.13-.09,1.65-.15l.36,0a2.6,2.6,0,0,0,.39-.05l.39-.05h.36a1,1,0,0,1,1.18,1,1.09,1.09,0,0,1-.35.88,1.75,1.75,0,0,1-.76.4h-1.08V343a2.26,2.26,0,0,1-.11.69,1.33,1.33,0,0,1-.38.55,7.09,7.09,0,0,1-2.22,1.37,8.84,8.84,0,0,1-3.52.56,6.73,6.73,0,0,1-3.21-.75,7.25,7.25,0,0,1-2.43-2.09,9.46,9.46,0,0,1-1.54-3.17A14.42,14.42,0,0,1,306.38,336.15Z"/><path class="cls-2" d="M364.87,336.15a15.62,15.62,0,0,1-.47,3.88,10.48,10.48,0,0,1-1.39,3.2,6.9,6.9,0,0,1-2.35,2.15,7.16,7.16,0,0,1-6.54,0,6.75,6.75,0,0,1-2.3-2.15,9.38,9.38,0,0,1-1.38-3.2,17.33,17.33,0,0,1,0-7.76,9.46,9.46,0,0,1,1.38-3.2,7,7,0,0,1,2.3-2.18,6.93,6.93,0,0,1,6.54,0,7.19,7.19,0,0,1,2.35,2.18,10.58,10.58,0,0,1,1.39,3.2A15.68,15.68,0,0,1,364.87,336.15Zm-2.74,0a14,14,0,0,0-.29-2.84,8.79,8.79,0,0,0-.88-2.41,4.8,4.8,0,0,0-1.49-1.66,3.85,3.85,0,0,0-4.19,0,4.68,4.68,0,0,0-1.44,1.66,7.88,7.88,0,0,0-.84,2.41,15.75,15.75,0,0,0,0,5.7,7.4,7.4,0,0,0,.84,2.36,4.56,4.56,0,0,0,1.44,1.65,4,4,0,0,0,4.19,0,4.68,4.68,0,0,0,1.49-1.65,8.22,8.22,0,0,0,.88-2.36A13.94,13.94,0,0,0,362.13,336.15Z"/><path class="cls-2" d="M377,326.66a1,1,0,0,1,.93-.2,1.79,1.79,0,0,1,.93.52c.2.27.4.54.62.82a4,4,0,0,1,.52.88L388,341V327.7a1.37,1.37,0,0,1,.32-.94,1.23,1.23,0,0,1,.95-.36,1.53,1.53,0,0,1,1.06.36,1,1,0,0,1,.41.78l-.26,14.78c0,.37-.05.78-.08,1.22a11.23,11.23,0,0,1-.18,1.26,3.72,3.72,0,0,1-.36,1,.67.67,0,0,1-.59.39.92.92,0,0,1-.42-.13.83.83,0,0,1-.36-.49l-8.09-12.24-.1,9.37c0,.32-.06.69-.1,1.09a8.69,8.69,0,0,1-.19,1.12,2.93,2.93,0,0,1-.46.9,1,1,0,0,1-.72.41.58.58,0,0,1-.55-.28,2.06,2.06,0,0,1-.36-.76,5,5,0,0,1-.18-1c0-.33,0-.61,0-.85l.13-11.81a7.67,7.67,0,0,0-.1-1.16,4,4,0,0,0-.32-1.15,8.89,8.89,0,0,1-.54-1.37A1.08,1.08,0,0,1,377,326.66Z"/><path class="cls-2" d="M423.75,343.66a24.81,24.81,0,0,0,3.67-.1,36.35,36.35,0,0,0,4.59-.75.88.88,0,0,1,.81.18,1.28,1.28,0,0,1,.43.7,1.51,1.51,0,0,1-.13.85,1.13,1.13,0,0,1-.79.58,16.75,16.75,0,0,1-1.92.48,23.07,23.07,0,0,1-2.35.31c-.8.08-1.63.14-2.48.16a19.62,19.62,0,0,1-2.35-.07,2.41,2.41,0,0,1-1.45-.63,2.22,2.22,0,0,1-.6-1.62c0-.19,0-.53,0-1v-1.66c0-.66,0-1.37,0-2.16s0-1.56,0-2.34,0-1.56,0-2.32-.06-1.46-.1-2.09-.05-1.17-.08-1.61a5.22,5.22,0,0,0-.12-.9c-.06-.2-.13-.4-.19-.6s-.13-.41-.2-.61a3,3,0,0,1-.13-.58,1.16,1.16,0,0,1,.07-.56.83.83,0,0,1,.42-.57,2.08,2.08,0,0,1,1-.18c.28,0,.57,0,.86,0h.93c.72,0,1.47,0,2.25-.08s1.57-.12,2.35-.21l.48,0,.47-.07.49-.05a4.79,4.79,0,0,0,.49,0,2.58,2.58,0,0,1,1.32.31,1,1,0,0,1,.51.9,1.12,1.12,0,0,1-.4.91,2,2,0,0,1-1.27.33l-2.23.11-1.75.09-1.53.06-1.47.07a23,23,0,0,1,.19,2.3c.07,1.14.14,2.39.2,3.76.68,0,1.41,0,2.22,0s1.57-.09,2.28-.15l.48,0,.47-.07.49,0,.49-.05a2.58,2.58,0,0,1,1.32.31,1,1,0,0,1,.51.9,1.12,1.12,0,0,1-.4.91,2,2,0,0,1-1.27.33c-.74,0-1.41.08-2,.1l-1.7.06-1.48.07-1.32,0c0,1.46,0,2.79.06,4S423.75,343.26,423.75,343.66Z"/><path class="cls-2" d="M458.37,336.05a9.71,9.71,0,0,1-.82,4.42,9,9,0,0,1-2.41,3.15,10,10,0,0,1-3.51,1.85,12.93,12.93,0,0,1-4.19.53,1.89,1.89,0,0,1-1.44-.58,2.46,2.46,0,0,1-.58-1.67c0-.19,0-.53,0-1v-1.66c0-.66,0-1.37,0-2.16s0-1.56,0-2.34,0-1.56,0-2.32-.06-1.46-.1-2.09-.05-1.17-.08-1.61a5.22,5.22,0,0,0-.12-.9c-.06-.2-.13-.4-.19-.6s-.13-.41-.2-.61a3,3,0,0,1-.13-.58,1.16,1.16,0,0,1,.07-.56.83.83,0,0,1,.42-.57,2.08,2.08,0,0,1,1-.18l.46.05.42,0h.91a15.78,15.78,0,0,1,4.07.76,10.64,10.64,0,0,1,3.34,1.81,8.92,8.92,0,0,1,2.3,2.89A9.32,9.32,0,0,1,458.37,336.05ZM448,343.66a9.08,9.08,0,0,0,2.17-.28,7.85,7.85,0,0,0,2.63-1.16,6.74,6.74,0,0,0,3-6.17,6.48,6.48,0,0,0-2.37-5.07,10,10,0,0,0-5.95-2c0,.24.09.6.13,1.09s.08,1.07.1,1.72.08,1.4.11,2.18.06,1.58.08,2.38,0,1.6.05,2.39,0,1.51,0,2.18,0,1.22,0,1.71S448,343.44,448,343.66Z"/><path class="cls-2" d="M484.21,337.59a10.82,10.82,0,0,1-1.59,6.34,6.81,6.81,0,0,1-10.08,0,10.84,10.84,0,0,1-1.58-6.33l.07-6.07a9.23,9.23,0,0,0-.1-1.16,4.34,4.34,0,0,0-.33-1.15,12.37,12.37,0,0,1-.55-1.34,1.05,1.05,0,0,1,1.28-1.47,2,2,0,0,1,1,.55,7.49,7.49,0,0,1,1,1.68,4.74,4.74,0,0,1,.4,1.91l-.1,6.72a10.64,10.64,0,0,0,.84,4.68,3.1,3.1,0,0,0,3.08,1.69,3.17,3.17,0,0,0,3.11-1.69,10.2,10.2,0,0,0,.87-4.64v-9.66a1.17,1.17,0,0,1,.38-.93,1.39,1.39,0,0,1,1-.34,1.55,1.55,0,0,1,1.06.36,1,1,0,0,1,.41.78Z"/><path class="cls-2" d="M496.7,336.15a17,17,0,0,1,.41-3.88,9.49,9.49,0,0,1,1.28-3.13,6.5,6.5,0,0,1,5.35-3,9.6,9.6,0,0,1,3,.22,9.38,9.38,0,0,1,2.19.89,1.37,1.37,0,0,1,.6.75,1.42,1.42,0,0,1-.05,1,1.13,1.13,0,0,1-.68.67.91.91,0,0,1-.88-.08,6.05,6.05,0,0,0-1.86-.81,6.72,6.72,0,0,0-2-.17,4.12,4.12,0,0,0-3.48,2.19,10.48,10.48,0,0,0-1.21,5.38,9.47,9.47,0,0,0,1.43,5.66,4.18,4.18,0,0,0,3.62,1.88,4.93,4.93,0,0,0,2-.39,6.87,6.87,0,0,0,1.78-1.18A.94.94,0,0,1,509,342a1.23,1.23,0,0,1,.93,1.49,1.37,1.37,0,0,1-.45.86,6.73,6.73,0,0,1-2.22,1.32,8.47,8.47,0,0,1-3.2.51,6.8,6.8,0,0,1-3.18-.79,6.54,6.54,0,0,1-2.3-2.08,9.34,9.34,0,0,1-1.42-3.14A15.7,15.7,0,0,1,496.7,336.15Z"/><path class="cls-2" d="M526.55,327.21a1.22,1.22,0,0,1,.52-.6,1.9,1.9,0,0,1,1.55,0,1.26,1.26,0,0,1,.51.67l5.22,14.09a15.41,15.41,0,0,1,1,3.6c0,.71-.1,1.12-.43,1.23a.87.87,0,0,1-.8-.17,3.33,3.33,0,0,1-.76-.78,8.2,8.2,0,0,1-1.11-2.25l-1.11-3.13-1.5.05h-1.76l-1.8.05-1.6,0-1,3a10,10,0,0,1-.49,1.16,8.64,8.64,0,0,1-.62,1.09,3.51,3.51,0,0,1-.75.78.78.78,0,0,1-.75.17c-.33-.11-.48-.53-.46-1.24a9.33,9.33,0,0,1,.69-2.81Zm3.82,10.38-2.52-7.28-2.57,7.38h1.17c.44,0,.88,0,1.34,0h1.32Z"/><path class="cls-2" d="M551.83,329v13.61a6.66,6.66,0,0,1-.41,2.67c-.27.61-.6.93-1,.95s-.78-.25-1-.82a5.7,5.7,0,0,1-.29-1.92l-.07-14.39c-.72.05-1.42.07-2.1.08l-1.85,0a1.78,1.78,0,0,1-.91-.23,2,2,0,0,1-.65-.59,1.8,1.8,0,0,1-.3-.71,1.06,1.06,0,0,1,.13-.72.65.65,0,0,1,.46-.31,1.8,1.8,0,0,1,.65,0,7.15,7.15,0,0,1,.75.11,4,4,0,0,0,.75.08h1.67l2.38-.05,2.54-.1,2.19-.13.36,0,.39-.05.39,0h.36a1,1,0,0,1,.9.34,1.45,1.45,0,0,1,.27.73,1.27,1.27,0,0,1-.34,1,1.67,1.67,0,0,1-.76.43l-.22,0-.24-.05a3.18,3.18,0,0,1-.41,0,4.87,4.87,0,0,0-.63,0l-.72.05-.75.05-.79,0Z"/><path class="cls-2" d="M568.37,326.66a1.1,1.1,0,0,1,1.06-.23,2,2,0,0,1,1,.55,6.83,6.83,0,0,1,1,1.68,4.76,4.76,0,0,1,.41,1.91l-.26,12.14c0,.33,0,.68-.07,1.08a5.36,5.36,0,0,1-.23,1.1,2.34,2.34,0,0,1-.42.9,1,1,0,0,1-.72.41.58.58,0,0,1-.55-.28,2.06,2.06,0,0,1-.36-.76,5,5,0,0,1-.18-1c0-.33,0-.61,0-.85l.13-11.81a7.67,7.67,0,0,0-.1-1.16,4,4,0,0,0-.32-1.15,10.61,10.61,0,0,1-.56-1.34A1.11,1.11,0,0,1,568.37,326.66Z"/><path class="cls-2" d="M599.26,336.15a15.17,15.17,0,0,1-.47,3.88,10.46,10.46,0,0,1-1.38,3.2,7.08,7.08,0,0,1-2.35,2.15,6.54,6.54,0,0,1-3.27.79,6.44,6.44,0,0,1-3.27-.79,6.57,6.57,0,0,1-2.3-2.15,9.2,9.2,0,0,1-1.39-3.2,17.33,17.33,0,0,1,0-7.76,9.28,9.28,0,0,1,1.39-3.2,6.85,6.85,0,0,1,2.3-2.18,6.25,6.25,0,0,1,3.27-.82,6.35,6.35,0,0,1,3.27.82,7.4,7.4,0,0,1,2.35,2.18,10.57,10.57,0,0,1,1.38,3.2A15.22,15.22,0,0,1,599.26,336.15Zm-2.74,0a13.28,13.28,0,0,0-.29-2.84,8.79,8.79,0,0,0-.88-2.41,4.88,4.88,0,0,0-1.48-1.66,3.52,3.52,0,0,0-2.08-.62,3.56,3.56,0,0,0-2.12.62,4.65,4.65,0,0,0-1.43,1.66,7.89,7.89,0,0,0-.85,2.41,15.75,15.75,0,0,0,0,5.7,7.4,7.4,0,0,0,.85,2.36,4.54,4.54,0,0,0,1.43,1.65,3.69,3.69,0,0,0,2.12.6,3.65,3.65,0,0,0,2.08-.6,4.75,4.75,0,0,0,1.48-1.65,8.22,8.22,0,0,0,.88-2.36A13.27,13.27,0,0,0,596.52,336.15Z"/><path class="cls-2" d="M611.43,326.66a1,1,0,0,1,.93-.2,1.79,1.79,0,0,1,.93.52c.2.27.4.54.62.82a4,4,0,0,1,.52.88L622.36,341V327.7a1.33,1.33,0,0,1,.33-.94,1.19,1.19,0,0,1,.94-.36,1.53,1.53,0,0,1,1.06.36,1,1,0,0,1,.41.78l-.26,14.78c0,.37-.05.78-.08,1.22a8,8,0,0,1-.18,1.26,3.72,3.72,0,0,1-.36,1,.67.67,0,0,1-.59.39.84.84,0,0,1-.78-.62l-8.09-12.24-.1,9.37c0,.32,0,.69-.1,1.09a7.25,7.25,0,0,1-.19,1.12,2.73,2.73,0,0,1-.46.9,1,1,0,0,1-.72.41.59.59,0,0,1-.55-.28,2.44,2.44,0,0,1-.36-.76,5,5,0,0,1-.18-1c0-.33-.05-.61-.05-.85l.13-11.81a7.67,7.67,0,0,0-.1-1.16,4,4,0,0,0-.32-1.15,8.89,8.89,0,0,1-.54-1.37A1.1,1.1,0,0,1,611.43,326.66Z"/><path class="cls-2" d="M654.33,336.15a17.63,17.63,0,0,1,.41-3.88,9.29,9.29,0,0,1,1.29-3.13,6.64,6.64,0,0,1,2.2-2.12,6.76,6.76,0,0,1,3.15-.88,9.56,9.56,0,0,1,3,.22,9.38,9.38,0,0,1,2.19.89,1.29,1.29,0,0,1,.6.75,1.42,1.42,0,0,1,0,1,1.12,1.12,0,0,1-.69.67.91.91,0,0,1-.88-.08,6.05,6.05,0,0,0-1.86-.81,6.66,6.66,0,0,0-2-.17,4.13,4.13,0,0,0-3.49,2.19,10.48,10.48,0,0,0-1.21,5.38,9.47,9.47,0,0,0,1.43,5.66,4.19,4.19,0,0,0,3.63,1.88,4.91,4.91,0,0,0,2-.39,6.87,6.87,0,0,0,1.78-1.18,1,1,0,0,1,.9-.13,1.22,1.22,0,0,1,.92,1.49,1.37,1.37,0,0,1-.45.86,6.73,6.73,0,0,1-2.22,1.32,8.47,8.47,0,0,1-3.2.51,6.86,6.86,0,0,1-3.18-.79,6.54,6.54,0,0,1-2.3-2.08,9.34,9.34,0,0,1-1.42-3.14A16.16,16.16,0,0,1,654.33,336.15Z"/><path class="cls-2" d="M682.45,343.66a24.84,24.84,0,0,0,3.67-.1,36.94,36.94,0,0,0,4.59-.75.88.88,0,0,1,.81.18,1.21,1.21,0,0,1,.42.7,1.43,1.43,0,0,1-.13.85,1.13,1.13,0,0,1-.78.58,17.3,17.3,0,0,1-1.92.48,23.45,23.45,0,0,1-2.35.31c-.81.08-1.63.14-2.48.16a19.62,19.62,0,0,1-2.35-.07,2.39,2.39,0,0,1-1.45-.63,2.22,2.22,0,0,1-.61-1.62c0-.19,0-.53,0-1v-1.66c0-.66,0-1.37,0-2.16s0-1.56,0-2.34,0-1.56,0-2.32,0-1.46-.09-2.09,0-1.17-.09-1.61a5.57,5.57,0,0,0-.11-.9c-.07-.2-.13-.4-.2-.6s-.13-.41-.19-.61a2.42,2.42,0,0,1-.13-.58,1.29,1.29,0,0,1,.06-.56.87.87,0,0,1,.43-.57,2.06,2.06,0,0,1,1-.18c.28,0,.57,0,.86,0h.93c.72,0,1.47,0,2.25-.08s1.57-.12,2.35-.21l.47,0,.48-.07.48-.05a4.28,4.28,0,0,0,.49,0,2.59,2.59,0,0,1,1.33.31,1,1,0,0,1,.5.9,1.11,1.11,0,0,1-.39.91,2,2,0,0,1-1.27.33l-2.24.11-1.74.09-1.54.06-1.46.07c.06.39.13,1.15.19,2.3s.13,2.39.2,3.76c.67,0,1.41,0,2.22,0s1.56-.09,2.28-.15l.47,0,.48-.07.48,0,.49-.05a2.59,2.59,0,0,1,1.33.31,1,1,0,0,1,.5.9,1.11,1.11,0,0,1-.39.91,2,2,0,0,1-1.27.33l-2,.1-1.7.06-1.49.07-1.32,0c0,1.46,0,2.79.07,4S682.45,343.26,682.45,343.66Z"/><path class="cls-2" d="M703.69,326.66a1,1,0,0,1,.93-.2,1.79,1.79,0,0,1,.93.52c.19.27.4.54.62.82a4.42,4.42,0,0,1,.52.88L714.62,341V327.7a1.33,1.33,0,0,1,.32-.94,1.23,1.23,0,0,1,.95-.36,1.55,1.55,0,0,1,1.06.36,1,1,0,0,1,.41.78l-.26,14.78c0,.37-.05.78-.09,1.22a8,8,0,0,1-.18,1.26,3.4,3.4,0,0,1-.35,1,.68.68,0,0,1-.59.39.92.92,0,0,1-.42-.13.83.83,0,0,1-.36-.49L707,333.31l-.09,9.37c0,.32-.06.69-.1,1.09a8.64,8.64,0,0,1-.2,1.12,2.92,2.92,0,0,1-.45.9,1,1,0,0,1-.72.41.6.6,0,0,1-.56-.28,2.23,2.23,0,0,1-.35-.76,5,5,0,0,1-.18-1,6.94,6.94,0,0,1-.05-.85l.13-11.81a7.67,7.67,0,0,0-.1-1.16,4,4,0,0,0-.33-1.15,10.08,10.08,0,0,1-.53-1.37A1.06,1.06,0,0,1,703.69,326.66Z"/><path class="cls-2" d="M737.48,329v13.61a6.87,6.87,0,0,1-.4,2.67c-.27.61-.61.93-1,.95s-.78-.25-1-.82a6,6,0,0,1-.29-1.92l-.06-14.39c-.72.05-1.42.07-2.11.08l-1.84,0a1.85,1.85,0,0,1-.92-.23,2.16,2.16,0,0,1-.65-.59,1.65,1.65,0,0,1-.29-.71,1,1,0,0,1,.13-.72.65.65,0,0,1,.46-.31,1.81,1.81,0,0,1,.65,0,7.15,7.15,0,0,1,.75.11,4,4,0,0,0,.75.08h1.66l2.38-.05,2.55-.1,2.18-.13.36,0,.4-.05.39,0H742a1,1,0,0,1,.9.34,1.47,1.47,0,0,1,.28.73,1.31,1.31,0,0,1-.34,1,1.7,1.7,0,0,1-.77.43l-.21,0-.25-.05a3,3,0,0,1-.4,0,5,5,0,0,0-.64,0l-.72.05-.75.05-.78,0Z"/><path class="cls-2" d="M757,343.66a24.87,24.87,0,0,0,3.67-.1,36.51,36.51,0,0,0,4.58-.75.87.87,0,0,1,.81.18,1.28,1.28,0,0,1,.43.7,1.51,1.51,0,0,1-.13.85,1.13,1.13,0,0,1-.78.58,17.52,17.52,0,0,1-1.93.48,23.07,23.07,0,0,1-2.35.31c-.8.08-1.63.14-2.48.16a19.62,19.62,0,0,1-2.35-.07,2.41,2.41,0,0,1-1.45-.63,2.22,2.22,0,0,1-.6-1.62c0-.19,0-.53,0-1v-1.66c0-.66,0-1.37,0-2.16s0-1.56,0-2.34,0-1.56,0-2.32-.06-1.46-.1-2.09-.05-1.17-.08-1.61a4.36,4.36,0,0,0-.12-.9c-.06-.2-.13-.4-.19-.6s-.13-.41-.2-.61a3,3,0,0,1-.13-.58,1.16,1.16,0,0,1,.07-.56.83.83,0,0,1,.42-.57,2.08,2.08,0,0,1,1-.18c.28,0,.57,0,.86,0h.93c.72,0,1.47,0,2.26-.08s1.56-.12,2.34-.21l.48,0,.47-.07.49-.05a4.79,4.79,0,0,0,.49,0,2.58,2.58,0,0,1,1.32.31,1,1,0,0,1,.51.9,1.11,1.11,0,0,1-.39.91,2,2,0,0,1-1.28.33l-2.23.11-1.75.09-1.53.06-1.47.07c.07.39.13,1.15.2,2.3s.13,2.39.19,3.76c.68,0,1.42,0,2.22,0s1.57-.09,2.28-.15l.48,0,.47-.07.49,0,.49-.05a2.58,2.58,0,0,1,1.32.31,1,1,0,0,1,.51.9,1.11,1.11,0,0,1-.39.91,2,2,0,0,1-1.28.33c-.74,0-1.41.08-2,.1l-1.7.06-1.48.07-1.32,0c0,1.46,0,2.79.06,4S757,343.26,757,343.66Z"/><path class="cls-2" d="M781.23,342.68c0,.32,0,.69-.06,1.09a8.64,8.64,0,0,1-.2,1.12,3.15,3.15,0,0,1-.44.9.94.94,0,0,1-.7.41.6.6,0,0,1-.56-.28,2.44,2.44,0,0,1-.36-.76,7.25,7.25,0,0,1-.18-1c0-.33,0-.62,0-.86s0-.57,0-1.05v-1.66c0-.65,0-1.35,0-2.09s0-1.49,0-2.25,0-1.5,0-2.23-.06-1.39-.1-2-.05-1.12-.08-1.55a5.05,5.05,0,0,0-.12-.86c-.06-.2-.13-.4-.19-.6s-.13-.41-.2-.61a3,3,0,0,1-.13-.58,1.16,1.16,0,0,1,.07-.56.83.83,0,0,1,.42-.57,2.08,2.08,0,0,1,1-.18,7.5,7.5,0,0,0,.94,0l1.57-.05,1.71-.08,1.29-.09a6.33,6.33,0,0,1,4.8,1.39,5.72,5.72,0,0,1,1.86,3.83,6,6,0,0,1-.59,3.14,5,5,0,0,1-2.32,2.28q.36.81.75,1.65c.27.55.51,1.11.75,1.68l.77,1.66c.25.54.49,1.07.73,1.57a3.26,3.26,0,0,1,.31,1.58c0,.51-.17.83-.44,1a1.21,1.21,0,0,1-.94-.06,2.69,2.69,0,0,1-1.11-1.28c-.37-.73-.86-1.77-1.47-3.11s-1.21-2.66-1.79-4a.69.69,0,0,1-.2,0h-.19c-.38,0-.76.07-1.16.08l-1.23.05h-1.16c-.35,0-.66,0-.92,0,0,1.37,0,2.4,0,3.08S781.23,342.22,781.23,342.68Zm3.88-7.31a4.17,4.17,0,0,0,2.76-1.06,3,3,0,0,0,.9-2.46,3.35,3.35,0,0,0-1-2.29,4.17,4.17,0,0,0-2.93-.88l-.82,0-1.11.07-1.17.06c-.39,0-.72,0-1,0,0,.19,0,.52.1,1s.07,1,.09,1.62.08,1.26.1,1.95.06,1.37.1,2c.33,0,.87,0,1.63,0S784.29,335.43,785.11,335.37Z"/><path class="cls-1" d="M34,267.38A15.79,15.79,0,1,1,49.81,251.6,15.8,15.8,0,0,1,34,267.38Zm0-26a10.2,10.2,0,1,0,10.2,10.2A10.2,10.2,0,0,0,34,241.4Z"/><path class="cls-1" d="M105.23,327.12A15.78,15.78,0,1,1,121,311.34,15.8,15.8,0,0,1,105.23,327.12Zm0-26a10.2,10.2,0,1,0,10.19,10.19A10.21,10.21,0,0,0,105.23,301.15Z"/><path class="cls-1" d="M45.9,313.66a15.78,15.78,0,1,1,15.78-15.78A15.8,15.8,0,0,1,45.9,313.66Zm0-26a10.2,10.2,0,1,0,10.19,10.19A10.2,10.2,0,0,0,45.9,287.69Z"/><path class="cls-1" d="M60,302.24a2.8,2.8,0,0,1,0-5.59c9.24,0,16.76-9.38,16.76-20.9a2.79,2.79,0,1,1,5.58,0C82.37,290.35,72.35,302.24,60,302.24Z"/><path class="cls-1" d="M124.45,287.69H101.78a2.8,2.8,0,1,1,0-5.59h22.67a2.8,2.8,0,0,1,0,5.59Z"/><path class="cls-1" d="M67.59,346.66H51.51a20,20,0,0,1-20-20,2.8,2.8,0,0,1,5.59,0,14.41,14.41,0,0,0,14.39,14.39H67.59a2.8,2.8,0,1,1,0,5.59Z"/><path class="cls-1" d="M96.73,353.16H35.42A35.46,35.46,0,0,1,0,317.74V256.43a30.55,30.55,0,0,1,30.52-30.51H91.83a35.44,35.44,0,0,1,35.41,35.41v61.31A30.55,30.55,0,0,1,96.73,353.16ZM30.52,231.5A25,25,0,0,0,5.59,256.43v61.31a29.86,29.86,0,0,0,29.83,29.83H96.73a25,25,0,0,0,24.93-24.93V261.33A29.86,29.86,0,0,0,91.83,231.5Z"/><path class="cls-1" d="M34,278.54a2.79,2.79,0,0,1-2.79-2.79V264.58a2.8,2.8,0,0,1,5.59,0v11.17A2.79,2.79,0,0,1,34,278.54Z"/><path class="cls-1" d="M99.13,302.24c-11.53,0-21-10.4-22.22-23.7H2.79a2.8,2.8,0,0,1,0-5.59H79.58a2.79,2.79,0,0,1,2.79,2.8c0,11.52,7.52,20.9,16.76,20.9a2.8,2.8,0,0,1,0,5.59Z"/><path class="cls-1" d="M45.9,323a2.8,2.8,0,0,1-2.8-2.8v-9.34a2.8,2.8,0,0,1,5.59,0v9.34A2.79,2.79,0,0,1,45.9,323Z"/><path class="cls-1" d="M93.48,323H2.79a2.8,2.8,0,0,1,0-5.59H93.48a2.8,2.8,0,0,1,0,5.59Z"/><path class="cls-1" d="M79.58,278.54a2.79,2.79,0,0,1-2.79-2.79v-47a2.79,2.79,0,0,1,5.58,0v47A2.79,2.79,0,0,1,79.58,278.54Z"/><path class="cls-3" d="M2059.21,149.31H2061v6h4.92v-6h1.78v14.08h-1.78v-6.54H2061v6.54h-1.77Z"/><path class="cls-3" d="M2077.72,161.17c0,.75.06,1.49.08,2.22h-1.63l-.06-1.53h-.05a2.63,2.63,0,0,1-2.6,1.67c-1.79,0-3-1-3-3.29V153.1h1.69v6.64c0,1.63.61,2.34,1.7,2.34,1.33,0,2.17-.93,2.17-2.79V153.1h1.7Z"/><path class="cls-3" d="M2080.18,155.32c0-.74-.06-1.49-.08-2.22h1.63l.06,1.54h0a2.69,2.69,0,0,1,5-.06,2.72,2.72,0,0,1,2.5-1.62c1.78,0,3,1,3,3.29v7.14h-1.7v-7.06c0-1.31-.56-1.92-1.57-1.92-1.25,0-1.94.77-1.94,2.63v6.35h-1.69v-7.06c0-1.31-.57-1.92-1.57-1.92-1.25,0-1.94.77-1.94,2.63v6.35h-1.69Z"/><path class="cls-3" d="M2095.14,153.81a5.48,5.48,0,0,1,2.9-.85,3.88,3.88,0,0,1,2.74,1,3.13,3.13,0,0,1,.89,2.52v5.37a15.6,15.6,0,0,0,.08,1.57h-1.53l-.1-1.39h0a3.11,3.11,0,0,1-2.89,1.53,2.74,2.74,0,0,1-3-3c0-2,1.31-3.47,4.84-3.47h1v-.47a2.48,2.48,0,0,0-.39-1.65,2.08,2.08,0,0,0-1.71-.65,3.65,3.65,0,0,0-2.64,1.07Zm4.92,4.54a10.32,10.32,0,0,0-1.19,0c-2,0-2.95.95-2.95,2.13a1.61,1.61,0,0,0,1.74,1.8,2.43,2.43,0,0,0,2.4-2.6Z"/><path class="cls-3" d="M2104.07,155.32c0-.74-.06-1.49-.08-2.22h1.63l.06,1.54h0a2.65,2.65,0,0,1,2.6-1.68c1.8,0,3,1,3,3.29v7.14h-1.7v-6.63c0-1.64-.6-2.35-1.69-2.35-1.33,0-2.18.93-2.18,2.79v6.19h-1.69Z"/><path class="cls-3" d="M2119,149.31h3.61a4,4,0,0,1,3,1,3.59,3.59,0,0,1,1.05,2.68,3.22,3.22,0,0,1-2.78,3.37v0a1.79,1.79,0,0,1,1.53,1.37l2,5.65h-1.92l-1.61-4.76a2,2,0,0,0-2.24-1.61h-.81v6.37H2119Zm1.77,6.25h1.37a2.37,2.37,0,0,0,2.62-2.48c0-1.57-1-2.32-2.58-2.32h-1.41Z"/><path class="cls-3" d="M2130.36,158.75c0,2.38.93,3.49,2.8,3.49a4.32,4.32,0,0,0,2.36-.85l.08,1.54a7,7,0,0,1-2.88.6c-2.72,0-4.14-2.06-4.14-5.28s1.42-5.29,4-5.29c2.32,0,3.61,1.86,3.61,4.88v.91Zm4.11-1.29c0-2.14-.66-3.21-2-3.21-1.09,0-2.06.81-2.1,3.21Z"/><path class="cls-3" d="M2137.6,161.39a4.61,4.61,0,0,0,2.42.77c1.29,0,1.95-.67,1.95-1.45s-.36-1.19-1.31-1.62l-1.13-.5c-1.47-.67-2-1.33-2-2.64a3,3,0,0,1,3.31-3,6.25,6.25,0,0,1,2.18.36l-.08,1.46a5,5,0,0,0-2-.45c-1.1,0-1.69.61-1.69,1.42s.61,1.29,1.73,1.73l.61.24a2.79,2.79,0,0,1,2,2.62,3,3,0,0,1-3.31,3.19,6.25,6.25,0,0,1-2.79-.6Z"/><path class="cls-3" d="M2149.13,153c2.72,0,4.14,2.06,4.14,5.29s-1.42,5.28-4.14,5.28-4.14-2.06-4.14-5.28S2146.41,153,2149.13,153Zm0,9.2c1.61,0,2.36-1.33,2.36-3.91s-.75-3.92-2.36-3.92-2.36,1.33-2.36,3.92S2147.52,162.16,2149.13,162.16Z"/><path class="cls-3" d="M2162.48,161.17c0,.75.06,1.49.08,2.22h-1.63l-.06-1.53h0a2.63,2.63,0,0,1-2.6,1.67c-1.79,0-3-1-3-3.29V153.1h1.69v6.64c0,1.63.61,2.34,1.7,2.34,1.33,0,2.17-.93,2.17-2.79V153.1h1.7Z"/><path class="cls-3" d="M2164.94,155.32c0-.74-.06-1.49-.08-2.22h1.63l.06,1.62h0a2.76,2.76,0,0,1,2.93-1.76v1.68a3.49,3.49,0,0,0-.65-.06c-1.31,0-2.24,1.13-2.24,3.36v5.45h-1.69Z"/><path class="cls-3" d="M2177,154.9a3.85,3.85,0,0,0-2-.49c-1.65,0-2.82,1.15-2.82,3.94,0,2.38,1.12,3.73,2.78,3.73a4.39,4.39,0,0,0,2.08-.55l.08,1.56a6.22,6.22,0,0,1-2.16.44c-3.07,0-4.56-2.28-4.56-5.18,0-3.33,1.73-5.39,4.6-5.39a5.12,5.12,0,0,1,2,.4Z"/><path class="cls-3" d="M2180,158.75c0,2.38.92,3.49,2.8,3.49a4.32,4.32,0,0,0,2.36-.85l.08,1.54a7,7,0,0,1-2.88.6c-2.73,0-4.14-2.06-4.14-5.28s1.41-5.29,4-5.29c2.31,0,3.6,1.86,3.6,4.88v.91Zm4.11-1.29c0-2.14-.66-3.21-2-3.21-1.09,0-2.06.81-2.1,3.21Z"/><path class="cls-3" d="M2187.25,161.39a4.67,4.67,0,0,0,2.43.77c1.29,0,2-.67,2-1.45s-.36-1.19-1.31-1.62l-1.13-.5c-1.47-.67-2-1.33-2-2.64a3,3,0,0,1,3.31-3,6.25,6.25,0,0,1,2.18.36l-.08,1.46a5,5,0,0,0-2-.45c-1.11,0-1.69.61-1.69,1.42s.6,1.29,1.73,1.73l.61.24a2.78,2.78,0,0,1,2,2.62,2.94,2.94,0,0,1-3.3,3.19,6.25,6.25,0,0,1-2.79-.6Z"/><path class="cls-3" d="M2200.12,149.31h3.06a6.09,6.09,0,0,1,3.76,1c1.24.87,2.6,2.64,2.6,5.81,0,4.07-1.94,7.26-7.22,7.26h-2.2Zm1.77,12.55H2203c3.11,0,4.72-2.12,4.72-5.73,0-2.95-1.25-5.29-4.72-5.29h-1.07Z"/><path class="cls-3" d="M2212.84,158.75c0,2.38.93,3.49,2.8,3.49a4.32,4.32,0,0,0,2.36-.85l.08,1.54a7,7,0,0,1-2.88.6c-2.72,0-4.13-2.06-4.13-5.28s1.41-5.29,4-5.29c2.32,0,3.61,1.86,3.61,4.88v.91Zm4.11-1.29c0-2.14-.66-3.21-2-3.21-1.09,0-2.06.81-2.1,3.21Z"/><path class="cls-3" d="M2219.47,153.1h1.86l2.26,8.6h0l2.3-8.6h1.77l-3.08,10.29h-2Z"/><path class="cls-3" d="M2230.38,158.75c0,2.38.93,3.49,2.8,3.49a4.32,4.32,0,0,0,2.36-.85l.08,1.54a7,7,0,0,1-2.88.6c-2.72,0-4.13-2.06-4.13-5.28s1.41-5.29,4-5.29c2.32,0,3.61,1.86,3.61,4.88v.91Zm4.12-1.29c0-2.14-.67-3.21-2-3.21-1.09,0-2.06.81-2.1,3.21Z"/><path class="cls-3" d="M2238.22,148.26h1.7v15.13h-1.7Z"/><path class="cls-3" d="M2246.17,153c2.72,0,4.13,2.06,4.13,5.29s-1.41,5.28-4.13,5.28-4.14-2.06-4.14-5.28S2243.44,153,2246.17,153Zm0,9.2c1.61,0,2.36-1.33,2.36-3.91s-.75-3.92-2.36-3.92-2.36,1.33-2.36,3.92S2244.55,162.16,2246.17,162.16Z"/><path class="cls-3" d="M2252.1,155c0-.63-.07-1.27-.09-1.9h1.64l.06,1.52h0a2.9,2.9,0,0,1,2.7-1.66c2.12,0,3.55,1.74,3.55,5.29s-1.43,5.28-3.55,5.28a2.83,2.83,0,0,1-2.62-1.55h0v5.77h-1.69Zm4,7.16c1.55,0,2.26-1.33,2.26-3.91s-.71-3.92-2.26-3.92-2.26,1.33-2.26,3.92S2254.49,162.16,2256.05,162.16Z"/><path class="cls-3" d="M2262,155.32c0-.74-.06-1.49-.08-2.22h1.64l.06,1.54h0a2.69,2.69,0,0,1,5-.06,2.71,2.71,0,0,1,2.5-1.62c1.77,0,3,1,3,3.29v7.14h-1.7v-7.06c0-1.31-.56-1.92-1.57-1.92-1.25,0-1.94.77-1.94,2.63v6.35h-1.69v-7.06c0-1.31-.57-1.92-1.58-1.92-1.25,0-1.93.77-1.93,2.63v6.35H2262Z"/><path class="cls-3" d="M2277.78,158.75c0,2.38.93,3.49,2.8,3.49a4.32,4.32,0,0,0,2.36-.85l.08,1.54a7,7,0,0,1-2.88.6c-2.72,0-4.13-2.06-4.13-5.28s1.41-5.29,4-5.29c2.32,0,3.61,1.86,3.61,4.88v.91Zm4.11-1.29c0-2.14-.66-3.21-2-3.21-1.09,0-2.06.81-2.1,3.21Z"/><path class="cls-3" d="M2285.46,155.32c0-.74-.06-1.49-.08-2.22H2287l.07,1.54h0a2.64,2.64,0,0,1,2.6-1.68c1.79,0,3,1,3,3.29v7.14H2291v-6.63c0-1.64-.61-2.35-1.7-2.35-1.33,0-2.17.93-2.17,2.79v6.19h-1.7Z"/><path class="cls-3" d="M2299.72,163.27a4.83,4.83,0,0,1-1.43.26c-1.56,0-2.38-.62-2.38-2.44v-6.62h-1.64V153.1h1.64V151l1.69-.51v2.6h2.12v1.37h-2.12v6.08c0,1.17.3,1.61,1.07,1.61a2.46,2.46,0,0,0,1-.26Z"/><path class="cls-3" d="M2312.12,151.35a4.81,4.81,0,0,0-2.4-.65,2.07,2.07,0,0,0-2.2,2.1c0,.91.36,1.47,2.38,2.64,2.18,1.25,2.9,2.48,2.9,4.1a3.77,3.77,0,0,1-4.09,4,7.09,7.09,0,0,1-2.95-.6v-1.84a5.91,5.91,0,0,0,2.69.91,2.29,2.29,0,0,0,2.5-2.22c0-1.09-.28-1.71-2.18-2.87-2.54-1.53-3.11-2.39-3.11-4.21,0-2.32,1.78-3.53,3.92-3.53a7.25,7.25,0,0,1,2.54.46Z"/><path class="cls-3" d="M2316.21,158.75c0,2.38.93,3.49,2.8,3.49a4.32,4.32,0,0,0,2.36-.85l.08,1.54a7,7,0,0,1-2.88.6c-2.73,0-4.14-2.06-4.14-5.28s1.41-5.29,4-5.29c2.32,0,3.61,1.86,3.61,4.88v.91Zm4.11-1.29c0-2.14-.66-3.21-2-3.21-1.09,0-2.06.81-2.1,3.21Z"/><path class="cls-3" d="M2323.89,155.32c0-.74-.06-1.49-.08-2.22h1.63l.06,1.62h0a2.78,2.78,0,0,1,2.93-1.76v1.68a3.42,3.42,0,0,0-.65-.06c-1.31,0-2.24,1.13-2.24,3.36v5.45h-1.69Z"/><path class="cls-3" d="M2328.81,153.1h1.85l2.26,8.6h0l2.3-8.6H2337L2334,163.39h-2Z"/><path class="cls-3" d="M2340.38,148.87v2h-1.85v-2Zm-1.77,4.23h1.69v10.29h-1.69Z"/><path class="cls-3" d="M2349,154.9a3.81,3.81,0,0,0-1.95-.49c-1.66,0-2.83,1.15-2.83,3.94,0,2.38,1.13,3.73,2.79,3.73a4.35,4.35,0,0,0,2.07-.55l.08,1.56a6.11,6.11,0,0,1-2.15.44c-3.07,0-4.56-2.28-4.56-5.18,0-3.33,1.73-5.39,4.6-5.39a5,5,0,0,1,2,.4Z"/><path class="cls-3" d="M2352,158.75c0,2.38.93,3.49,2.81,3.49a4.35,4.35,0,0,0,2.36-.85l.08,1.54a7,7,0,0,1-2.89.6c-2.72,0-4.13-2.06-4.13-5.28s1.41-5.29,4-5.29c2.32,0,3.61,1.86,3.61,4.88v.91Zm4.12-1.29c0-2.14-.67-3.21-2-3.21-1.09,0-2.05.81-2.1,3.21Z"/><path class="cls-3" d="M2368.18,153c2.73,0,4.14,2.06,4.14,5.29s-1.41,5.28-4.14,5.28-4.13-2.06-4.13-5.28S2365.46,153,2368.18,153Zm0,9.2c1.62,0,2.37-1.33,2.37-3.91s-.75-3.92-2.37-3.92-2.35,1.33-2.35,3.92S2366.57,162.16,2368.18,162.16Z"/><path class="cls-3" d="M2375,154.47h-1.64V153.1H2375v-2.3c0-1.67.77-2.78,2.56-2.78a5.51,5.51,0,0,1,1.33.16v1.45a1.63,1.63,0,0,0-1-.24c-1,0-1.23.53-1.23,1.56v2.15h1.86v1.37h-1.86v8.92H2375Z"/><path class="cls-3" d="M2384.84,149.31h1.77v6.11h0l4.66-6.11h2.12l-5.28,6.66,5.72,7.42h-2.3l-4.92-6.82h0v6.82h-1.77Z"/><path class="cls-3" d="M2398.07,153c2.72,0,4.13,2.06,4.13,5.29s-1.41,5.28-4.13,5.28-4.14-2.06-4.14-5.28S2395.34,153,2398.07,153Zm0,9.2c1.61,0,2.36-1.33,2.36-3.91s-.75-3.92-2.36-3.92-2.36,1.33-2.36,3.92S2396.45,162.16,2398.07,162.16Z"/><path class="cls-3" d="M2404.16,155.32c0-.74-.06-1.49-.08-2.22h1.63l.06,1.62h0a2.76,2.76,0,0,1,2.92-1.76v1.68a3.31,3.31,0,0,0-.64-.06c-1.31,0-2.24,1.13-2.24,3.36v5.45h-1.69Z"/><path class="cls-3" d="M2411.39,158.75c0,2.38.93,3.49,2.81,3.49a4.35,4.35,0,0,0,2.36-.85l.08,1.54a7,7,0,0,1-2.89.6c-2.72,0-4.13-2.06-4.13-5.28s1.41-5.29,4-5.29c2.32,0,3.61,1.86,3.61,4.88v.91Zm4.12-1.29c0-2.14-.67-3.21-2-3.21-1.09,0-2,.81-2.1,3.21Z"/><path class="cls-3" d="M2419.48,153.81a5.54,5.54,0,0,1,2.9-.85,3.94,3.94,0,0,1,2.75,1,3.16,3.16,0,0,1,.88,2.52v5.37a15.6,15.6,0,0,0,.08,1.57h-1.53l-.1-1.39h0a3.09,3.09,0,0,1-2.88,1.53,2.74,2.74,0,0,1-3-3c0-2,1.31-3.47,4.84-3.47h1v-.47A2.54,2.54,0,0,0,2424,155a2.12,2.12,0,0,0-1.72-.65,3.67,3.67,0,0,0-2.64,1.07Zm4.92,4.54a10.32,10.32,0,0,0-1.19,0c-2,0-2.94.95-2.94,2.13a1.6,1.6,0,0,0,1.73,1.8,2.43,2.43,0,0,0,2.4-2.6Z"/><path class="cls-3" d="M2036.59,92.93h-16.93c-3.46,0-6.09,1.69-8.35,4l-28.09,27.51a5.27,5.27,0,0,0,0,7.5l28.09,27.51c2.26,2.27,4.89,4,8.35,4h16.93l-36.24-35.22Z"/><path class="cls-3" d="M1974.11,92.93H1964v70.44h15.37V98.23A5.26,5.26,0,0,0,1974.11,92.93Z"/><path class="cls-4" d="M1797.79,92.93a9.38,9.38,0,1,0,9.37,9.38A9.39,9.39,0,0,0,1797.79,92.93Z"/><path class="cls-4" d="M1755.75,92.93h-9.94v70.44h15.24V98.23A5.26,5.26,0,0,0,1755.75,92.93Z"/><path class="cls-4" d="M1800.68,119.33H1768.2v10a5.26,5.26,0,0,0,5.3,5.3h17.25v23.49a5.26,5.26,0,0,0,5.3,5.3H1806V124.64A5.27,5.27,0,0,0,1800.68,119.33Z"/><path class="cls-4" d="M1897.89,111.68a9.38,9.38,0,1,0-9.38-9.37A9.37,9.37,0,0,0,1897.89,111.68Z"/><path class="cls-4" d="M1918.51,92.93h-6.1v9.89a5.26,5.26,0,0,0,5.3,5.3h.8c10.68,0,19.37,10,19.37,20.69a19.39,19.39,0,0,1-19.37,19.37h-13.57v-22.3a5.27,5.27,0,0,0-5.31-5.3h-9.94v42.79h28.82a34.61,34.61,0,0,0,34.56-34.56C1953.07,109.76,1937.56,92.93,1918.51,92.93Z"/><path class="cls-4" d="M1877.41,117.18V117c0-6.53-2.09-13.17-5.94-17-4.55-4.55-11.38-7-20.18-7h-31.67v70.44h15.24V106.68H1850c7.42,0,12,4.56,12,11.09V118c0,5.84-4.24,9.81-11.66,9.81h-10a2,2,0,0,0-2,2,2,2,0,0,0,.47,1.29l23.11,28.38a9.14,9.14,0,0,0,7.52,4h15.9l-21.74-25.12C1872,134.79,1877.41,128.07,1877.41,117.18Z"/><polygon class="cls-3" points="2189.33 92.92 2182.37 92.92 2182.37 128 2189.33 128 2189.33 108.73 2196 108.73 2196 104.4 2189.33 104.4 2189.33 92.92"/><path class="cls-3" d="M2232.52,125.74h-17.47v-5.16h-7v13a6.22,6.22,0,0,0,6.22,6.22h25.18V120.58h-7Zm0,9.76h-15.24a2.23,2.23,0,0,1-2.23-2.23v-3.2h17.47Z"/><path class="cls-3" d="M2164.89,133.27V122.64h-7v11a6.22,6.22,0,0,0,6.22,6.22h26.24V135.5h-23.27A2.23,2.23,0,0,1,2164.89,133.27Z"/><rect class="cls-3" x="2280.1" y="92.92" width="6.96" height="35.08"/><polygon class="cls-3" points="2327.7 98.06 2321.09 98.06 2321.09 102.39 2327.7 102.39 2327.7 106.17 2321.09 106.17 2321.09 110.5 2327.7 110.5 2327.7 119.47 2334.65 119.47 2334.65 92.92 2327.7 92.92 2327.7 98.06"/><path class="cls-3" d="M2262.61,133.27V122.64h-7v11a6.23,6.23,0,0,0,6.22,6.22h25.49V135.5h-22.52A2.23,2.23,0,0,1,2262.61,133.27Z"/><path class="cls-3" d="M2164.83,110.06a21.7,21.7,0,0,0,12.81,7.87v-4.36c-9.79-2.75-9.32-12.64-9.32-13.06V94.14h-7v6.37c0,.42.46,10.31-9.33,13.06v4.36A21.71,21.71,0,0,0,2164.83,110.06Z"/><path class="cls-3" d="M2380.31,105.14V99.73a6.24,6.24,0,0,0-6.24-6.22h-26.18v4.33h23.21a2.28,2.28,0,0,1,2.26,2.24v5.06c0,1-.11,5.2-1.93,7.29h-8.16v-9h-6.95v9h-14v4.33h43.51v-4.33h-7.45C2380.2,110.34,2380.31,106.17,2380.31,105.14Z"/><path class="cls-3" d="M2323.67,117.41v-4.33c-1.65.92-6.91.94-6.91.94H2306.1a2.23,2.23,0,0,1-2.23-2.23v-3.67h14.62V98.67a4.53,4.53,0,0,0-4.53-4.53h-17.05v4.33h13a1.63,1.63,0,0,1,1.59,1.63v3.7h-14.62v8.34a6.21,6.21,0,0,0,6.21,6.21h13.64S2322,118.33,2323.67,117.41Z"/><path class="cls-3" d="M2141.9,103.4V99.73a6.22,6.22,0,0,0-6.22-6.22h-26.5v4.33h23.51a2.24,2.24,0,0,1,2.24,2.24v3.32c0,1-.1,4.9-1.73,7.06h-29.6v4.33h18.27v7.37h-12.69v4.32h23.56a2.25,2.25,0,0,1,2.2,2.24v11.12h7V128.37a6.22,6.22,0,0,0-6.22-6.21h-6.84v-7.37h18.28v-4.33h-7C2141.79,108.3,2141.9,104.39,2141.9,103.4Z"/><path class="cls-3" d="M2328.44,122.16H2305.2v4.32h20.29a2.25,2.25,0,0,1,2.21,2.24v11.12h7V128.37A6.21,6.21,0,0,0,2328.44,122.16Z"/><polygon class="cls-3" points="2093.81 92.92 2086.85 92.92 2086.85 128 2093.81 128 2093.81 108.73 2100.49 108.73 2100.49 104.4 2093.81 104.4 2093.81 92.92"/><path class="cls-3" d="M2081.45,106.13a10.37,10.37,0,0,0-3.08-7.28h3.82V94.52h-9.87V90.75h-7v3.77h-9.87v4.33h3.82a10.38,10.38,0,0,0-3.09,7.28c0,6.15,5.65,11.14,12.62,11.14S2081.45,112.28,2081.45,106.13Zm-18.26,0c0-3.76,2.52-6.81,5.65-6.81s5.65,3.05,5.65,6.81-2.53,6.81-5.65,6.81S2063.19,109.89,2063.19,106.13Z"/><path class="cls-3" d="M2069.38,133.27V122.64h-7v11a6.22,6.22,0,0,0,6.22,6.22h26.24V135.5h-23.27A2.23,2.23,0,0,1,2069.38,133.27Z"/><path class="cls-3" d="M2426.27,104.4V92.92h-7v20.31c-1.92.77-6.57.79-6.57.79h-12.48a2.23,2.23,0,0,1-2.23-2.23V100a1.63,1.63,0,0,1,1.58-1.55h12.74V94.14h-16.76a4.53,4.53,0,0,0-4.53,4.53v13.47a6.21,6.21,0,0,0,6.22,6.21h15.46s4.65,0,6.57-.79V128h7V108.74h6.67V104.4Z"/><path class="cls-3" d="M2401.83,133.27V122.64h-7v11a6.22,6.22,0,0,0,6.22,6.22h26.24V135.5h-23.26A2.23,2.23,0,0,1,2401.83,133.27Z"/><path class="cls-3" d="M2364.09,119.43c-8.05,0-14.57,4.86-14.57,10.86s6.52,10.86,14.57,10.86,14.57-4.86,14.57-10.86S2372.13,119.43,2364.09,119.43Zm0,17.39c-4.21,0-7.61-2.92-7.61-6.53s3.4-6.53,7.61-6.53,7.61,2.92,7.61,6.53S2368.29,136.82,2364.09,136.82Z"/><path class="cls-3" d="M2274.53,105.47c0-6.41-5.91-11.6-13.22-11.6s-13.23,5.19-13.23,11.6,5.92,11.61,13.23,11.61S2274.53,111.88,2274.53,105.47Zm-19.49,0c0-4,2.81-7.28,6.27-7.28s6.27,3.26,6.27,7.28-2.81,7.28-6.27,7.28S2255,109.49,2255,105.47Z"/><path class="cls-3" d="M2232.52,102.82h-6.88c-1.15-5.1-6.28-8.95-12.44-8.95-7,0-12.68,5-12.68,11.12s5.68,11.12,12.68,11.12c6.16,0,11.29-3.85,12.44-9h6.88v10.53h7V92.92h-7Zm-19.32,9c-3.16,0-5.72-3-5.72-6.79s2.56-6.8,5.72-6.8,5.73,3,5.73,6.8S2216.36,111.78,2213.2,111.78Z"/><path class="cls-5" d="M995.65,73.71a5.8,5.8,0,1,1-5.8,5.8,5.79,5.79,0,0,1,5.8-5.8m26,0a5.8,5.8,0,1,1-5.8,5.8,5.78,5.78,0,0,1,5.8-5.8m26,0a5.8,5.8,0,1,1-5.8,5.8,5.78,5.78,0,0,1,5.8-5.8m26,0a5.8,5.8,0,1,1-5.8,5.8,5.8,5.8,0,0,1,5.8-5.8m26,0a5.8,5.8,0,1,1-5.8,5.8,5.78,5.78,0,0,1,5.8-5.8m26,0a5.8,5.8,0,1,1-5.8,5.8,5.8,5.8,0,0,1,5.8-5.8m26,0a5.8,5.8,0,1,1-5.8,5.8,5.79,5.79,0,0,1,5.8-5.8m26,0a5.8,5.8,0,1,1-5.79,5.8,5.8,5.8,0,0,1,5.79-5.8"/><path class="cls-5" d="M1202,73.71a5.8,5.8,0,1,1-5.8,5.8,5.78,5.78,0,0,1,5.8-5.8m26,0a5.8,5.8,0,1,1-5.8,5.8,5.78,5.78,0,0,1,5.8-5.8m26,0a5.8,5.8,0,1,1-5.8,5.8,5.77,5.77,0,0,1,5.8-5.8m26,0a5.8,5.8,0,1,1-5.8,5.8,5.8,5.8,0,0,1,5.8-5.8m26,0a5.8,5.8,0,1,1-5.79,5.8,5.78,5.78,0,0,1,5.79-5.8m26,0a5.8,5.8,0,1,1-5.8,5.8,5.8,5.8,0,0,1,5.8-5.8m26,0a5.8,5.8,0,1,1-5.8,5.8,5.8,5.8,0,0,1,5.8-5.8m26,0a5.8,5.8,0,1,1-5.8,5.8,5.8,5.8,0,0,1,5.8-5.8"/><path class="cls-5" d="M1406,73.71a5.8,5.8,0,1,1-5.8,5.8,5.78,5.78,0,0,1,5.8-5.8m26,0a5.8,5.8,0,1,1-5.8,5.8,5.78,5.78,0,0,1,5.8-5.8m26,0a5.8,5.8,0,1,1-5.8,5.8,5.77,5.77,0,0,1,5.8-5.8m26,0a5.8,5.8,0,1,1-5.8,5.8,5.8,5.8,0,0,1,5.8-5.8m26,0a5.8,5.8,0,1,1-5.79,5.8,5.78,5.78,0,0,1,5.79-5.8m26,0a5.8,5.8,0,1,1-5.8,5.8,5.8,5.8,0,0,1,5.8-5.8m26,0a5.8,5.8,0,1,1-5.8,5.8,5.8,5.8,0,0,1,5.8-5.8m26,0a5.8,5.8,0,1,1-5.8,5.8,5.8,5.8,0,0,1,5.8-5.8"/><polyline class="cls-5" points="979.44 60.16 943.37 79.51 979.44 98.87"/><path class="cls-6" d="M1544.58,177.31a5.8,5.8,0,1,1,5.8-5.8,5.78,5.78,0,0,1-5.8,5.8m-26,0a5.8,5.8,0,1,1,5.8-5.8,5.78,5.78,0,0,1-5.8,5.8m-26,0a5.8,5.8,0,1,1,5.79-5.8,5.77,5.77,0,0,1-5.79,5.8m-26,0a5.8,5.8,0,1,1,5.8-5.8,5.8,5.8,0,0,1-5.8,5.8m-26,0a5.8,5.8,0,1,1,5.8-5.8,5.78,5.78,0,0,1-5.8,5.8m-26,0a5.8,5.8,0,1,1,5.8-5.8,5.8,5.8,0,0,1-5.8,5.8m-26,0a5.8,5.8,0,1,1,5.8-5.8,5.79,5.79,0,0,1-5.8,5.8m-26,0a5.8,5.8,0,1,1,5.8-5.8,5.8,5.8,0,0,1-5.8,5.8"/><path class="cls-6" d="M1338.22,177.31a5.8,5.8,0,1,1,5.8-5.8,5.78,5.78,0,0,1-5.8,5.8m-26,0a5.8,5.8,0,1,1,5.8-5.8,5.78,5.78,0,0,1-5.8,5.8m-26,0a5.8,5.8,0,1,1,5.8-5.8,5.78,5.78,0,0,1-5.8,5.8m-26,0a5.8,5.8,0,1,1,5.8-5.8,5.8,5.8,0,0,1-5.8,5.8m-26,0a5.8,5.8,0,1,1,5.8-5.8,5.79,5.79,0,0,1-5.8,5.8m-26,0a5.8,5.8,0,1,1,5.79-5.8,5.8,5.8,0,0,1-5.79,5.8m-26,0a5.8,5.8,0,1,1,5.8-5.8,5.8,5.8,0,0,1-5.8,5.8m-26,0a5.8,5.8,0,1,1,5.8-5.8,5.8,5.8,0,0,1-5.8,5.8"/><path class="cls-6" d="M1134.22,177.31a5.8,5.8,0,1,1,5.8-5.8,5.78,5.78,0,0,1-5.8,5.8m-26,0a5.8,5.8,0,1,1,5.8-5.8,5.78,5.78,0,0,1-5.8,5.8m-26,0a5.8,5.8,0,1,1,5.8-5.8,5.78,5.78,0,0,1-5.8,5.8m-26,0a5.8,5.8,0,1,1,5.8-5.8,5.8,5.8,0,0,1-5.8,5.8m-26,0a5.8,5.8,0,1,1,5.8-5.8,5.79,5.79,0,0,1-5.8,5.8m-26,0a5.8,5.8,0,1,1,5.79-5.8,5.8,5.8,0,0,1-5.79,5.8m-26,0a5.8,5.8,0,1,1,5.8-5.8,5.8,5.8,0,0,1-5.8,5.8m-26,0a5.8,5.8,0,1,1,5.8-5.8,5.8,5.8,0,0,1-5.8,5.8"/><polyline class="cls-6" points="1560.79 190.87 1596.86 171.51 1560.79 152.16"/><text class="cls-7" transform="translate(1166.05 42.85)">교육비 환급</text><path class="cls-5" d="M995.65,477.71a5.8,5.8,0,1,1-5.8,5.8,5.79,5.79,0,0,1,5.8-5.8m26,0a5.8,5.8,0,1,1-5.8,5.8,5.78,5.78,0,0,1,5.8-5.8m26,0a5.8,5.8,0,1,1-5.8,5.8,5.78,5.78,0,0,1,5.8-5.8m26,0a5.8,5.8,0,1,1-5.8,5.8,5.8,5.8,0,0,1,5.8-5.8m26,0a5.8,5.8,0,1,1-5.8,5.8,5.78,5.78,0,0,1,5.8-5.8m26,0a5.8,5.8,0,1,1-5.8,5.8,5.8,5.8,0,0,1,5.8-5.8m26,0a5.8,5.8,0,1,1-5.8,5.8,5.79,5.79,0,0,1,5.8-5.8m26,0a5.8,5.8,0,1,1-5.79,5.8,5.8,5.8,0,0,1,5.79-5.8"/><path class="cls-5" d="M1202,477.71a5.8,5.8,0,1,1-5.8,5.8,5.78,5.78,0,0,1,5.8-5.8m26,0a5.8,5.8,0,1,1-5.8,5.8,5.78,5.78,0,0,1,5.8-5.8m26,0a5.8,5.8,0,1,1-5.8,5.8,5.77,5.77,0,0,1,5.8-5.8m26,0a5.8,5.8,0,1,1-5.8,5.8,5.8,5.8,0,0,1,5.8-5.8m26,0a5.8,5.8,0,1,1-5.79,5.8,5.78,5.78,0,0,1,5.79-5.8m26,0a5.8,5.8,0,1,1-5.8,5.8,5.8,5.8,0,0,1,5.8-5.8m26,0a5.8,5.8,0,1,1-5.8,5.8,5.8,5.8,0,0,1,5.8-5.8m26,0a5.8,5.8,0,1,1-5.8,5.8,5.8,5.8,0,0,1,5.8-5.8"/><path class="cls-5" d="M1406,477.71a5.8,5.8,0,1,1-5.8,5.8,5.78,5.78,0,0,1,5.8-5.8m26,0a5.8,5.8,0,1,1-5.8,5.8,5.78,5.78,0,0,1,5.8-5.8m26,0a5.8,5.8,0,1,1-5.8,5.8,5.77,5.77,0,0,1,5.8-5.8m26,0a5.8,5.8,0,1,1-5.8,5.8,5.8,5.8,0,0,1,5.8-5.8m26,0a5.8,5.8,0,1,1-5.79,5.8,5.78,5.78,0,0,1,5.79-5.8m26,0a5.8,5.8,0,1,1-5.8,5.8,5.8,5.8,0,0,1,5.8-5.8m26,0a5.8,5.8,0,1,1-5.8,5.8,5.8,5.8,0,0,1,5.8-5.8m26,0a5.8,5.8,0,1,1-5.8,5.8,5.8,5.8,0,0,1,5.8-5.8"/><polyline class="cls-5" points="979.44 464.16 943.37 483.51 979.44 502.87"/><text class="cls-7" transform="translate(1058.14 445.85)">교육위탁 및 자부담 비용</text><text class="cls-7" transform="translate(1190.83 238.85)">교육신고</text><text class="cls-7" transform="translate(1745.81 455.88)">교육과정 위탁 <tspan class="cls-8" x="254.71" y="0">사업주</tspan></text></g></g></svg>