<?xml version="1.0" encoding="UTF-8"?><svg id="Layer_2" xmlns="http://www.w3.org/2000/svg" viewBox="0 0 1135.3 549.5"><defs><style>.cls-1{fill:#7de314;}.cls-1,.cls-2,.cls-3,.cls-4,.cls-5{stroke-width:0px;}.cls-2{fill:#14a0c0;}.cls-3{fill:#01cc9b;}.cls-6{stroke-miterlimit:10;}.cls-6,.cls-7{fill:none;stroke:#fff;}.cls-4{fill:#09909f;}.cls-5{fill:#5059ab;}.cls-8{font-family:Pretendard-Bold, Pretendard;font-size:30px;font-weight:700;}.cls-8,.cls-9{fill:#fff;}.cls-9{font-family:Pretendard-Medium, Pretendard;font-size:22px;font-weight:500;}.cls-7{stroke-linecap:round;stroke-linejoin:round;stroke-width:2px;}.cls-10{letter-spacing:0em;}</style></defs><g id="Layer_1-2"><path class="cls-2" d="M186.8,4.4l161,161c5.9,5.9,5.9,15.5,0,21.4l-161,161c-5.9,5.9-15.5,5.9-21.4,0L4.4,186.8c-5.9-5.9-5.9-15.5,0-21.4L165.4,4.4c5.9-5.9,15.5-5.9,21.4,0Z"/><path class="cls-3" d="M580.6,4.4l161,161c5.9,5.9,5.9,15.5,0,21.4l-161,161c-5.9,5.9-15.5,5.9-21.4,0l-161-161c-5.9-5.9-5.9-15.5,0-21.4L559.3,4.4c5.9-5.9,15.5-5.9,21.4,0Z"/><rect class="cls-5" x="635.6" y="241.5" width="257.9" height="257.9" rx="8" ry="8" transform="translate(1043.2 1173) rotate(-135)"/><path class="cls-7" d="M778.2,246.7c0-4-3.3-6.8-7.3-6.8s-5.5,1.8-6.6,4.3c-1.1-2.5-3.7-4.3-6.6-4.3s-7.3,2.8-7.3,6.8.3,2.9,1.8,5.1c3.8,5.5,11.2,12,12.1,12s8.3-6.5,11.9-12c1.2-1.9,2-4.6,2-5.1Z"/><path class="cls-7" d="M783.1,283.8v-3.3c0-1.3,4.5-7.2,6.5-10.7.6-1,.9-2.2.9-3.5v-17.5c0-2.6-2-4.6-4.3-4.2-1.8.3-3.1,2.2-3.1,4.3v9.3"/><path class="cls-7" d="M780.6,271l4.1-6.2c1-1.7.8-4.1-.6-5.5-1.7-1.6-4.2-1.2-5.3.9l-6.9,11.2c-.8,1.1-1.3,2.6-1.3,4.2v8.3"/><rect class="cls-7" x="769" y="283.8" width="16.3" height="7.3" rx="1.9" ry="1.9"/><path class="cls-7" d="M746,283.8v-3.3c0-1.3-4.5-7.2-6.5-10.7-.6-1-.9-2.2-.9-3.5v-17.5c0-2.6,2-4.6,4.3-4.2,1.8.3,3.1,2.2,3.1,4.3v9.3"/><path class="cls-7" d="M748.5,271l-4.1-6.2c-1-1.7-.8-4.1.6-5.5,1.7-1.6,4.2-1.2,5.3.9l6.9,11.2c.8,1.1,1.3,2.6,1.3,4.2v8.3"/><rect class="cls-7" x="743.8" y="283.8" width="16.3" height="7.3" rx="1.9" ry="1.9" transform="translate(1503.8 574.9) rotate(-180)"/><path class="cls-4" d="M969.8,4.8l161,161c5.9,5.9,5.9,15.5,0,21.4l-161,161c-5.9,5.9-15.5,5.9-21.4,0l-161-161c-5.9-5.9-5.9-15.5,0-21.4L948.5,4.8c5.9-5.9,15.5-5.9,21.4,0Z"/><path class="cls-7" d="M957.9,89c0,2.8,2.3,5.1,5.1,5.1s5.1-2.3,5.1-5.1"/><path class="cls-7" d="M970.4,78.8c1.2,0,2.1-1,2.1-2.1v-4.3c0-.2,0-.4-.1-.5,5.2-3.2,8.8-9,8.8-15.5,0-10.1-8.2-18.2-18.2-18.2s-18.2,8.2-18.2,18.2,3.5,12.3,8.8,15.5c0,.2-.1.3-.1.5v4.3c0,1.2,1,2.1,2.1,2.1"/><path class="cls-7" d="M972.5,82.2v-1.3c0-1.2-1-2.1-2.1-2.1h-14.8c-1.2,0-2.1,1-2.1,2.1v1.3c0,.7.4,1.3.9,1.7-.5.4-.9,1-.9,1.7v1.3c0,1.2,1,2.1,2.1,2.1h14.8c1.2,0,2.1-1,2.1-2.1v-1.3c0-.7-.4-1.3-.9-1.7.5-.4.9-1,.9-1.7Z"/><line class="cls-7" x1="954.5" y1="83.9" x2="967.2" y2="83.9"/><line class="cls-7" x1="963" y1="28.1" x2="963" y2="33.1"/><line class="cls-7" x1="976.5" y1="31.7" x2="973.9" y2="36"/><line class="cls-7" x1="949.5" y1="31.7" x2="952" y2="36"/><path class="cls-1" d="M386.3,197.9l161,161c5.9,5.9,5.9,15.5,0,21.4l-161,161c-5.9,5.9-15.5,5.9-21.4,0l-161-161c-5.9-5.9-5.9-15.5,0-21.4l161-161c5.9-5.9,15.5-5.9,21.4,0Z"/><path class="cls-7" d="M195,83.9c0-5.1-5.9-16-13.9-18.3-.9-.3-1.3-1.5-.1-2.2,4.3-1.9,7.3-6.1,7.3-11.1s-5.5-12.3-12.3-12.3-12.3,5.5-12.3,12.3,2.9,9.2,7,11.1c1.3.6,1.2,1.9.1,2.2-8,2.3-13.8,13.4-13.8,18.3"/><path class="cls-6" d="M366.7,253c0,.8-.6,1.4-1.4,1.4s-1.4-.6-1.4-1.4.6-1.4,1.4-1.4,1.4.6,1.4,1.4Z"/><path class="cls-6" d="M374.1,253c0,.8-.6,1.4-1.4,1.4s-1.4-.6-1.4-1.4.6-1.4,1.4-1.4,1.4.6,1.4,1.4Z"/><path class="cls-6" d="M381.5,253c0,.8-.6,1.4-1.4,1.4s-1.4-.6-1.4-1.4.6-1.4,1.4-1.4,1.4.6,1.4,1.4Z"/><path class="cls-7" d="M373.1,233.4c-10.7,0-19.3,8.6-19.3,19.3s.8,6.3,2.2,9l-5.3,8.9,11.2-2.2h0c3.2,2.2,7,3.6,11.2,3.6,10.7,0,19.3-8.6,19.3-19.3s-8.6-19.3-19.3-19.3Z"/><path class="cls-7" d="M392.7,253.1c1.5,2.5,2.3,5.3,2.3,8.4s-.7,5.4-1.9,7.6l4.5,7.5-9.5-1.8h0c-2.7,1.9-5.9,3-9.4,3-5.9,0-11-3.1-13.9-7.8"/><polyline class="cls-7" points="564 61.7 570.4 68.1 570.4 68.1 570.4 68.1 580 58.4"/><path class="cls-7" d="M570.9,37.6s-4.5,10-18.5,7.9v22.7c.4,1.3-1.3,12,18.5,17.3,19.7-5.3,18.1-16,18.5-17.3v-22.7c-14,2.2-18.5-7.9-18.5-7.9Z"/><text class="cls-8" transform="translate(137.7 139.9)"><tspan x="0" y="0">학습자</tspan></text><text class="cls-9" transform="translate(85.7 185.2)"><tspan x="0" y="0">근무환경에 최적화된 </tspan><tspan x="-9.5" y="26.4">교육서비스로 학습자의 </tspan><tspan x="-9.5" y="52.8">지속성장을 최우선으로 </tspan><tspan x="50.1" y="79.2">삼습니다</tspan><tspan class="cls-10" x="126.2" y="79.2">.</tspan></text><text class="cls-8" transform="translate(323.9 335.9)"><tspan x="0" y="0">상호협력</tspan></text><text class="cls-9" transform="translate(263 381.2)"><tspan x="0" y="0">학습자의 입장을 고려하여 </tspan><tspan x="38" y="26.4">상호 협력을 위해 </tspan><tspan x="43.3" y="52.8">노력하겠습니다</tspan><tspan class="cls-10" x="176.4" y="52.8">.</tspan></text><text class="cls-8" transform="translate(517.3 133.9)"><tspan x="0" y="0">정직경영</tspan></text><text class="cls-9" transform="translate(497.6 173.2)"><tspan x="0" y="0">학습자와 직원 등 </tspan><tspan x="-28.5" y="26.4">이해관계자 간의 신뢰를 </tspan><tspan x="2.7" y="52.8">키워나가 정직한 </tspan><tspan x="14.9" y="79.2">경영마인드를 </tspan><tspan x="5.3" y="105.6">유지하겠습니다</tspan><tspan class="cls-10" x="138.4" y="105.6">.</tspan></text><text class="cls-8" transform="translate(711.3 332.9)"><tspan x="0" y="0">직원행복</tspan></text><text class="cls-9" transform="translate(672.5 372.2)"><tspan x="0" y="0">직원 복리후생 증진과 </tspan><tspan x="-9.5" y="26.4">자기계발 기회 제공으로 </tspan><tspan x="31.2" y="52.8">직무 만족감을 </tspan><tspan x="33.8" y="79.2">높이겠습니다</tspan><tspan class="cls-10" x="147.9" y="79.2">.</tspan></text><text class="cls-8" transform="translate(909.3 136.9)"><tspan x="0" y="0">창조경영</tspan></text><text class="cls-9" transform="translate(882.7 176.2)"><tspan x="0" y="0">학습자에게 필요한 </tspan><tspan x="-43.4" y="26.4">교육 서비스와 컨텐츠 개발로 </tspan><tspan x="-9.5" y="52.8">교육시장의 본보기가 </tspan><tspan x="31.1" y="79.2">되겠습니다</tspan><tspan class="cls-10" x="126.2" y="79.2">.</tspan></text></g></svg>