<svg xmlns="http://www.w3.org/2000/svg" width="32" height="32" viewBox="0 0 32 32"><g transform="translate(-1521 -316)"><rect width="32" height="32" transform="translate(1521 316)" fill="#fff" opacity="0"/><g transform="translate(14560.825 22894.824)"><g transform="translate(-13037 -22576)" fill="none"><path d="M13.175,0A13.175,13.175,0,1,1,0,13.175,13.175,13.175,0,0,1,13.175,0Z" stroke="none"/><path d="M 13.1748046875 1.699995040893555 C 10.10977554321289 1.699995040893555 7.228195190429688 2.893585205078125 5.060894012451172 5.060894012451172 C 2.893585205078125 7.228195190429688 1.699995040893555 10.10977554321289 1.699995040893555 13.1748046875 C 1.699995040893555 16.23983383178711 2.893585205078125 19.12140464782715 5.060894012451172 21.28871536254883 C 7.228195190429688 23.45601463317871 10.10977554321289 24.64960479736328 13.1748046875 24.64960479736328 C 16.23983383178711 24.64960479736328 19.12140464782715 23.45601463317871 21.28871536254883 21.28871536254883 C 23.45601463317871 19.12140464782715 24.64960479736328 16.23983383178711 24.64960479736328 13.1748046875 C 24.64960479736328 10.10977554321289 23.45601463317871 7.228195190429688 21.28871536254883 5.060894012451172 C 19.12140464782715 2.893585205078125 16.23983383178711 1.699995040893555 13.1748046875 1.699995040893555 M 13.1748046875 -5.7220458984375e-06 C 20.4510440826416 -5.7220458984375e-06 26.34960556030273 5.898565292358398 26.34960556030273 13.1748046875 C 26.34960556030273 20.4510440826416 20.4510440826416 26.34960556030273 13.1748046875 26.34960556030273 C 5.898565292358398 26.34960556030273 -5.7220458984375e-06 20.4510440826416 -5.7220458984375e-06 13.1748046875 C -5.7220458984375e-06 5.898565292358398 5.898565292358398 -5.7220458984375e-06 13.1748046875 -5.7220458984375e-06 Z" stroke="none" fill="#ccd0d2"/></g><rect width="2" height="9.542" transform="translate(-13024.567 -22569.293)" fill="#ccd0d2"/><rect width="2" height="2" transform="translate(-13024.567 -22557.842)" fill="#ccd0d2"/></g></g></svg>