<?xml version="1.0" encoding="UTF-8"?>
<svg xmlns="http://www.w3.org/2000/svg" viewBox="0 0 86.44 20.24">
  <defs>
    <style>
      .cls-1 {
        isolation: isolate;
      }

      .cls-2 {
        fill: #231815;
      }

      .cls-3 {
        mix-blend-mode: multiply;
      }

      .cls-4 {
        fill: #00538c;
      }
    </style>
  </defs>
  <g class="cls-1">
    <g id="_·_ÀÌ_î_1" data-name="·¹ÀÌ¾î_1">
      <g class="cls-3">
        <g>
          <path class="cls-4" d="M9.58,5.07h3.57v1.58h-3.57v-1.58Z"/>
          <path class="cls-4" d="M16.93,7.44c1.97-.01,3.17-.08,4.45-.33l.18,1.68c-1.5,.29-2.98,.33-5.6,.33h-1.06V1.01h5.79v1.63h-3.76V7.44ZM24.11,0V11.89h-2.04V0h2.04Z"/>
          <path class="cls-4" d="M30.58,2.98c0,1.87,.69,3.9,2.8,4.77l-1.1,1.59c-1.32-.54-2.19-1.58-2.71-2.86-.5,1.43-1.37,2.57-2.75,3.18l-1.15-1.61c2.13-.92,2.84-3.09,2.84-5.06v-.21h-2.32V1.1h6.66v1.67h-2.27v.21ZM35.71,.01V11.83h-2.04V.01h2.04Z"/>
          <path class="cls-4" d="M43.88,5.88c-1.53,.21-2.88,.21-4.98,.21h-.97V.62h5.54v1.55h-3.51v.43h3.13v1.47h-3.13v.45c1.49-.01,2.56-.04,3.8-.21l.13,1.56Zm3.82,4.39v1.53h-8.21v-3.33h5.9v-.37h-5.9v-1.53h7.92v3.32h-5.9v.38h6.19Zm-2.33-6.29h-1.66v-1.58h1.66V0h2.04V6.19h-2.04V3.97Z"/>
          <path class="cls-4" d="M63.24,4.81v1.58h-10.71v-1.58h10.71Zm-8.45-3h-1.36V.3h8.9V1.8h-1.36v1.1h1.24v1.5h-8.66v-1.5h1.25V1.8Zm.96,8.53h6.52v1.46h-8.54v-3.17h6.24v-.37h-6.26v-1.45h8.27v3.15h-6.24v.37Zm3.19-8.53h-2.12v1.1h2.12V1.8Z"/>
          <path class="cls-4" d="M69.54,6.65c-1.24,.24-2.33,.26-4.12,.26h-.85V3.09h2.54v-.74h-2.55V.78h4.52v3.77h-2.54v.77c1.11-.01,1.93-.08,2.84-.25l.16,1.58Zm1.59,.93c0,1.03,.82,2.33,3.63,2.66l-.79,1.56c-1.9-.26-3.15-.98-3.85-1.94-.71,.96-1.95,1.68-3.86,1.94l-.78-1.56c2.81-.33,3.63-1.63,3.63-2.66v-.16h2.02v.16Zm.63-.64h-1.89V.23h1.89V2.74h.59V0h1.93V7.9h-1.93v-3.56h-.59v2.6Z"/>
          <path class="cls-4" d="M86.44,5.6v1.59h-10.71v-1.59h4.33v-.69h-3.32v-1.59h1.25V1.89h-1.36V.3h8.9V1.89h-1.36v1.43h1.24v1.59h-3.3v.69h4.34Zm-9.5,2.19h8.24v3.92h-8.24v-3.92Zm2.01,2.35h4.23v-.77h-4.23v.77Zm1.07-6.82h2.12V1.89h-2.12v1.43Z"/>
        </g>
        <path class="cls-4" d="M0,1.25H2.26v3.72h.04L4.96,1.25h2.47l-2.84,3.77,3.37,5.62h-2.46l-2.22-3.85-1.02,1.39v2.46H0V1.25Z"/>
      </g>
      <g>
        <g>
          <path class="cls-2" d="M10.93,13.35s.13,.67-.13,1.27c-.19,.46-.29,.66-.93,1.25l.48,.29s.63-.42,1.09-1.1c0,0,.69,.7,.93,1.1l.71-.63s-.88-.69-1.33-1.01c0,0,.28-.7,.2-1.16h-1.02Z"/>
          <path class="cls-2" d="M13.38,16.71v-3.73h.83v1.32h.81v.53h-.79v1.56s.03,.32-.31,.32h-.53Z"/>
          <path class="cls-2" d="M11.29,18.34v-1.68h.84v1.54h2.12v.54h-2.64s-.31-.02-.32-.35v-.06Z"/>
        </g>
        <g>
          <path class="cls-2" d="M43.5,16.71v-3.73h.83v1.32h.8v.53h-.79v1.56s.03,.32-.31,.32h-.53Z"/>
          <path class="cls-2" d="M41.04,13.35s.13,.67-.13,1.27c-.19,.46-.29,.66-.93,1.25l.48,.29s.63-.42,1.09-1.1c0,0,.69,.7,.93,1.1l.71-.63s-.87-.69-1.33-1.01c0,0,.28-.7,.2-1.16h-1.02Z"/>
          <path class="cls-2" d="M41.45,18.32v-1.68h.85v1.54h2.12v.54h-2.64s-.31-.02-.32-.35v-.06Z"/>
        </g>
        <g>
          <path class="cls-2" d="M20.54,13.35v.54h1.27s-.15,.94-1.49,1.75l.41,.36s.83-.53,1.18-.88c0,0,.56,.51,.82,.82l.71-.53s-.66-.49-1.11-.73c0,0,.5-.59,.52-1.33h-2.31Z"/>
          <path class="cls-2" d="M24.37,16.08h-.55v-1.36h-1v-.53h.99v-1.21h.84v2.82s.02,.28-.28,.28Z"/>
          <path class="cls-2" d="M23.09,16.22c-.81,0-1.47,.57-1.47,1.27s.66,1.27,1.47,1.27,1.47-.57,1.47-1.27-.66-1.27-1.47-1.27Zm0,2.03c-.35,0-.64-.33-.64-.73s.28-.74,.64-.74,.64,.33,.64,.74-.29,.73-.64,.73Z"/>
        </g>
        <g>
          <path class="cls-2" d="M63.96,12.97h.84v3.34s.04,.4-.31,.4h-.53v-3.73h0Z"/>
          <path class="cls-2" d="M61.85,18.32v-1.68h.85v1.54h2.11v.54h-2.64s-.31-.02-.32-.35v-.06Z"/>
          <path class="cls-2" d="M60.7,13.87v-.54h2.31s.08,.53-.52,1.33c0,0,.92,.68,1.16,.88l-.73,.5s-.51-.64-.82-.84c0,0-.26,.38-1.22,.96l-.41-.36s1.34-.94,1.51-1.94h-1.27Z"/>
        </g>
        <g>
          <path class="cls-2" d="M53.94,12.98v1.21h-.66c-.19-.51-.74-.88-1.4-.88-.81,0-1.47,.57-1.47,1.27s.66,1.27,1.47,1.27c.76,0,1.38-.5,1.46-1.13h.62v1.36h.57c.26,0,.26-.26,.26-.26v-2.84h-.84Zm-2.06,2.36c-.35,0-.64-.33-.64-.73s.29-.74,.64-.74,.64,.33,.64,.74-.28,.73-.64,.73Z"/>
          <path class="cls-2" d="M53.9,16.3v.73h-1.31v-.69h-.82v2.07c0,.26,.33,.3,.33,.3h2.61v-2.4h-.82Zm0,1.89h-1.3v-.63h1.3v.63Z"/>
        </g>
        <g>
          <path class="cls-2" d="M72.74,16.61c-.91,0-1.68,.49-1.68,1.1s.74,1.09,1.65,1.09,1.65-.49,1.65-1.09-.72-1.1-1.63-1.1Zm0,1.68c-.44,0-.79-.27-.79-.6s.36-.6,.79-.6,.79,.27,.79,.6-.36,.6-.79,.6Z"/>
          <path class="cls-2" d="M74.39,13.29h-1.3v-.44h-.87v.43h-1.31v.54h.6c-.18,.16-.29,.35-.29,.56,0,.52,.64,.95,1.43,.95s1.43-.42,1.43-.95c0-.21-.1-.41-.27-.56h.57v-.53Zm-1.71,1.6c-.38,0-.69-.23-.69-.52s.31-.52,.69-.52,.69,.23,.69,.52-.31,.52-.69,.52Z"/>
          <rect class="cls-2" x="70.08" y="15.7" width="5.17" height=".55"/>
        </g>
        <g>
          <path class="cls-2" d="M82.21,13.18c-.74,0-1.33,.45-1.33,1s.6,1,1.33,1,1.33-.45,1.33-1-.6-1-1.33-1Zm0,1.6c-.32,0-.58-.26-.58-.58s.26-.58,.58-.58,.58,.26,.58,.58-.26,.58-.58,.58Z"/>
          <path class="cls-2" d="M81.75,15.95h-1.22v-.53h1.85c.58,0,1.07-.03,1.47-.09v.45c-.34,.08-.77,.14-1.29,.16v.57c0,.12-.03,.2-.08,.24-.05,.05-.14,.07-.27,.07h-.45v-.87Z"/>
          <path class="cls-2" d="M81.92,18.34v-1.24h.85v1.1h2.12v.54h-2.64s-.31-.02-.32-.35v-.06Z"/>
          <path class="cls-2" d="M84.86,16.8v-3.81h-.82v3.11h-1.05v.52h1.05v.52h.56c.27,0,.26-.34,.26-.34Z"/>
        </g>
        <g>
          <path class="cls-2" d="M5,15.97v-.54H-.18v.54H1.99v.46H.8v.53H3.1v.37H.9v1.12c0,.31,.3,.31,.3,.31H3.98v-.53H1.74v-.41h1.89c.32,0,.29-.34,.29-.34v-1.05h-1.1v-.46h2.17Z"/>
          <path class="cls-2" d="M2.43,13.09c-.87,0-1.57,.49-1.57,1.09s.71,1.09,1.57,1.09,1.57-.49,1.57-1.09-.71-1.09-1.57-1.09Zm0,1.67c-.41,0-.75-.26-.75-.59s.34-.59,.75-.59,.75,.26,.75,.59-.34,.59-.75,.59Z"/>
        </g>
        <path class="cls-2" d="M32.93,16.71v-.85h1.18v-2.55h-.84v.84h-1.52v-.84h-.84v2.16s-.04,.39,.41,.39h.78v.84h-2.16v.54h5.15v-.54h-2.16Zm-1.18-1.38v-.64h1.53v.64h-1.53Z"/>
      </g>
    </g>
  </g>
</svg>