<svg width="936" height="652" viewBox="0 0 936 652" fill="none" xmlns="http://www.w3.org/2000/svg">
<path d="M773 627L788 618.34L788 635.66L773 627ZM861 628.5L786.5 628.5L786.5 625.5L861 625.5L861 628.5ZM875.5 611L875.5 404L878.5 404L878.5 611L875.5 611ZM861 625.5C869.008 625.5 875.5 619.008 875.5 611L878.5 611C878.5 620.665 870.665 628.5 861 628.5L861 625.5Z" fill="#005AAB"/>
<rect x="818" y="435" width="118" height="116" rx="16" fill="white"/>
<path d="M635 588L626.34 573L643.66 573L635 588ZM636.5 411L636.5 574.5L633.5 574.5L633.5 411L636.5 411Z" fill="#14A772"/>
<rect x="616" y="435" width="164" height="116" rx="16" fill="white"/>
<path d="M550 411L541.34 426L558.66 426L550 411ZM551.5 588L551.5 424.5L548.5 424.5L548.5 588L551.5 588Z" fill="#35BAE4"/>
<rect x="429" y="435" width="138" height="116" rx="16" fill="white"/>
<path d="M877 259L868.34 244L885.66 244L877 259ZM878.5 45L878.5 245.5L875.5 245.5L875.5 45L878.5 45ZM861 30.5L633 30.5L633 27.5L861 27.5L861 30.5ZM875.5 45C875.5 36.9919 869.008 30.5 861 30.5L861 27.5C870.665 27.5 878.5 35.335 878.5 45L875.5 45Z" fill="#005AAB"/>
<rect x="818" y="107" width="118" height="116" rx="16" fill="white"/>
<path d="M344 75L335.34 90L352.66 90L344 75ZM345.5 252L345.5 88.5L342.5 88.5L342.5 252L345.5 252Z" fill="#14A772"/>
<rect x="200" y="107" width="160" height="116" rx="16" fill="white"/>
<rect x="38" y="271" width="860" height="121" rx="16" fill="#EDF4FB"/>
<path d="M439.324 322.72H430.7V320.508H427.004V322.72H418.324V325.492H439.324V322.72ZM433.724 330.14C433.724 331.064 432.24 331.484 428.852 331.484C425.52 331.484 424.008 331.064 424.008 330.14C424.008 329.188 425.52 328.796 428.852 328.796C432.24 328.796 433.724 329.188 433.724 330.14ZM420.228 330.14C420.228 332.688 423.392 334.06 428.852 334.06C434.34 334.06 437.504 332.688 437.504 330.14C437.504 327.592 434.34 326.22 428.852 326.22C423.392 326.22 420.228 327.592 420.228 330.14ZM423.588 339.576H419.892V345.96H437.952V343.104H423.588V339.576ZM417.204 335.124V337.98H427.34V341.116H431.036V337.98H440.528V335.124H417.204ZM460.826 339.716H464.522V320.62H460.826V324.512H456.71V327.452H460.826V330.336H456.71V333.304H460.826V339.716ZM456.122 332.912C453.434 333.388 451.026 333.556 447.61 333.584V330.7H455.198V322.384H443.914V325.324H451.558V327.928H443.942V336.552H445.93C450.41 336.552 453.294 336.44 456.514 335.88L456.122 332.912ZM450.998 342.992V338.204H447.302V345.932H465.166V342.992H450.998ZM470.148 323.28V326.22H478.744C478.212 331.932 475.356 335.964 468.776 339.128L470.708 342.04C479.864 337.616 482.524 331.176 482.524 323.28H470.148ZM486.472 320.592V346.38H490.196V320.592H486.472ZM508.253 331.68C508.841 328.432 508.841 325.884 508.841 324.092V322.496H495.597V325.436H505.201C505.173 326.976 505.061 328.852 504.641 331.26L508.253 331.68ZM509.961 332.716C507.553 333.052 504.977 333.248 502.429 333.36V328.488H498.817V333.5C497.137 333.528 495.541 333.528 494.113 333.528L494.449 336.468C498.873 336.44 504.865 336.328 510.185 335.348L509.961 332.716ZM501.561 338.204H497.865V345.96H515.869V343.02H501.561V338.204ZM515.057 328.46V320.592H511.361V339.912H515.057V331.512H518.137V328.46H515.057Z" fill="#000B14"/>
<rect x="449" y="593" width="312" height="59" rx="16" fill="#F1F5F8"/>
<path d="M576.696 613.608H572.972V617.36C572.972 622.148 571.012 627.076 566.672 629.12L568.884 632.116C571.796 630.688 573.728 627.972 574.848 624.696C575.912 627.776 577.732 630.268 580.42 631.64L582.66 628.728C578.516 626.684 576.696 622.008 576.696 617.36V613.608ZM591.144 621.532H587.392V611.62H583.696V637.408H587.392V624.612H591.144V621.532ZM610.854 634.16H601.11V631.864H610.854V634.16ZM610.854 629.064H601.11V626.6H597.442V637.1H614.522V626.6H610.854V629.064ZM600.074 621.924C598.198 621.924 596.826 620.776 596.826 618.844C596.826 616.912 598.198 615.764 600.074 615.764C601.978 615.764 603.35 616.912 603.35 618.844C603.35 620.776 601.978 621.924 600.074 621.924ZM610.826 611.62V617.304H606.71C605.982 614.56 603.35 612.684 600.074 612.684C596.21 612.684 593.298 615.26 593.298 618.844C593.298 622.428 596.21 625.004 600.074 625.004C603.406 625.004 606.038 623.1 606.738 620.3H610.826V625.48H614.522V611.62H610.826ZM621.184 624.388C625.692 623.772 628.856 621.84 630.396 619.208C631.936 621.84 635.1 623.772 639.608 624.388L640.924 621.504C635.688 620.86 632.972 618.34 632.608 615.876H639.916V612.936H620.792V615.876H628.212C627.848 618.34 625.104 620.86 619.84 621.504L621.184 624.388ZM642.044 625.872H618.748V628.812H628.464V637.464H632.16V628.812H642.044V625.872Z" fill="black"/>
<rect x="312" width="312" height="59" rx="16" fill="#F1F5F8"/>
<path d="M381.408 21.336H375.64V18.592H371.916V21.336H366.204V24.22H381.38L381.408 21.336ZM370.992 30.1C370.992 28.7 372.14 27.944 373.792 27.944C375.416 27.944 376.592 28.7 376.592 30.1C376.592 31.528 375.416 32.284 373.792 32.284C372.14 32.284 370.992 31.528 370.992 30.1ZM380.12 30.1C380.12 27.188 377.488 25.144 373.792 25.144C370.096 25.144 367.464 27.188 367.464 30.1C367.464 33.068 370.096 35.084 373.792 35.084C377.488 35.084 380.12 33.068 380.12 30.1ZM373.568 36.484H369.872V43.96H387.428V41.02H373.568V36.484ZM386.504 26.488V18.62H382.808V37.912H386.504V29.54H389.92V26.488H386.504ZM415.314 31.556V28.616H412.066C412.57 25.872 412.57 23.716 412.57 21.784V19.712H394.846V22.68H408.93C408.93 24.388 408.846 26.264 408.37 28.616H391.962V31.556H401.762V35.196H394.314V38.108H408.902V44.408H412.626V35.196H405.458V31.556H415.314ZM433.148 30.856C428.976 29.512 427.24 26.264 427.24 22.988V20.188H423.488V22.96C423.488 26.488 421.668 29.932 417.328 31.332L419.288 34.216C422.228 33.236 424.272 31.22 425.42 28.644C426.54 30.968 428.444 32.816 431.244 33.74L433.148 30.856ZM425.112 35.7H421.416V43.96H438.916V41.02H425.112V35.7ZM438.02 26.096V18.62H434.324V37.492H438.02V29.148H441.436V26.096H438.02ZM461.369 41.16H451.625V38.864H461.369V41.16ZM461.369 36.064H451.625V33.6H447.957V44.1H465.037V33.6H461.369V36.064ZM450.589 28.924C448.713 28.924 447.341 27.776 447.341 25.844C447.341 23.912 448.713 22.764 450.589 22.764C452.493 22.764 453.865 23.912 453.865 25.844C453.865 27.776 452.493 28.924 450.589 28.924ZM461.341 18.62V24.304H457.225C456.497 21.56 453.865 19.684 450.589 19.684C446.725 19.684 443.813 22.26 443.813 25.844C443.813 29.428 446.725 32.004 450.589 32.004C453.921 32.004 456.553 30.1 457.253 27.3H461.341V32.48H465.037V18.62H461.341ZM490.655 18.648H486.931V37.156H490.655V18.648ZM473.211 26.824C473.211 24.696 474.723 23.464 476.627 23.464C478.559 23.464 480.015 24.696 480.015 26.824C480.015 28.896 478.559 30.156 476.627 30.156C474.723 30.156 473.211 28.896 473.211 26.824ZM483.627 26.824C483.627 23.016 480.575 20.272 476.627 20.272C472.679 20.272 469.599 23.016 469.599 26.824C469.599 30.576 472.679 33.348 476.627 33.348C480.575 33.348 483.627 30.576 483.627 26.824ZM477.187 41.02V35.336H473.491V43.96H491.299V41.02H477.187ZM508.153 30.296C505.605 30.772 503.337 30.884 499.641 30.912V28.224H507.229V20.076H495.945V23.044H503.589V25.48H495.973V33.88H497.961C502.861 33.88 505.521 33.796 508.517 33.236L508.153 30.296ZM498.913 38.612H512.857V44.436H516.553V35.672H498.913V38.612ZM512.857 18.648V22.176H508.713V25.144H512.857V27.692H508.713V30.632H512.857V34.524H516.553V18.62L512.857 18.648ZM540.547 28.784C541.275 26.124 541.275 23.94 541.275 21.896V19.768H523.411V22.68H537.579C537.579 24.388 537.495 26.124 536.907 28.42L540.547 28.784ZM532.259 41.636C528.787 41.636 526.799 40.936 526.799 39.564C526.799 38.164 528.787 37.464 532.259 37.464C535.759 37.464 537.747 38.164 537.747 39.564C537.747 40.936 535.759 41.636 532.259 41.636ZM532.259 34.692C526.715 34.692 523.131 36.54 523.131 39.564C523.131 42.56 526.715 44.408 532.259 44.408C537.831 44.408 541.415 42.56 541.415 39.564C541.415 36.54 537.831 34.692 532.259 34.692ZM533.099 30.156V25.648H529.403V30.156H520.807V33.068H544.019V30.156H533.099ZM561.097 29.316C558.297 29.904 555.749 30.072 551.157 30.1V23.604H559.025V20.664H547.489V33.068H549.645C555.357 33.068 558.297 32.928 561.461 32.228L561.097 29.316ZM553.873 35.308H550.177V43.96H567.733V41.02H553.873V35.308ZM566.809 25.648V18.62H563.113V37.268H566.809V28.672H570.225V25.648H566.809Z" fill="black"/>
<path d="M878 144.064C884.12 144.064 889.184 139.096 889.184 132.88C889.184 126.712 884.168 121.696 878 121.696C871.832 121.696 866.816 126.712 866.816 132.88C866.816 139.048 871.832 144.064 878 144.064ZM878 143.296C872.24 143.296 867.584 138.64 867.584 132.88C867.584 127.168 872.192 122.464 878 122.464C883.76 122.464 888.416 127.12 888.416 132.88C888.416 138.64 883.76 143.296 878 143.296ZM873.848 138.952H882.68V137.272H879.152C878.312 137.272 877.424 137.32 876.704 137.368C879.752 134.584 882.104 132.256 882.104 129.952C882.104 127.72 880.496 126.232 877.928 126.232C876.248 126.232 874.88 126.904 873.68 128.176L874.808 129.232C875.576 128.488 876.56 127.816 877.736 127.816C879.392 127.816 880.184 128.704 880.184 130.096C880.184 132.064 877.88 134.272 873.848 137.8V138.952Z" fill="#005AAB"/>
<path d="M852.928 157.24H845.344V155.008H843.376V157.24H835.624V158.776H852.928V157.24ZM849.304 162.976C849.304 164.152 847.528 164.8 844.36 164.8C841.168 164.8 839.392 164.152 839.392 162.976C839.392 161.8 841.168 161.152 844.36 161.152C847.528 161.152 849.304 161.8 849.304 162.976ZM837.4 162.976C837.4 165.112 839.944 166.264 844.36 166.264C848.728 166.264 851.296 165.112 851.296 162.976C851.296 160.864 848.728 159.712 844.36 159.712C839.944 159.712 837.4 160.864 837.4 162.976ZM839.032 170.944H837.064V176.296H851.944V174.736H839.032V170.944ZM834.592 167.584V169.144H843.52V172.384H845.488V169.144H854.056V167.584H834.592ZM872.438 171.088H874.43V155.272H872.438V158.896H868.262V160.48H872.438V163.696H868.262V165.304H872.438V171.088ZM868.094 166.048C865.526 166.504 863.366 166.6 859.526 166.6V163.072H866.822V156.784H857.534V158.368H864.854V161.536H857.582V168.208H859.142C863.294 168.208 865.55 168.136 868.286 167.656L868.094 166.048ZM862.454 174.616V169.936H860.486V176.2H875.078V174.616H862.454ZM890.004 167.32C890.604 163.312 890.604 160.504 890.604 158.776V157.6H879.732V159.208H888.684C888.684 160.936 888.636 163.552 888.036 167.128L890.004 167.32ZM885.06 163.744H883.116V170.368C881.508 170.416 879.924 170.44 878.556 170.44L878.772 172.072C882.588 172.072 887.652 171.976 892.116 171.256L891.996 169.816C889.812 170.08 887.412 170.224 885.06 170.32V163.744ZM898.716 164.248H895.284V155.248H893.316V176.776H895.284V165.904H898.716V164.248ZM912.346 160.84V162.448H916.594V168.088H918.586V155.272H916.594V160.84H912.346ZM913.546 165.736C910.426 164.632 908.314 161.92 908.314 159.16V158.416H913.042V156.832H901.546V158.416H906.346V159.16C906.346 162.256 904.138 165.16 900.922 166.336L901.954 167.896C904.474 166.936 906.466 164.92 907.378 162.424C908.314 164.632 910.162 166.408 912.562 167.272L913.546 165.736ZM911.482 175.24C908.242 175.24 906.274 174.328 906.274 172.768C906.274 171.208 908.242 170.272 911.482 170.272C914.722 170.272 916.69 171.208 916.69 172.768C916.69 174.328 914.722 175.24 911.482 175.24ZM911.482 168.76C907.066 168.76 904.306 170.224 904.306 172.768C904.306 175.312 907.066 176.776 911.482 176.776C915.898 176.776 918.658 175.312 918.658 172.768C918.658 170.224 915.898 168.76 911.482 168.76ZM874.358 190.272H872.39V205.992H874.358V190.272ZM859.118 197.04C859.118 194.952 860.702 193.464 862.79 193.464C864.926 193.464 866.51 194.952 866.51 197.04C866.51 199.176 864.926 200.664 862.79 200.664C860.702 200.664 859.118 199.176 859.118 197.04ZM868.43 197.04C868.43 193.944 866.006 191.76 862.79 191.76C859.598 191.76 857.198 193.944 857.198 197.04C857.198 200.16 859.598 202.368 862.79 202.368C866.006 202.368 868.43 200.16 868.43 197.04ZM862.478 209.688V204.384H860.51V211.296H875.006V209.688H862.478ZM890.268 195.84V197.448H894.516V203.088H896.508V190.272H894.516V195.84H890.268ZM891.468 200.736C888.348 199.632 886.236 196.92 886.236 194.16V193.416H890.964V191.832H879.468V193.416H884.268V194.16C884.268 197.256 882.06 200.16 878.844 201.336L879.876 202.896C882.396 201.936 884.388 199.92 885.3 197.424C886.236 199.632 888.084 201.408 890.484 202.272L891.468 200.736ZM889.404 210.24C886.164 210.24 884.196 209.328 884.196 207.768C884.196 206.208 886.164 205.272 889.404 205.272C892.644 205.272 894.612 206.208 894.612 207.768C894.612 209.328 892.644 210.24 889.404 210.24ZM889.404 203.76C884.988 203.76 882.228 205.224 882.228 207.768C882.228 210.312 884.988 211.776 889.404 211.776C893.82 211.776 896.58 210.312 896.58 207.768C896.58 205.224 893.82 203.76 889.404 203.76Z" fill="#005AAB"/>
<path d="M877 467.064C883.12 467.064 888.184 462.096 888.184 455.88C888.184 449.712 883.168 444.696 877 444.696C870.832 444.696 865.816 449.712 865.816 455.88C865.816 462.048 870.832 467.064 877 467.064ZM877 466.296C871.24 466.296 866.584 461.64 866.584 455.88C866.584 450.168 871.192 445.464 877 445.464C882.76 445.464 887.416 450.12 887.416 455.88C887.416 461.64 882.76 466.296 877 466.296ZM876.88 462.24C879.448 462.24 881.512 460.872 881.512 458.64C881.512 456.936 880.216 455.88 878.584 455.472V455.4C880.024 454.872 881.032 453.96 881.032 452.52C881.032 450.408 879.28 449.232 876.808 449.232C875.176 449.232 873.856 449.856 872.8 450.816L873.832 452.04C874.648 451.248 875.656 450.792 876.76 450.792C878.176 450.792 879.04 451.488 879.04 452.64C879.04 453.888 878.032 454.776 875.176 454.776V456.24C878.44 456.24 879.496 457.152 879.496 458.544C879.496 459.816 878.392 460.656 876.832 460.656C875.176 460.656 874.096 459.984 873.256 459.192L872.296 460.464C873.208 461.448 874.744 462.24 876.88 462.24Z" fill="#005AAB"/>
<path d="M840.672 482.888C842.76 482.888 844.248 484.016 844.248 485.696C844.248 487.376 842.76 488.504 840.672 488.504C838.56 488.504 837.072 487.376 837.072 485.696C837.072 484.016 838.56 482.888 840.672 482.888ZM840.672 490.112C843.864 490.112 846.144 488.312 846.144 485.696C846.144 483.056 843.864 481.256 840.672 481.256C837.456 481.256 835.176 483.056 835.176 485.696C835.176 488.312 837.456 490.112 840.672 490.112ZM847.752 491.168C843.024 491.888 837.576 491.936 833.568 491.936L833.832 493.592C835.608 493.592 837.648 493.568 839.784 493.472V501.104H841.752V493.352C843.792 493.232 845.88 492.992 847.92 492.632L847.752 491.168ZM849.312 480.272V501.8H851.28V480.272H849.312ZM867.91 489.944C865.126 490.448 862.774 490.544 858.646 490.544V487.64H866.134V486.08H858.646V483.296H866.518V481.712H856.678V492.128H858.31C862.726 492.128 865.198 492.032 868.126 491.504L867.91 489.944ZM858.406 495.968H870.43V501.8H872.398V494.384H858.406V495.968ZM875.59 485.96H872.398V480.248H870.43V493.28H872.398V487.592H875.59V485.96ZM889.868 486.248H886.676C886.868 485.168 886.964 484.088 886.964 482.984H878.708V484.592H885.02C884.684 489.104 882.38 492.968 877.748 495.728L878.9 497.12C882.98 494.696 885.308 491.456 886.316 487.832H889.868V491.624H885.98V493.232H889.868V500.672H891.74V480.824H889.868V486.248ZM894.188 480.248V501.752H896.06V480.248H894.188ZM902.178 486.632C902.178 484.592 903.714 483.2 905.874 483.2C908.01 483.2 909.57 484.592 909.57 486.632C909.57 488.648 908.01 490.064 905.874 490.064C903.714 490.064 902.178 488.648 902.178 486.632ZM911.49 486.632C911.49 483.608 909.114 481.544 905.874 481.544C902.61 481.544 900.258 483.608 900.258 486.632C900.258 489.632 902.61 491.72 905.874 491.72C909.114 491.72 911.49 489.632 911.49 486.632ZM902.562 495.656H914.586V501.776H916.554V494.048H902.562V495.656ZM919.674 485.168V483.536H916.554V480.272H914.586V493.04H916.554V489.752H919.674V488.144H916.554V485.168H919.674ZM861.958 520.84H865.942V519.208H861.982V516.016H860.086V519.208H856.102V520.84H860.086V521.872C860.086 525.4 858.43 529.168 855.526 530.896L856.678 532.36C858.79 531.088 860.302 528.688 861.046 525.952C861.838 528.544 863.374 530.728 865.462 531.904L866.59 530.416C863.686 528.856 861.958 525.304 861.958 521.872V520.84ZM867.766 523.744H864.478V525.376H867.766V535.648H869.638V515.752H867.766V523.744ZM872.086 515.248V536.752H873.982V515.248H872.086ZM893.516 519.904V522.472H887.9V524.008H893.516V526.24H895.508V515.248H893.516V518.368H888.644C888.788 517.696 888.86 517.024 888.86 516.304H879.236V517.912H886.724C886.364 521.32 883.364 523.888 878.108 525.112L878.828 526.72C883.58 525.592 886.868 523.288 888.212 519.904H893.516ZM883.628 535V532.504H895.508V527.224H881.636V528.808H893.54V531.016H881.684V536.56H896.228V535H883.628Z" fill="#005AAB"/>
<path d="M229.424 165.76C226.256 164.704 224.024 162.088 224.024 159.208V158.344H228.896V156.76H217.088V158.344H222.008V159.208C222.008 162.232 219.824 165.04 216.56 166.192L217.592 167.728C220.136 166.792 222.128 164.872 223.04 162.424C224.024 164.68 225.992 166.456 228.464 167.32L229.424 165.76ZM219.536 170.992H231.968V176.776H233.936V169.408H219.536V170.992ZM231.968 155.248V168.28H233.936V155.248H231.968ZM254.118 174.904H244.254V172.12H254.118V174.904ZM254.118 170.584H244.254V167.848H242.31V176.488H256.086V167.848H254.118V170.584ZM244.23 164.584C242.094 164.584 240.558 163.192 240.558 161.224C240.558 159.256 242.094 157.888 244.23 157.888C246.366 157.888 247.902 159.256 247.902 161.224C247.902 163.192 246.366 164.584 244.23 164.584ZM254.094 155.272V160.384H249.702C249.294 157.888 247.134 156.256 244.23 156.256C241.014 156.256 238.686 158.272 238.686 161.224C238.686 164.2 241.014 166.216 244.23 166.216C247.182 166.216 249.342 164.536 249.726 161.992H254.094V166.816H256.086V155.272H254.094ZM277.684 161.248H265.036V155.704H263.068V162.832H277.684V161.248ZM270.148 175.168C266.764 175.168 264.772 174.28 264.772 172.792C264.772 171.256 266.764 170.392 270.148 170.392C273.532 170.392 275.524 171.256 275.524 172.792C275.524 174.28 273.508 175.168 270.148 175.168ZM270.148 168.856C265.564 168.856 262.78 170.272 262.78 172.792C262.78 175.288 265.564 176.704 270.148 176.704C274.732 176.704 277.516 175.288 277.516 172.792C277.516 170.272 274.732 168.856 270.148 168.856ZM260.452 165.328V166.936H279.916V165.328H260.452ZM293.882 165.4C291.386 165.808 289.322 165.904 285.338 165.904V162.64H292.634V156.544H283.346V158.152H290.714V161.128H283.418V167.512H284.954C289.25 167.512 291.434 167.44 294.074 166.984L293.882 165.4ZM285.818 171.256H298.25V176.8H300.242V169.648H285.818V171.256ZM298.25 155.272V158.44H294.05V160.048H298.25V162.928H294.05V164.512H298.25V168.496H300.242V155.272H298.25ZM305.401 158.032V159.64H311.857C311.569 164.104 309.529 167.992 304.585 170.752L305.737 172.168C311.857 168.712 313.801 163.576 313.801 158.032H305.401ZM320.953 155.248V163.912H318.025V155.824H316.177V175.696H318.025V165.52H320.953V176.776H322.849V155.248H320.953ZM335.591 163.96H329.495V160.744H335.591V163.96ZM337.511 156.136H335.591V159.232H329.495V156.136H327.551V165.544H337.511V156.136ZM331.679 172.624H343.367V167.392H329.687V168.952H341.423V171.16H329.759V176.536H344.159V174.976H331.679V172.624ZM343.367 159.88V155.272H341.399V166.384H343.367V161.512H346.559V159.88H343.367ZM234.584 192.24H227V190.008H225.032V192.24H217.28V193.776H234.584V192.24ZM230.96 197.976C230.96 199.152 229.184 199.8 226.016 199.8C222.824 199.8 221.048 199.152 221.048 197.976C221.048 196.8 222.824 196.152 226.016 196.152C229.184 196.152 230.96 196.8 230.96 197.976ZM219.056 197.976C219.056 200.112 221.6 201.264 226.016 201.264C230.384 201.264 232.952 200.112 232.952 197.976C232.952 195.864 230.384 194.712 226.016 194.712C221.6 194.712 219.056 195.864 219.056 197.976ZM220.688 205.944H218.72V211.296H233.6V209.736H220.688V205.944ZM216.248 202.584V204.144H225.176V207.384H227.144V204.144H235.712V202.584H216.248ZM254.094 206.088H256.086V190.272H254.094V193.896H249.918V195.48H254.094V198.696H249.918V200.304H254.094V206.088ZM249.75 201.048C247.182 201.504 245.022 201.6 241.182 201.6V198.072H248.478V191.784H239.19V193.368H246.51V196.536H239.238V203.208H240.798C244.95 203.208 247.206 203.136 249.942 202.656L249.75 201.048ZM244.11 209.616V204.936H242.142V211.2H256.734V209.616H244.11ZM276.076 190.248V211.8H278.044V190.248H276.076ZM261.652 192.072V206.592H271.78V192.072H269.836V197.76H263.596V192.072H261.652ZM263.596 199.32H269.836V204.984H263.596V199.32ZM292.226 210.24C288.842 210.24 286.85 209.4 286.85 207.936C286.85 206.472 288.842 205.632 292.226 205.632C295.586 205.632 297.602 206.472 297.602 207.936C297.602 209.4 295.586 210.24 292.226 210.24ZM292.226 204.096C287.618 204.096 284.858 205.464 284.858 207.936C284.858 210.408 287.618 211.752 292.226 211.752C296.858 211.752 299.594 210.408 299.594 207.936C299.594 205.464 296.858 204.096 292.226 204.096ZM289.25 198.384C290.138 198.528 291.146 198.624 292.226 198.624C293.33 198.624 294.338 198.528 295.226 198.384V200.904H289.25V198.384ZM286.682 194.64C286.682 193.08 288.794 192.168 292.226 192.168C295.658 192.168 297.77 193.08 297.77 194.64C297.77 196.176 295.658 197.112 292.226 197.112C288.794 197.112 286.682 196.176 286.682 194.64ZM297.17 200.904V197.856C298.826 197.184 299.786 196.08 299.786 194.64C299.786 192.12 296.906 190.632 292.226 190.632C287.57 190.632 284.666 192.12 284.666 194.64C284.666 196.104 285.602 197.184 287.306 197.88V200.904H282.482V202.488H301.97V200.904H297.17ZM322.249 190.248H320.281V206.04H322.249V190.248ZM317.545 200.976C314.353 199.8 312.169 196.872 312.169 193.632V191.448H310.201V193.632C310.201 196.992 308.041 200.112 304.801 201.36L305.833 202.968C308.353 201.912 310.297 199.824 311.209 197.208C312.169 199.656 314.065 201.6 316.513 202.536L317.545 200.976ZM310.368 209.688V204.576H308.401V211.296H322.897V209.688H310.368ZM338.111 196.368V198H342.407V203.304H344.399V190.248H342.407V196.368H338.111ZM339.407 200.856C336.239 199.92 334.007 197.52 334.007 194.832V194.424H338.759V192.84H334.007V190.128H332.039V192.84H327.263V194.424H332.039V194.832C332.039 197.736 329.879 200.352 326.711 201.432L327.671 202.944C330.215 202.104 332.159 200.28 333.071 197.928C334.055 200.016 335.999 201.624 338.471 202.392L339.407 200.856ZM337.271 210.216C334.031 210.216 332.087 209.304 332.087 207.792C332.087 206.304 334.031 205.392 337.271 205.392C340.559 205.392 342.503 206.304 342.503 207.792C342.503 209.304 340.535 210.216 337.271 210.216ZM337.271 203.856C332.855 203.856 330.119 205.296 330.119 207.792C330.119 210.312 332.855 211.752 337.271 211.752C341.735 211.752 344.471 210.312 344.471 207.792C344.471 205.296 341.735 203.856 337.271 203.856Z" fill="#14A772"/>
<path d="M336 144.064C342.12 144.064 347.184 139.096 347.184 132.88C347.184 126.712 342.168 121.696 336 121.696C329.832 121.696 324.816 126.712 324.816 132.88C324.816 139.048 329.832 144.064 336 144.064ZM336 143.296C330.24 143.296 325.584 138.64 325.584 132.88C325.584 127.168 330.192 122.464 336 122.464C341.76 122.464 346.416 127.12 346.416 132.88C346.416 138.64 341.76 143.296 336 143.296ZM334.272 138.952H336.312C336.552 134.104 337.176 131.416 340.392 127.72V126.52H331.656V128.2H338.136C335.472 131.56 334.536 134.416 334.272 138.952Z" fill="#14A772"/>
<path d="M212 411L203.34 426L220.66 426L212 411ZM213.5 588L213.5 424.5L210.5 424.5L210.5 588L213.5 588Z" fill="#35BAE4"/>
<rect x="196" y="435" width="118" height="94" rx="16" fill="white"/>
<path d="M67 588L58.3397 573L75.6602 573L67 588ZM68.5 411L68.5 574.5L65.5 574.5L65.5 411L68.5 411Z" fill="#005AAB"/>
<rect y="435" width="132" height="116" rx="16" fill="white"/>
<rect x="2" y="593" width="312" height="59" rx="16" fill="#F1F5F8"/>
<path d="M77.84 628.224H74.144V636.96H92.54V634.02H77.84V628.224ZM91.252 623.044C91.84 619.908 91.84 617.472 91.84 615.288V613.048H74.088V615.988H88.2C88.2 618.004 88.116 620.188 87.556 623.044H71.204V625.984H94.556V623.044H91.252ZM110.458 631.556V627.72H118.27V624.752H103.318V621.868H117.682V613.272H99.6218V616.212H114.042V618.984H99.6498V627.72H106.762V631.556H96.9618V634.58H120.314V631.556H110.458ZM132.184 617.136H137.308V614.084H123.14V617.136H128.488V618.564C128.488 622.82 126.388 627.664 122.16 629.624L124.232 632.564C127.172 631.164 129.244 628.336 130.392 624.976C131.54 628.028 133.556 630.604 136.412 631.92L138.456 629.008C134.228 627.048 132.184 622.484 132.184 618.564V617.136ZM146.66 621.448H142.908V611.62H139.212V637.408H142.908V624.5H146.66V621.448ZM153.825 640.656L156.401 639.564C154.049 635.476 152.985 630.772 152.985 626.152C152.985 621.588 154.049 616.856 156.401 612.768L153.825 611.676C151.193 615.988 149.653 620.58 149.653 626.152C149.653 631.78 151.193 636.316 153.825 640.656ZM181.543 620.776C175.691 619.964 172.723 616.604 172.723 613.608V612.376H168.775V613.608C168.775 616.632 165.835 619.964 159.955 620.776L161.355 623.744C165.863 623.072 169.111 620.972 170.763 618.2C172.415 620.972 175.635 623.072 180.143 623.744L181.543 620.776ZM182.383 625.648H159.087V628.644H168.803V637.436H172.499V628.644H182.383V625.648ZM202.681 630.716H206.377V611.62H202.681V615.512H198.565V618.452H202.681V621.336H198.565V624.304H202.681V630.716ZM197.977 623.912C195.289 624.388 192.881 624.556 189.465 624.584V621.7H197.053V613.384H185.769V616.324H193.413V618.928H185.797V627.552H187.785C192.265 627.552 195.149 627.44 198.369 626.88L197.977 623.912ZM192.853 633.992V629.204H189.157V636.932H207.021V633.992H192.853ZM227.039 620.86H229.055V627.384H232.555V611.62H229.055V617.892H227.039V612.096H223.595V626.572H227.039V620.86ZM223.567 623.072C220.179 621.7 218.779 618.928 218.779 616.156V613.16H215.223V616.156C215.223 619.068 213.823 622.26 210.211 623.828L212.171 626.684C214.551 625.676 216.147 623.828 217.071 621.644C217.995 623.492 219.479 625.032 221.607 625.872L223.567 623.072ZM223.819 634.636C220.459 634.636 218.611 633.964 218.611 632.592C218.611 631.22 220.459 630.548 223.819 630.548C227.123 630.548 228.971 631.22 228.971 632.592C228.971 633.964 227.123 634.636 223.819 634.636ZM223.819 627.776C218.387 627.776 214.915 629.596 214.915 632.592C214.915 635.616 218.387 637.408 223.819 637.408C229.223 637.408 232.667 635.616 232.667 632.592C232.667 629.596 229.223 627.776 223.819 627.776ZM239.133 640.656C241.793 636.316 243.333 631.78 243.333 626.152C243.333 620.58 241.793 615.988 239.133 611.676L236.585 612.768C238.937 616.856 240.001 621.588 240.001 626.152C240.001 630.772 238.937 635.476 236.585 639.564L239.133 640.656Z" fill="black"/>
<path d="M41.9278 482.24H34.3438V480.008H32.3758V482.24H24.6238V483.776H41.9278V482.24ZM38.3038 487.976C38.3038 489.152 36.5278 489.8 33.3598 489.8C30.1678 489.8 28.3918 489.152 28.3918 487.976C28.3918 486.8 30.1678 486.152 33.3598 486.152C36.5278 486.152 38.3038 486.8 38.3038 487.976ZM26.3998 487.976C26.3998 490.112 28.9438 491.264 33.3598 491.264C37.7278 491.264 40.2958 490.112 40.2958 487.976C40.2958 485.864 37.7278 484.712 33.3598 484.712C28.9438 484.712 26.3998 485.864 26.3998 487.976ZM28.0318 495.944H26.0638V501.296H40.9438V499.736H28.0318V495.944ZM23.5918 492.584V494.144H32.5198V497.384H34.4878V494.144H43.0558V492.584H23.5918ZM61.4379 496.088H63.4299V480.272H61.4379V483.896H57.2619V485.48H61.4379V488.696H57.2619V490.304H61.4379V496.088ZM57.0939 491.048C54.5259 491.504 52.3659 491.6 48.5259 491.6V488.072H55.8219V481.784H46.5339V483.368H53.8539V486.536H46.5819V493.208H48.1419C52.2939 493.208 54.5499 493.136 57.2859 492.656L57.0939 491.048ZM51.4539 499.616V494.936H49.4859V501.2H64.0779V499.616H51.4539ZM85.412 480.272H83.444V491.408H85.412V480.272ZM80.804 489.248C77.612 488.192 75.356 485.504 75.356 482.528V480.896H73.388V482.528C73.388 485.648 71.156 488.528 67.916 489.656L68.924 491.192C71.468 490.28 73.46 488.312 74.396 485.84C75.38 488.12 77.348 489.92 79.82 490.784L80.804 489.248ZM73.484 499.976V497.672H85.436V492.488H71.492V494.024H83.492V496.184H71.54V501.536H86.156V499.976H73.484ZM97.4821 482.12H95.5381V485.984C95.5381 490.064 92.9221 494.192 89.7541 495.704L90.9541 497.312C93.4741 496.016 95.5381 493.328 96.5221 490.088C97.5541 493.16 99.6181 495.704 102.066 496.904L103.242 495.32C100.05 493.88 97.4821 489.92 97.4821 485.984V482.12ZM105.498 480.248V501.824H107.466V480.248H105.498ZM31.1047 523.456C27.1927 522.88 23.3527 520.216 23.3527 517.216V516.016H21.2887V517.216C21.2887 520.288 17.4967 522.88 13.5847 523.456L14.3767 525.04C17.7367 524.464 20.9767 522.616 22.3207 520C23.7127 522.592 26.9527 524.464 30.2887 525.04L31.1047 523.456ZM32.0407 527.368H12.6007V529H21.2887V536.8H23.2567V529H32.0647L32.0407 527.368ZM42.0468 528.424H46.9668V532.504H42.0468V528.424ZM48.9108 532.504V528.424H52.2708V526.816H39.0228V523.36H51.7668V516.832H37.0308V518.44H49.8468V521.776H37.0788V528.424H40.1028V532.504H34.6308V534.112H54.1908V532.504H48.9108ZM58.5329 524.176C62.0609 523.744 65.2769 522.184 66.4769 519.832C67.6529 522.184 70.8929 523.744 74.4209 524.176L75.1169 522.616C71.3009 522.208 67.8449 520.336 67.7489 517.936H74.4449V516.352H58.5329V517.936H65.2049C65.1089 520.336 61.6529 522.208 57.8369 522.616L58.5329 524.176ZM66.4529 535.192C63.0689 535.192 61.0769 534.352 61.0769 532.84C61.0769 531.352 63.0689 530.488 66.4529 530.488C69.8129 530.488 71.8289 531.352 71.8289 532.84C71.8289 534.352 69.8129 535.192 66.4529 535.192ZM66.4529 528.952C61.8449 528.952 59.0849 530.344 59.0849 532.84C59.0849 535.36 61.8449 536.752 66.4529 536.752C71.0369 536.752 73.8209 535.36 73.8209 532.84C73.8209 530.344 71.0369 528.952 66.4529 528.952ZM56.7329 525.496V527.08H76.1969V525.496H56.7329ZM87.7391 523.96H81.6431V520.744H87.7391V523.96ZM89.6591 516.136H87.7391V519.232H81.6431V516.136H79.6991V525.544H89.6591V516.136ZM83.8271 532.624H95.5151V527.392H81.8351V528.952H93.5711V531.16H81.9071V536.536H96.3071V534.976H83.8271V532.624ZM95.5151 519.88V515.272H93.5471V526.384H95.5151V521.512H98.7071V519.88H95.5151ZM115.937 534.904H105.353V531.952H115.937V534.904ZM115.937 530.416H105.353V527.584H103.409V536.488H117.881V527.584H115.937V530.416ZM117.329 524.032C117.905 521.368 117.905 519.448 117.905 517.792V516.232H103.361V517.84H115.961C115.961 519.472 115.961 521.392 115.361 524.032H100.865V525.64H120.425V524.032H117.329Z" fill="#005AAB"/>
<path d="M67.048 460.704C65.344 460.704 64.288 459.624 64.024 457.296C64.96 456.168 66.016 455.76 66.856 455.76C68.512 455.76 69.376 456.72 69.376 458.232C69.376 459.696 68.32 460.704 67.048 460.704ZM70.96 450.6C70.168 449.832 69.064 449.232 67.504 449.232C64.672 449.232 62.104 451.248 62.104 456.168C62.104 460.296 64.24 462.24 67.024 462.24C69.328 462.24 71.248 460.656 71.248 458.184C71.248 455.592 69.664 454.296 67.312 454.296C66.112 454.296 64.84 454.896 63.976 455.832C64.072 452.112 65.656 450.864 67.552 450.864C68.44 450.864 69.328 451.248 69.88 451.824L70.96 450.6ZM67 466.296C61.24 466.296 56.584 461.64 56.584 455.88C56.584 450.168 61.192 445.464 67 445.464C72.76 445.464 77.416 450.12 77.416 455.88C77.416 461.64 72.76 466.296 67 466.296ZM67 444.696C60.832 444.696 55.816 449.712 55.816 455.88C55.816 462.048 60.832 467.064 67 467.064C73.12 467.064 78.184 462.096 78.184 455.88C78.184 449.712 73.168 444.696 67 444.696Z" fill="#005AAB"/>
<path d="M219 467.064C225.12 467.064 230.184 462.096 230.184 455.88C230.184 449.712 225.168 444.696 219 444.696C212.832 444.696 207.816 449.712 207.816 455.88C207.816 462.048 212.832 467.064 219 467.064ZM219 466.296C213.24 466.296 208.584 461.64 208.584 455.88C208.584 450.168 213.192 445.464 219 445.464C224.76 445.464 229.416 450.12 229.416 455.88C229.416 461.64 224.76 466.296 219 466.296ZM218.952 462.24C221.376 462.24 223.656 460.68 223.656 457.968C223.656 455.304 221.736 454.056 219.384 454.056C218.616 454.056 217.944 454.296 217.344 454.56L217.656 451.2H222.984V449.52H215.976L215.544 455.64L216.552 456.264C217.344 455.76 217.944 455.448 218.904 455.448C220.536 455.448 221.664 456.456 221.664 458.016C221.664 459.624 220.44 460.656 218.856 460.656C217.224 460.656 216.192 459.936 215.4 459.24L214.464 460.536C215.424 461.424 216.768 462.24 218.952 462.24Z" fill="#35BAE4"/>
<path d="M226.584 482.24H219V480.008H217.032V482.24H209.28V483.776H226.584V482.24ZM222.96 487.976C222.96 489.152 221.184 489.8 218.016 489.8C214.824 489.8 213.048 489.152 213.048 487.976C213.048 486.8 214.824 486.152 218.016 486.152C221.184 486.152 222.96 486.8 222.96 487.976ZM211.056 487.976C211.056 490.112 213.6 491.264 218.016 491.264C222.384 491.264 224.952 490.112 224.952 487.976C224.952 485.864 222.384 484.712 218.016 484.712C213.6 484.712 211.056 485.864 211.056 487.976ZM212.688 495.944H210.72V501.296H225.6V499.736H212.688V495.944ZM208.248 492.584V494.144H217.176V497.384H219.144V494.144H227.712V492.584H208.248ZM246.094 496.088H248.086V480.272H246.094V483.896H241.918V485.48H246.094V488.696H241.918V490.304H246.094V496.088ZM241.75 491.048C239.182 491.504 237.022 491.6 233.182 491.6V488.072H240.478V481.784H231.19V483.368H238.51V486.536H231.238V493.208H232.798C236.95 493.208 239.206 493.136 241.942 492.656L241.75 491.048ZM236.11 499.616V494.936H234.142V501.2H248.734V499.616H236.11ZM270.956 488.456C267.044 487.88 263.204 485.216 263.204 482.216V481.016H261.14V482.216C261.14 485.288 257.348 487.88 253.436 488.456L254.228 490.04C257.588 489.464 260.828 487.616 262.172 485C263.564 487.592 266.804 489.464 270.14 490.04L270.956 488.456ZM271.892 492.368H252.452V494H261.14V501.8H263.108V494H271.916L271.892 492.368ZM275.466 481.856V483.44H283.266C282.906 487.16 279.666 490.088 274.554 491.6L275.346 493.184C281.586 491.336 285.402 487.328 285.402 481.856H275.466ZM284.466 500.192C281.37 500.192 279.402 499.208 279.402 497.576C279.402 495.92 281.37 494.936 284.466 494.936C287.562 494.936 289.53 495.92 289.53 497.576C289.53 499.208 287.562 500.192 284.466 500.192ZM284.466 493.4C280.218 493.4 277.458 494.96 277.458 497.576C277.458 500.168 280.218 501.752 284.466 501.752C288.714 501.752 291.474 500.168 291.474 497.576C291.474 494.96 288.714 493.4 284.466 493.4ZM291.21 485.816V480.248H289.242V493.112H291.21V487.448H294.402V485.816H291.21Z" fill="#35BAE4"/>
<path d="M300 29L285 20.3397L285 37.6603L300 29ZM58.5 45L58.5 259L61.5 259L61.5 45L58.5 45ZM76 30.5L286.5 30.5L286.5 27.5L76 27.5L76 30.5ZM61.5 45C61.5 36.9919 67.9919 30.5 76 30.5L76 27.5C66.335 27.5 58.5 35.335 58.5 45L61.5 45Z" fill="#005AAB"/>
<path d="M461.584 482.24H454V480.008H452.032V482.24H444.28V483.776H461.584V482.24ZM457.96 487.976C457.96 489.152 456.184 489.8 453.016 489.8C449.824 489.8 448.048 489.152 448.048 487.976C448.048 486.8 449.824 486.152 453.016 486.152C456.184 486.152 457.96 486.8 457.96 487.976ZM446.056 487.976C446.056 490.112 448.6 491.264 453.016 491.264C457.384 491.264 459.952 490.112 459.952 487.976C459.952 485.864 457.384 484.712 453.016 484.712C448.6 484.712 446.056 485.864 446.056 487.976ZM447.688 495.944H445.72V501.296H460.6V499.736H447.688V495.944ZM443.248 492.584V494.144H452.176V497.384H454.144V494.144H462.712V492.584H443.248ZM481.094 496.088H483.086V480.272H481.094V483.896H476.918V485.48H481.094V488.696H476.918V490.304H481.094V496.088ZM476.75 491.048C474.182 491.504 472.022 491.6 468.182 491.6V488.072H475.478V481.784H466.19V483.368H473.51V486.536H466.238V493.208H467.798C471.95 493.208 474.206 493.136 476.942 492.656L476.75 491.048ZM471.11 499.616V494.936H469.142V501.2H483.734V499.616H471.11ZM500.964 487.64H503.7V493.544H505.596V480.272H503.7V486.032H500.964V480.68H499.092V492.848H500.964V487.64ZM498.204 490.352C495.444 489.296 493.836 486.872 493.836 484.496V481.592H491.94V484.496C491.94 486.896 490.26 489.68 487.452 490.928L488.508 492.464C490.596 491.528 492.132 489.704 492.9 487.688C493.668 489.512 495.132 491.048 497.148 491.864L498.204 490.352ZM498.492 500.24C495.276 500.24 493.26 499.376 493.26 497.888C493.26 496.4 495.276 495.56 498.492 495.56C501.756 495.56 503.748 496.4 503.748 497.888C503.748 499.376 501.756 500.24 498.492 500.24ZM498.492 494.024C494.076 494.024 491.316 495.44 491.316 497.888C491.316 500.336 494.076 501.752 498.492 501.752C502.932 501.752 505.692 500.336 505.692 497.888C505.692 495.44 502.932 494.024 498.492 494.024ZM516.562 482.888C518.65 482.888 520.138 484.016 520.138 485.696C520.138 487.376 518.65 488.504 516.562 488.504C514.45 488.504 512.962 487.376 512.962 485.696C512.962 484.016 514.45 482.888 516.562 482.888ZM516.562 490.112C519.754 490.112 522.034 488.312 522.034 485.696C522.034 483.056 519.754 481.256 516.562 481.256C513.346 481.256 511.066 483.056 511.066 485.696C511.066 488.312 513.346 490.112 516.562 490.112ZM523.642 491.168C518.914 491.888 513.466 491.936 509.458 491.936L509.722 493.592C511.498 493.592 513.538 493.568 515.674 493.472V501.104H517.642V493.352C519.682 493.232 521.77 492.992 523.81 492.632L523.642 491.168ZM525.202 480.272V501.8H527.17V480.272H525.202ZM543.801 489.944C541.017 490.448 538.665 490.544 534.537 490.544V487.64H542.025V486.08H534.537V483.296H542.409V481.712H532.569V492.128H534.201C538.617 492.128 541.089 492.032 544.017 491.504L543.801 489.944ZM534.297 495.968H546.321V501.8H548.289V494.384H534.297V495.968ZM551.481 485.96H548.289V480.248H546.321V493.28H548.289V487.592H551.481V485.96ZM461.584 517.24H454V515.008H452.032V517.24H444.28V518.776H461.584V517.24ZM457.96 522.976C457.96 524.152 456.184 524.8 453.016 524.8C449.824 524.8 448.048 524.152 448.048 522.976C448.048 521.8 449.824 521.152 453.016 521.152C456.184 521.152 457.96 521.8 457.96 522.976ZM446.056 522.976C446.056 525.112 448.6 526.264 453.016 526.264C457.384 526.264 459.952 525.112 459.952 522.976C459.952 520.864 457.384 519.712 453.016 519.712C448.6 519.712 446.056 520.864 446.056 522.976ZM447.688 530.944H445.72V536.296H460.6V534.736H447.688V530.944ZM443.248 527.584V529.144H452.176V532.384H454.144V529.144H462.712V527.584H443.248ZM481.094 531.088H483.086V515.272H481.094V518.896H476.918V520.48H481.094V523.696H476.918V525.304H481.094V531.088ZM476.75 526.048C474.182 526.504 472.022 526.6 468.182 526.6V523.072H475.478V516.784H466.19V518.368H473.51V521.536H466.238V528.208H467.798C471.95 528.208 474.206 528.136 476.942 527.656L476.75 526.048ZM471.11 534.616V529.936H469.142V536.2H483.734V534.616H471.11ZM503.076 515.248V536.8H505.044V515.248H503.076ZM488.652 517.072V531.592H498.78V517.072H496.836V522.76H490.596V517.072H488.652ZM490.596 524.32H496.836V529.984H490.596V524.32ZM517.186 519.088H522.25V517.456H510.226V519.088H515.218V521.824C515.218 525.544 512.602 529.6 509.506 531.064L510.658 532.648C513.106 531.4 515.218 528.688 516.202 525.544C517.234 528.496 519.346 530.968 521.842 532.12L522.946 530.536C519.778 529.192 517.186 525.472 517.186 521.824V519.088ZM525.154 515.272V536.776H527.122V515.272H525.154ZM546.633 534.904H536.049V531.952H546.633V534.904ZM546.633 530.416H536.049V527.584H534.105V536.488H548.577V527.584H546.633V530.416ZM548.025 524.032C548.601 521.368 548.601 519.448 548.601 517.792V516.232H534.057V517.84H546.657C546.657 519.472 546.657 521.392 546.057 524.032H531.561V525.64H551.121V524.032H548.025Z" fill="#35BAE4"/>
<path d="M537.568 457.128L540.568 453.168C541 452.496 541.288 452.136 541.648 451.464H541.744C541.696 452.184 541.672 453.264 541.672 453.96V457.128H537.568ZM543.544 449.52H541.288L535.528 457.32V458.64H541.672V461.952H543.544V458.64H545.392V457.128H543.544V449.52ZM541 466.296C535.24 466.296 530.584 461.64 530.584 455.88C530.584 450.168 535.192 445.464 541 445.464C546.76 445.464 551.416 450.12 551.416 455.88C551.416 461.64 546.76 466.296 541 466.296ZM541 444.696C534.832 444.696 529.816 449.712 529.816 455.88C529.816 462.048 534.832 467.064 541 467.064C547.12 467.064 552.184 462.096 552.184 455.88C552.184 449.712 547.168 444.696 541 444.696Z" fill="#35BAE4"/>
<path d="M519 252L510.34 237L527.66 237L519 252ZM520.5 75L520.5 238.5L517.5 238.5L517.5 75L520.5 75Z" fill="#A73714"/>
<path d="M645.096 455.76C643.464 455.76 642.648 454.848 642.648 453.264C642.648 451.752 643.68 450.744 644.928 450.744C646.608 450.744 647.664 451.896 647.904 454.2C647.016 455.304 645.96 455.76 645.096 455.76ZM641.016 460.896C641.784 461.664 642.936 462.24 644.496 462.24C647.28 462.24 649.824 460.272 649.824 455.304C649.824 451.176 647.688 449.232 644.928 449.232C642.648 449.232 640.752 450.84 640.752 453.288C640.752 455.904 642.384 457.176 644.712 457.176C645.888 457.176 647.112 456.6 647.952 455.664C647.856 459.336 646.32 460.632 644.448 460.632C643.512 460.632 642.648 460.248 642.096 459.696L641.016 460.896ZM645 466.296C639.24 466.296 634.584 461.64 634.584 455.88C634.584 450.168 639.192 445.464 645 445.464C650.76 445.464 655.416 450.12 655.416 455.88C655.416 461.64 650.76 466.296 645 466.296ZM645 444.696C638.832 444.696 633.816 449.712 633.816 455.88C633.816 462.048 638.832 467.064 645 467.064C651.12 467.064 656.184 462.096 656.184 455.88C656.184 449.712 651.168 444.696 645 444.696Z" fill="#14A772"/>
<path d="M648.424 490.76C645.256 489.704 643.024 487.088 643.024 484.208V483.344H647.896V481.76H636.088V483.344H641.008V484.208C641.008 487.232 638.824 490.04 635.56 491.192L636.592 492.728C639.136 491.792 641.128 489.872 642.04 487.424C643.024 489.68 644.992 491.456 647.464 492.32L648.424 490.76ZM638.536 495.992H650.968V501.776H652.936V494.408H638.536V495.992ZM650.968 480.248V493.28H652.936V480.248H650.968ZM673.118 499.904H663.254V497.12H673.118V499.904ZM673.118 495.584H663.254V492.848H661.31V501.488H675.086V492.848H673.118V495.584ZM663.23 489.584C661.094 489.584 659.558 488.192 659.558 486.224C659.558 484.256 661.094 482.888 663.23 482.888C665.366 482.888 666.902 484.256 666.902 486.224C666.902 488.192 665.366 489.584 663.23 489.584ZM673.094 480.272V485.384H668.702C668.294 482.888 666.134 481.256 663.23 481.256C660.014 481.256 657.686 483.272 657.686 486.224C657.686 489.2 660.014 491.216 663.23 491.216C666.182 491.216 668.342 489.536 668.726 486.992H673.094V491.816H675.086V480.272H673.094ZM696.684 486.248H684.036V480.704H682.068V487.832H696.684V486.248ZM689.148 500.168C685.764 500.168 683.772 499.28 683.772 497.792C683.772 496.256 685.764 495.392 689.148 495.392C692.532 495.392 694.524 496.256 694.524 497.792C694.524 499.28 692.508 500.168 689.148 500.168ZM689.148 493.856C684.564 493.856 681.78 495.272 681.78 497.792C681.78 500.288 684.564 501.704 689.148 501.704C693.732 501.704 696.516 500.288 696.516 497.792C696.516 495.272 693.732 493.856 689.148 493.856ZM679.452 490.328V491.936H698.916V490.328H679.452ZM712.882 490.4C710.386 490.808 708.322 490.904 704.338 490.904V487.64H711.634V481.544H702.346V483.152H709.714V486.128H702.418V492.512H703.954C708.25 492.512 710.434 492.44 713.074 491.984L712.882 490.4ZM704.818 496.256H717.25V501.8H719.242V494.648H704.818V496.256ZM717.25 480.272V483.44H713.05V485.048H717.25V487.928H713.05V489.512H717.25V493.496H719.242V480.272H717.25ZM724.401 483.032V484.64H730.857C730.569 489.104 728.529 492.992 723.585 495.752L724.737 497.168C730.857 493.712 732.801 488.576 732.801 483.032H724.401ZM739.953 480.248V488.912H737.025V480.824H735.177V500.696H737.025V490.52H739.953V501.776H741.849V480.248H739.953ZM754.591 488.96H748.495V485.744H754.591V488.96ZM756.511 481.136H754.591V484.232H748.495V481.136H746.551V490.544H756.511V481.136ZM750.679 497.624H762.367V492.392H748.687V493.952H760.423V496.16H748.759V501.536H763.159V499.976H750.679V497.624ZM762.367 484.88V480.272H760.399V491.384H762.367V486.512H765.559V484.88H762.367ZM653.584 517.24H646V515.008H644.032V517.24H636.28V518.776H653.584V517.24ZM649.96 522.976C649.96 524.152 648.184 524.8 645.016 524.8C641.824 524.8 640.048 524.152 640.048 522.976C640.048 521.8 641.824 521.152 645.016 521.152C648.184 521.152 649.96 521.8 649.96 522.976ZM638.056 522.976C638.056 525.112 640.6 526.264 645.016 526.264C649.384 526.264 651.952 525.112 651.952 522.976C651.952 520.864 649.384 519.712 645.016 519.712C640.6 519.712 638.056 520.864 638.056 522.976ZM639.688 530.944H637.72V536.296H652.6V534.736H639.688V530.944ZM635.248 527.584V529.144H644.176V532.384H646.144V529.144H654.712V527.584H635.248ZM673.094 531.088H675.086V515.272H673.094V518.896H668.918V520.48H673.094V523.696H668.918V525.304H673.094V531.088ZM668.75 526.048C666.182 526.504 664.022 526.6 660.182 526.6V523.072H667.478V516.784H658.19V518.368H665.51V521.536H658.238V528.208H659.798C663.95 528.208 666.206 528.136 668.942 527.656L668.75 526.048ZM663.11 534.616V529.936H661.142V536.2H675.734V534.616H663.11ZM695.076 515.248V536.8H697.044V515.248H695.076ZM680.652 517.072V531.592H690.78V517.072H688.836V522.76H682.596V517.072H680.652ZM682.596 524.32H688.836V529.984H682.596V524.32ZM711.226 535.24C707.842 535.24 705.85 534.4 705.85 532.936C705.85 531.472 707.842 530.632 711.226 530.632C714.586 530.632 716.602 531.472 716.602 532.936C716.602 534.4 714.586 535.24 711.226 535.24ZM711.226 529.096C706.618 529.096 703.858 530.464 703.858 532.936C703.858 535.408 706.618 536.752 711.226 536.752C715.858 536.752 718.594 535.408 718.594 532.936C718.594 530.464 715.858 529.096 711.226 529.096ZM708.25 523.384C709.138 523.528 710.146 523.624 711.226 523.624C712.33 523.624 713.338 523.528 714.226 523.384V525.904H708.25V523.384ZM705.682 519.64C705.682 518.08 707.794 517.168 711.226 517.168C714.658 517.168 716.77 518.08 716.77 519.64C716.77 521.176 714.658 522.112 711.226 522.112C707.794 522.112 705.682 521.176 705.682 519.64ZM716.17 525.904V522.856C717.826 522.184 718.786 521.08 718.786 519.64C718.786 517.12 715.906 515.632 711.226 515.632C706.57 515.632 703.666 517.12 703.666 519.64C703.666 521.104 704.602 522.184 706.306 522.88V525.904H701.482V527.488H720.97V525.904H716.17ZM731.265 519.088H736.329V517.456H724.305V519.088H729.297V521.824C729.297 525.544 726.681 529.6 723.585 531.064L724.737 532.648C727.185 531.4 729.297 528.688 730.281 525.544C731.313 528.496 733.425 530.968 735.921 532.12L737.025 530.536C733.857 529.192 731.265 525.472 731.265 521.824V519.088ZM739.233 515.272V536.776H741.201V515.272H739.233ZM756.943 527.968V529.432H761.311V531.64H763.279V515.248H761.311V527.968H756.943ZM752.551 517.576C754.591 517.576 755.983 518.488 755.983 519.856C755.983 521.248 754.591 522.16 752.551 522.16C750.511 522.16 749.119 521.248 749.119 519.856C749.119 518.488 750.511 517.576 752.551 517.576ZM752.551 523.624C755.695 523.624 757.855 522.16 757.855 519.856C757.855 517.6 755.695 516.112 752.551 516.112C749.407 516.112 747.247 517.6 747.247 519.856C747.247 522.16 749.407 523.624 752.551 523.624ZM751.783 530.872H753.751V526.624C755.695 526.504 757.687 526.288 759.583 526L759.415 524.584C754.855 525.16 749.527 525.208 745.543 525.208L745.807 526.84C747.583 526.84 749.647 526.816 751.783 526.72V530.872ZM750.583 534.688V530.032H748.615V536.296H763.831V534.688H750.583Z" fill="#14A772"/>
<rect y="107" width="118" height="116" rx="16" fill="white"/>
<path d="M35.2715 157.24H27.6875V155.008H25.7195V157.24H17.9675V158.776H35.2715V157.24ZM31.6475 162.976C31.6475 164.152 29.8715 164.8 26.7035 164.8C23.5115 164.8 21.7355 164.152 21.7355 162.976C21.7355 161.8 23.5115 161.152 26.7035 161.152C29.8715 161.152 31.6475 161.8 31.6475 162.976ZM19.7435 162.976C19.7435 165.112 22.2875 166.264 26.7035 166.264C31.0715 166.264 33.6395 165.112 33.6395 162.976C33.6395 160.864 31.0715 159.712 26.7035 159.712C22.2875 159.712 19.7435 160.864 19.7435 162.976ZM21.3755 170.944H19.4075V176.296H34.2875V174.736H21.3755V170.944ZM16.9355 167.584V169.144H25.8635V172.384H27.8315V169.144H36.3995V167.584H16.9355ZM54.7816 171.088H56.7736V155.272H54.7816V158.896H50.6056V160.48H54.7816V163.696H50.6056V165.304H54.7816V171.088ZM50.4376 166.048C47.8696 166.504 45.7096 166.6 41.8696 166.6V163.072H49.1656V156.784H39.8776V158.368H47.1976V161.536H39.9256V168.208H41.4856C45.6376 168.208 47.8936 168.136 50.6296 167.656L50.4376 166.048ZM44.7976 174.616V169.936H42.8296V176.2H57.4216V174.616H44.7976ZM72.3478 167.32C72.9478 163.312 72.9478 160.504 72.9478 158.776V157.6H62.0758V159.208H71.0278C71.0278 160.936 70.9798 163.552 70.3798 167.128L72.3478 167.32ZM67.4038 163.744H65.4598V170.368C63.8518 170.416 62.2678 170.44 60.8998 170.44L61.1158 172.072C64.9318 172.072 69.9958 171.976 74.4598 171.256L74.3398 169.816C72.1558 170.08 69.7558 170.224 67.4038 170.32V163.744ZM81.0598 164.248H77.6278V155.248H75.6598V176.776H77.6278V165.904H81.0598V164.248ZM94.6899 160.84V162.448H98.9379V168.088H100.93V155.272H98.9379V160.84H94.6899ZM95.8899 165.736C92.7699 164.632 90.6579 161.92 90.6579 159.16V158.416H95.3859V156.832H83.8899V158.416H88.6899V159.16C88.6899 162.256 86.4819 165.16 83.2659 166.336L84.2979 167.896C86.8179 166.936 88.8099 164.92 89.7219 162.424C90.6579 164.632 92.5059 166.408 94.9059 167.272L95.8899 165.736ZM93.8259 175.24C90.5859 175.24 88.6179 174.328 88.6179 172.768C88.6179 171.208 90.5859 170.272 93.8259 170.272C97.0659 170.272 99.0339 171.208 99.0339 172.768C99.0339 174.328 97.0659 175.24 93.8259 175.24ZM93.8259 168.76C89.4099 168.76 86.6499 170.224 86.6499 172.768C86.6499 175.312 89.4099 176.776 93.8259 176.776C98.2419 176.776 101.002 175.312 101.002 172.768C101.002 170.224 98.2419 168.76 93.8259 168.76ZM34.6235 190.272H32.6555V205.992H34.6235V190.272ZM19.3835 197.04C19.3835 194.952 20.9675 193.464 23.0555 193.464C25.1915 193.464 26.7755 194.952 26.7755 197.04C26.7755 199.176 25.1915 200.664 23.0555 200.664C20.9675 200.664 19.3835 199.176 19.3835 197.04ZM28.6955 197.04C28.6955 193.944 26.2715 191.76 23.0555 191.76C19.8635 191.76 17.4635 193.944 17.4635 197.04C17.4635 200.16 19.8635 202.368 23.0555 202.368C26.2715 202.368 28.6955 200.16 28.6955 197.04ZM22.7435 209.688V204.384H20.7755V211.296H35.2715V209.688H22.7435ZM50.5336 195.84V197.448H54.7816V203.088H56.7736V190.272H54.7816V195.84H50.5336ZM51.7336 200.736C48.6136 199.632 46.5016 196.92 46.5016 194.16V193.416H51.2296V191.832H39.7336V193.416H44.5336V194.16C44.5336 197.256 42.3256 200.16 39.1096 201.336L40.1416 202.896C42.6616 201.936 44.6536 199.92 45.5656 197.424C46.5016 199.632 48.3496 201.408 50.7496 202.272L51.7336 200.736ZM49.6696 210.24C46.4296 210.24 44.4616 209.328 44.4616 207.768C44.4616 206.208 46.4296 205.272 49.6696 205.272C52.9096 205.272 54.8776 206.208 54.8776 207.768C54.8776 209.328 52.9096 210.24 49.6696 210.24ZM49.6696 203.76C45.2536 203.76 42.4936 205.224 42.4936 207.768C42.4936 210.312 45.2536 211.776 49.6696 211.776C54.0856 211.776 56.8456 210.312 56.8456 207.768C56.8456 205.224 54.0856 203.76 49.6696 203.76ZM78.7798 190.248H76.8118V206.04H78.7798V190.248ZM74.0758 200.976C70.8838 199.8 68.6998 196.872 68.6998 193.632V191.448H66.7318V193.632C66.7318 196.992 64.5718 200.112 61.3318 201.36L62.3638 202.968C64.8838 201.912 66.8278 199.824 67.7398 197.208C68.6998 199.656 70.5958 201.6 73.0438 202.536L74.0758 200.976ZM66.8997 209.688V204.576H64.9318V211.296H79.4278V209.688H66.8997ZM94.6419 196.368V198H98.9379V203.304H100.93V190.248H98.9379V196.368H94.6419ZM95.9379 200.856C92.7699 199.92 90.5379 197.52 90.5379 194.832V194.424H95.2899V192.84H90.5379V190.128H88.5699V192.84H83.7939V194.424H88.5699V194.832C88.5699 197.736 86.4099 200.352 83.2419 201.432L84.2019 202.944C86.7459 202.104 88.6899 200.28 89.6019 197.928C90.5859 200.016 92.5299 201.624 95.0019 202.392L95.9379 200.856ZM93.8019 210.216C90.5619 210.216 88.6179 209.304 88.6179 207.792C88.6179 206.304 90.5619 205.392 93.8019 205.392C97.0899 205.392 99.0339 206.304 99.0339 207.792C99.0339 209.304 97.0659 210.216 93.8019 210.216ZM93.8019 203.856C89.3859 203.856 86.6499 205.296 86.6499 207.792C86.6499 210.312 89.3859 211.752 93.8019 211.752C98.2659 211.752 101.002 210.312 101.002 207.792C101.002 205.296 98.2659 203.856 93.8019 203.856Z" fill="#005AAB"/>
<path d="M60 144.064C66.12 144.064 71.184 139.096 71.184 132.88C71.184 126.712 66.168 121.696 60 121.696C53.832 121.696 48.816 126.712 48.816 132.88C48.816 139.048 53.832 144.064 60 144.064ZM60 143.296C54.24 143.296 49.584 138.64 49.584 132.88C49.584 127.168 54.192 122.464 60 122.464C65.76 122.464 70.416 127.12 70.416 132.88C70.416 138.64 65.76 143.296 60 143.296ZM59.52 138.952H61.488V126.52H59.976C59.16 126.952 58.248 127.288 56.976 127.504V128.776H59.52V138.952Z" fill="#005AAB"/>
<rect x="505" y="107" width="160" height="116" rx="16" fill="white"/>
<path d="M533.424 165.76C530.256 164.704 528.024 162.088 528.024 159.208V158.344H532.896V156.76H521.088V158.344H526.008V159.208C526.008 162.232 523.824 165.04 520.56 166.192L521.592 167.728C524.136 166.792 526.128 164.872 527.04 162.424C528.024 164.68 529.992 166.456 532.464 167.32L533.424 165.76ZM523.536 170.992H535.968V176.776H537.936V169.408H523.536V170.992ZM535.968 155.248V168.28H537.936V155.248H535.968ZM558.118 174.904H548.254V172.12H558.118V174.904ZM558.118 170.584H548.254V167.848H546.31V176.488H560.086V167.848H558.118V170.584ZM548.23 164.584C546.094 164.584 544.558 163.192 544.558 161.224C544.558 159.256 546.094 157.888 548.23 157.888C550.366 157.888 551.902 159.256 551.902 161.224C551.902 163.192 550.366 164.584 548.23 164.584ZM558.094 155.272V160.384H553.702C553.294 157.888 551.134 156.256 548.23 156.256C545.014 156.256 542.686 158.272 542.686 161.224C542.686 164.2 545.014 166.216 548.23 166.216C551.182 166.216 553.342 164.536 553.726 161.992H558.094V166.816H560.086V155.272H558.094ZM581.684 161.248H569.036V155.704H567.068V162.832H581.684V161.248ZM574.148 175.168C570.764 175.168 568.772 174.28 568.772 172.792C568.772 171.256 570.764 170.392 574.148 170.392C577.532 170.392 579.524 171.256 579.524 172.792C579.524 174.28 577.508 175.168 574.148 175.168ZM574.148 168.856C569.564 168.856 566.78 170.272 566.78 172.792C566.78 175.288 569.564 176.704 574.148 176.704C578.732 176.704 581.516 175.288 581.516 172.792C581.516 170.272 578.732 168.856 574.148 168.856ZM564.452 165.328V166.936H583.916V165.328H564.452ZM597.882 165.4C595.386 165.808 593.322 165.904 589.338 165.904V162.64H596.634V156.544H587.346V158.152H594.714V161.128H587.418V167.512H588.954C593.25 167.512 595.434 167.44 598.074 166.984L597.882 165.4ZM589.818 171.256H602.25V176.8H604.242V169.648H589.818V171.256ZM602.25 155.272V158.44H598.05V160.048H602.25V162.928H598.05V164.512H602.25V168.496H604.242V155.272H602.25ZM609.401 158.032V159.64H615.857C615.569 164.104 613.529 167.992 608.585 170.752L609.737 172.168C615.857 168.712 617.801 163.576 617.801 158.032H609.401ZM624.953 155.248V163.912H622.025V155.824H620.177V175.696H622.025V165.52H624.953V176.776H626.849V155.248H624.953ZM639.591 163.96H633.495V160.744H639.591V163.96ZM641.511 156.136H639.591V159.232H633.495V156.136H631.551V165.544H641.511V156.136ZM635.679 172.624H647.367V167.392H633.687V168.952H645.423V171.16H633.759V176.536H648.159V174.976H635.679V172.624ZM647.367 159.88V155.272H645.399V166.384H647.367V161.512H650.559V159.88H647.367ZM538.584 192.24H531V190.008H529.032V192.24H521.28V193.776H538.584V192.24ZM534.96 197.976C534.96 199.152 533.184 199.8 530.016 199.8C526.824 199.8 525.048 199.152 525.048 197.976C525.048 196.8 526.824 196.152 530.016 196.152C533.184 196.152 534.96 196.8 534.96 197.976ZM523.056 197.976C523.056 200.112 525.6 201.264 530.016 201.264C534.384 201.264 536.952 200.112 536.952 197.976C536.952 195.864 534.384 194.712 530.016 194.712C525.6 194.712 523.056 195.864 523.056 197.976ZM524.688 205.944H522.72V211.296H537.6V209.736H524.688V205.944ZM520.248 202.584V204.144H529.176V207.384H531.144V204.144H539.712V202.584H520.248ZM558.094 206.088H560.086V190.272H558.094V193.896H553.918V195.48H558.094V198.696H553.918V200.304H558.094V206.088ZM553.75 201.048C551.182 201.504 549.022 201.6 545.182 201.6V198.072H552.478V191.784H543.19V193.368H550.51V196.536H543.238V203.208H544.798C548.95 203.208 551.206 203.136 553.942 202.656L553.75 201.048ZM548.11 209.616V204.936H546.142V211.2H560.734V209.616H548.11ZM580.076 190.248V211.8H582.044V190.248H580.076ZM565.652 192.072V206.592H575.78V192.072H573.836V197.76H567.596V192.072H565.652ZM567.596 199.32H573.836V204.984H567.596V199.32ZM596.226 210.24C592.842 210.24 590.85 209.4 590.85 207.936C590.85 206.472 592.842 205.632 596.226 205.632C599.586 205.632 601.602 206.472 601.602 207.936C601.602 209.4 599.586 210.24 596.226 210.24ZM596.226 204.096C591.618 204.096 588.858 205.464 588.858 207.936C588.858 210.408 591.618 211.752 596.226 211.752C600.858 211.752 603.594 210.408 603.594 207.936C603.594 205.464 600.858 204.096 596.226 204.096ZM593.25 198.384C594.138 198.528 595.146 198.624 596.226 198.624C597.33 198.624 598.338 198.528 599.226 198.384V200.904H593.25V198.384ZM590.682 194.64C590.682 193.08 592.794 192.168 596.226 192.168C599.658 192.168 601.77 193.08 601.77 194.64C601.77 196.176 599.658 197.112 596.226 197.112C592.794 197.112 590.682 196.176 590.682 194.64ZM601.17 200.904V197.856C602.826 197.184 603.786 196.08 603.786 194.64C603.786 192.12 600.906 190.632 596.226 190.632C591.57 190.632 588.666 192.12 588.666 194.64C588.666 196.104 589.602 197.184 591.306 197.88V200.904H586.482V202.488H605.97V200.904H601.17ZM616.265 194.088H621.329V192.456H609.305V194.088H614.297V196.824C614.297 200.544 611.681 204.6 608.585 206.064L609.737 207.648C612.185 206.4 614.297 203.688 615.281 200.544C616.313 203.496 618.425 205.968 620.921 207.12L622.025 205.536C618.857 204.192 616.265 200.472 616.265 196.824V194.088ZM624.233 190.272V211.776H626.201V190.272H624.233ZM641.943 202.968V204.432H646.311V206.64H648.279V190.248H646.311V202.968H641.943ZM637.551 192.576C639.591 192.576 640.983 193.488 640.983 194.856C640.983 196.248 639.591 197.16 637.551 197.16C635.511 197.16 634.119 196.248 634.119 194.856C634.119 193.488 635.511 192.576 637.551 192.576ZM637.551 198.624C640.695 198.624 642.855 197.16 642.855 194.856C642.855 192.6 640.695 191.112 637.551 191.112C634.407 191.112 632.247 192.6 632.247 194.856C632.247 197.16 634.407 198.624 637.551 198.624ZM636.783 205.872H638.751V201.624C640.695 201.504 642.687 201.288 644.583 201L644.415 199.584C639.855 200.16 634.527 200.208 630.543 200.208L630.807 201.84C632.583 201.84 634.647 201.816 636.783 201.72V205.872ZM635.583 209.688V205.032H633.615V211.296H648.831V209.688H635.583Z" fill="#A73714"/>
<path d="M531 144.064C537.12 144.064 542.184 139.096 542.184 132.88C542.184 126.712 537.168 121.696 531 121.696C524.832 121.696 519.816 126.712 519.816 132.88C519.816 139.048 524.832 144.064 531 144.064ZM531 143.296C525.24 143.296 520.584 138.64 520.584 132.88C520.584 127.168 525.192 122.464 531 122.464C536.76 122.464 541.416 127.12 541.416 132.88C541.416 138.64 536.76 143.296 531 143.296ZM531 139.24C533.736 139.24 535.584 137.752 535.584 135.832C535.584 134.152 534.408 133.288 533.16 132.616V132.544C534.024 131.968 535.056 130.888 535.056 129.544C535.056 127.624 533.544 126.232 531.024 126.232C528.768 126.232 527.016 127.528 527.016 129.52C527.016 130.816 527.928 131.776 528.984 132.424V132.52C527.688 133.144 526.392 134.2 526.392 135.856C526.392 137.8 528.336 139.24 531 139.24ZM531.912 132.088C530.232 131.536 528.792 130.888 528.792 129.52C528.792 128.368 529.704 127.648 530.976 127.648C532.464 127.648 533.352 128.536 533.352 129.712C533.352 130.552 532.8 131.392 531.912 132.088ZM531.072 137.8C529.44 137.8 528.168 136.888 528.168 135.592C528.168 134.464 529.08 133.624 530.136 133.024C532.152 133.72 533.736 134.296 533.736 135.784C533.736 137.032 532.656 137.8 531.072 137.8Z" fill="#A73714"/>
</svg>
