<svg xmlns="http://www.w3.org/2000/svg" width="32" height="32" viewBox="0 0 32 32"><g transform="translate(-1132 -295)"><rect width="32" height="32" transform="translate(1132 295)" fill="#ffd8d8" opacity="0"/><g transform="translate(1136.938 300.938)"><g transform="translate(1.063 1.063)"><path d="M29.974,1.5H22.1a1.811,1.811,0,0,0-1.846,1.774V16.762A1.811,1.811,0,0,1,22.1,14.988h7.872c.042,0,.082,0,.124.006V1.506C30.056,1.5,30.016,1.5,29.974,1.5Z" transform="translate(-9.98 -1.5)" fill="none" stroke="#172102" stroke-linecap="round" stroke-linejoin="round" stroke-width="1.7"/><path d="M2.165,1.5h7.873a1.811,1.811,0,0,1,1.845,1.774V16.762a1.811,1.811,0,0,0-1.845-1.774H2.165c-.041,0-.082,0-.124.006V1.506C2.083,1.5,2.124,1.5,2.165,1.5Z" transform="translate(-1.719 -1.5)" fill="none" stroke="#172102" stroke-linecap="round" stroke-linejoin="round" stroke-width="1.7"/><line x2="20.388" transform="translate(0 20.004)" fill="none" stroke="#7DB209" stroke-linecap="round" stroke-linejoin="round" stroke-width="1.7"/></g></g></g></svg>