<svg xmlns="http://www.w3.org/2000/svg" width="32" height="32" viewBox="0 0 32 32"><g transform="translate(-836 -295)"><rect width="32" height="32" transform="translate(836 295)" fill="#ffd8d8" opacity="0"/><g transform="translate(839.15 299.15)"><g transform="translate(0.85 0.85)"><path d="M12.155,8.727c0-.6.424-.846.945-.546l3.819,2.205a.577.577,0,0,1,0,1.091l-3.819,2.2c-.521.3-.945.054-.945-.546Z" transform="translate(-2.443 -1.865)" fill="none" stroke="#7DB209" stroke-linecap="round" stroke-linejoin="round" stroke-width="1.7"/><path d="M17.835,21.29l.545,3.092a1.766,1.766,0,0,1-.106,1.059.7.7,0,0,1-.625.441H9.395a.7.7,0,0,1-.625-.441,1.753,1.753,0,0,1-.106-1.059l.545-3.092" transform="translate(-1.947 -3.731)" fill="none" stroke="#172102" stroke-linecap="round" stroke-linejoin="round" stroke-width="1.7"/><path d="M3.485,0H19.666A3.484,3.484,0,0,1,23.15,3.484V14.078a3.484,3.484,0,0,1-3.484,3.484H3.485A3.485,3.485,0,0,1,0,14.077V3.485A3.485,3.485,0,0,1,3.485,0Z" fill="none" stroke="#172102" stroke-linecap="round" stroke-linejoin="round" stroke-width="1.7"/></g></g></g></svg>