<svg xmlns="http://www.w3.org/2000/svg" width="32" height="32" viewBox="0 0 32 32"><g transform="translate(-902 -295)"><rect width="32" height="32" transform="translate(902 295)" fill="#ffd8d8" opacity="0"/><g transform="translate(907.15 300.152)"><g transform="translate(0.85 0.849)"><path d="M15.841,4.645h2.782a2.694,2.694,0,0,1,2.694,2.693V18.11A2.694,2.694,0,0,1,18.624,20.8H3.543A2.692,2.692,0,0,1,.85,18.11V7.338A2.692,2.692,0,0,1,3.543,4.645H6.685" transform="translate(-0.85 -1.316)" fill="none" stroke="#172102" stroke-linecap="round" stroke-linejoin="round" stroke-width="1.7"/><path d="M7.978,11.36l3.981-4.1,3.981,4.1V.849H7.978V11.36Z" transform="translate(-1.726 -0.849)" fill="none" stroke="#7DB209" stroke-linecap="round" stroke-linejoin="round" stroke-width="1.7"/></g></g></g></svg>