<svg xmlns="http://www.w3.org/2000/svg" width="32" height="32" viewBox="0 0 32 32"><g transform="translate(-1209 -295)"><rect width="32" height="32" transform="translate(1209 295)" fill="#ffd8d8" opacity="0"/><g transform="translate(1216.5 299.5)"><g transform="translate(1.5 1.5)"><path d="M13.3,31.727c1.251.394,2.025.941,2.025,1.543s-.774,1.149-2.025,1.544a16.936,16.936,0,0,1-4.889.64,16.945,16.945,0,0,1-4.889-.64c-1.25-.4-2.025-.941-2.025-1.544s.774-1.149,2.025-1.543" transform="translate(-1.5 -14.4)" fill="none" stroke="#7DB209" stroke-linecap="round" stroke-linejoin="round" stroke-width="1.7"/><path d="M15.1,7.52a6.02,6.02,0,1,0-8.061,5.665L9.08,18.209l2.041-5.025A6.023,6.023,0,0,0,15.1,7.52Z" transform="translate(-2.166 -1.5)" fill="none" stroke="#172102" stroke-linecap="round" stroke-linejoin="round" stroke-width="1.7"/><path d="M14.023,10.681l-1.806,1.806-1.807-1.806" transform="translate(-5.303 -5.418)" fill="none" stroke="#172102" stroke-linecap="round" stroke-linejoin="round" stroke-width="1.7"/></g></g></g></svg>