<svg xmlns="http://www.w3.org/2000/svg" width="32" height="32" viewBox="0 0 32 32"><g transform="translate(-1040 -295)"><rect width="32" height="32" transform="translate(1040 295)" fill="#ffd8d8" opacity="0"/><g transform="translate(1043.149 300.15)"><g transform="translate(0.85 0.85)"><path d="M5.168,18.507H3.3a2.327,2.327,0,0,1-.954-.2,2.443,2.443,0,0,1-.78-.555,2.629,2.629,0,0,1-.526-.823A2.7,2.7,0,0,1,.85,15.917V10.652a2.7,2.7,0,0,1,.193-1.008,2.619,2.619,0,0,1,.526-.823,2.459,2.459,0,0,1,.78-.556,2.342,2.342,0,0,1,.954-.2H20.574a2.342,2.342,0,0,1,.954.2,2.459,2.459,0,0,1,.78.556,2.607,2.607,0,0,1,.526.823,2.713,2.713,0,0,1,.193,1.008v5.265a2.716,2.716,0,0,1-.193,1.008,2.616,2.616,0,0,1-.526.823,2.443,2.443,0,0,1-.78.555,2.327,2.327,0,0,1-.954.2H18.709" transform="translate(-0.85 -1.74)" fill="none" stroke="#172102" stroke-linecap="round" stroke-linejoin="round" stroke-width="1.7"/><rect width="10.599" height="8.749" transform="translate(5.79 12.65)" fill="none" stroke="#7DB209" stroke-linecap="round" stroke-linejoin="round" stroke-width="1.7"/><path d="M7.455,6.417V.85h10.6V6.417" transform="translate(-1.665 -0.85)" fill="none" stroke="#172102" stroke-linecap="round" stroke-linejoin="round" stroke-width="1.7"/></g></g></g></svg>