<?xml version="1.0" encoding="utf-8"?>
<!-- Generator: Adobe Illustrator 25.4.1, SVG Export Plug-In . SVG Version: 6.00 Build 0)  -->
<svg version="1.1" id="Layer_1" xmlns="http://www.w3.org/2000/svg" xmlns:xlink="http://www.w3.org/1999/xlink" x="0px" y="0px"
	 viewBox="0 0 117.4 106.5" style="enable-background:new 0 0 117.4 106.5;" xml:space="preserve">
<style>
	.st0{opacity:0.1;fill:#2C2E30;}
	.st1{fill:#9EB6DF;}
	.st2{fill:#B6CBEA;}
	.st3{fill:#E8EFF9;}
	.st4{fill:#434483;}
	.st5{fill:#282861;}
	.st6{fill:#F5F5F5;}
	.st7{fill:#4D4D4D;}
	.st8{fill:#0071BC;}
	.st9{fill:#F2B481;}
	.st10{opacity:0.1;fill:#2D3033;}
	.st11{fill:#F3925F;}
	.st12{fill:#FAFCFF;}
	.st13{fill:none;stroke:#F54970;stroke-width:2;stroke-linecap:round;stroke-miterlimit:10;}
	.st14{fill:#FEA972;}
</style>
<g transform="translate(-874.775 -1105.992)">
	<g transform="translate(904.255 1105.992)">
		<g transform="translate(0 0)">
			<path class="st0" d="M0.4,79.8L45,53.5l37.7,21.8l-44.5,26.3L0.4,79.8z"/>
			<path class="st1" d="M0,72.2l3-1.6l37.7,21.8l-3,1.6L0,72.2z"/>
			<path class="st2" d="M37.7,94L0,72.2v4.5l37.7,21.8V94z"/>
			<path class="st1" d="M2.9,66.1l2.8-1.7l37.7,21.8l-2.8,1.7L2.9,66.1z"/>
			<path class="st2" d="M40.6,87.8L2.9,66.1v4.5l37.7,21.8V87.8z"/>
			<path class="st3" d="M5.7,59.9l38.5-22.5l37.7,21.8L43.4,81.6L5.7,59.9z"/>
			<path class="st3" d="M38,78.5l33.4-19.7l3.7,2.1L41.6,80.6L38,78.5z"/>
			<path class="st3" d="M28.4,73l33.7-19.9l3.2,2.1L31.8,75L28.4,73z"/>
			<path class="st3" d="M18.5,67.2l33-19.5l3.9,1.9L22,69.3L18.5,67.2z"/>
			<path class="st3" d="M12.5,63.8l-3.8-2.2L41.9,42L46,44L12.5,63.8z"/>
			<path class="st2" d="M43.4,81.6L5.7,59.9v4.5l37.7,21.8V81.6z"/>
			<path class="st2" d="M42.2,11.6v32.2c0,0.5,0.4,1,0.8,1.2c1.3,0.6,2.8,0.6,4,0c0.5-0.2,0.8-0.7,0.8-1.2l0,0V14.9L42.2,11.6z"/>
			<path class="st2" d="M69.8,27.6v32.2c0,0.5,0.4,1,0.8,1.2c1.3,0.6,2.8,0.6,4,0c0.5-0.2,0.8-0.7,0.8-1.2l0,0V30.9L69.8,27.6z"/>
			<path class="st2" d="M60.1,22v32.2c0,0.5,0.4,1,0.8,1.2c1.3,0.6,2.8,0.6,4,0c0.5-0.2,0.8-0.7,0.8-1.2l0,0V25.3L60.1,22z"/>
			<path class="st2" d="M50.4,16.4v32.2c0,0.5,0.4,1,0.8,1.2c1.3,0.6,2.8,0.6,4,0c0.5-0.2,0.8-0.7,0.8-1.2l0,0V19.7L50.4,16.4z"/>
			<path class="st2" d="M14.8,26.4v32.2c0,0.5,0.4,1,0.8,1.2c1.3,0.6,2.8,0.6,4,0c0.5-0.2,0.8-0.7,0.8-1.2l0,0V29.7L14.8,26.4z"/>
			<path class="st2" d="M43.5,42.9v32.2c0,0.5,0.4,1,0.8,1.2c1.3,0.6,2.8,0.6,4,0c0.5-0.2,0.8-0.7,0.8-1.2l0,0V46.2L43.5,42.9z"/>
			<path class="st2" d="M33.5,37.5v32.2c0,0.5,0.4,1,0.8,1.2c1.3,0.6,2.8,0.6,4,0c0.5-0.2,0.8-0.7,0.8-1.2l0,0V40.8L33.5,37.5z"/>
			<path class="st2" d="M24.1,31.8V64c0,0.5,0.4,1,0.8,1.2c1.3,0.6,2.8,0.6,4,0c0.5-0.2,0.8-0.7,0.8-1.2l0,0V35.1L24.1,31.8z"/>
			<g transform="translate(13.59)">
				<g>
					<g transform="translate(0.029)">
						<path class="st2" d="M0,17.3L27.4,1.4L45.4,0L17.9,15.9L0,17.3z"/>
					</g>
					<g transform="translate(35.761 21.999)">
						<path class="st4" d="M0,15.9L27.5,0l0,10.3L0,26.2L0,15.9z"/>
					</g>
					<g transform="translate(17.944)">
						<path class="st1" d="M0,15.9L27.4,0l17.8,22L17.8,37.9L0,15.9z"/>
					</g>
					<g transform="translate(0 15.922)">
						<path class="st2" d="M17.9,0l17.8,22l0,10.3L0,11.7L0,1.4L17.9,0z"/>
						<path class="st4" d="M3,9.9l0-5.8l13.6-1l16.2,20l0,4.1L3,9.9z"/>
					</g>
				</g>
			</g>
			<path class="st1" d="M13.6,27.6l35.8,20.6l0-10.3L13.6,17.3L13.6,27.6z"/>
			<g transform="translate(15.04 20.216)">
				<path class="st5" d="M0.9,6.2c0,0.3-0.2,0.5-0.5,0.5l0,0C0.2,6.6,0,6.4,0,6.2V0.5C0,0.2,0.2,0,0.5,0l0,0c0.3,0,0.5,0.2,0.5,0.5
					V6.2z"/>
				<path class="st5" d="M4.5,8.3c0,0.3-0.2,0.5-0.5,0.5l0,0c-0.3,0-0.5-0.2-0.5-0.5V2.6c0-0.3,0.2-0.5,0.5-0.5l0,0
					c0.3,0,0.5,0.2,0.5,0.5V8.3z"/>
				<path class="st5" d="M8,10.3c0,0.3-0.2,0.5-0.5,0.5l0,0c-0.3,0-0.5-0.2-0.5-0.5V4.6c0-0.3,0.2-0.5,0.5-0.5l0,0
					C7.8,4.2,8,4.4,8,4.6V10.3z"/>
				<path class="st5" d="M11.6,12.4c0,0.3-0.2,0.5-0.5,0.5c0,0,0,0,0,0l0,0c-0.3,0-0.5-0.2-0.5-0.5c0,0,0,0,0,0V6.7
					c0-0.3,0.2-0.5,0.5-0.5l0,0c0.3,0,0.5,0.2,0.5,0.5V12.4z"/>
				<path class="st5" d="M15.1,14.5c0,0.3-0.2,0.5-0.5,0.5l0,0c-0.3,0-0.5-0.2-0.5-0.5V8.8c0-0.3,0.2-0.5,0.5-0.5l0,0
					c0.3,0,0.5,0.2,0.5,0.5V14.5z"/>
				<path class="st5" d="M18.7,16.6c0,0.3-0.2,0.5-0.5,0.5l0,0c-0.3,0-0.5-0.2-0.5-0.5v-5.7c0-0.3,0.2-0.5,0.5-0.5l0,0
					c0.3,0,0.5,0.2,0.5,0.5V16.6z"/>
				<path class="st5" d="M22.2,18.7c0,0.3-0.2,0.5-0.5,0.5l0,0c-0.3,0-0.5-0.2-0.5-0.5V13c0-0.3,0.2-0.5,0.5-0.5l0,0
					c0.3,0,0.5,0.2,0.5,0.5V18.7z"/>
				<path class="st5" d="M25.8,20.8c0,0.3-0.2,0.5-0.5,0.5c0,0,0,0,0,0l0,0c-0.3,0-0.5-0.2-0.5-0.5v-5.7c0-0.3,0.2-0.5,0.5-0.5l0,0
					c0.3,0,0.5,0.2,0.5,0.5c0,0,0,0,0,0V20.8z"/>
				<path class="st5" d="M29.3,22.9c0,0.3-0.2,0.5-0.5,0.5l0,0c-0.3,0-0.5-0.2-0.5-0.5v-5.7c0-0.3,0.2-0.5,0.5-0.5l0,0
					c0.3,0,0.5,0.2,0.5,0.5V22.9z"/>
				<path class="st5" d="M32.9,24.9c0,0.3-0.2,0.5-0.5,0.5l0,0c-0.3,0-0.5-0.2-0.5-0.5v-5.7c0-0.3,0.2-0.5,0.5-0.5l0,0
					c0.3,0,0.5,0.2,0.5,0.5V24.9z"/>
			</g>
			<g transform="translate(50.843 25.059)">
				<path class="st5" d="M14.2,11.8c0,0.3,0.2,0.5,0.5,0.5l0,0l0,0c0.3,0,0.5-0.2,0.5-0.5V6c0-0.3-0.2-0.5-0.5-0.5l0,0
					c-0.3,0-0.5,0.2-0.5,0.5V11.8z"/>
				<path class="st5" d="M23.6,6.2c0,0.3,0.2,0.5,0.5,0.5l0,0l0,0c0.3,0,0.5-0.2,0.5-0.5V0.5c0-0.3-0.2-0.5-0.5-0.5l0,0
					c-0.3,0-0.5,0.2-0.5,0.5V6.2z"/>
				<path class="st5" d="M20.8,7.8c0,0.3,0.2,0.5,0.5,0.5l0,0l0,0c0.3,0,0.5-0.2,0.5-0.5V2.1c0-0.3-0.2-0.5-0.5-0.5l0,0
					c-0.3,0-0.5,0.2-0.5,0.5V7.8z"/>
				<path class="st5" d="M17.6,9.6c0,0.3,0.2,0.5,0.5,0.5l0,0l0,0c0.3,0,0.5-0.2,0.5-0.5V3.9c0-0.3-0.2-0.5-0.5-0.5l0,0
					c-0.3,0-0.5,0.2-0.5,0.5V9.6z"/>
				<path class="st5" d="M10.6,13.8c0,0.3,0.2,0.5,0.5,0.5l0,0c0.3,0,0.5-0.2,0.5-0.5V8.1c0-0.3-0.2-0.5-0.5-0.5l0,0
					c-0.3,0-0.5,0.2-0.5,0.5V13.8z"/>
				<path class="st5" d="M7.1,15.9c0,0.3,0.2,0.5,0.5,0.5c0,0,0,0,0,0l0,0c0.3,0,0.5-0.2,0.5-0.5l0,0v-5.7C8,10,7.8,9.8,7.6,9.8l0,0
					l0,0c-0.3,0-0.5,0.2-0.5,0.5c0,0,0,0,0,0V15.9z"/>
				<path class="st5" d="M3.5,18c0,0.3,0.2,0.5,0.5,0.5l0,0c0.3,0,0.5-0.2,0.5-0.5v-5.7c0-0.3-0.2-0.5-0.5-0.5c0,0,0,0,0,0l0,0
					c-0.3,0-0.5,0.2-0.5,0.5V18z"/>
				<path class="st5" d="M0,20.1c0,0.3,0.2,0.5,0.5,0.5l0,0c0.3,0,0.5-0.2,0.5-0.5l0,0v-5.7c0-0.3-0.2-0.5-0.5-0.5l0,0l0,0
					c-0.3,0-0.5,0.2-0.5,0.5V20.1z"/>
			</g>
			<path class="st1" d="M81.9,59.2L43.4,81.6v4.5l-2.9,1.7v4.5L37.7,94v4.5l44.2-26.1L81.9,59.2z"/>
		</g>
		<g transform="translate(66.886 76.889)">
			<g transform="translate(0 0)">
				<path class="st0" d="M21.1,7.6l-5.2-3L0.3,13.6l5.1,3L21.1,7.6z"/>
				<g transform="translate(0)">
					<g transform="translate(0.388)">
						<g>
							<g transform="translate(12.422 4.076)">
								<path class="st6" d="M0.1,0l5,2.9c0,0,0,0-0.1,0L0.1,0C0,0,0,0,0.1,0z"/>
							</g>
							<g transform="translate(12.204 4.072)">
								<path class="st6" d="M5,3L0,0.1C0.1,0,0.1,0,0.2,0l5,2.9C5.2,2.9,5.1,2.9,5,3z"/>
							</g>
							<g transform="translate(12.172 3.217)">
								<path class="st4" d="M5,3.4L0,0.5V0l5,2.9V3.4z"/>
							</g>
							<g transform="translate(11.824 3.418)">
								<path class="st1" d="M5,3.4L0,0.5V0l5,2.9V3.4z"/>
							</g>
							<g transform="translate(12.001 3.671)">
								<path class="st4" d="M0,0.3C0.1,0.2,0.2,0.1,0.2,0l5,2.9c0,0.1-0.1,0.2-0.2,0.3L0,0.3z"/>
							</g>
							<g transform="translate(11.028 4.125)">
								<path class="st6" d="M5,3.6L0,0.7L1.2,0l5,2.9L5,3.6z"/>
							</g>
							<g transform="translate(11.876 3.971)">
								<path class="st4" d="M0,0c0,0,0.1,0,0.1,0l5,2.9c0,0-0.1,0-0.1,0L0,0z"/>
							</g>
							<g transform="translate(11.826 3.872)">
								<path class="st1" d="M5.1,3l-5-2.9C0,0.1,0,0,0,0l5,2.9C5,3,5.1,3,5.1,3z"/>
							</g>
							<g transform="translate(12.122 3.106)">
								<path class="st4" d="M0,0.1c0,0,0-0.1,0-0.1l5,2.9c0,0,0.1,0.1,0,0.1L0,0.1z"/>
							</g>
							<g transform="translate(16.07 7.002)">
								<path class="st2" d="M1.4,0c0.1,0,0.2,0.1,0.2,0.3c0,0.3-0.2,0.5-0.4,0.7L0,1.6c0-0.1,0.1-0.3,0.1-0.4c0-0.2,0-0.3-0.1-0.5
									l1.2-0.7C1.2,0,1.3,0,1.4,0z"/>
							</g>
							<g transform="translate(11.998 3.094)">
								<path class="st1" d="M0.1,0l5,2.9c0,0-0.1,0-0.1,0L0,0C0,0,0.1,0,0.1,0z"/>
							</g>
							<g transform="translate(11.824 3.118)">
								<path class="st1" d="M5,3.2L0,0.3C0,0.2,0.1,0.1,0.2,0l5,2.9C5.1,3,5,3.1,5,3.2z"/>
							</g>
							<path class="st5" d="M16.1,7.7c0-0.1-0.1-0.2-0.2-0.2l-5-2.9C10.9,4.6,11,4.7,11,4.8c0.1,0.1,0.1,0.3,0.1,0.5
								c0,0.1,0,0.3-0.1,0.4l5,2.9c0-0.1,0.1-0.3,0.1-0.4C16.2,8,16.1,7.9,16.1,7.7z"/>
							<g transform="translate(8.685 4.314)">
								<path class="st7" d="M5.3,5.6l-5-2.9C0.2,2.6,0.1,2.4,0.1,2.3C0,2.2,0,2.1,0,2c0-0.2,0-0.4,0.1-0.6c0.2-0.5,0.5-1,1-1.2
									C1.3,0,1.6,0,1.8,0.1l5,2.9C6.6,2.9,6.3,2.9,6.1,3.1c-0.5,0.3-0.8,0.7-1,1.2C5.1,4.5,5,4.7,5,4.9c0,0.1,0,0.2,0.1,0.4
									C5.1,5.4,5.2,5.5,5.3,5.6z"/>
							</g>
							<g transform="translate(14.427 8.144)">
								<path class="st1" d="M0.3,0c0.2-0.1,0.3,0,0.4,0.2c0,0.2-0.1,0.5-0.3,0.6C0.2,1,0,0.9,0,0.6C0,0.4,0.1,0.2,0.3,0z"/>
							</g>
							<g transform="translate(13.727 7.244)">
								<path class="st4" d="M1,0.1c-0.5,0.3-0.8,0.7-1,1.2C0,1.6,0,1.8,0,2c0,0.1,0,0.2,0.1,0.4c0.1,0.4,0.5,0.5,1,0.2
									c0.5-0.3,0.9-0.8,1-1.4c0-0.1,0.1-0.3,0.1-0.4c0-0.2,0-0.3-0.1-0.5C1.8,0,1.5-0.1,1,0.1z M1,1.7c-0.2,0.1-0.4,0-0.4-0.2
									c0-0.2,0.1-0.5,0.3-0.6c0.2-0.1,0.3,0,0.4,0.2C1.4,1.4,1.3,1.6,1,1.7"/>
							</g>
							<g transform="translate(8.819 3.854)">
								<path class="st4" d="M5,3.3L0,0.4L0.7,0l5,2.9L5,3.3z"/>
							</g>
							<g transform="translate(8.818 3.375)">
								<path class="st8" d="M5,3.3L0,0.4L0.7,0l5,2.9L5,3.3z"/>
							</g>
							<g transform="translate(9.491 3.495)">
								<path class="st4" d="M0,0.4C0.1,0.3,0.2,0.1,0.2,0l5,2.9c0,0.1-0.1,0.3-0.2,0.4L0,0.4z"/>
							</g>
							<g transform="translate(9.639 3.361)">
								<path class="st4" d="M0.1,0.1C0.1,0.1,0,0,0,0l5,2.9c0,0,0.1,0.1,0.1,0.1L0.1,0.1z"/>
							</g>
							<g transform="translate(8.669 4.242)">
								<path class="st4" d="M0,0c0,0,0.1,0,0.1,0l5,2.9c0,0-0.1,0-0.1,0L0,0z"/>
							</g>
							<g transform="translate(8.609 3.764)">
								<path class="st8" d="M5.1,3.4l-5-2.9C0,0.5,0,0.4,0,0.4C0,0.2,0.1,0.1,0.2,0l5,2.9C5.1,3,5.1,3.1,5,3.3
									C5,3.3,5.1,3.4,5.1,3.4z"/>
							</g>
							<g transform="translate(6.658 2.348)">
								<path class="st4" d="M5,4.9L0,2l3.4-2l5,2.9L5,4.9z"/>
							</g>
							<g transform="translate(9.49 3.347)">
								<path class="st8" d="M0.1,0l5,2.9c0,0-0.1,0-0.1,0L0,0C0,0,0.1,0,0.1,0z"/>
							</g>
							<g transform="translate(3.256 5.904)">
								<path class="st6" d="M5,6.3L0,3.4L5.9,0l5,2.9L5,6.3z"/>
							</g>
							<g transform="translate(5.617 5.852)">
								<path class="st4" d="M0,0l5,2.9l0,0L0,0z"/>
							</g>
							<g transform="translate(4.736 6.211)">
								<path class="st4" d="M5,3.3L0,0.4L0.7,0l5,2.9L5,3.3z"/>
							</g>
							<g transform="translate(4.736 5.732)">
								<path class="st8" d="M5,3.3L0,0.4L0.7,0l5,2.9L5,3.3z"/>
							</g>
							<g transform="translate(5.409 5.718)">
								<path class="st4" d="M0.2,0.1c0-0.1,0-0.1-0.1-0.1l5,2.9c0,0,0.1,0.1,0.1,0.1C5.2,3,5,2.9,5,2.9L4.7,2.7L2.7,1.6L0.2,0.1
									l5,2.9l0,0c0,0.1-0.1,0.3-0.2,0.4L0,0.5C0.1,0.4,0.2,0.3,0.2,0.1z"/>
							</g>
							<g transform="translate(4.588 6.599)">
								<path class="st4" d="M0,0c0,0,0.1,0,0.1,0l5,2.9c0,0-0.1,0-0.1,0L0,0z"/>
							</g>
							<g transform="translate(4.527 6.12)">
								<path class="st8" d="M5.1,3.4l-5-2.9C0,0.5,0,0.4,0,0.4C0,0.2,0.1,0.1,0.2,0l5,2.9C5.1,3,5,3.1,5,3.3C5,3.3,5.1,3.4,5.1,3.4
									z"/>
							</g>
							<g transform="translate(2.557 4.785)">
								<path class="st4" d="M5,4.8L0,1.9L3.3,0l5,2.9L5,4.8z"/>
							</g>
							<g transform="translate(5.408 5.704)">
								<path class="st8" d="M0.1,0l5,2.9c0,0-0.1,0-0.1,0L0,0C0,0,0.1,0,0.1,0z"/>
							</g>
							<path class="st5" d="M8.3,12.2c0-0.1-0.1-0.2-0.2-0.2L3,9.1c0.1,0.1,0.2,0.1,0.2,0.2c0.1,0.1,0.1,0.3,0.1,0.5
								c0,0.1,0,0.3-0.1,0.4l5,2.9c0-0.1,0.1-0.3,0.1-0.4C8.4,12.5,8.4,12.4,8.3,12.2z"/>
							<g transform="translate(1.056 8.774)">
								<path class="st7" d="M5.3,5.6l-5-2.9C0.2,2.6,0.1,2.4,0.1,2.3C0,2.2,0,2.1,0,2c0-0.2,0-0.4,0.1-0.6c0.2-0.5,0.5-1,1-1.2
									C1.3,0,1.6,0,1.8,0.1l5,2.9C6.6,2.9,6.3,2.9,6.1,3.1c-0.5,0.3-0.8,0.7-1,1.2C5.1,4.5,5,4.7,5,4.9c0,0.1,0,0.2,0.1,0.4
									C5.1,5.4,5.2,5.5,5.3,5.6z"/>
							</g>
							<g transform="translate(6.799 12.604)">
								<path class="st1" d="M0.3,0c0.2-0.1,0.4,0,0.4,0.2c0,0.2-0.1,0.5-0.3,0.6C0.2,1,0,0.9,0,0.7C0,0.4,0.1,0.2,0.3,0z"/>
							</g>
							<g transform="translate(6.097 11.704)">
								<path class="st4" d="M1,0.1c-0.5,0.3-0.8,0.7-1,1.2C0,1.6,0,1.8,0,2c0,0.1,0,0.2,0.1,0.4c0.1,0.4,0.5,0.5,1,0.2
									c0.5-0.3,0.9-0.8,1-1.4c0-0.1,0.1-0.3,0.1-0.4c0-0.2,0-0.3-0.1-0.5C1.8,0,1.5-0.1,1,0.1z M1,1.8c-0.2,0.1-0.3,0-0.3-0.2
									C0.7,1.3,0.8,1.1,1,1c0.2-0.1,0.4,0,0.4,0.2C1.4,1.4,1.3,1.6,1,1.8"/>
							</g>
							<g transform="translate(6.651 0.275)">
								<path class="st1" d="M5,4.4L0,1.5L2.6,0l5,2.9L5,4.4z"/>
							</g>
							<g transform="translate(6.651 1.758)">
								<path class="st1" d="M5,5.5L0,2.5L0,0l5,2.9L5,5.5z"/>
							</g>
							<g transform="translate(5.817 2.24)">
								<path class="st4" d="M5,5.5L0,2.5L0,0l5,2.9L5,5.5z"/>
							</g>
							<g transform="translate(0.143 10.391)">
								<path class="st6" d="M5,3.6L0,0.7L1.2,0l5,2.9L5,3.6z"/>
							</g>
							<g transform="translate(0.634 9.836)">
								<path class="st4" d="M5,3.4L0,0.5V0l5,2.9L5,3.4z"/>
							</g>
							<g transform="translate(0.286 10.038)">
								<path class="st1" d="M5,3.4L0,0.5V0l5,2.9V3.4z"/>
							</g>
							<g transform="translate(0.462 10.289)">
								<path class="st4" d="M0,0.3C0.1,0.2,0.2,0.1,0.2,0l5,2.9c0,0.1-0.1,0.2-0.2,0.3L0,0.3z"/>
							</g>
							<g transform="translate(0.338 10.589)">
								<path class="st4" d="M0,0c0,0,0.1,0,0.1,0l5,2.9c0,0-0.1,0-0.1,0L0,0z"/>
							</g>
							<g transform="translate(0.287 10.49)">
								<path class="st1" d="M5.1,3l-5-2.9C0,0.1,0,0,0,0l5,2.9C5,3,5.1,3,5.1,3z"/>
							</g>
							<g transform="translate(0.583 9.724)">
								<path class="st4" d="M0.1,0.1C0.1,0.1,0,0,0,0l5,2.9C5.1,3,5.1,3,5.1,3L0.1,0.1z"/>
							</g>
							<g transform="translate(0.46 9.712)">
								<path class="st1" d="M0.1,0l5,2.9c0,0-0.1,0-0.1,0L0,0C0,0,0.1,0,0.1,0z"/>
							</g>
							<g transform="translate(0.286 9.736)">
								<path class="st1" d="M5,3.2L0,0.3C0,0.2,0.1,0.1,0.2,0l5,2.9C5.1,3,5,3.1,5,3.2z"/>
							</g>
							<g transform="translate(5.328 12.642)">
								<path class="st1" d="M0.2,0C0.3,0,0.3,0,0.3,0.1v0.5c0,0.1-0.1,0.2-0.2,0.3C0.1,0.9,0,0.9,0,0.8V0.3C0,0.2,0.1,0.1,0.2,0z"
									/>
							</g>
							<g transform="translate(3.221 2.24)">
								<path class="st1" d="M5,4.4L0,1.5L2.6,0l5,2.9L5,4.4z"/>
							</g>
							<path class="st1" d="M12.2,1.4c-0.2-0.1-0.4-0.1-0.6,0.1l-1.4,0.8L10,2.3l5,2.9l0.1-0.1l1.4-0.8c0.2-0.1,0.4-0.1,0.6-0.1
								L12.2,1.4z"/>
							<g transform="translate(8.299 8.834)">
								<path class="st2" d="M0,3.4L5.9,0C5.8,0.2,5.8,0.4,5.8,0.6c0,0.1,0,0.2,0.1,0.4L0,4.3c0-0.1,0.1-0.3,0.1-0.4
									C0.1,3.7,0.1,3.5,0,3.4z"/>
							</g>
							<g transform="translate(4.799 13.321)">
								<path class="st2" d="M0.4,0.7L1.6,0C1.5,0.2,1.5,0.4,1.5,0.6c0,0.1,0,0.2,0.1,0.4L0.4,1.6C0.2,1.7,0,1.6,0,1.4
									C0,1.2,0.1,1,0.2,0.8C0.3,0.8,0.3,0.7,0.4,0.7z"/>
							</g>
							<path class="st1" d="M9,0.1C8.7,0,8.4,0,8.2,0.1L4.2,2.4c-0.5,0.3-0.8,0.8-1,1.3l5,2.9c0.2-0.5,0.5-1,1-1.3l3.9-2.3
								c0.3-0.2,0.6-0.2,0.9-0.1L9,0.1z"/>
							<path class="st1" d="M2.6,6.7l-1.7,1C0.3,8,0,8.5,0,9.1l0,2.1l5,2.9l0-2.1c0-0.6,0.3-1.1,0.8-1.5l1.7-1L2.6,6.7z"/>
						</g>
					</g>
					<g transform="translate(0 11.014)">
						<path class="st2" d="M5.3,3.9l-5.2-3C0,0.9,0,0.8,0,0.7c0-0.2,0.1-0.4,0.2-0.6c0,0,0.1-0.1,0.1-0.1l5.2,3
							C5.5,3,5.5,3.1,5.4,3.1C5.3,3.3,5.2,3.5,5.2,3.7C5.2,3.8,5.2,3.9,5.3,3.9z"/>
					</g>
					<path class="st9" d="M5.2,12.6c0,0.4-0.1,0.6-0.3,0.6S4.5,13,4.5,12.7S4.7,12,4.9,12S5.2,12.3,5.2,12.6z"/>
					<path class="st9" d="M1.3,10.4C1.3,10.7,1.2,11,1,11s-0.3-0.3-0.3-0.6S0.8,9.8,1,9.8S1.3,10,1.3,10.4z"/>
					<path class="st4" d="M11.3,7.7l0-2.5L8.9,6.5L8.6,9.2L11.3,7.7z"/>
					<g transform="translate(5.429 2.93)">
						<path class="st4" d="M9,0.4L6.7,1.8l0,2.5l2.9-1.7L9,0.4L9,0.4z"/>
						<path class="st1" d="M12.4,4.1c-0.1,0-0.2,0-0.2,0L11,4.8c-0.2-0.3-0.5-0.4-1-0.1c-0.5,0.3-0.8,0.7-1,1.2L3.3,9.3
							C3.1,9,2.7,8.9,2.3,9.1c-0.5,0.3-0.8,0.7-1,1.2l-1.2,0.7c-0.1,0-0.1,0.1-0.1,0.1l0-2.1C0,8.5,0.3,8,0.8,7.7l1.7-1L3.2,4
							c0-0.1,0-0.2,0.1-0.2c0.2-0.5,0.5-1,1-1.3l3.9-2.3C8.5-0.1,9,0,9.2,0.3c0,0,0.1,0.1,0.1,0.1L10,2.4l0.1-0.1l1.4-0.8
							C12,1.2,12.4,1.4,12.4,2L12.4,4.1z M5.8,4.8l0-2.5L3.5,3.6l0,0L3.2,6.3L5.8,4.8z M9.6,2.6L8.9,0.4L6.6,1.8l0,2.5L9.6,2.6z"/>
					</g>
					<path class="st4" d="M8.7,6.7l-5-2.9c0,0.1-0.7,2.9-0.7,2.9l1.6,0.9c0,0,0,0,0,0l0.3,0.2c0,0,0,0,0,0l2.4,1.4l0,0l0.3,0.2l0,0
						L8,9.6C8,9.6,8.6,6.7,8.7,6.7z"/>
				</g>
			</g>
			<g transform="translate(14.642 5.975)">
				<path class="st4" d="M0.4,0c0.1,0,0.1,0,0.1,0.1c0,0.1,0,0.1-0.1,0.2L0.1,0.5C0,0.5,0,0.5,0,0.4c0-0.1,0-0.1,0.1-0.2L0.4,0z"/>
			</g>
			<g transform="translate(10.756 8.227)">
				<path class="st4" d="M0.4,0c0.1,0,0.1,0,0.1,0.1c0,0.1,0,0.1-0.1,0.2L0.1,0.5C0,0.5,0,0.5,0,0.4c0-0.1,0-0.1,0.1-0.2L0.4,0z"/>
			</g>
		</g>
	</g>
	<g transform="translate(874.775 1148.796)">
		<path class="st10" d="M1.3,52.3l20,11.4l3.7-2.1L5,50.2L1.3,52.3z"/>
		<g transform="translate(0 6.474)">
			<g transform="translate(0 0)">
				<path class="st11" d="M6.3,0.2L1,2.4L0.8,2.5c-0.7,0.3-1,1.1-0.7,1.8c0,0,0,0,0,0.1l4.5,9.3c0.2,0.5,0.8,0.6,1.2,0.4
					c0.4-0.2,0.6-0.7,0.5-1.1L2.8,3.2l-0.9,2l5.6-1.1c1.1-0.2,1.8-1.3,1.6-2.4C8.9,0.5,7.8-0.2,6.7,0l0,0C6.6,0.1,6.4,0.1,6.3,0.2z"
					/>
			</g>
		</g>
		<g transform="translate(1.446 6.617)">
			<path class="st2" d="M1.2,5.3C0.4,4.6,0,3.7,0,2.6c0-0.4,0.2-0.7,0.5-0.9l3.9-1.7c0.4-0.1,0.7,0,1,0.2C6.3,0.9,6.7,1.9,6.6,3
				c0,0.4-0.2,0.7-0.5,0.9L2.2,5.5C1.8,5.6,1.4,5.6,1.2,5.3z"/>
		</g>
		<path class="st12" d="M1,8.8l1-0.4C1.7,8.5,1.5,8.9,1.5,9.2c-0.1,1,0.4,2,1.2,2.7c0.3,0.3,0.7,0.3,1,0.2l-1,0.4
			c-0.4,0.1-0.7,0-1-0.2c-0.8-0.7-1.2-1.6-1.2-2.7C0.4,9.3,0.6,9,1,8.8z"/>
		<g transform="translate(3.301 50.909)">
			<path class="st5" d="M1.9,0c0,0-2.9,2.3-1.6,2.3C1.2,2.2,2,1.8,2.7,1.2C3,1.1,3.1,0.8,3.1,0.4L1.9,0z"/>
		</g>
		<g transform="translate(10.894 55.184)">
			<path class="st5" d="M1.9,0c0,0-2.9,2.3-1.6,2.3C1.2,2.2,2,1.8,2.7,1.2C3,1.1,3.1,0.8,3.1,0.4L1.9,0z"/>
		</g>
		<g transform="translate(4.902 23.561)">
			<path class="st4" d="M0.6,2.8L0,26.9c0,0.5,0.4,1,0.9,1c0.5,0,0.9-0.3,1-0.8L6.2,3.3c0.3-1.5-0.8-3-2.3-3.3
				c-1.5-0.3-3,0.7-3.3,2.3C0.6,2.5,0.6,2.6,0.6,2.8z"/>
		</g>
		<g transform="translate(8.57 25.626)">
			<path class="st4" d="M0,3.3l3.9,26c0.1,0.5,0.6,0.9,1.1,0.8c0.5-0.1,0.8-0.5,0.8-1L5.7,2.8c0-1.6-1.2-2.8-2.8-2.9
				C1.3-0.1,0,1.2,0,2.8c0,0,0,0.1,0,0.1C0,3,0,3.1,0,3.3z"/>
		</g>
		<path class="st2" d="M4.9,8.2c0-1.1,0.6-1.7,1.5-1.5l0,0c3.1,0.7,5.8,2.4,7.6,4.9l0,0c0.5,0.7,0.8,1.6,0.9,2.5
			c0,0.2,0,0.4-0.1,0.7c0,0,0,10.1,0.1,13.4c0.1,4.1-10.2,0.3-10.1-2.1S4.9,8.4,4.9,8.2z"/>
		<path class="st12" d="M7.9,10L9,12.2c0,0,3.5-2.7,2.1-4.3S7,7.7,6.2,10.6L7.9,10z"/>
		<path class="st4" d="M7.3,11.1l-0.1-0.8L7.8,10l0.1,0l0.4,0.7l-0.7,0.4l0.5,6.9l-1.5,1.6l-0.8-2.9L7.3,11.1z"/>
		<path class="st13" d="M7.4,14.3"/>
		<g transform="translate(7.379 6.098)">
			<path class="st11" d="M3.5,0C3.1,0.8,3.1,1.7,3.6,2.5c-1.1,2.6-4,1.1-3.5,0s0-1.6,0-1.6L3.5,0z"/>
		</g>
		<path class="st14" d="M6.5,2.3C7.7,3,9,3.4,10.4,3.6c0,0,0.9,0.5,0.9,1.2l0,0c0.2-0.1,0.4-0.3,0.6,0c0.3,0.5-0.6,1.5-0.9,1.2
			c-0.1,0.4-0.3,0.7-0.5,1.1C9.9,7.7,9.2,8.1,8.3,8.3C6,9,5.9,6.3,6.3,3.2C6.3,2.9,6.4,2.6,6.5,2.3z"/>
		<path class="st5" d="M9.7,4.2c0.6,0.1,0.9,0.7,0.8,1.3c0,0.2-0.1,0.3-0.2,0.4l0.6-0.1c0.6-0.5,0.9-1.2,0.8-2
			C11.5,2.5,9.7,4.2,9.7,4.2z"/>
		<path class="st5" d="M12.9,2.4C12.4,0.9,11-0.1,9.4,0C8.7,0,4.2,1.6,6.7,3.5C7.8,4.1,9,4.3,10.3,4.2c0,0,1.1-0.2,1,0.6l0,0
			c0.2-0.1,0.4-0.3,0.6,0c0.3,0.5-0.6,1.5-0.9,1.2c-0.1,0.4-0.3,0.7-0.4,1c0,0,0,0,0,0.1c-0.3,0.6,0.1,0.8,0.1,0.8
			c0-0.6,0.9-1.5,1.1-1.7C12.8,5.3,13.3,3.8,12.9,2.4z"/>
		<g transform="translate(11.58 12.755)">
			<g transform="translate(0 0)">
				<path class="st11" d="M0.3,2.9l5.9,8.8L6.6,10l-5.2,4.4c-0.4,0.3-0.4,0.8-0.1,1.2c0.3,0.3,0.7,0.4,1.1,0.2l5.8-3.6
					c0.6-0.3,0.7-1,0.4-1.6l-0.1-0.1L3.6,1C3.1,0.1,1.9-0.3,1,0.2C0.1,0.7-0.3,1.8,0.2,2.7c0,0,0,0,0,0.1C0.3,2.8,0.3,2.9,0.3,2.9z"
					/>
			</g>
		</g>
		<g transform="translate(11.236 12.498)">
			<path class="st2" d="M5.6,4.9C5.1,5.7,4.2,6.3,3.2,6.4C2.9,6.4,2.5,6.3,2.3,6L0.1,2.5c-0.2-0.3-0.1-0.7,0.1-1
				C0.7,0.6,1.6,0.1,2.6,0c0.4,0,0.7,0.1,0.9,0.4l2.2,3.5C5.8,4.2,5.8,4.6,5.6,4.9z"/>
		</g>
		<path class="st12" d="M14.1,19.4l-0.6-0.9c0.2,0.3,0.6,0.4,0.9,0.4c1-0.1,1.9-0.6,2.4-1.5c0.2-0.3,0.2-0.7,0.1-1l0.6,0.9
			c0.2,0.3,0.1,0.7-0.1,1c-0.5,0.9-1.4,1.4-2.4,1.5C14.7,19.9,14.3,19.7,14.1,19.4z"/>
	</g>
</g>
</svg>
