<svg xmlns="http://www.w3.org/2000/svg" width="18.688" height="15.184" viewBox="0 0 18.688 15.184"><g transform="translate(-134.844 -243.9)"><path d="M138.326,253.5a4.716,4.716,0,0,1-2.832-4.056c0-2.7,2.876-4.891,6.424-4.891a7.845,7.845,0,0,1,3.705.895" transform="translate(0 0)" fill="none" stroke="#777" stroke-linecap="round" stroke-linejoin="round" stroke-width="1.3"/><path d="M162.275,261.987a4.4,4.4,0,0,0,1.57-3.262c0-2.794-2.975-5.058-6.644-5.058s-6.644,2.264-6.644,5.058,2.975,5.058,6.644,5.058a8.361,8.361,0,0,0,2.86-.5l2.584,1.784Z" transform="translate(-10.963 -6.635)" fill="none" stroke="#777" stroke-linecap="round" stroke-linejoin="round" stroke-width="1.3"/><path d="M164.088,269.957a.87.87,0,1,1-.87-.871A.871.871,0,0,1,164.088,269.957Z" transform="translate(-19.544 -17.857)" fill="#777"/><path d="M174.654,269.957a.87.87,0,1,1-.87-.871A.871.871,0,0,1,174.654,269.957Z" transform="translate(-27.234 -17.857)" fill="#777"/><path d="M185.221,269.957a.87.87,0,1,1-.87-.871A.87.87,0,0,1,185.221,269.957Z" transform="translate(-34.924 -17.857)" fill="#777"/></g></svg>