<svg width="196" height="38" viewBox="0 0 196 38" fill="none" xmlns="http://www.w3.org/2000/svg">
<g id="_?&#235;&#141;&#137;&#236;&#148;&#160;??1" clip-path="url(#clip0_4_53)">
<g id="Group">
<path id="Vector" d="M34.3135 18.4458C33.2894 16.6426 31.8978 15.5898 30.1411 15.2899L29.901 15.2479C28.1505 14.9492 26.4967 15.4787 24.941 16.8388C23.999 17.6547 23.373 18.9914 23.0582 20.8538L21.5245 29.9453L17.6241 29.2763L18.7719 22.4744C19.3121 19.2765 19.6441 17.688 19.769 17.7102C19.8376 17.3696 20.1966 16.6586 20.8495 15.5799C21.484 14.6567 22.2754 13.8495 23.2223 13.1571C24.413 12.3388 25.4567 11.8352 26.3571 11.6439C27.7499 11.2514 29.1893 11.181 30.6691 11.4341C32.1575 11.6908 33.4952 12.2351 34.6834 13.0707C35.4686 13.5496 36.2833 14.3716 37.1297 15.5404C37.2596 15.7305 37.3809 15.9243 37.4985 16.118C36.1191 6.99078 28.2999 0 18.8564 0C12.958 0 7.69543 2.72892 4.23726 7.00065C4.64886 7.00929 5.08863 7.05125 5.55781 7.13271L18.6163 9.3704L17.9389 13.3805L4.75788 11.1218C3.72643 10.9453 3.00858 11.3477 2.60433 12.3289L2.55656 12.6128C2.45366 13.2188 2.70356 13.7816 3.30871 14.3037C3.50103 14.4197 3.70928 14.4962 3.93346 14.5357L10.5644 15.6712C12.2684 15.9625 13.3941 16.3377 13.9454 16.7944C15.337 17.73 16.2031 18.9432 16.5424 20.433C16.72 21.3475 16.7396 22.2103 16.6036 23.0236C16.2729 24.975 15.0908 26.4647 13.0536 27.4904C12.4558 27.7409 11.7931 27.9026 11.063 27.9717C10.5203 28.0001 9.64686 27.91 8.43656 27.7039L1.53613 26.5215C4.42836 33.2728 11.0948 38 18.8564 38C24.6886 38 29.9022 35.3303 33.3616 31.1413L34.7581 22.8583C35.073 20.9982 34.926 19.527 34.3147 18.4471L34.3135 18.4458ZM29.2971 31.2771L25.4494 30.618L27.1533 20.5366L30.9986 21.1957L29.2971 31.2771Z" fill="#008CCE"/>
<path id="Vector_2" d="M12.4191 22.5571L12.5073 22.1967C12.6396 21.4191 12.359 20.7588 11.6681 20.212C11.4231 20.022 11.0912 19.8911 10.6698 19.8183L0.20335 18.0435C0.13965 18.0336 0.08085 18.0212 0.025725 18.0101C0.008575 18.3384 0 18.668 0 19C0 20.0824 0.091875 21.1427 0.263375 22.1757L10.0144 23.8469C11.1255 24.0382 11.9278 23.6074 12.4178 22.5571H12.4191Z" fill="#008CCE"/>
</g>
<g id="Group_2">
<path id="Vector_3" d="M48.1315 29.0838H47.2152C47.1858 28.4655 46.8648 28.0643 46.0661 28.0643C45.2674 28.0643 44.8399 28.4371 44.8399 29.1727C44.8399 29.9663 45.2478 30.3292 45.9302 30.4477L46.3001 30.5168C47.5851 30.7427 48.3152 31.419 48.3152 32.636C48.3152 34.0591 47.5361 34.7947 46.1249 34.7947H45.9498C44.6059 34.7947 43.8758 34.1763 43.8268 32.9297H44.7431C44.7823 33.6468 45.2001 33.9702 45.951 33.9702H46.1262C46.9641 33.9702 47.4026 33.5481 47.4026 32.7138C47.4026 31.8794 47.0804 31.4783 46.3026 31.3413L45.9326 31.282C44.715 31.066 43.9261 30.4674 43.9261 29.1727C43.9261 27.878 44.6954 27.2399 46.0686 27.2399C47.4418 27.2399 48.0751 27.8582 48.1339 29.0838H48.1315Z" fill="white"/>
<path id="Vector_4" d="M49.1961 34.6972V29.174H49.9751L50.0437 29.7615C50.3255 29.3591 50.7935 29.0839 51.4366 29.0839C52.0797 29.0839 52.5575 29.4085 52.7412 29.8306C53.023 29.3492 53.5889 29.0839 54.2308 29.0839C55.1949 29.0839 55.789 29.7331 55.789 30.6736V34.6972H54.8739V30.8303C54.8739 30.212 54.5517 29.9083 53.9576 29.9083C53.3635 29.9083 52.9446 30.2811 52.9446 31.2043V34.6972H52.0295V30.8204C52.0295 30.1922 51.7073 29.9083 51.1132 29.9083C50.519 29.9083 50.1099 30.4181 50.1099 31.1944V34.6972H49.1948H49.1961Z" fill="white"/>
<path id="Vector_5" d="M60.5555 30.8303V34.6972H59.7274L59.6698 33.9418C59.4652 34.3923 58.8221 34.7453 58.1986 34.7453C57.3901 34.7453 56.6992 34.2751 56.611 33.4889C56.5044 32.4101 57.2541 31.6733 58.3443 31.498C58.7535 31.4388 59.2692 31.4104 59.649 31.4104V30.9204C59.649 30.2329 59.317 29.8997 58.6751 29.8997C58.0332 29.8997 57.6914 30.2243 57.7404 30.8118H56.8449C56.7469 29.722 57.5064 29.0851 58.6763 29.0851C59.8462 29.0851 60.5555 29.6837 60.5555 30.8315V30.8303ZM59.6502 32.1448C59.3292 32.1349 58.7829 32.1547 58.4129 32.2534C57.771 32.42 57.4489 32.8125 57.5077 33.2939C57.5567 33.6752 57.869 33.9011 58.3737 33.8814C59.2018 33.8431 59.6502 33.2247 59.6502 32.1448Z" fill="white"/>
<path id="Vector_6" d="M64.2586 29.1332V30.0552C63.2455 29.7713 62.5154 30.2329 62.5154 31.1142V34.696H61.6003V29.1727H62.4284L62.5154 29.7701C62.8364 29.2295 63.5187 28.9851 64.2586 29.132V29.1332Z" fill="white"/>
<path id="Vector_7" d="M65.2729 33.5974V30.007H64.631V29.1727H65.2729V27.8866L66.1892 27.7002V29.1739H67.0945V30.0082H66.1892V33.4209C66.1892 33.8825 66.3742 33.9233 67.0063 33.8825V34.6971C65.9161 34.8823 65.2729 34.607 65.2729 33.5974Z" fill="white"/>
<path id="Vector_8" d="M74.5167 34.6972H73.6017V31.2524H71.1272V34.6972H70.2121V27.3275H71.1272V30.4181H73.6017V27.3275H74.5167V34.6972Z" fill="white"/>
<path id="Vector_9" d="M75.5617 33.047V29.1727H76.478V32.9594C76.478 33.5975 76.848 33.99 77.4911 33.99C78.1342 33.99 78.5826 33.4593 78.5826 32.7039V29.1727H79.4976V34.696H78.6891L78.6205 34.0579C78.3768 34.5084 77.8218 34.7935 77.2081 34.7935C76.2048 34.7935 75.5617 34.0579 75.5617 33.047Z" fill="white"/>
<path id="Vector_10" d="M80.6001 34.6972V29.174H81.3792L81.4478 29.7615C81.7296 29.3591 82.1975 29.0839 82.8406 29.0839C83.4838 29.0839 83.9615 29.4085 84.1453 29.8306C84.427 29.3492 84.9929 29.0839 85.6349 29.0839C86.5989 29.0839 87.1931 29.7331 87.1931 30.6736V34.6972H86.278V30.8303C86.278 30.212 85.9558 29.9083 85.3617 29.9083C84.7676 29.9083 84.3486 30.2811 84.3486 31.2043V34.6972H83.4335V30.8204C83.4335 30.1922 83.1113 29.9083 82.5172 29.9083C81.9231 29.9083 81.5139 30.4181 81.5139 31.1944V34.6972H80.5989H80.6001Z" fill="white"/>
<path id="Vector_11" d="M91.9583 30.8303V34.6972H91.1302L91.0726 33.9418C90.8681 34.3923 90.2249 34.7453 89.6014 34.7453C88.7929 34.7453 88.102 34.2751 88.0138 33.4889C87.9072 32.4101 88.6569 31.6733 89.7472 31.498C90.1563 31.4388 90.6721 31.4104 91.0518 31.4104V30.9204C91.0518 30.2329 90.7198 29.8997 90.0779 29.8997C89.436 29.8997 89.0943 30.2243 89.1433 30.8118H88.2478C88.1498 29.722 88.9093 29.0851 90.0792 29.0851C91.249 29.0851 91.9583 29.6837 91.9583 30.8315V30.8303ZM91.053 32.1448C90.7321 32.1349 90.187 32.1547 89.8158 32.2534C89.1739 32.42 88.8517 32.8125 88.9105 33.2939C88.9595 33.6752 89.2719 33.9011 89.7766 33.8814C90.6047 33.8431 91.053 33.2247 91.053 32.1448Z" fill="white"/>
<path id="Vector_12" d="M96.9367 30.8303V34.6972H96.0216V30.929C96.0216 30.2798 95.6615 29.8985 95.0184 29.8985C94.3752 29.8985 93.9183 30.4181 93.9183 31.1734V34.6972H93.0032V29.1739H93.8313L93.9183 29.7812C94.1523 29.369 94.6974 29.0851 95.2915 29.0851C96.2948 29.0851 96.9367 29.8219 96.9367 30.8315V30.8303Z" fill="white"/>
<path id="Vector_13" d="M104.312 32.6755V34.6972H103.397V32.773C103.397 32.1756 103.144 31.8115 102.628 31.6647H101.196V34.6972H100.281V27.3275H102.296C103.573 27.3275 104.486 28.0644 104.486 29.3579C104.486 30.3687 104.049 30.9969 103.386 31.3104C104 31.556 104.311 32.0757 104.311 32.6755H104.312ZM102.199 28.1619H101.196V30.8303H102.199C103.027 30.8303 103.573 30.2811 103.573 29.4085C103.573 28.5358 103.075 28.1619 102.199 28.1619Z" fill="white"/>
<path id="Vector_14" d="M108.464 33.1655H109.38C109.321 34.2159 108.514 34.7935 107.315 34.7935C106.116 34.7935 105.308 34.1467 105.308 32.9594V30.9291C105.308 29.7318 106.127 29.0839 107.315 29.0839C108.503 29.0839 109.33 29.7331 109.33 30.9291V32.2139H106.225V32.8224C106.225 33.5975 106.585 33.9702 107.315 33.9702C108.045 33.9702 108.406 33.695 108.464 33.1668V33.1655ZM106.225 31.0661V31.4092H108.415V31.0661C108.415 30.2798 108.055 29.9071 107.315 29.9071C106.575 29.9071 106.225 30.2798 106.225 31.0661Z" fill="white"/>
<path id="Vector_15" d="M113.91 30.644H112.995C113.005 30.1626 112.625 29.9071 112.079 29.9071C111.533 29.9071 111.164 30.191 111.164 30.6538C111.164 31.2031 111.495 31.4289 112.206 31.4475C113.395 31.4968 114.085 32.0856 114.085 33.1347C114.085 34.1838 113.239 34.7935 112.138 34.7935C111.105 34.7935 110.2 34.2344 110.2 33.0569H111.115C111.115 33.695 111.572 33.969 112.138 33.969C112.704 33.969 113.17 33.6753 113.17 33.1347C113.17 32.5941 112.712 32.2522 111.982 32.2435C110.979 32.2324 110.249 31.7536 110.249 30.6538C110.249 29.6825 110.882 29.0826 112.08 29.0826C113.278 29.0826 113.95 29.6319 113.912 30.644H113.91Z" fill="white"/>
<path id="Vector_16" d="M114.926 32.9594V30.9291C114.926 29.7318 115.744 29.0839 116.932 29.0839C118.121 29.0839 118.948 29.7331 118.948 30.9291V32.9594C118.948 34.1467 118.13 34.7935 116.932 34.7935C115.734 34.7935 114.926 34.1467 114.926 32.9594ZM115.842 31.0661V32.8224C115.842 33.5975 116.202 33.9702 116.932 33.9702C117.662 33.9702 118.032 33.5975 118.032 32.8224V31.0661C118.032 30.2798 117.672 29.9071 116.932 29.9071C116.192 29.9071 115.842 30.2798 115.842 31.0661Z" fill="white"/>
<path id="Vector_17" d="M119.904 33.047V29.1727H120.821V32.9594C120.821 33.5975 121.19 33.99 121.834 33.99C122.477 33.99 122.925 33.4593 122.925 32.7039V29.1727H123.84V34.696H123.032L122.963 34.0579C122.719 34.5084 122.164 34.7935 121.551 34.7935C120.547 34.7935 119.904 34.0579 119.904 33.047Z" fill="white"/>
<path id="Vector_18" d="M127.601 29.1332V30.0552C126.588 29.7713 125.858 30.2329 125.858 31.1142V34.696H124.943V29.1727H125.771L125.858 29.7701C126.179 29.2295 126.861 28.9851 127.601 29.132V29.1332Z" fill="white"/>
<path id="Vector_19" d="M131.206 32.9693H132.121C132.111 34.0875 131.371 34.7935 130.154 34.7935C128.936 34.7935 128.147 34.0974 128.147 32.9594V30.9291C128.147 29.7701 128.917 29.0839 130.066 29.0839C131.215 29.0839 132.023 29.6528 132.061 30.7612H131.166C131.108 30.1737 130.747 29.9083 130.066 29.9083C129.423 29.9083 129.062 30.2811 129.062 31.0673V32.8236C129.062 33.5987 129.47 33.9715 130.153 33.9715C130.894 33.9715 131.166 33.5901 131.205 32.9717L131.206 32.9693Z" fill="white"/>
<path id="Vector_20" d="M136.028 33.1655H136.944C136.885 34.2159 136.078 34.7935 134.879 34.7935C133.679 34.7935 132.872 34.1467 132.872 32.9594V30.9291C132.872 29.7318 133.69 29.0839 134.879 29.0839C136.067 29.0839 136.894 29.7331 136.894 30.9291V32.2139H133.788V32.8224C133.788 33.5975 134.149 33.9702 134.879 33.9702C135.609 33.9702 135.97 33.695 136.028 33.1668V33.1655ZM133.788 31.0661V31.4092H135.979V31.0661C135.979 30.2798 135.619 29.9071 134.879 29.9071C134.139 29.9071 133.788 30.2798 133.788 31.0661Z" fill="white"/>
<path id="Vector_21" d="M141.474 30.644H140.559C140.569 30.1626 140.189 29.9071 139.643 29.9071C139.096 29.9071 138.728 30.191 138.728 30.6538C138.728 31.2031 139.058 31.4289 139.77 31.4475C140.958 31.4968 141.649 32.0856 141.649 33.1347C141.649 34.1838 140.803 34.7935 139.701 34.7935C138.669 34.7935 137.764 34.2344 137.764 33.0569H138.679C138.679 33.695 139.136 33.969 139.701 33.969C140.267 33.969 140.734 33.6753 140.734 33.1347C140.734 32.5941 140.276 32.2522 139.546 32.2435C138.543 32.2324 137.813 31.7536 137.813 30.6538C137.813 29.6825 138.446 29.0826 139.644 29.0826C140.842 29.0826 141.513 29.6319 141.475 30.644H141.474Z" fill="white"/>
<path id="Vector_22" d="M147.205 34.6972H144.867V27.3275H147.205C148.617 27.3275 149.357 28.0644 149.357 29.4085V32.636C149.357 33.9702 148.617 34.6972 147.205 34.6972ZM145.782 33.8826H147.107C147.984 33.8826 148.441 33.4605 148.441 32.5385V29.4961C148.441 28.5741 147.984 28.1619 147.107 28.1619H145.782V33.8826Z" fill="white"/>
<path id="Vector_23" d="M153.43 33.1655H154.346C154.288 34.2159 153.48 34.7935 152.281 34.7935C151.082 34.7935 150.274 34.1467 150.274 32.9594V30.9291C150.274 29.7318 151.093 29.0839 152.281 29.0839C153.469 29.0839 154.296 29.7331 154.296 30.9291V32.2139H151.191V32.8224C151.191 33.5975 151.551 33.9702 152.281 33.9702C153.011 33.9702 153.372 33.695 153.43 33.1668V33.1655ZM151.191 31.0661V31.4092H153.381V31.0661C153.381 30.2798 153.021 29.9071 152.281 29.9071C151.541 29.9071 151.191 30.2798 151.191 31.0661Z" fill="white"/>
<path id="Vector_24" d="M155.808 29.1727L156.305 31.0167L156.899 33.4691L157.503 31.0167L158.001 29.1727H158.965L157.357 34.7441H156.442L154.845 29.1727H155.808Z" fill="white"/>
<path id="Vector_25" d="M162.569 33.1655H163.485C163.426 34.2159 162.619 34.7935 161.419 34.7935C160.22 34.7935 159.413 34.1467 159.413 32.9594V30.9291C159.413 29.7318 160.231 29.0839 161.419 29.0839C162.608 29.0839 163.435 29.7331 163.435 30.9291V32.2139H160.329V32.8224C160.329 33.5975 160.689 33.9702 161.419 33.9702C162.15 33.9702 162.511 33.695 162.569 33.1668V33.1655ZM160.329 31.0661V31.4092H162.52V31.0661C162.52 30.2798 162.159 29.9071 161.419 29.9071C160.68 29.9071 160.329 30.2798 160.329 31.0661Z" fill="white"/>
<path id="Vector_26" d="M164.442 33.695V27.1411H165.357V33.421C165.357 33.7851 165.493 33.8826 165.902 33.8826V34.6972C164.947 34.7947 164.442 34.6577 164.442 33.695Z" fill="white"/>
<path id="Vector_27" d="M166.458 32.9594V30.9291C166.458 29.7318 167.276 29.0839 168.464 29.0839C169.653 29.0839 170.48 29.7331 170.48 30.9291V32.9594C170.48 34.1467 169.663 34.7935 168.464 34.7935C167.266 34.7935 166.458 34.1467 166.458 32.9594ZM167.374 31.0661V32.8224C167.374 33.5975 167.734 33.9702 168.464 33.9702C169.195 33.9702 169.565 33.5975 169.565 32.8224V31.0661C169.565 30.2798 169.204 29.9071 168.464 29.9071C167.725 29.9071 167.374 30.2798 167.374 31.0661Z" fill="white"/>
<path id="Vector_28" d="M172.402 36.3647H171.487V29.1727H172.315L172.402 29.78C172.636 29.3677 173.181 29.0839 173.775 29.0839C174.778 29.0839 175.42 29.8207 175.42 30.8303V33.0483C175.42 34.0591 174.778 34.7947 173.775 34.7947C173.181 34.7947 172.636 34.5195 172.402 34.0887V36.3659V36.3647ZM172.402 31.1734V32.7039C172.402 33.4593 172.859 33.99 173.502 33.99C174.145 33.99 174.505 33.5975 174.505 32.9594V30.9291C174.505 30.2798 174.145 29.8985 173.502 29.8985C172.859 29.8985 172.402 30.4181 172.402 31.1734Z" fill="white"/>
<path id="Vector_29" d="M176.426 34.6972V29.174H177.205L177.273 29.7615C177.555 29.3591 178.023 29.0839 178.666 29.0839C179.309 29.0839 179.787 29.4085 179.971 29.8306C180.253 29.3492 180.819 29.0839 181.46 29.0839C182.425 29.0839 183.019 29.7331 183.019 30.6736V34.6972H182.104V30.8303C182.104 30.212 181.781 29.9083 181.187 29.9083C180.593 29.9083 180.174 30.2811 180.174 31.2043V34.6972H179.259V30.8204C179.259 30.1922 178.937 29.9083 178.343 29.9083C177.749 29.9083 177.34 30.4181 177.34 31.1944V34.6972H176.424H176.426Z" fill="white"/>
<path id="Vector_30" d="M187.132 33.1655H188.049C187.99 34.2159 187.182 34.7935 185.983 34.7935C184.784 34.7935 183.977 34.1467 183.977 32.9594V30.9291C183.977 29.7318 184.795 29.0839 185.983 29.0839C187.171 29.0839 187.998 29.7331 187.998 30.9291V32.2139H184.893V32.8224C184.893 33.5975 185.253 33.9702 185.983 33.9702C186.713 33.9702 187.075 33.695 187.132 33.1668V33.1655ZM184.893 31.0661V31.4092H187.083V31.0661C187.083 30.2798 186.723 29.9071 185.983 29.9071C185.243 29.9071 184.893 30.2798 184.893 31.0661Z" fill="white"/>
<path id="Vector_31" d="M192.939 30.8303V34.6972H192.024V30.929C192.024 30.2798 191.663 29.8985 191.02 29.8985C190.377 29.8985 189.92 30.4181 189.92 31.1734V34.6972H189.005V29.1739H189.833L189.92 29.7812C190.154 29.369 190.699 29.0851 191.294 29.0851C192.297 29.0851 192.939 29.8219 192.939 30.8315V30.8303Z" fill="white"/>
<path id="Vector_32" d="M194.178 33.5974V30.007H193.537V29.1727H194.178V27.8866L195.095 27.7002V29.1739H196V30.0082H195.095V33.4209C195.095 33.8825 195.28 33.9233 195.912 33.8825V34.6971C194.822 34.8823 194.178 34.607 194.178 33.5974Z" fill="white"/>
</g>
<g id="Group_3">
<path id="Vector_33" d="M44.8705 17.6733H61.8637C62.5595 17.6733 62.9062 18.3077 62.9062 19.0741C62.9062 19.8406 62.5583 20.4972 61.8637 20.4972H44.8705C44.1968 20.4972 43.8281 19.8628 43.8281 19.0741C43.8281 18.2854 44.198 17.6733 44.8705 17.6733ZM55.1924 4.77784V5.8072C55.1924 8.65337 58.1471 10.8861 60.907 11.4995C61.6898 11.6748 61.9495 12.6375 61.6457 13.404C61.3419 14.1705 60.7759 14.5642 59.7555 14.3679C57.4733 13.9298 54.5615 12.266 53.4321 10.0333C52.3026 12.2882 49.4116 13.9742 47.1307 14.3902C46.1311 14.5654 45.5443 14.1927 45.2405 13.4262C44.9367 12.6597 45.1976 11.697 45.9792 11.5218C49.0649 10.8207 51.6289 8.61018 51.6289 5.82942V4.77907C51.6289 3.94719 52.4986 3.50903 53.4112 3.50903C54.3239 3.50903 55.1936 3.94719 55.1936 4.77907L55.1924 4.77784Z" fill="white"/>
<path id="Vector_34" d="M73.9018 14.9357C73.9018 16.7969 73.3371 17.4313 71.5118 17.4313H65.8842C64.0589 17.4313 63.4942 16.7969 63.4942 14.9357V6.87975C63.4942 5.0185 64.0589 4.36188 65.8842 4.36188H71.5118C73.3371 4.36188 73.9018 5.0185 73.9018 6.87975V14.9369V14.9357ZM70.5551 7.60055C70.5551 7.11919 70.4461 7.03156 69.9683 7.03156H67.4473C66.9695 7.03156 66.8605 7.11919 66.8605 7.60055V14.1902C66.8605 14.6716 66.9695 14.7592 67.4473 14.7592H69.9683C70.4461 14.7592 70.5551 14.6716 70.5551 14.1902V7.60055ZM79.4425 21.8759C79.4425 22.8176 78.7259 23.2335 77.8132 23.2335C76.9006 23.2335 76.2048 22.8176 76.2048 21.8759V3.87929C76.2048 3.04741 76.9876 2.63147 77.7912 2.63147C78.7259 2.63147 79.4425 3.09061 79.4425 3.87929V9.61607H81.5066C82.2894 9.61607 82.5711 10.2505 82.5711 11.0169C82.5711 11.7834 82.2881 12.44 81.5066 12.44H79.4425V21.8759Z" fill="white"/>
<path id="Vector_35" d="M83.1138 20.4972C82.4401 20.4972 82.0714 19.8628 82.0714 19.0741C82.0714 18.2854 82.4413 17.6732 83.1138 17.6732H100.107C100.803 17.6732 101.15 18.3076 101.15 19.0741C101.15 19.8406 100.802 20.4972 100.107 20.4972H83.1138ZM84.4393 6.22187C84.4393 4.51368 85.0481 3.90149 86.8734 3.90149H97.869C98.6297 3.90149 99.0205 4.49269 99.0205 5.30236C99.0205 6.06883 98.6297 6.70323 97.869 6.70323H88.4597C87.982 6.70323 87.9171 6.76865 87.9171 7.25V8.25715H97.5223C98.283 8.25715 98.6738 8.84835 98.6738 9.63704C98.6738 10.4257 98.283 11.0169 97.5223 11.0169H87.9171V12.0463C87.9171 12.5276 87.982 12.6153 88.4597 12.6153H97.891C98.6517 12.6153 99.0646 13.2287 99.0646 13.9952C99.0646 14.8048 98.6297 15.396 97.869 15.396H86.8513C85.178 15.396 84.4393 14.8925 84.4393 13.009V6.22187Z" fill="white"/>
<path id="Vector_36" d="M107.647 3.87929C111.059 3.87929 113.297 6.00343 113.297 9.00265C113.297 12.0019 111.059 14.1038 107.647 14.1038C104.235 14.1038 101.997 12.0019 101.997 9.00265C101.997 6.00343 104.213 3.87929 107.647 3.87929ZM108.299 20.1245C108.299 20.5848 108.364 20.6502 108.863 20.6502H118.25C119.011 20.6502 119.359 21.2637 119.359 22.0301C119.359 22.7966 119.011 23.431 118.25 23.431H107.364C105.691 23.431 104.887 22.9928 104.887 21.1106V16.929C104.887 16.1193 105.713 15.7034 106.582 15.7034C107.452 15.7034 108.299 16.1193 108.299 16.929V20.1257V20.1245ZM107.647 11.4539C109.233 11.4539 110.124 10.4467 110.124 8.9792C110.124 7.51168 109.233 6.52675 107.647 6.52675C106.061 6.52675 105.148 7.51168 105.148 8.9792C105.148 10.4467 106.061 11.4539 107.647 11.4539ZM115.47 3.85708C115.47 3.06839 116.253 2.63147 117.099 2.63147C117.945 2.63147 118.728 3.06963 118.728 3.85708V16.381C118.728 17.3227 118.012 17.7387 117.099 17.7387C116.186 17.7387 115.47 17.3227 115.47 16.381V3.85831V3.85708Z" fill="white"/>
<path id="Vector_37" d="M120.75 16.0305C122.423 14.3889 123.726 12.5709 123.726 8.32382V7.29446H121.575C120.814 7.29446 120.511 6.5934 120.511 5.87137C120.511 5.14933 120.859 4.5137 121.575 4.5137H129.05C129.767 4.5137 130.137 5.17032 130.137 5.87137C130.137 6.57242 129.811 7.29446 129.05 7.29446H126.964V8.2584C126.964 12.3968 128.093 14.3889 129.833 15.812C130.485 16.3378 130.485 17.3005 129.963 17.9361C129.441 18.5705 128.637 18.6582 128.028 18.2422C126.964 17.498 125.79 15.9428 125.313 14.4111C124.878 15.8996 123.726 17.6955 122.597 18.4175C121.793 18.9211 121.055 18.5705 120.642 18.067C120.185 17.4758 120.142 16.6217 120.751 16.0305H120.75ZM133.939 4.2076V9.70247H135.416V3.81388C135.416 3.06963 136.112 2.63147 136.981 2.63147C137.849 2.63147 138.589 3.06963 138.589 3.81388V21.9425C138.589 22.8398 137.893 23.2348 136.981 23.2348C136.068 23.2348 135.416 22.841 135.416 21.9425V12.5721H133.939V21.5488C133.939 22.4461 133.265 22.8188 132.375 22.8188C131.484 22.8188 130.788 22.4461 130.788 21.5488V4.2076C130.788 3.46335 131.484 3.04741 132.375 3.04741C133.265 3.04741 133.939 3.46335 133.939 4.2076Z" fill="white"/>
<path id="Vector_38" d="M139.959 17.7609C139.416 16.9722 139.633 16.1193 140.242 15.7466C143.436 13.7545 145.023 11.4551 145.24 7.95231C145.305 7.31791 145.197 7.23028 144.61 7.23028H141.133C140.438 7.23028 140.025 6.63907 140.025 5.85039C140.025 5.0617 140.438 4.4705 141.133 4.4705H146.435C147.957 4.4705 148.544 4.84324 148.544 6.66005C148.544 11.7834 146.479 15.5269 142.111 18.1978C141.307 18.6792 140.525 18.5705 139.96 17.7596L139.959 17.7609ZM157.713 21.9425C157.713 22.8398 157.017 23.2348 156.104 23.2348C155.192 23.2348 154.54 22.841 154.54 21.9425V12.5721H152.998V21.5488C152.998 22.4461 152.324 22.8188 151.433 22.8188C150.543 22.8188 149.847 22.4461 149.847 21.5488V4.2076C149.847 3.46335 150.543 3.04741 151.433 3.04741C152.324 3.04741 152.998 3.46335 152.998 4.2076V9.70247H154.54V3.81388C154.54 3.06963 155.236 2.63147 156.104 2.63147C156.973 2.63147 157.713 3.06963 157.713 3.81388V21.9425Z" fill="white"/>
<path id="Vector_39" d="M169.512 10.7108C169.512 12.3524 168.86 12.9004 167.165 12.9004H161.537C159.777 12.9004 159.19 12.3536 159.19 10.7108V4.42729C159.19 3.68303 159.973 3.33251 160.776 3.33251C161.689 3.33251 162.45 3.68303 162.45 4.42729V5.87259H166.231V4.42729C166.231 3.68303 167.035 3.33251 167.818 3.33251C168.752 3.33251 169.513 3.68303 169.513 4.42729V10.7108H169.512ZM163.471 23.8259C161.82 23.8259 161.363 23.3878 161.363 21.8339V19.6443C161.363 18.3743 161.689 17.8275 163.101 17.8275H171.12C171.533 17.8275 171.62 17.7399 171.62 17.3671V17.1919C171.62 16.8413 171.555 16.7315 171.12 16.7315H162.32C161.603 16.7315 161.277 16.1847 161.277 15.4392C161.277 14.6938 161.603 14.147 162.32 14.147H173.033C174.597 14.147 175.054 14.6506 175.054 15.9638V18.1533C175.054 19.5542 174.663 20.1022 173.033 20.1022H165.319C164.906 20.1022 164.797 20.1899 164.797 20.5404V20.7156C164.797 21.1316 164.906 21.197 165.297 21.197H174.815C175.532 21.197 175.901 21.766 175.901 22.4893C175.901 23.2125 175.532 23.8247 174.815 23.8247H163.471V23.8259ZM162.45 9.70369C162.45 10.2727 162.537 10.2949 163.014 10.2949H165.643C166.165 10.2949 166.23 10.2295 166.23 9.66049V8.43489H162.448V9.70493L162.45 9.70369ZM171.815 3.8583C171.815 3.06961 172.576 2.63269 173.423 2.63269C174.271 2.63269 175.053 3.07085 175.053 3.8583V6.7489H177.117C177.899 6.7489 178.181 7.34011 178.181 8.10658C178.181 8.91624 177.898 9.50745 177.117 9.50745H175.053V12.0475C175.053 12.9893 174.357 13.383 173.423 13.383C172.49 13.383 171.815 12.9893 171.815 12.0475V3.8583Z" fill="white"/>
<path id="Vector_40" d="M182.853 16.8414V14.6518H178.92C178.246 14.6518 177.79 14.0828 177.79 13.2287C177.79 12.419 178.247 11.8278 178.92 11.8278H184.592C186.613 11.8278 188.612 11.5872 189.654 11.3465C190.306 11.1934 190.85 11.5872 190.98 12.3758C191.089 13.1423 190.893 13.7767 190.219 13.9742C189.372 14.2371 187.655 14.5 186.112 14.5654V16.9734C186.112 17.8275 185.395 18.178 184.483 18.178H184.353V20.1047C184.353 20.5651 184.418 20.6305 184.895 20.6305H194.869C195.63 20.6305 195.999 21.2439 195.999 22.0104C195.999 22.7768 195.629 23.4113 194.869 23.4113H183.287C181.614 23.4113 180.94 22.9521 180.94 21.0687V18.0694C180.94 17.2375 181.765 16.8216 182.656 16.8216C182.721 16.8216 182.786 16.8438 182.852 16.8438L182.853 16.8414ZM184.549 11.149C181.463 11.149 179.399 9.63829 179.399 7.16486C179.399 4.69143 181.463 3.17948 184.549 3.17948C187.634 3.17948 189.743 4.69019 189.743 7.16486C189.743 9.63952 187.679 11.149 184.549 11.149ZM184.549 5.67512C183.332 5.67512 182.549 6.26633 182.549 7.18584C182.549 8.03994 183.332 8.65336 184.549 8.65336C185.765 8.65336 186.591 8.03994 186.591 7.18584C186.591 6.26633 185.808 5.67512 184.549 5.67512ZM195.435 3.87929V17.8473C195.435 18.789 194.739 19.1827 193.806 19.1827C192.873 19.1827 192.177 18.789 192.177 17.8473V17.4967H189.374C188.678 17.4967 188.309 16.8401 188.309 16.0959C188.309 15.3516 188.679 14.716 189.374 14.716H192.177V3.87929C192.177 3.09061 192.915 2.63147 193.806 2.63147C194.697 2.63147 195.435 3.09061 195.435 3.87929Z" fill="white"/>
</g>
</g>
<defs>
<clipPath id="clip0_4_53">
<rect width="196" height="38" fill="white"/>
</clipPath>
</defs>
</svg>
