<svg width="18" height="17" viewBox="0 0 18 17" fill="none" xmlns="http://www.w3.org/2000/svg">
<path d="M7.5 10.75L5.19356 13.0853C4.87184 13.411 4.71098 13.5739 4.57271 13.5854C4.45276 13.5953 4.33531 13.5471 4.25697 13.4557C4.16667 13.3504 4.16667 13.1215 4.16667 12.6637V11.4937C4.16667 11.083 3.83031 10.7858 3.4239 10.7262V10.7262C2.44031 10.5822 1.66783 9.80969 1.52376 8.8261C1.5 8.66391 1.5 8.47039 1.5 8.08333V4.6C1.5 3.33988 1.5 2.70982 1.74524 2.22852C1.96095 1.80516 2.30516 1.46095 2.72852 1.24524C3.20982 1 3.83988 1 5.1 1H10.65C11.9101 1 12.5402 1 13.0215 1.24524C13.4448 1.46095 13.789 1.80516 14.0048 2.22852C14.25 2.70982 14.25 3.33988 14.25 4.6V7.75M14.25 16L12.6177 14.8652C12.3882 14.7056 12.2735 14.6259 12.1487 14.5693C12.0378 14.5191 11.9213 14.4826 11.8017 14.4606C11.6669 14.4357 11.5271 14.4357 11.2477 14.4357H9.9C9.05992 14.4357 8.63988 14.4357 8.31901 14.2722C8.03677 14.1284 7.8073 13.8989 7.66349 13.6167C7.5 13.2958 7.5 12.8758 7.5 12.0357V10.15C7.5 9.30992 7.5 8.88988 7.66349 8.56901C7.8073 8.28677 8.03677 8.0573 8.31901 7.91349C8.63988 7.75 9.05992 7.75 9.9 7.75H14.1C14.9401 7.75 15.3601 7.75 15.681 7.91349C15.9632 8.0573 16.1927 8.28677 16.3365 8.56901C16.5 8.88988 16.5 9.30992 16.5 10.15V12.1857C16.5 12.8846 16.5 13.2341 16.3858 13.5097C16.2336 13.8773 15.9416 14.1693 15.574 14.3215C15.2984 14.4357 14.9489 14.4357 14.25 14.4357V16Z" stroke="white" stroke-opacity="0.5" stroke-width="2" stroke-linecap="round" stroke-linejoin="round"/>
</svg>
