<svg width="16" height="17" viewBox="0 0 16 17" fill="none" xmlns="http://www.w3.org/2000/svg">
<path d="M8.73673 1.57306C8.47324 1.36812 8.34149 1.26565 8.19601 1.22626C8.06765 1.19151 7.93235 1.19151 7.80399 1.22626C7.65851 1.26565 7.52677 1.36812 7.26327 1.57306L2.17654 5.5294C1.83652 5.79387 1.6665 5.9261 1.54402 6.0917C1.43552 6.23839 1.3547 6.40365 1.30552 6.57935C1.25 6.7777 1.25 6.99308 1.25 7.42385V12.85C1.25 13.6901 1.25 14.1102 1.41349 14.431C1.5573 14.7133 1.78677 14.9427 2.06901 15.0866C2.38988 15.25 2.80992 15.25 3.65 15.25H5.15C5.36002 15.25 5.46503 15.25 5.54525 15.2092C5.61581 15.1732 5.67317 15.1159 5.70913 15.0453C5.75 14.9651 5.75 14.8601 5.75 14.65V9.70005C5.75 9.28001 5.75 9.06999 5.83175 8.90956C5.90365 8.76843 6.01839 8.6537 6.15951 8.58179C6.31994 8.50005 6.52996 8.50005 6.95 8.50005H9.05C9.47004 8.50005 9.68006 8.50005 9.84049 8.58179C9.98161 8.6537 10.0963 8.76843 10.1683 8.90956C10.25 9.06999 10.25 9.28001 10.25 9.70005V14.65C10.25 14.8601 10.25 14.9651 10.2909 15.0453C10.3268 15.1159 10.3842 15.1732 10.4548 15.2092C10.535 15.25 10.64 15.25 10.85 15.25H12.35C13.1901 15.25 13.6101 15.25 13.931 15.0866C14.2132 14.9427 14.4427 14.7133 14.5865 14.431C14.75 14.1102 14.75 13.6901 14.75 12.85V7.42385C14.75 6.99308 14.75 6.7777 14.6945 6.57935C14.6453 6.40365 14.5645 6.23839 14.456 6.0917C14.3335 5.9261 14.1635 5.79387 13.8235 5.52941L8.73673 1.57306Z" stroke="white" stroke-opacity="0.5" stroke-width="2" stroke-linecap="round" stroke-linejoin="round"/>
</svg>
