<?xml version="1.0" encoding="UTF-8"?><svg id="Layer_2" xmlns="http://www.w3.org/2000/svg" viewBox="0 0 1072.7 1880"><defs><style>.cls-1{fill:#ffce55;stroke-width:0px;}</style></defs><g id="_Ñëîé_1"><polygon class="cls-1" points="917.6 130.3 917.6 792.7 844.8 792.7 844.8 203 504.2 203 504.2 130.3 917.6 130.3"/><polygon class="cls-1" points="917.6 1088.5 917.6 1749.7 504.2 1749.7 504.2 1677 844.8 1677 844.8 1088.5 917.6 1088.5"/><path class="cls-1" d="M0,169.7v1546.7l432.7,163.6V0L0,169.7ZM370.9,962.8c-4.1,11.8-11.3,19.7-19.4,19.7-12.7,0-23-19-23-42.4s10.3-42.4,23-42.4,15.3,7.8,19.4,19.7c2.3,6.6,3.6,14.4,3.6,22.8s-1.3,16.2-3.6,22.8Z"/><polygon class="cls-1" points="486.7 940 779.4 1109 779.4 1017 1072.7 1017 1072.7 864.2 779.4 864.2 779.4 771 486.7 940"/></g></svg>