<?xml version="1.0" encoding="UTF-8"?><svg id="Layer_2" xmlns="http://www.w3.org/2000/svg" viewBox="0 0 19.7 28.3"><defs><style>.cls-1{fill:#d5a170;stroke-width:0px;}</style></defs><g id="Isolation_Mode"><path class="cls-1" d="M18.9,10.5c-.5-.5-1.2-.8-2-.8h0v-3c0-1.8-.8-3.5-2.1-4.7-1.3-1.2-3-1.9-4.9-1.9s-3.6.7-4.9,1.9c-1.3,1.2-2.1,2.9-2.1,4.7v3h0c-.8,0-1.5.3-2,.8C.3,11,0,11.7,0,12.5v13c0,.8.3,1.5.8,2,.5.5,1.2.8,2,.8h13.9c.8,0,1.5-.3,2-.8.5-.5.8-1.2.8-2v-13c0-.8-.3-1.5-.8-2ZM4.8,6.6c0-1.3.5-2.5,1.5-3.3.9-.9,2.2-1.4,3.6-1.4s2.7.5,3.6,1.4c.9.9,1.5,2,1.5,3.3v3H4.8v-3ZM17.8,25.5c0,.3-.1.5-.3.7-.2.2-.4.3-.7.3H2.9c-.3,0-.5-.1-.7-.3-.2-.2-.3-.4-.3-.7v-13c0-.3.1-.5.3-.7.2-.2.4-.3.7-.3h13.9c.3,0,.5.1.7.3.2.2.3.4.3.7v13Z"/><path class="cls-1" d="M11.5,17.3c0-.9-.7-1.7-1.7-1.7s-1.7.7-1.7,1.7.3,1.1.7,1.4l-.4,3.5h2.6l-.4-3.4c.5-.3.8-.8.8-1.4Z"/></g></svg>