<?xml version="1.0" encoding="UTF-8"?><svg id="Layer_2" xmlns="http://www.w3.org/2000/svg" viewBox="0 0 54.2 83.2"><defs><style>.cls-1{fill:#f6b776;}.cls-1,.cls-2,.cls-3,.cls-4,.cls-5,.cls-6{stroke-width:0px;}.cls-2{fill:#222;}.cls-3{fill:#e8e6de;}.cls-4{fill:#f9cda0;}.cls-5{fill:#e06221;}.cls-6{fill:#f3753c;}</style></defs><g id="Layer_1-2"><path class="cls-6" d="M17.3,67.8c-2.4-1.4-5-2.8-7.8-3-2.8-.2-5.9,1.3-6.7,4-.4,1.5,0,3.1.6,4.5,1.1,2.1,2.9,3.7,4.9,4.8,2,1.2,4.2,1.9,6.5,2.6,3.9,1.2,7.8,2.2,11.9,2.5,4,.3,8.2-.3,11.8-2.1,3.6-1.8,6.7-4.9,7.9-8.8-3.6,1.6-7.6,1.3-11.5,1.5-3.6.1-7.2.6-10.8.7-3.6,0-7.3-.3-10.6-1.9-.8-.4-1.8-1-1.8-2,0-1.2,1.4-1.9,2.6-2,1.2-.1,2.6-.2,3.3-1.2l-.2.5Z"/><path class="cls-4" d="M34.9,73.7c-1.5,0-3.1.2-4.6.3l4.3,2.4-4.3,1.3,4.4,1.5-4.4,3.9c2.9-.2,5.7-.8,8.3-2.1,3.6-1.8,6.7-4.9,7.9-8.8-3.6,1.6-7.6,1.3-11.5,1.5Z"/><path class="cls-5" d="M38.2,50.8c-2.6-3.1-6.8-4.7-10.7-4l1.4-.3c-.5,0-1,0-1.6,0h0c-.4,0-.7,0-1.1,0-.4,0-.7,0-1.1,0h0c-.5.1-1,.1-1.6.2l1.4.3c-3.9-.6-8.2.9-10.7,4-2.8,3.4-3.5,8.5-1.7,12.6,1.2,2.7,3.3,5,6,6.3,2.4,1.2,5.1,1.5,7.7,1.1,2.6.5,5.4.1,7.7-1.1,2.7-1.3,4.8-3.6,6-6.3,1.8-4.1,1.1-9.2-1.7-12.6Z"/><path class="cls-1" d="M23.2,69.5s-5.5-5.1-11.4-2.3c-.3.1-.5.5-.5.8,0,1.2.3,4,4.6,3.7,5.5-.4,7.4-2.1,7.4-2.1Z"/><path class="cls-1" d="M29.3,69.5s5.5-5.1,11.4-2.3c.3.1.5.5.5.8,0,1.2-.3,4-4.6,3.7-5.5-.4-7.4-2.1-7.4-2.1Z"/><path class="cls-6" d="M21.2,48.9c-1.6-.7-3.5.6-4.1,2.3-.6,1.7-.2,3.5.2,5.2.8,3.6,1.7,7.2,2.5,10.7.3,1.5.7,3,1.6,4.3.9,1.2,2.5,2.1,4,1.6,1.5-5-2-10.3-1.4-15.5.2-1.7.8-3.4.7-5.1,0-1.7-1-3.6-2.6-4l-.9.5Z"/><path class="cls-4" d="M20.3,69c.3.8.6,1.6,1.1,2.3.9,1.2,2.5,2.1,4,1.6.4-1.3.4-2.6.3-3.9h-5.4Z"/><path class="cls-6" d="M31.5,48.9c1.6-.7,3.5.6,4.1,2.3.6,1.7.2,3.5-.2,5.2-.8,3.6-1.7,7.2-2.5,10.7-.3,1.5-.7,3-1.6,4.3-.9,1.2-2.5,2.1-4,1.6-1.5-5,2-10.3,1.4-15.5-.2-1.7-.8-3.4-.7-5.1,0-1.7,1-3.6,2.6-4l.9.5Z"/><path class="cls-4" d="M32.3,69c-.3.8-.6,1.6-1.1,2.3-.9,1.2-2.5,2.1-4,1.6-.4-1.3-.4-2.6-.3-3.9h5.4Z"/><path class="cls-3" d="M42.9,41.7c.2-1.4-.5-2.9-1.4-4-1.7-2.1-4.1-3.6-6.8-4-2.6-.4-5.4.2-7.6,1.7h0c0,0-.1,0-.2,0,0,0-.1,0-.2,0h0c-2.2-1.4-5-2.1-7.6-1.7-2.7.4-5.1,1.9-6.8,4-.9,1.1-1.6,2.6-1.4,4,.1,1.4,1.3,2.8,2.8,2.8-1.2,0-2.3,1.2-2.1,2.4.2,1.2,1.7,2,2.8,1.5-.8.7-.9,2-.4,2.9.6.9,1.6,1.4,2.7,1.6,1.1.2,2.1,0,3.2-.2-.7.2-.8,1.2-.4,1.8.4.6,1.2.8,1.9,1,1.8.5,3.6,1,5.4,1.4h0s0,0,0,0c0,0,0,0,0,0h0c1.8-.5,3.6-1,5.4-1.5.7-.2,1.5-.4,1.9-1,.4-.6.3-1.6-.4-1.8,1.1.2,2.1.3,3.2.2,1.1-.2,2.1-.7,2.7-1.6.6-.9.5-2.2-.4-2.9,1.1.5,2.6-.3,2.8-1.5.2-1.2-.9-2.5-2.1-2.4,1.5,0,2.6-1.4,2.8-2.8Z"/><path class="cls-4" d="M16.5,28.9c-2.5.3-4.9,1.2-7.3,2.1h0c-.1,0-.2.2-.4.3,0,0,0,0,0,0-.1,0-.2.2-.4.3,0,0,0,0,0,0-.1.1-.3.2-.5.4,0,0,0,0-.1,0-.1.1-.3.2-.4.4,0,0,0,0,0,0-.2.1-.3.3-.5.4,0,0,0,0-.1.1-.1.1-.3.3-.4.4,0,0,0,0,0,0-.1.2-.3.3-.4.5,0,0,0,0,0,.1-.1.2-.3.3-.4.5,0,0,17.6-2.8,18.9,6.8h.4s0,0,0-.1c0-6.6-2.4-10.6-8.1-12.4Z"/><path class="cls-4" d="M45.1,31.1c-2.4-.9-4.8-1.8-7.3-2.1-5.6,1.8-8,5.8-8.1,12.4,0,0,0,0,0,.1h.4c.8-6,8-7.1,13.3-7.2,2.9,0,5.2.3,5.6.4-1-1.3-3-2.9-3.9-3.6Z"/><path class="cls-4" d="M32.2,9.8S33.7-1.1,45.8,0c0,0,.8,12.8-8.3,14.5,0,0-1.5-5.5-5.2-4.8Z"/><path class="cls-6" d="M34.9,10.5C40.1,2.9,45.8,0,45.8,0c-12.1-1.2-13.5,9.7-13.5,9.7,1-.2,1.9.1,2.6.7Z"/><path class="cls-4" d="M22,9.8S20.6-1.1,8.5,0c0,0-.8,12.8,8.3,14.5,0,0,1.5-5.5,5.2-4.8Z"/><path class="cls-6" d="M19.4,10.5C14.1,2.9,8.5,0,8.5,0c12.1-1.2,13.5,9.7,13.5,9.7-1-.2-1.9.1-2.6.7Z"/><path class="cls-6" d="M7.8,32.1c.2-.1.3-.3.5-.4-.1.1-.3.2-.5.4Z"/><path class="cls-6" d="M8.8,31.3c.1-.1.3-.2.4-.3-.1,0-.2.2-.4.3Z"/><path class="cls-6" d="M6.7,33c.2-.1.3-.3.5-.4-.2.1-.3.3-.5.4Z"/><path class="cls-6" d="M8.3,31.7c.1-.1.3-.2.4-.3-.1,0-.2.2-.4.3Z"/><path class="cls-6" d="M6.2,33.6c.1-.1.3-.3.4-.4-.1.1-.3.3-.4.4Z"/><path class="cls-6" d="M30.1,41.4h0c.8-6,8-7.1,13.2-7.2-5.3,0-12.5,1.1-13.3,7.2Z"/><path class="cls-6" d="M5.2,34.6c.1-.1.2-.3.4-.5-.1.2-.3.3-.4.5Z"/><path class="cls-6" d="M54.2,23.6c-9.7,0-10.4-2.4-10.4-2.4-8-19-16.7-13.1-16.7-13.1,0,0-8.7-6-16.7,13.1,0,0-.7,2.4-10.4,2.4,0,0,2.3,3.6,7.9,3.2,0,0-3.3,2.4-5.1,1.4,0,0,2.4,3.1,6.9,2.5,0,0-.2.1-.5.3,2.4-.9,4.8-1.8,7.3-2.1,5.6,1.8,8,5.8,8.1,12.4,0,0,0,0,0,.1h5.1s0,0,0-.1c0-6.6,2.4-10.6,8.1-12.4,2.5.3,4.9,1.2,7.3,2.1.9.7,2.9,2.3,3.9,3.6,0,0,0,0,0,0-1.3-1.7-4.4-3.9-4.4-3.9,4.5.5,6.9-2.5,6.9-2.5-1.9,1-5.1-1.4-5.1-1.4,5.6.4,7.9-3.2,7.9-3.2Z"/><path class="cls-6" d="M7.3,32.6c.1-.1.3-.2.4-.4-.1.1-.3.2-.4.4Z"/><path class="cls-6" d="M5.7,34.1c.1-.2.3-.3.4-.5-.1.2-.3.3-.4.5Z"/><path class="cls-4" d="M6.6,33.2s0,0,.1-.1c0,0,0,0-.1.1Z"/><path class="cls-4" d="M6.1,33.6s0,0,0,0c0,0,0,0,0,0Z"/><path class="cls-4" d="M5.6,34.2s0,0,0-.1c0,0,0,0,0,.1Z"/><path class="cls-4" d="M8.7,31.4s0,0,0,0c0,0,0,0,0,0Z"/><path class="cls-4" d="M8.3,31.7s0,0,0,0c0,0,0,0,0,0Z"/><path class="cls-4" d="M7.2,32.6s0,0,0,0c0,0,0,0,0,0Z"/><path class="cls-4" d="M7.7,32.2s0,0,.1,0c0,0,0,0-.1,0Z"/><path class="cls-4" d="M43.4,34.3c3.1,0,5.6.4,5.6.4,0,0,0,0,0,0-.4,0-2.7-.4-5.6-.4Z"/><path class="cls-2" d="M34.2,20.1c0,1.1-.9,2-2,2s-2-.9-2-2,.9-2,2-2,2,.9,2,2Z"/><circle class="cls-2" cx="22" cy="20.1" r="2"/><circle class="cls-2" cx="27.2" cy="41.7" r="3.1"/></g></svg>