<?xml version="1.0" encoding="UTF-8"?><svg id="Layer_2" xmlns="http://www.w3.org/2000/svg" viewBox="0 0 56.4 69.5"><defs><style>.cls-1{fill:#f99;}.cls-1,.cls-2,.cls-3,.cls-4,.cls-5,.cls-6,.cls-7{stroke-width:0px;}.cls-2{fill:#505050;}.cls-4{fill:#fff;}.cls-5{fill:#c3bec5;}.cls-6{fill:#e2e2e2;}.cls-7{fill:#e4e2e5;}</style></defs><g id="Layer_1-2"><path class="cls-5" d="M41.2,48.5H15.7l-6.6,9.8s-.5,9.3,9.7,7.1l4.1-6.7,5.6.2,5.6-.2,4.1,6.7c10.1,2.1,9.7-7.1,9.7-7.1l-6.6-9.8Z"/><path class="cls-3" d="M18.9,66.9c-2,3-6.6,3.5-10.2,1-3.6-2.4-5-6.8-3-9.8,2-3,6.6-3.5,10.2-1s5,6.8,3,9.8Z"/><path class="cls-3" d="M38,66.9c2,3,6.6,3.5,10.2,1,3.6-2.4,5-6.8,3-9.8-2-3-6.6-3.5-10.2-1-3.6,2.4-5,6.8-3,9.8Z"/><path class="cls-2" d="M17,66.5c-1.4,2.2-4.7,2.5-7.4.8-2.6-1.7-3.6-4.9-2.2-7.1,1.4-2.2,4.7-2.5,7.4-.8,2.6,1.7,3.6,4.9,2.2,7.1Z"/><path class="cls-2" d="M39.8,66.5c1.4,2.2,4.7,2.5,7.4.8,2.6-1.7,3.6-4.9,2.2-7.1-1.4-2.2-4.7-2.5-7.4-.8-2.6,1.7-3.6,4.9-2.2,7.1Z"/><path class="cls-3" d="M20.1,27.4s-10.3,2.2-16,7.1c-3,2.6-5.6,6.5-3,10.2,1,1.4,3.5,2.4,6.5,1.1,6-2.6,13.7-10.1,13.7-10.1l-1.2-8.3Z"/><path class="cls-3" d="M36.3,27.4s10.3,2.2,16,7.1c3,2.6,5.6,6.5,3,10.2-1,1.4-3.5,2.4-6.5,1.1-6-2.6-13.7-10.1-13.7-10.1l1.2-8.3Z"/><path class="cls-7" d="M28.4,60.7c-9.9,0-18-8.1-18-18s.8-6.1,2.4-8.9l.4-.7.2.8c1.7,6.1,7.8,10.3,15,10.3s13.3-4.2,15-10.3l.2-.8.4.7c1.6,2.8,2.4,5.8,2.4,8.9,0,9.9-8.1,18-18,18Z"/><path class="cls-3" d="M28.4,44.4c7.5,0,13.8-4.5,15.5-10.7-3-6.1-8.8-9.7-15.5-9.7s-12.5,3.9-15.5,9.7c1.7,6.1,8,10.7,15.5,10.7Z"/><path class="cls-3" d="M34.3,4.4s2.6-7.3,10.3-3.1c7.6,4.2-.7,11.4-.7,11.4l-9.5-8.3Z"/><path class="cls-3" d="M22.6,4.4s-2.6-7.3-10.3-3.1c-7.6,4.2.7,11.4.7,11.4l9.5-8.3Z"/><path class="cls-7" d="M45.5,15.7c0,7.1-7.7,12.9-17.1,12.9s-17.1-5.8-17.1-12.9S19,2.8,28.4,2.8s17.1,5.8,17.1,12.9Z"/><path class="cls-3" d="M29.9,15.7s-1.8-10.3,4.5-8.3c6.3,2,12.3,11.5-4.5,8.3Z"/><path class="cls-6" d="M36.2,12.7c0,1.5-1.2,2.7-2.7,2.7s-2.7-1.2-2.7-2.7,1.2-2.7,2.7-2.7,2.7,1.2,2.7,2.7Z"/><path class="cls-4" d="M21.8,12.7c0,.8.7,1.5,1.5,1.5s1.5-.7,1.5-1.5-.7-1.5-1.5-1.5-1.5.7-1.5,1.5Z"/><path class="cls-3" d="M27,15.7s1.8-10.3-4.5-8.3c-6.3,2-12.3,11.5,4.5,8.3Z"/><path class="cls-3" d="M34.8,12.7c0,.7-.6,1.3-1.3,1.3s-1.3-.6-1.3-1.3.6-1.3,1.3-1.3,1.3.6,1.3,1.3Z"/><path class="cls-6" d="M26.1,12.7c0,1.5-1.2,2.7-2.7,2.7s-2.7-1.2-2.7-2.7,1.2-2.7,2.7-2.7,2.7,1.2,2.7,2.7Z"/><path class="cls-3" d="M24.6,12.7c0,.7-.6,1.3-1.3,1.3s-1.3-.6-1.3-1.3.6-1.3,1.3-1.3,1.3.6,1.3,1.3Z"/><path class="cls-3" d="M28.7,14.4c-11.3,1,0,6.1,0,6.1,0,0,11.3-5.1,0-6.1Z"/><path class="cls-1" d="M28.7,20.5c0,.2-.2.3-.3.5h.5c0-.2-.2-.3-.3-.5Z"/><path class="cls-1" d="M28.9,21h-.5c-.6,1-1.1,1.6-1.7,1.9.5.5,1.2.9,1.9.9s1.5-.3,1.9-.9c-.5-.3-1.1-.9-1.7-1.9Z"/><path class="cls-3" d="M25.6,23.5c-1.9,0-3.3-2.5-3.3-2.6l.5-.3s1.3,2.3,2.8,2.3h0c1,0,1.9-.9,2.8-2.6l.5.3c-1,1.9-2.1,2.9-3.3,2.9h0Z"/><path class="cls-3" d="M31.7,23.5h0c-1.2,0-2.3-1-3.3-2.9l.5-.3c.9,1.7,1.8,2.6,2.8,2.6h0c1.6,0,2.8-2.3,2.8-2.3l.5.3c0,.1-1.4,2.6-3.3,2.6Z"/></g></svg>