<?xml version="1.0" encoding="UTF-8"?><svg id="Layer_2" xmlns="http://www.w3.org/2000/svg" viewBox="0 0 63.8 84.5"><defs><style>.cls-1{fill:#f6e0c4;}.cls-1,.cls-2,.cls-3,.cls-4,.cls-5,.cls-6,.cls-7{stroke-width:0px;}.cls-2{fill:#f99;}.cls-3{fill:#252525;}.cls-5{fill:#bf9073;}.cls-6{fill:#d4a884;}.cls-7{fill:#e5cbb5;}</style></defs><g id="Layer_1-2"><path class="cls-5" d="M28.5,39.1s-17.4,16.6-8.3,40.6h21.4s.3-13,3-20.3c2.7-7.3,0-20.7,0-20.7l-16.1.4Z"/><path class="cls-5" d="M10.3,61.1s10.9.9,4.9-8.8C10,43.8-1.6,50.3.2,61.9c1.6,10.4,7.7,16.2,22.6,16.7l-.9-4s-14.3,1.4-17.3-11.5c-.5-2.2-.5-4.4.2-6.5.8-2.4,3.8-5.6,7.1-2.3,3.1,3,1.9,6.5-1.5,6.9Z"/><path class="cls-6" d="M28.5,57.1s4.5,23.8,6.5,25.7c2,1.9,5,3.2,3.9-1.3-.9-3.7-3.3-15.1-3.5-20.1,0-1.7-.9-3.3-2.3-4.2-2.1-1.5-4.8-2.9-4.5-.1Z"/><path class="cls-6" d="M38,58.6c-.2.8-.1,1.7,0,2.5.6,4.1,3.2,20.1,4.5,21.7,1.5,1.8,3.8,3,3-1.2-.7-3.5-2.5-14.3-2.7-19-.2-4.3.8-5.9-.3-6.8-1.4-1.3-4-.6-4.6,2.8Z"/><path class="cls-1" d="M46.3,39.8c-4.4,1.2-9.9,2.2-9.9,2.2,0,0-5.6-1-9.9-2.2,0,0-5.2,3.5.5,9.2,1.4,1.4,3.1,2.3,4.9,3.2,1.3.6,4.5,2.3,4.5,4.4,0-2.1,3.2-3.8,4.5-4.4,1.8-.8,3.5-1.8,4.9-3.2,5.8-5.7.5-9.2.5-9.2Z"/><path class="cls-1" d="M10.7,0s-4.2,13.2,2.7,21.9l12.1-11.6S19.6,3.5,10.7,0Z"/><path class="cls-5" d="M18,17.5l7.4-7.2S19.6,3.5,10.7,0c0,0,7.1,9.4,7.3,17.5Z"/><path class="cls-1" d="M62.1,0s4.2,13.2-2.7,21.9l-12.1-11.6s5.8-6.8,14.7-10.3Z"/><path class="cls-5" d="M54.8,17.5l-7.4-7.2s5.8-6.8,14.7-10.3c0,0-7.1,9.4-7.3,17.5Z"/><path class="cls-6" d="M36.4,8.2s-19.2-.7-27.4,15.5c0,0,6.7,17.1,27.4,18.7,20.6-1.6,27.4-18.7,27.4-18.7-8.2-16.3-27.4-15.5-27.4-15.5Z"/><path class="cls-7" d="M35.6,20.1c0,3.3-2.8,6.1-6.3,6.1s-6.3-2.7-6.3-6.1,2.8-6.1,6.3-6.1,6.3,2.7,6.3,6.1Z"/><path class="cls-4" d="M32.1,21.9c0,1-.8,1.8-1.8,1.8s-1.8-.8-1.8-1.8.8-1.8,1.8-1.8,1.8.8,1.8,1.8Z"/><path class="cls-7" d="M37.6,20.1c0,3.3,2.8,6.1,6.3,6.1s6.3-2.7,6.3-6.1-2.8-6.1-6.3-6.1-6.3,2.7-6.3,6.1Z"/><path class="cls-4" d="M41.1,21.9c0,1,.8,1.8,1.8,1.8s1.8-.8,1.8-1.8-.8-1.8-1.8-1.8-1.8.8-1.8,1.8Z"/><path class="cls-4" d="M36.4,24.8c-10.1,0,0,5.6,0,5.6,0,0,10.1-5.6,0-5.6Z"/><path class="cls-3" d="M30.6,34.3c-.4,0-.7,0-1.1-.2-2.8-.9-3.6-4.9-3.6-5.1h.8c0-.1.7,3.6,3.1,4.3,1.7.5,3.8-.6,6.4-3.2l.6.6c-2.3,2.4-4.4,3.6-6.1,3.6Z"/><path class="cls-3" d="M42.2,34.3c-1.8,0-3.8-1.2-6.1-3.6l.6-.6c2.6,2.6,4.7,3.7,6.4,3.2,2.3-.7,3.1-4.4,3.1-4.4h.8c0,.3-.8,4.4-3.6,5.2-.3.1-.7.2-1.1.2Z"/><path class="cls-2" d="M32.2,34c.5,1.2,2.1,2.1,4,2.1s3.7-1,4.1-2.2c-1.2-.5-2.5-1.5-3.9-2.9-1.5,1.5-2.9,2.5-4.2,3Z"/></g></svg>