<?xml version="1.0" encoding="UTF-8"?><svg id="Layer_2" xmlns="http://www.w3.org/2000/svg" xmlns:xlink="http://www.w3.org/1999/xlink" viewBox="0 0 56.9 82.8"><defs><style>.cls-1{fill:#604548;}.cls-1,.cls-2,.cls-3,.cls-4,.cls-5,.cls-6,.cls-7,.cls-8{stroke-width:0px;}.cls-2{fill:#a09092;}.cls-3{fill:#222;}.cls-4{fill:none;}.cls-5{fill:#755e61;}.cls-9{clip-path:url(#clippath-1);}.cls-6{fill:#6d5558;}.cls-7{fill:#bf9073;}.cls-8{fill:#545454;}.cls-10{clip-path:url(#clippath);}</style><clipPath id="clippath"><path class="cls-4" d="M1.5,44.8c-1.3,3.2-2.1,6.8-1,10,.8,2.3,2.5,4.3,4.7,5.3,2.2,1,4.8,1.1,7.1.3,1.9-10.6,2.5-21.4,1.9-32.1,0,0-8.3,6-12.6,16.4Z"/></clipPath><clipPath id="clippath-1"><path class="cls-4" d="M55.3,44.8c1.3,3.2,2.1,6.8,1,10-.8,2.3-2.5,4.3-4.7,5.3-2.2,1-4.8,1.1-7.1.3-1.9-10.6-3.6-21.4-3-32.1,0,0,9.5,6,13.7,16.4Z"/></clipPath></defs><g id="Layer_1-2"><g class="cls-10"><path class="cls-6" d="M1.5,44.8c-1.3,3.2-2.1,6.8-1,10,.8,2.3,2.5,4.3,4.7,5.3,2.2,1,4.8,1.1,7.1.3,1.9-10.6,3.6-21.4,3-32.1,0,0-9.5,6-13.7,16.4Z"/><path class="cls-1" d="M12.5,61.1c-1.7-.5-3.1-1.7-4-3.2-.9-1.5-1.1-3.4-.7-5l1.1.3c-.3,1.4-.1,3,.6,4.2.7,1.3,1.9,2.2,3.3,2.7l-.3,1.1Z"/><path class="cls-1" d="M11.7,61c-2.6,0-4.4-.7-5.5-2-1.5-1.9-.9-4.3-.9-4.4l1.1.3s-.5,2,.7,3.4c.9,1.2,2.7,1.7,5.2,1.6v1.1c-.2,0-.4,0-.5,0Z"/></g><g class="cls-9"><path class="cls-6" d="M55.3,44.8c1.3,3.2,2.1,6.8,1,10-.8,2.3-2.5,4.3-4.7,5.3-2.2,1-4.8,1.1-7.1.3-1.9-10.6-2.5-21.4-1.9-32.1,0,0,8.3,6,12.6,16.4Z"/><path class="cls-1" d="M44.3,61.1c1.7-.5,3.1-1.7,4-3.2.9-1.5,1.1-3.4.7-5l-1.1.3c.3,1.4.1,3-.6,4.2-.7,1.3-1.9,2.2-3.3,2.7l.3,1.1Z"/><path class="cls-1" d="M45.2,61c2.6,0,4.4-.7,5.5-2,1.5-1.9.9-4.3.9-4.4l-1.1.3s.5,2-.7,3.4c-.9,1.2-2.7,1.7-5.2,1.6v1.1c.2,0,.4,0,.5,0Z"/></g><path class="cls-5" d="M41.6,27.7c-4.1-.5-8.2-.2-12.2.3-4.4-.5-9.9-.8-14-.3-8.2,15.1-9.5,33.8-3.6,50,3.6,0,7.1,0,10.7.1-1-3.2-1.9-6.6-1.1-9.9s3.8-6.2,7.1-5.8c3.3-.5,6.3,2.5,7.1,5.8.8,3.3-.1,6.7-1.1,9.9,3.6,0,7.1,0,10.7-.1,5.9-16.2,4.6-34.8-3.6-50Z"/><path class="cls-7" d="M39.6,44.7c0,7.7-4.7,13.9-10.6,13.9s-10.6-6.2-10.6-13.9,4.7-13.9,10.6-13.9,10.6,6.2,10.6,13.9Z"/><path class="cls-7" d="M24.8,78.7c0-1.7-1.1-3-2.4-3s-1.9.8-2.2,1.9c-.3-1.1-1.2-1.9-2.2-1.9s-1.9.8-2.2,1.9c-.3-1.1-1.2-1.9-2.2-1.9s-2.4,1.4-2.4,3,.8,2.7,1.9,3c1.2.7,2.9,1.1,4.9,1.1s3.7-.4,4.9-1.1c1.1-.3,1.9-1.5,1.9-3Z"/><path class="cls-7" d="M32.1,78.7c0-1.7,1.1-3,2.4-3s1.9.8,2.2,1.9c.3-1.1,1.2-1.9,2.2-1.9s1.9.8,2.2,1.9c.3-1.1,1.2-1.9,2.2-1.9s2.4,1.4,2.4,3-.8,2.7-1.9,3c-1.2.7-2.9,1.1-4.9,1.1s-3.7-.4-4.9-1.1c-1.1-.3-1.9-1.5-1.9-3Z"/><path class="cls-2" d="M33.2,3.2s5.9-6.8,9.9-.7c3.2,4.9-3.9,9-3.9,9l-6-8.4Z"/><path class="cls-5" d="M43.8,5.2s0,0,.1.1c0-.9-.2-1.8-.8-2.7-4-6.2-9.9.7-9.9.7l1.1,1.6c5.9-4,9-.2,9.5.4Z"/><path class="cls-2" d="M23.7,3.2s-5.9-6.8-9.9-.7c-3.2,4.9,3.9,9,3.9,9l6-8.4Z"/><path class="cls-5" d="M13.1,5.2s0,0-.1.1c0-.9.2-1.8.8-2.7,4-6.2,9.9.7,9.9.7l-1.1,1.6c-5.9-4-9-.2-9.5.4Z"/><path class="cls-5" d="M28.5,1.7c-16.4,0-15.4,28.7-15.4,28.7h30.8S44.9,1.7,28.5,1.7Z"/><path class="cls-3" d="M34.6,12.5c0,.9-.7,1.6-1.6,1.6s-1.6-.7-1.6-1.6.7-1.6,1.6-1.6,1.6.7,1.6,1.6Z"/><path class="cls-3" d="M25.5,12.5c0,.9-.7,1.6-1.6,1.6s-1.6-.7-1.6-1.6.7-1.6,1.6-1.6,1.6.7,1.6,1.6Z"/><path class="cls-7" d="M34.3,20.7c0,3.2-2.6,5.9-5.9,5.9s-5.9-2.6-5.9-5.9,2.6-5.9,5.9-5.9,5.9,2.6,5.9,5.9Z"/><path class="cls-3" d="M31.4,18.9c0,1.6-2.9,2.9-2.9,2.9,0,0-2.9-1.3-2.9-2.9s1.3-2.9,2.9-2.9,2.9,1.3,2.9,2.9Z"/><path class="cls-8" d="M26.6,23.6c-1.4,0-2.7-1.3-2.8-1.4l.3-.3s1.5,1.5,2.8,1.2c.6-.1,1-.6,1.4-1.4l.4.2c-.4.9-1,1.5-1.7,1.6-.1,0-.3,0-.4,0Z"/><path class="cls-8" d="M30.3,23.6c-.1,0-.3,0-.4,0-.7-.1-1.3-.7-1.7-1.6l.4-.2c.3.8.8,1.3,1.4,1.4,1.3.3,2.8-1.2,2.8-1.2l.3.3c0,0-1.4,1.4-2.8,1.4Z"/></g></svg>