<?xml version="1.0" encoding="UTF-8"?><svg id="Layer_2" xmlns="http://www.w3.org/2000/svg" viewBox="0 0 20.4 23.1"><defs><style>.cls-1{fill:#d5a170;stroke-width:0px;}</style></defs><g id="Isolation_Mode"><path class="cls-1" d="M13.7,11.4c1.7-1.1,2.8-3,2.8-5.2,0-3.4-2.8-6.2-6.2-6.2C6.8,0,4,2.8,4,6.2c0,2.2,1.1,4.1,2.8,5.2C2.8,12.8,0,16.6,0,21c0,.7,0,1.4.2,2.1l1.6-.3h0c-.1-.6-.2-1.1-.2-1.7,0-2.4,1-4.5,2.5-6.1,1.5-1.5,3.5-2.4,5.8-2.5.1,0,.2,0,.3,0s.2,0,.3,0c2.2,0,4.3,1,5.8,2.5,1.6,1.6,2.5,3.7,2.5,6.1,0,.6,0,1.2-.2,1.7l1.6.3c.1-.7.2-1.4.2-2.1,0-4.4-2.8-8.2-6.8-9.6ZM6.9,9.5c-.8-.8-1.3-2-1.3-3.3,0-1.3.5-2.4,1.3-3.3.8-.8,2-1.3,3.3-1.3,1.3,0,2.4.5,3.3,1.3.8.8,1.3,2,1.3,3.3,0,1.3-.5,2.4-1.3,3.3-.8.8-1.8,1.3-2.9,1.3-.1,0-.2,0-.3,0s-.2,0-.3,0c-1.1,0-2.2-.6-2.9-1.3Z"/></g></svg>