<?xml version="1.0" encoding="UTF-8"?><svg id="Layer_2" xmlns="http://www.w3.org/2000/svg" viewBox="0 0 470.7 377"><defs><style>.cls-1{fill:#ffda6e;}.cls-1,.cls-2{stroke-width:0px;}.cls-2{fill:#efbb37;}</style></defs><g id="Isolation_Mode"><path class="cls-1" d="M235.4,56.4c-82.5,0-149.3,63.9-149.3,142.8s26.1,92.7,65.8,118.4c3,1.9,4.7,5.4,4.3,8.9l-4.3,40c-1,9.3,10.7,14.1,16.6,6.9l25.5-31.5c2.2-2.7,5.8-4,9.3-3.2,10.4,2.2,21.1,3.3,32.2,3.3,82.5,0,149.3-64,149.3-142.8S317.9,56.4,235.4,56.4Z"/><circle class="cls-2" cx="179.9" cy="224.5" r="20.6" transform="translate(-47 47.6) rotate(-13.3)"/><circle class="cls-2" cx="235.4" cy="224.5" r="20.6" transform="translate(-19.7 22.7) rotate(-5.3)"/><circle class="cls-2" cx="291" cy="224.5" r="20.6" transform="translate(-44 73.2) rotate(-13.3)"/><path class="cls-1" d="M114.6,49.3c-27.6,21.6-48.8,51-60.3,84.1h0c.9,0,1.8-.1,2.6-.1,7.1,0,13.8,2.9,18.7,8,1.2-3.4,2.4-6.8,3.8-10.1,0,0,0,0,0,0,0,0,0,0,0,0,.2-.3.7-1.7.9-1.9.5-1.1,1-2.2,1.5-3.3,1.1-2.3,2.3-4.7,3.5-6.9,2.3-4.4,4.9-8.7,7.6-12.9,5.6-8.6,10.5-14.8,17.9-22.5,7.8-8.2,15.7-15.1,24.3-21.3-3.1-7.3-5.5-14.8-7-22.6-4.6,3-9.1,6.2-13.5,9.7Z"/><path class="cls-1" d="M413.8,133.2c.9,0,1.8,0,2.6.1h.1c-4.8-14-11.3-27.4-19.6-39.9-14.4-21.7-33-39.8-54.2-53.7-1.5,7.7-3.8,15.2-7,22.5,12.7,9.1,24.1,19.9,34.4,32.8.3.3.5.7.8,1,0,0,0,0,0,0,0,0,0,0,0,.1,0,0,.1.2.3.3.7,1,1.5,2,2.2,2.9,1.5,2.1,3,4.3,4.4,6.5,2.7,4.2,5.3,8.5,7.6,12.9,4.3,8,6.9,14.1,9.7,22.2,4.8-4.9,11.5-7.9,18.6-7.9Z"/><path class="cls-1" d="M330.4,23.6C301.1,8.2,268.3,0,235.5,0s-15.9.5-23.8,1.4c-27.6,3.3-54,12.1-77.7,25.6,1.1,13.5,4.8,26.2,10.6,37.7,5.2-3.4,10.7-6.5,16.6-9.5,8.6-4.3,15.4-7,25.1-10,4.6-1.4,9.3-2.6,14-3.6,2.3-.5,4.6-.9,6.9-1.3,1.2-.2,2.3-.4,3.5-.6.6,0,1.2-.2,1.7-.3.2,0,.5,0,.6,0,7.4-.9,14.9-1.4,22.3-1.4s4.7,0,7.1.1c10.5.4,17.4,1.3,27.3,3.4,9.6,2.1,19.1,4.9,28.2,8.5,3.4,1.3,7.4,3.2,11.5,5.2,4.3,2.2,8.5,4.5,12.6,7,1.4.8,2.7,1.7,4,2.6,5.8-11.5,9.6-24.2,10.7-37.6-2.1-1.2-4.3-2.4-6.5-3.6Z"/><path class="cls-1" d="M449.2,169.2c-.1,0-.2,0-.3,0l.6-6.4c1-10.1-6.3-19.1-16.4-20.1l-14-1.4-3.4-.3c-2.3-.2-4.6,0-6.7.6-5.9,1.6-9.6,7.4-8.9,13.5,1.1,10.5,1.7,21.2,1.7,32.1,0,28.5-4,55.8-11.2,80.8-2.1,7.4,2.8,15.1,10.5,16,0,0,.1,0,.2,0,0,0,0,0,.1,0l17.4,1.8c10.1,1,19.1-6.3,20.1-16.4l.4-4.4c.1,0,.2,0,.3,0,.8,0,1.6.1,2.4.1,12.2,0,22.6-9.2,23.8-21.6l4.8-48c1.3-13.2-8.3-24.9-21.5-26.3Z"/><path class="cls-1" d="M69.1,187c0-10.9.6-21.6,1.7-32,.6-6-3-11.8-8.9-13.5-2.2-.6-4.5-.9-6.9-.6l-3.4.3-14,1.4c-10.1,1-17.4,10-16.4,20.1l.6,6.4c0,0-.2,0-.3,0-13.2,1.3-22.8,13.1-21.5,26.3l4.8,48c1.2,12.4,11.7,21.6,23.8,21.6s1.6,0,2.4-.1c0,0,.2,0,.3,0l.4,4.4c1,10.1,10,17.4,20.1,16.4l17.4-1.8c.2,0,.3,0,.5,0,0,0,.1,0,.2,0,7.5-1,12.3-8.7,10.2-16-7.2-25.1-11.2-52.3-11.2-80.8Z"/><path class="cls-1" d="M326.5,284.8v13.3c0,2.5-1.4,4.8-3.7,5.7-.7.3-1.5.4-2.3.4h-46.1c-7.1,0-12.8-5.7-12.8-12.8s5.7-12.8,12.8-12.8h46.1c.8,0,1.6.2,2.3.4,2.3.9,3.7,3.3,3.7,5.7Z"/><path class="cls-1" d="M415.6,261.1c-7.4,7.4-14.8,14.8-22.2,22.2-3.8,3.8-7.6,7.5-12.3,10.3-7,4.1-15.1,6.2-23.2,6.2-7.6,0-23.1,0-23.1,0v-16.6c7.8,0,15.5,0,23.3,0,7.1,0,13.9-2.5,19.1-7.3,2.5-2.3,4.9-4.9,7.3-7.3,6.4-6.4,12.8-12.8,19.2-19.2,7.6-7.6,19.4,4.2,11.8,11.8Z"/></g></svg>