<svg width="18" height="18" viewBox="0 0 18 18" fill="none" xmlns="http://www.w3.org/2000/svg">
<path d="M8.25 3.50005H5.1C3.83988 3.50005 3.20982 3.50005 2.72852 3.74528C2.30516 3.961 1.96095 4.30521 1.74524 4.72857C1.5 5.20987 1.5 5.83993 1.5 7.10005V13.4C1.5 14.6602 1.5 15.2902 1.74524 15.7715C1.96095 16.1949 2.30516 16.5391 2.72852 16.7548C3.20982 17 3.83988 17 5.1 17H11.4C12.6601 17 13.2902 17 13.7715 16.7548C14.1948 16.5391 14.539 16.1949 14.7548 15.7715C15 15.2902 15 14.6602 15 13.4V10.25M5.99998 12.5H7.25589C7.62277 12.5 7.80622 12.5 7.97885 12.4586C8.1319 12.4219 8.27822 12.3613 8.41243 12.279C8.5638 12.1862 8.69352 12.0565 8.95294 11.7971L16.125 4.62505C16.7463 4.00373 16.7463 2.99637 16.125 2.37505C15.5037 1.75373 14.4963 1.75373 13.875 2.37505L6.70293 9.5471C6.4435 9.80653 6.31378 9.93625 6.22102 10.0876C6.13878 10.2218 6.07817 10.3681 6.04143 10.5212C5.99998 10.6938 5.99998 10.8773 5.99998 11.2442V12.5Z" stroke="black" stroke-opacity="0.9" stroke-width="2" stroke-linecap="round" stroke-linejoin="round"/>
</svg>
