<svg width="18" height="17" viewBox="0 0 18 17" fill="none" xmlns="http://www.w3.org/2000/svg">
<path d="M6 15.25H12M9 12.25V15.25M5.1 12.25H12.9C14.1601 12.25 14.7902 12.25 15.2715 12.0048C15.6948 11.789 16.039 11.4448 16.2548 11.0215C16.5 10.5402 16.5 9.91012 16.5 8.65V5.35C16.5 4.08988 16.5 3.45982 16.2548 2.97852C16.039 2.55516 15.6948 2.21095 15.2715 1.99524C14.7902 1.75 14.1601 1.75 12.9 1.75H5.1C3.83988 1.75 3.20982 1.75 2.72852 1.99524C2.30516 2.21095 1.96095 2.55516 1.74524 2.97852C1.5 3.45982 1.5 4.08988 1.5 5.35V8.65C1.5 9.91012 1.5 10.5402 1.74524 11.0215C1.96095 11.4448 2.30516 11.789 2.72852 12.0048C3.20982 12.25 3.83988 12.25 5.1 12.25Z" stroke="white" stroke-opacity="0.5" stroke-width="2" stroke-linecap="round" stroke-linejoin="round"/>
</svg>
