<svg width="14" height="17" viewBox="0 0 14 17" fill="none" xmlns="http://www.w3.org/2000/svg">
<path d="M8.5 7.75H4M5.5 10.75H4M10 4.75H4M13 4.6V12.4C13 13.6601 13 14.2902 12.7548 14.7715C12.539 15.1948 12.1948 15.539 11.7715 15.7548C11.2902 16 10.6601 16 9.4 16H4.6C3.33988 16 2.70982 16 2.22852 15.7548C1.80516 15.539 1.46095 15.1948 1.24524 14.7715C1 14.2902 1 13.6601 1 12.4V4.6C1 3.33988 1 2.70982 1.24524 2.22852C1.46095 1.80516 1.80516 1.46095 2.22852 1.24524C2.70982 1 3.33988 1 4.6 1H9.4C10.6601 1 11.2902 1 11.7715 1.24524C12.1948 1.46095 12.539 1.80516 12.7548 2.22852C13 2.70982 13 3.33988 13 4.6Z" stroke="white" stroke-opacity="0.5" stroke-width="2" stroke-linecap="round" stroke-linejoin="round"/>
</svg>
