<svg xmlns="http://www.w3.org/2000/svg" width="96" height="96" viewBox="0 0 96 96">
  <g id="그룹_1957" data-name="그룹 1957" transform="translate(-991 -596)">
    <rect id="사각형_874" data-name="사각형 874" width="96" height="96" transform="translate(991 596)" fill="#ff1313" opacity="0"/>
    <g id="그룹_1956" data-name="그룹 1956" transform="translate(144.217 -3.245)">
      <g id="그룹_405" data-name="그룹 405" transform="translate(894.5 653.813)">
        <g id="다각형_3" data-name="다각형 3" transform="translate(0.5 0.188)" fill="rgba(255,255,255,0)" stroke-linecap="round" stroke-linejoin="round">
          <path d="M 29.27285957336426 28.5000057220459 L 1.727139949798584 28.5000057220459 C 0.8246200084686279 28.5000057220459 0.01583000086247921 28.03370475769043 -0.4363900125026703 27.25265502929688 C -0.8886100053787231 26.47161483764648 -0.8903200030326843 25.53802490234375 -0.4409799873828888 24.75532531738281 L 13.33187007904053 0.7638951539993286 C 13.77637004852295 -0.01041483134031296 14.60715007781982 -0.4914348423480988 15.5 -0.4914348423480988 C 16.39282989501953 -0.4914348423480988 17.22360992431641 -0.0104248309507966 17.66813087463379 0.7638951539993286 L 31.44099044799805 24.75533485412598 C 31.89031982421875 25.53802490234375 31.88861083984375 26.47161483764648 31.4363899230957 27.25265502929688 C 30.98417091369629 28.03370475769043 30.17538070678711 28.5000057220459 29.27285957336426 28.5000057220459 Z" stroke="none"/>
          <path d="M 15.49999618530273 1.008562088012695 C 15.16245746612549 1.008562088012695 14.82492065429688 1.175939559936523 14.63274955749512 1.51069450378418 L 0.8598899841308594 25.50213623046875 C 0.4771709442138672 26.16879463195801 0.9584293365478516 27.0000057220459 1.727140426635742 26.9999942779541 L 29.27285957336426 26.9999942779541 C 30.04160118103027 26.99916839599609 30.52282905578613 26.16879463195801 30.14011001586914 25.50213623046875 L 16.36725044250488 1.51069450378418 C 16.17507553100586 1.175939559936523 15.83753490447998 1.008562088012695 15.49999618530273 1.008562088012695 M 15.5 -1.991434097290039 C 16.92852973937988 -1.991434097290039 18.25777053833008 -1.22181510925293 18.9689998626709 0.0170745849609375 L 32.74187088012695 24.00853538513184 C 33.45005798339844 25.24211502075195 33.44723129272461 26.77318572998047 32.73448181152344 28.00421524047852 C 32.021728515625 29.23525428771973 30.69532012939453 29.99999618530273 29.27286911010742 29.99999618530273 L 1.727140426635742 29.99999618530273 C 0.3047008514404297 30.00001525878906 -1.021739959716797 29.23529434204102 -1.734500885009766 28.00426483154297 C -2.447250366210938 26.77324485778809 -2.450069427490234 25.24215507507324 -1.741859436035156 24.00850486755371 L 12.03099060058594 0.01709556579589844 C 12.74217987060547 -1.221794128417969 14.07143020629883 -1.991434097290039 15.5 -1.991434097290039 Z" stroke="none" fill="#333"/>
        </g>
        <g id="그룹_404" data-name="그룹 404" transform="translate(16 9.321)">
          <line id="선_104" data-name="선 104" transform="translate(0 14.267)" fill="none" stroke="#333" stroke-linecap="round" stroke-linejoin="round" stroke-width="3"/>
          <line id="선_105" data-name="선 105" y1="8.766" fill="none" stroke="#333" stroke-linecap="round" stroke-linejoin="round" stroke-width="3"/>
        </g>
      </g>
      <path id="file-check-02" d="M50.008,32.193V15.8c0-4.831,0-7.247-.94-9.092A8.626,8.626,0,0,0,45.3,2.94C43.453,2,41.037,2,36.206,2H17.8c-4.831,0-7.247,0-9.092.94A8.626,8.626,0,0,0,4.94,6.71C4,8.556,4,10.971,4,15.8V45.708c0,4.831,0,7.247.94,9.092a8.626,8.626,0,0,0,3.77,3.77c1.845.94,4.261.94,9.092.94H27M32.755,23.88H15.5m5.751,8.5H15.5m23-17h-23" transform="translate(862.783 615.245)" fill="none" stroke="#333" stroke-linecap="round" stroke-linejoin="round" stroke-width="3"/>
    </g>
  </g>
</svg>
